<?xml version="1.0" encoding="utf-8"?>
<!-- Generator: Adobe Illustrator 16.0.0, SVG Export Plug-In . SVG Version: 6.00 Build 0)  -->
<!DOCTYPE svg PUBLIC "-//W3C//DTD SVG 1.1//EN" "http://www.w3.org/Graphics/SVG/1.1/DTD/svg11.dtd">
<svg version="1.1" id="Layer_1" xmlns="http://www.w3.org/2000/svg" xmlns:xlink="http://www.w3.org/1999/xlink" x="0px" y="0px"
	 width="164.741px" height="31px" viewBox="17.271 3.25 164.741 31" enable-background="new 17.271 3.25 164.741 31"
	 xml:space="preserve">
<g>
	<g>
		<g>
			<path fill="#FFFFFF" d="M28.259,28.633c-0.197,0-0.397-0.142-0.397-0.339V13.03h-3.596c-0.227,0-0.426-0.169-0.426-0.396V9.292
				c0-0.226,0.2-0.425,0.426-0.425h11.325c0.228,0,0.425,0.199,0.425,0.425v3.342c0,0.227-0.198,0.396-0.425,0.396h-3.596v15.264
				c0,0.197-0.198,0.339-0.396,0.339H28.259z"/>
			<path fill="#FFFFFF" d="M38.397,28.633c-0.225,0-0.396-0.17-0.396-0.396V9.265c0-0.228,0.171-0.397,0.396-0.397h10.307
				c0.2,0,0.397,0.17,0.397,0.397v3.369c0,0.227-0.198,0.396-0.397,0.396h-6.541v3.624h5.011c0.228,0,0.397,0.171,0.397,0.397v3.369
				c0,0.227-0.169,0.396-0.397,0.396h-5.011v3.654h6.541c0.2,0,0.397,0.169,0.397,0.396v3.37c0,0.226-0.198,0.396-0.397,0.396
				H38.397z"/>
			<path fill="#FFFFFF" d="M61.787,28.322c-0.254,0.253-0.538,0.311-0.764,0.311h-7.307c-0.197,0-0.481-0.058-0.737-0.311
				l-1.585-1.587c-0.282-0.282-0.282-0.538-0.282-0.736V11.501c0-0.086,0-0.453,0.282-0.737l1.585-1.585
				c0.312-0.312,0.51-0.312,0.737-0.312h7.334c0.254,0,0.482,0.057,0.736,0.312l1.586,1.585c0.255,0.256,0.311,0.454,0.311,0.737
				v3.03c0,0.198-0.199,0.396-0.396,0.396h-3.371c-0.227,0-0.396-0.198-0.396-0.396v-0.736c0-0.086-0.029-0.142-0.085-0.198
				l-0.482-0.482c-0.056-0.056-0.142-0.085-0.198-0.085h-2.746c-0.056,0-0.142,0.028-0.199,0.085l-0.453,0.482
				c-0.085,0.112-0.114,0.141-0.114,0.255v9.996c0,0.085,0.028,0.169,0.114,0.226l0.396,0.396h3.286l0.396-0.396
				c0.056-0.057,0.085-0.141,0.085-0.197v-0.85c0-0.198,0.169-0.396,0.396-0.396h3.371c0.197,0,0.396,0.198,0.396,0.396v3.2
				c0,0.141-0.028,0.227-0.311,0.509L61.787,28.322z"/>
			<path fill="#FFFFFF" d="M74.955,28.633c-0.197,0-0.397-0.17-0.397-0.396v-7.421h-4.247v7.421c0,0.226-0.198,0.396-0.396,0.396
				h-3.37c-0.227,0-0.397-0.17-0.397-0.396V9.265c0-0.228,0.171-0.397,0.397-0.397h3.37c0.198,0,0.396,0.17,0.396,0.397v7.389h4.247
				V9.265c0-0.228,0.2-0.397,0.397-0.397h3.37c0.226,0,0.396,0.17,0.396,0.397v18.971c0,0.228-0.17,0.396-0.396,0.396L74.955,28.633
				L74.955,28.633z"/>
		</g>
		<g>
			<path fill="#FFFFFF" d="M89.495,28.633c-0.228,0-0.396-0.17-0.396-0.396V9.265c0-0.228,0.169-0.397,0.396-0.397h3.369
				c0.227,0,0.396,0.17,0.396,0.397v18.971c0,0.228-0.169,0.396-0.396,0.396L89.495,28.633L89.495,28.633z"/>
			<path fill="#FFFFFF" d="M104.332,28.633c-0.227,0-0.427-0.197-0.511-0.396l-3.453-9.487v9.485c0,0.199-0.2,0.396-0.397,0.396
				h-3.37c-0.227,0-0.397-0.197-0.397-0.396V9.265c0-0.228,0.171-0.397,0.397-0.397h4.134c0.199,0,0.339,0.141,0.424,0.397
				l3.738,10.874l0.142,0.31V9.265c0-0.228,0.198-0.397,0.397-0.397h3.368c0.227,0,0.396,0.17,0.396,0.397v18.971
				c0,0.199-0.17,0.396-0.396,0.396L104.332,28.633L104.332,28.633z"/>
			<path fill="#FFFFFF" d="M122.625,28.322c-0.197,0.197-0.537,0.311-0.736,0.311h-7.335c-0.31,0-0.509-0.086-0.735-0.311
				l-1.586-1.587c-0.197-0.198-0.312-0.538-0.312-0.792v-2.748c0-0.225,0.198-0.396,0.425-0.396h3.341
				c0.227,0,0.396,0.171,0.396,0.396v1.275h3.568c0.057,0,0.085-0.029,0.142-0.086l0.481-0.452c0.056-0.057,0.086-0.113,0.086-0.198
				v-2.153c0-0.113-0.029-0.197-0.143-0.284l-0.425-0.396c-0.057-0.056-0.085-0.085-0.142-0.085h-5.098
				c-0.31,0-0.51-0.084-0.736-0.312l-1.586-1.585c-0.169-0.17-0.311-0.396-0.311-0.737v-6.681c0-0.283,0.113-0.539,0.311-0.737
				l1.586-1.585c0.313-0.312,0.511-0.312,0.736-0.312h7.335c0.283,0,0.479,0.057,0.736,0.312l1.586,1.585
				c0.196,0.198,0.313,0.481,0.313,0.765v2.916c0,0.228-0.2,0.397-0.426,0.397h-3.342c-0.228,0-0.396-0.169-0.396-0.397V13.03
				h-3.512c-0.086,0-0.142,0.028-0.198,0.085l-0.453,0.453c-0.085,0.085-0.113,0.141-0.113,0.227v2.266
				c0,0.085,0.057,0.142,0.113,0.197l0.396,0.397h5.296c0.396,0,0.479,0.058,0.736,0.312l1.586,1.585
				c0.313,0.341,0.313,0.482,0.313,0.737v6.712c0,0.197-0.058,0.481-0.313,0.735L122.625,28.322z"/>
			<path fill="#FFFFFF" d="M127.667,28.633c-0.226,0-0.396-0.17-0.396-0.396V9.265c0-0.228,0.171-0.397,0.396-0.397h3.369
				c0.228,0,0.396,0.17,0.396,0.397v18.971c0,0.228-0.169,0.396-0.396,0.396L127.667,28.633L127.667,28.633z"/>
			<path fill="#FFFFFF" d="M144.516,28.322c-0.228,0.225-0.452,0.311-0.736,0.311h-9.006c-0.225,0-0.396-0.17-0.396-0.396V9.265
				c0-0.228,0.17-0.397,0.396-0.397h9.006c0.227,0,0.479,0.057,0.736,0.312l1.586,1.585c0.255,0.256,0.312,0.538,0.312,0.737v14.498
				c0,0.197,0,0.425-0.312,0.736L144.516,28.322z M142.166,24.073c0.056-0.086,0.084-0.141,0.084-0.197V13.795
				c0-0.057,0-0.113-0.084-0.198l-0.482-0.482c-0.057-0.085-0.142-0.085-0.197-0.085h-2.946v11.44h3.228L142.166,24.073z"/>
			<path fill="#FFFFFF" d="M149.613,28.633c-0.227,0-0.396-0.17-0.396-0.396V9.265c0-0.228,0.169-0.397,0.396-0.397h10.309
				c0.196,0,0.396,0.17,0.396,0.397v3.369c0,0.227-0.199,0.396-0.396,0.396h-6.542v3.624h5.013c0.227,0,0.396,0.171,0.396,0.397
				v3.369c0,0.227-0.17,0.396-0.396,0.396h-5.013v3.654h6.542c0.196,0,0.396,0.169,0.396,0.396v3.37
				c0,0.226-0.199,0.396-0.396,0.396H149.613z"/>
			<path fill="#FFFFFF" d="M171.22,28.633c-0.227,0-0.425-0.197-0.511-0.396l-2.772-6.909h-1.303v6.909
				c0,0.198-0.171,0.396-0.396,0.396h-3.369c-0.198,0-0.396-0.197-0.396-0.396V9.265c0-0.228,0.198-0.397,0.396-0.397h9.005
				c0.255,0,0.538,0.086,0.736,0.284l1.614,1.613c0.34,0.34,0.284,0.566,0.284,0.793v7.136c0,0.368-0.058,0.51-0.284,0.737
				l-1.7,1.67l2.889,7.138c0.086,0.198,0,0.396-0.284,0.396H171.22z M170.257,16.653c0.056-0.056,0.085-0.14,0.085-0.226v-2.577
				c0-0.142,0-0.198-0.085-0.283l-0.426-0.425c-0.113-0.113-0.225-0.113-0.368-0.113h-2.831v4.163h2.975
				c0.057,0,0.112,0,0.197-0.084L170.257,16.653z"/>
		</g>
	</g>
	<path fill="#FFFFFF" d="M180.176,5.088v27.323H19.11V5.088H180.176 M182.012,3.25H17.271v31h164.741V3.25L182.012,3.25z"/>
</g>
</svg>
