<?xml version="1.0" encoding="utf-8"?>
<!-- Generator: Adobe Illustrator 16.0.0, SVG Export Plug-In . SVG Version: 6.00 Build 0)  -->
<!DOCTYPE svg PUBLIC "-//W3C//DTD SVG 1.1//EN" "http://www.w3.org/Graphics/SVG/1.1/DTD/svg11.dtd">
<svg version="1.1" id="Layer_1" xmlns="http://www.w3.org/2000/svg" xmlns:xlink="http://www.w3.org/1999/xlink" x="0px" y="0px"
	 width="199.283px" height="37.5px" viewBox="0 0 199.283 37.5" enable-background="new 0 0 199.283 37.5" xml:space="preserve">
<g>
	<g>
		<g>
			<path d="M13.292,30.705c-0.239,0-0.48-0.172-0.48-0.41V11.831h-4.35c-0.274,0-0.515-0.205-0.515-0.48V7.309
				c0-0.274,0.241-0.514,0.515-0.514h13.7c0.275,0,0.515,0.24,0.515,0.514v4.042c0,0.275-0.24,0.48-0.515,0.48h-4.35v18.464
				c0,0.238-0.24,0.41-0.479,0.41H13.292z"/>
			<path d="M25.555,30.705c-0.272,0-0.479-0.205-0.479-0.479V7.276c0-0.276,0.207-0.481,0.479-0.481h12.469
				c0.241,0,0.48,0.206,0.48,0.481v4.075c0,0.275-0.24,0.48-0.48,0.48h-7.912v4.384h6.062c0.275,0,0.48,0.207,0.48,0.481v4.076
				c0,0.273-0.205,0.479-0.48,0.479h-6.062v4.42h7.912c0.241,0,0.48,0.205,0.48,0.479v4.076c0,0.274-0.24,0.479-0.48,0.479H25.555z"
				/>
			<path d="M53.85,30.329c-0.308,0.307-0.651,0.376-0.924,0.376h-8.839c-0.239,0-0.582-0.069-0.891-0.376l-1.918-1.92
				c-0.342-0.341-0.342-0.65-0.342-0.89V9.981c0-0.104,0-0.548,0.342-0.891l1.918-1.918c0.377-0.377,0.617-0.377,0.891-0.377h8.872
				c0.308,0,0.583,0.069,0.891,0.377l1.919,1.918c0.308,0.309,0.376,0.548,0.376,0.891v3.665c0,0.24-0.24,0.479-0.479,0.479h-4.077
				c-0.275,0-0.479-0.239-0.479-0.479v-0.89c0-0.104-0.035-0.172-0.103-0.24l-0.583-0.583c-0.068-0.068-0.171-0.103-0.239-0.103
				h-3.322c-0.068,0-0.172,0.034-0.241,0.103l-0.548,0.583c-0.103,0.136-0.137,0.171-0.137,0.308v12.092
				c0,0.104,0.034,0.205,0.137,0.274l0.479,0.479h3.975l0.479-0.479c0.068-0.069,0.103-0.171,0.103-0.24v-1.027
				c0-0.24,0.204-0.48,0.479-0.48h4.077c0.239,0,0.479,0.24,0.479,0.48v3.871c0,0.171-0.034,0.274-0.376,0.615L53.85,30.329z"/>
			<path d="M69.779,30.705c-0.239,0-0.48-0.205-0.48-0.479V21.25h-5.138v8.976c0,0.274-0.239,0.479-0.479,0.479h-4.076
				c-0.274,0-0.48-0.205-0.48-0.479V7.276c0-0.276,0.207-0.481,0.48-0.481h4.076c0.24,0,0.479,0.206,0.479,0.481v8.938h5.138V7.276
				c0-0.276,0.241-0.481,0.48-0.481h4.076c0.273,0,0.479,0.206,0.479,0.481v22.949c0,0.274-0.206,0.479-0.479,0.479H69.779z"/>
		</g>
		<g>
			<path d="M87.367,30.705c-0.275,0-0.48-0.205-0.48-0.479V7.276c0-0.276,0.205-0.481,0.48-0.481h4.076
				c0.274,0,0.479,0.206,0.479,0.481v22.949c0,0.274-0.205,0.479-0.479,0.479H87.367z"/>
			<path d="M105.315,30.705c-0.274,0-0.515-0.239-0.617-0.479L100.52,18.75v11.475c0,0.24-0.241,0.479-0.48,0.479h-4.076
				c-0.274,0-0.48-0.239-0.48-0.479V7.276c0-0.276,0.207-0.481,0.48-0.481h5.001c0.241,0,0.41,0.171,0.513,0.481L106,20.429
				l0.171,0.376V7.276c0-0.276,0.24-0.481,0.48-0.481h4.075c0.274,0,0.479,0.206,0.479,0.481v22.949c0,0.24-0.205,0.479-0.479,0.479
				H105.315z"/>
			<path d="M127.445,30.329c-0.24,0.239-0.651,0.376-0.891,0.376h-8.873c-0.375,0-0.616-0.104-0.89-0.376l-1.919-1.92
				c-0.238-0.239-0.376-0.65-0.376-0.958v-3.323c0-0.273,0.239-0.479,0.514-0.479h4.041c0.274,0,0.48,0.206,0.48,0.479v1.542h4.316
				c0.068,0,0.103-0.035,0.171-0.103l0.582-0.548c0.068-0.069,0.104-0.137,0.104-0.24v-2.604c0-0.138-0.035-0.239-0.172-0.344
				l-0.514-0.479c-0.068-0.068-0.103-0.104-0.171-0.104h-6.167c-0.375,0-0.616-0.101-0.89-0.377l-1.919-1.917
				c-0.204-0.206-0.376-0.479-0.376-0.891V9.981c0-0.343,0.138-0.652,0.376-0.891l1.919-1.918c0.378-0.377,0.617-0.377,0.89-0.377
				h8.873c0.342,0,0.581,0.069,0.891,0.377l1.918,1.918c0.239,0.239,0.378,0.582,0.378,0.925v3.528c0,0.275-0.241,0.48-0.515,0.48
				h-4.042c-0.275,0-0.479-0.205-0.479-0.48v-1.712h-4.248c-0.103,0-0.171,0.034-0.239,0.103l-0.548,0.548
				c-0.104,0.103-0.138,0.171-0.138,0.275v2.74c0,0.103,0.069,0.172,0.138,0.239l0.479,0.48h6.405c0.479,0,0.581,0.07,0.891,0.378
				l1.918,1.917c0.378,0.413,0.378,0.583,0.378,0.891v8.119c0,0.239-0.069,0.583-0.378,0.89L127.445,30.329z"/>
			<path d="M133.543,30.705c-0.273,0-0.479-0.205-0.479-0.479V7.276c0-0.276,0.206-0.481,0.479-0.481h4.076
				c0.274,0,0.479,0.206,0.479,0.481v22.949c0,0.274-0.205,0.479-0.479,0.479H133.543z"/>
			<path d="M153.925,30.329c-0.275,0.272-0.547,0.376-0.891,0.376h-10.894c-0.272,0-0.479-0.205-0.479-0.479V7.276
				c0-0.276,0.206-0.481,0.479-0.481h10.894c0.274,0,0.581,0.069,0.891,0.377l1.918,1.918c0.309,0.309,0.377,0.65,0.377,0.891
				v17.538c0,0.239,0,0.514-0.377,0.89L153.925,30.329z M151.082,25.19c0.068-0.104,0.103-0.171,0.103-0.24V12.756
				c0-0.069,0-0.137-0.103-0.24l-0.583-0.583c-0.068-0.103-0.171-0.103-0.239-0.103h-3.563v13.839h3.904L151.082,25.19z"/>
			<path d="M160.092,30.705c-0.274,0-0.48-0.205-0.48-0.479V7.276c0-0.276,0.206-0.481,0.48-0.481h12.469
				c0.238,0,0.479,0.206,0.479,0.481v4.075c0,0.275-0.241,0.48-0.479,0.48h-7.913v4.384h6.063c0.274,0,0.479,0.207,0.479,0.481
				v4.076c0,0.273-0.205,0.479-0.479,0.479h-6.063v4.42h7.913c0.238,0,0.479,0.205,0.479,0.479v4.076
				c0,0.274-0.241,0.479-0.479,0.479H160.092z"/>
			<path d="M186.228,30.705c-0.274,0-0.514-0.239-0.617-0.479l-3.355-8.357h-1.575v8.357c0,0.24-0.207,0.479-0.48,0.479h-4.076
				c-0.239,0-0.48-0.239-0.48-0.479V7.276c0-0.276,0.241-0.481,0.48-0.481h10.894c0.307,0,0.65,0.104,0.89,0.343l1.953,1.952
				c0.41,0.411,0.343,0.685,0.343,0.959v8.632c0,0.445-0.069,0.617-0.343,0.891l-2.056,2.021l3.494,8.633
				c0.103,0.24,0,0.479-0.344,0.479H186.228z M185.063,16.214c0.068-0.068,0.103-0.169,0.103-0.273v-3.118
				c0-0.171,0-0.239-0.103-0.342l-0.515-0.514c-0.137-0.137-0.272-0.137-0.445-0.137h-3.424v5.035h3.597
				c0.068,0,0.136,0,0.238-0.102L185.063,16.214z"/>
		</g>
	</g>
	<path d="M197.061,2.224v33.052H2.224V2.224H197.061 M199.283,0H0v37.5h199.283V0L199.283,0z"/>
</g>
</svg>
