<?xml version="1.0" encoding="utf-8"?>
<!-- Generator: Adobe Illustrator 16.0.0, SVG Export Plug-In . SVG Version: 6.00 Build 0)  -->
<!DOCTYPE svg PUBLIC "-//W3C//DTD SVG 1.1//EN" "http://www.w3.org/Graphics/SVG/1.1/DTD/svg11.dtd">
<svg version="1.1" id="Layer_1" xmlns="http://www.w3.org/2000/svg" xmlns:xlink="http://www.w3.org/1999/xlink" x="0px" y="0px"
	 width="151.688px" height="37.5px" viewBox="0 0 151.688 37.5" enable-background="new 0 0 151.688 37.5" xml:space="preserve">
<g>
	<polygon fill="#009FCA" points="141.266,37.5 141.266,5.4 151.688,5.4 150.118,2.536 149.314,0 125.386,0 124.576,2.536 
		122.997,5.4 133.428,5.4 133.428,37.5 	"/>
	<path fill="#009FCA" d="M0,12.39c0-3.596,0.406-6.506,2.369-8.719C4.338,1.446,7.386,0,10.811,0c3.44,0,12.823,0,12.823,0
		l1.621,5.981c0,0-9.186,0-11.117,0c-1.95,0-6.536,0.572-6.536,4.828v15.886c0,4.256,4.586,4.834,6.536,4.834
		c1.931,0,9.062,0,9.062,0l2.943,5.971c0,0-11.893,0-15.333,0c-3.424,0-6.472-1.44-8.442-3.665C0.406,31.61,0,28.706,0,25.109V12.39
		z"/>
	<path fill="#009FCA" d="M59.703,25.899c0,6.414-6.166,11.601-13.776,11.601c-7.604,0-13.778-5.187-13.778-11.601V11.598
		C32.149,5.193,38.323,0,45.927,0c7.61,0,13.776,5.193,13.776,11.598V25.899z M39.795,26.516c0,4.622,3.837,4.91,6.132,4.91
		c2.298,0,6.131-0.288,6.131-4.91V10.987c0-4.628-3.833-4.922-6.131-4.922c-2.294,0-6.132,0.293-6.132,4.922V26.516z"/>
	<rect x="107.82" fill="#009FCA" width="8.619" height="37.5"/>
	<path fill="#009FCA" d="M83.96,25.455h3.916c0,0,0-12.258,0-15.266c0-3.009,5.743-4.921,5.743-4.921V37.5h8.042V0
		c0,0-10.788,0-11.675,0c-0.883,0-2.197,0.76-2.197,0.76L83.96,3.636L80.136,0.76c0,0-1.313-0.76-2.213-0.76
		c-0.878,0-11.667,0-11.667,0v37.5h8.037V5.268c0,0,5.747,1.913,5.747,4.921c0,3.008,0,15.266,0,15.266H83.96z"/>
</g>
</svg>
