<?xml version="1.0" encoding="utf-8"?>
<!-- Generator: Adobe Illustrator 16.0.0, SVG Export Plug-In . SVG Version: 6.00 Build 0)  -->
<!DOCTYPE svg PUBLIC "-//W3C//DTD SVG 1.1//EN" "http://www.w3.org/Graphics/SVG/1.1/DTD/svg11.dtd">
<svg version="1.1" id="Layer_1" xmlns="http://www.w3.org/2000/svg" xmlns:xlink="http://www.w3.org/1999/xlink" x="0px" y="0px"
	 width="52.667px" height="46.326px" viewBox="0 0 52.667 46.326" enable-background="new 0 0 52.667 46.326" xml:space="preserve">
<g>
	<g>
		
			<path fill="#FFFFFF" stroke="#000000" stroke-width="0.6111" stroke-linecap="round" stroke-linejoin="round" stroke-miterlimit="10" d="
			M9.63,19.439c-0.165,0.452-0.431,0.95-0.807,1.384c-0.019,0.024-0.037,0.046-0.058,0.067c-0.666,0.727-1.662,1.243-3.08,0.992
			c-0.636-0.112-1.075-0.385-1.378-0.754c-0.4-0.492-0.553-1.158-0.587-1.843c-0.003-0.095-0.006-0.192-0.006-0.287
			c0-0.559,0.067-1.121,0.138-1.598c0.03-0.208,0.07-0.428,0.125-0.645c0.013-0.043,0.024-0.086,0.033-0.129h0.004
			c0.189-0.65,0.54-1.252,1.24-1.433c0.327-0.086,0.736-0.076,1.24,0.064c0.66,0.187,1.488,0.602,2.523,1.329
			c0.238,0.168,0.425,0.333,0.563,0.504c0.003,0.003,0.003,0.006,0.003,0.006c0.189,0.232,0.297,0.474,0.336,0.733
			C9.994,18.293,9.86,18.81,9.63,19.439z"/>
		
			<path fill="#FFFFFF" stroke="#000000" stroke-width="0.6111" stroke-linecap="round" stroke-linejoin="round" stroke-miterlimit="10" d="
			M9.582,17.093c-0.138-0.171-0.324-0.336-0.563-0.504c-1.035-0.728-1.863-1.143-2.523-1.329c-0.03-0.083-0.623-1.717-0.227-2.262
			c0.41-0.562,1.021-0.892,1.785,0.66C8.793,15.165,9.536,16.982,9.582,17.093z"/>
		
			<path fill="#FFFFFF" stroke="#000000" stroke-width="0.6111" stroke-linecap="round" stroke-linejoin="round" stroke-miterlimit="10" d="
			M5.255,15.195c-0.7,0.181-1.051,0.782-1.24,1.433H4.011c-2.438-0.54-2.502-1.823-2.172-2.282c0.333-0.458,0.892-0.688,1.579-0.277
			C4.106,14.475,5.255,15.195,5.255,15.195z"/>
		
			<path fill="#FFFFFF" stroke="#000000" stroke-width="0.6111" stroke-linecap="round" stroke-linejoin="round" stroke-miterlimit="10" d="
			M3.978,16.757c-0.055,0.217-0.095,0.437-0.125,0.645c-0.07,0.477-0.138,1.039-0.138,1.598c-1.977-0.247-3.278-0.938-3.392-1.487
			C0.21,16.937,0.629,16.46,1.585,16.46C2.542,16.46,3.978,16.757,3.978,16.757z"/>
		
			<path fill="#FFFFFF" stroke="#000000" stroke-width="0.6111" stroke-linecap="round" stroke-linejoin="round" stroke-miterlimit="10" d="
			M4.308,21.129c-0.238,0.024-3.446,0.354-3.257-1.078c0.189-1.434,2.67-0.765,2.67-0.765C3.755,19.971,3.908,20.637,4.308,21.129z"
			/>
		<ellipse opacity="0.2" fill="#010101" enable-background="new    " cx="26.333" cy="43.423" rx="15.298" ry="2.903"/>
		<g>
			<path fill="#0095DA" stroke="#000000" stroke-width="0.6111" stroke-miterlimit="10" d="M36.738,22.088
				c-0.757-0.128-1.509-0.18-2.215-0.189c-0.269-1.035-0.678-2.007-1.173-2.905c0.932-0.309,1.741-0.654,2.423-0.999
				C36.103,18.914,36.574,20.438,36.738,22.088z"/>
			
				<path fill="#FFFFFF" stroke="#000000" stroke-width="0.6111" stroke-linecap="round" stroke-linejoin="round" stroke-miterlimit="10" d="
				M36.796,23.576c-0.067,2.172-1.277,2.771-2.047,2.93c0.076-0.614,0.119-1.262,0.119-1.949c0-0.922-0.125-1.812-0.346-2.658
				c0.706,0.01,1.458,0.062,2.215,0.189C36.791,22.58,36.812,23.078,36.796,23.576z"/>
		</g>
		<g>
			<path fill="#0095DA" stroke="#000000" stroke-width="0.6111" stroke-miterlimit="10" d="M15.929,22.088
				c0.758-0.128,1.509-0.18,2.215-0.189c0.269-1.035,0.679-2.007,1.173-2.905c-0.932-0.309-1.741-0.654-2.423-0.999
				C16.564,18.914,16.093,20.438,15.929,22.088z"/>
			
				<path fill="#FFFFFF" stroke="#000000" stroke-width="0.6111" stroke-linecap="round" stroke-linejoin="round" stroke-miterlimit="10" d="
				M15.871,23.576c0.067,2.172,1.277,2.771,2.047,2.93c-0.076-0.614-0.119-1.262-0.119-1.949c0-0.922,0.125-1.812,0.346-2.658
				c-0.706,0.01-1.457,0.062-2.215,0.189C15.876,22.58,15.856,23.078,15.871,23.576z"/>
		</g>
		<g>
			<path fill="#FFFFFF" d="M29.258,42.145c-0.811-3.797-0.88-5.931-0.882-6.494l-0.001-0.271l0.223-0.028
				c1.028-0.537,2.415-1.544,3.482-3.421l0.321-0.733l0.259,0.745c0.382,1.164,1.332,4.313,1.923,8.4l0.068,0.476l-0.461-0.14
				c-0.297-0.054-0.62-0.082-0.962-0.082c-1.917,0-2.905,0.883-3.396,1.623l-0.402,0.605L29.258,42.145z"/>
			<path d="M32.371,32.037c0.326,0.996,1.311,4.199,1.91,8.35c-0.013-0.004-0.021-0.006-0.034-0.006
				c-0.309-0.059-0.647-0.09-1.018-0.09c-2.041,0-3.11,0.944-3.651,1.76c-0.009,0.013-0.014,0.021-0.021,0.03
				c-0.798-3.737-0.873-5.854-0.875-6.432c0.008-0.001,0.014-0.005,0.022-0.011c1.341-0.682,2.67-1.849,3.642-3.557
				C32.355,32.067,32.364,32.053,32.371,32.037 M32.453,30.325l-0.634,1.449c-1.037,1.814-2.361,2.781-3.317,3.281l-0.433,0.054
				l0.002,0.542c0.002,0.571,0.072,2.731,0.889,6.558l0.274,1.283l0.806-1.036l0.016-0.021l0.026-0.039
				c0.455-0.687,1.365-1.494,3.147-1.494c0.323,0,0.627,0.026,0.903,0.079l0.007,0.001l0.885,0.272L34.885,40.3
				c-0.594-4.112-1.55-7.281-1.934-8.453L32.453,30.325L32.453,30.325z"/>
		</g>
		<path d="M28.848,37.896c0.021,0.189,0.046,0.394,0.076,0.607c2.188-0.339,3.7-1.136,4.675-1.866
			c-0.049-0.229-0.101-0.452-0.153-0.669C32.557,36.684,31.073,37.545,28.848,37.896z"/>
		<g>
			<path fill="#C0BFBF" d="M28.683,35.65c0.003,0.309,0.024,1.051,0.165,2.246c0.409-0.064,0.794-0.146,1.155-0.245l-0.107-0.537
				c1.79-1.519,2.569-2.905,2.894-3.703c-0.178-0.62-0.327-1.088-0.419-1.375c-0.006,0.016-0.016,0.03-0.024,0.046
				c-0.972,1.708-2.301,2.875-3.642,3.557C28.695,35.645,28.689,35.647,28.683,35.65z"/>
		</g>
		<g>
			<path fill="#C0BFBF" d="M28.924,38.504c0.129,0.957,0.33,2.148,0.632,3.578c0.007-0.01,0.013-0.019,0.021-0.031
				c0.245-0.366,0.59-0.757,1.085-1.074l-0.541-2.717C29.746,38.354,29.349,38.44,28.924,38.504z"/>
		</g>
		<g>
			<path fill="#FFFFFF" d="M33.228,44.085c-2.082,0-4.173-0.473-4.261-0.493l-0.362-0.083l0.073-0.364
				c0.006-0.032,0.691-3.235,4.55-3.235s4.543,3.203,4.549,3.235l0.073,0.364l-0.362,0.083C37.4,43.612,35.31,44.085,33.228,44.085z
				"/>
			<path d="M33.228,40.291c3.59,0,4.175,2.929,4.175,2.929s-2.112,0.483-4.175,0.483s-4.176-0.483-4.176-0.483
				S29.638,40.291,33.228,40.291 M33.228,39.527c-3.335,0-4.68,2.317-4.925,3.543l-0.146,0.729l0.725,0.165
				c0.089,0.021,2.222,0.503,4.346,0.503s4.256-0.482,4.345-0.503l0.725-0.165l-0.146-0.729
				C37.907,41.845,36.563,39.527,33.228,39.527L33.228,39.527z"/>
		</g>
		<g>
			<path fill="#C0BFBF" d="M29.053,43.219c0,0,0.957,0.22,2.212,0.363c0.514-1.265,1.524-2.429,2.398-3.272
				c-0.141-0.012-0.287-0.019-0.437-0.019C29.637,40.291,29.053,43.219,29.053,43.219z"/>
		</g>
		<g>
			<path fill="#FFFFFF" d="M22.855,42.25l0.254-0.17l-0.271,0.145c-0.495-0.745-1.483-1.628-3.4-1.628
				c-0.342,0-0.666,0.028-0.96,0.084l-0.47,0.157l0.077-0.495c0.608-4.216,1.625-7.496,1.922-8.401l0.271-0.825l0.305,0.813
				c1.093,1.918,2.516,2.928,3.518,3.437l0.273,0.03l-0.083,0.255c-0.003,0.567-0.075,2.715-0.883,6.493l-0.151,0.708L22.855,42.25z
				"/>
			<path d="M20.297,32.037c0.006,0.016,0.015,0.03,0.023,0.045c0.972,1.708,2.301,2.875,3.642,3.557
				c0.009,0.006,0.015,0.01,0.023,0.011c-0.003,0.578-0.077,2.694-0.876,6.432c-0.006-0.009-0.012-0.018-0.021-0.03
				c-0.541-0.815-1.61-1.76-3.651-1.76c-0.369,0-0.709,0.031-1.018,0.09c-0.012,0-0.021,0.002-0.033,0.006h-0.001
				C18.986,36.236,19.97,33.033,20.297,32.037 M20.259,30.195l-0.542,1.651c-0.299,0.91-1.323,4.212-1.936,8.453l-0.138,0.955
				l0.885-0.272l0.006-0.001c0.276-0.053,0.58-0.079,0.903-0.079c1.782,0,2.692,0.808,3.142,1.486l0.803,1.21l0.324-1.39
				c0.813-3.808,0.886-5.981,0.889-6.557l0.003-0.55l-0.438-0.049c-0.958-0.501-2.281-1.469-3.306-3.266L20.259,30.195
				L20.259,30.195z"/>
		</g>
		<path d="M23.819,37.896c-0.021,0.189-0.045,0.394-0.076,0.607c-2.188-0.339-3.699-1.136-4.674-1.866
			c0.049-0.229,0.101-0.452,0.152-0.669C20.11,36.684,21.595,37.545,23.819,37.896z"/>
		<g>
			<path fill="#C0BFBF" d="M23.984,35.65c-0.003,0.309-0.024,1.051-0.165,2.246c-0.409-0.064-0.794-0.146-1.154-0.245l0.106-0.537
				c-1.79-1.519-2.569-2.905-2.893-3.703c0.177-0.62,0.326-1.088,0.418-1.375c0.006,0.016,0.016,0.03,0.024,0.046
				c0.972,1.708,2.301,2.875,3.642,3.557C23.972,35.645,23.978,35.647,23.984,35.65z"/>
		</g>
		<g>
			<path fill="#C0BFBF" d="M23.743,38.504c-0.128,0.957-0.33,2.148-0.632,3.578c-0.007-0.01-0.013-0.019-0.021-0.031
				c-0.244-0.366-0.59-0.757-1.085-1.074l0.541-2.717C22.921,38.354,23.318,38.44,23.743,38.504z"/>
		</g>
		<g>
			<path fill="#FFFFFF" d="M19.44,44.085c-2.082,0-4.173-0.473-4.261-0.493l-0.362-0.083l0.073-0.364
				c0.006-0.032,0.692-3.235,4.55-3.235s4.543,3.203,4.549,3.235l0.073,0.364L23.7,43.592C23.612,43.612,21.521,44.085,19.44,44.085
				z"/>
			<path d="M19.44,40.291c3.59,0,4.175,2.929,4.175,2.929s-2.113,0.483-4.175,0.483c-2.063,0-4.176-0.483-4.176-0.483
				S15.85,40.291,19.44,40.291 M19.44,39.527c-3.335,0-4.68,2.317-4.925,3.543l-0.146,0.729l0.724,0.165
				c0.09,0.021,2.222,0.503,4.346,0.503c2.124,0,4.255-0.482,4.345-0.503l0.724-0.165l-0.146-0.729
				C24.119,41.845,22.775,39.527,19.44,39.527L19.44,39.527z"/>
		</g>
		<g>
			<path fill="#C0BFBF" d="M23.614,43.219c0,0-0.956,0.22-2.212,0.363c-0.514-1.265-1.524-2.429-2.398-3.272
				c0.141-0.012,0.287-0.019,0.437-0.019C23.03,40.291,23.614,43.219,23.614,43.219z"/>
		</g>
		<g>
			<path fill="#FFFFFF" d="M26.334,35.556c-3.521,0-8.479-3.412-8.479-10.999c0-2.279,0.729-4.563,2.168-6.788l0.181-0.279
				l0.322,0.085c1.795,0.477,3.749,0.719,5.808,0.719c2.059,0,4.013-0.242,5.808-0.719l0.322-0.085l0.181,0.28
				c1.438,2.226,2.167,4.509,2.167,6.788C34.812,32.144,29.855,35.556,26.334,35.556z"/>
			<g>
				<path d="M32.26,18.018c1.194,1.849,2.094,4.061,2.094,6.539c0,7.409-4.888,10.541-8.02,10.541s-8.021-3.132-8.021-10.541
					c0-2.479,0.899-4.69,2.095-6.539c1.639,0.436,3.605,0.734,5.926,0.734S30.622,18.453,32.26,18.018 M32.668,16.96l-0.644,0.171
					c-1.757,0.467-3.671,0.704-5.69,0.704c-2.019,0-3.934-0.237-5.69-0.704L20,16.961l-0.361,0.559
					c-1.488,2.3-2.242,4.667-2.242,7.037c0,7.903,5.226,11.458,8.937,11.458s8.937-3.555,8.937-11.458
					c0-2.368-0.754-4.735-2.241-7.037L32.668,16.96L32.668,16.96z"/>
			</g>
		</g>
		<path fill="#0095DA" d="M26.997,18.742v16.31c-0.227,0.03-0.449,0.046-0.663,0.046s-0.434-0.016-0.66-0.046v-16.31
			c0.217,0.007,0.438,0.01,0.66,0.01S26.78,18.749,26.997,18.742z"/>
		<rect x="28.829" y="22.886" fill="#0095DA" width="3.669" height="0.661"/>
		<g>
			<polygon points="24.126,23.822 24.254,23.822 24.254,22.787 24.586,22.787 24.538,22.694 24.509,22.61 24.126,22.61 
				23.741,22.61 23.713,22.694 23.664,22.787 24.001,22.787 24.001,23.822 			"/>
			<path d="M19.695,23.013c0-0.116,0.015-0.212,0.077-0.284c0.065-0.069,0.161-0.118,0.273-0.118h0.411l0.055,0.195h-0.358
				c-0.061,0-0.209,0.019-0.209,0.156v0.511c0,0.137,0.148,0.158,0.209,0.158h0.294l0.094,0.191h-0.495
				c-0.112,0-0.208-0.048-0.273-0.118c-0.063-0.073-0.077-0.165-0.077-0.282V23.013z"/>
			<path d="M21.622,23.446c0,0.208-0.198,0.376-0.444,0.376c-0.245,0-0.444-0.168-0.444-0.376v-0.459
				c0-0.208,0.199-0.377,0.444-0.377c0.246,0,0.444,0.169,0.444,0.377V23.446z M20.98,23.467c0,0.149,0.124,0.158,0.197,0.158
				s0.194-0.009,0.194-0.158v-0.5c0-0.15-0.121-0.159-0.194-0.159s-0.197,0.009-0.197,0.159V23.467z"/>
			<rect x="23.173" y="22.61" width="0.279" height="1.212"/>
			<path d="M22.405,23.433h0.124v-0.49c0-0.099,0.188-0.16,0.188-0.16v1.04h0.26V22.61h-0.377c-0.031,0-0.073,0.025-0.073,0.025
				l-0.121,0.093l-0.125-0.093c0,0-0.042-0.025-0.067-0.025H21.83v1.212h0.263v-1.04c0,0,0.188,0.062,0.188,0.16v0.49H22.405z"/>
		</g>
		
			<path fill="#FFFFFF" stroke="#000000" stroke-width="0.6111" stroke-linecap="round" stroke-linejoin="round" stroke-miterlimit="10" d="
			M12.017,22.991l-4.013-1.476c1.034-0.771,1.467-1.637,1.626-2.076c0.217-0.596,0.349-1.091,0.3-1.531l3.504,0.718
			C13.434,18.626,14.541,21.348,12.017,22.991z"/>
		
			<path fill="#FFFFFF" stroke="#000000" stroke-width="0.6111" stroke-linecap="round" stroke-linejoin="round" stroke-miterlimit="10" d="
			M15.87,23.576c0.009,0.306,0.042,0.58,0.095,0.828l-3.947-1.413c2.523-1.644,1.417-4.365,1.417-4.365l3.053,0.63
			C16.144,20.46,15.821,22.027,15.87,23.576z"/>
		
			<path fill="#FFFFFF" stroke="#000000" stroke-width="0.6111" stroke-linecap="round" stroke-linejoin="round" stroke-miterlimit="10" d="
			M43.037,19.439c0.165,0.452,0.432,0.95,0.807,1.384c0.019,0.024,0.037,0.046,0.059,0.067c0.666,0.727,1.662,1.243,3.08,0.992
			c0.635-0.112,1.075-0.385,1.377-0.754c0.4-0.492,0.554-1.158,0.587-1.843c0.003-0.095,0.006-0.192,0.006-0.287
			c0-0.559-0.066-1.121-0.137-1.598c-0.031-0.208-0.07-0.428-0.126-0.645c-0.012-0.043-0.024-0.086-0.033-0.129h-0.003
			c-0.189-0.65-0.541-1.252-1.24-1.433c-0.327-0.086-0.736-0.076-1.241,0.064c-0.659,0.187-1.487,0.602-2.523,1.329
			c-0.238,0.168-0.425,0.333-0.562,0.504c-0.004,0.003-0.004,0.006-0.004,0.006c-0.189,0.232-0.296,0.474-0.336,0.733
			C42.673,18.293,42.808,18.81,43.037,19.439z"/>
		
			<path fill="#FFFFFF" stroke="#000000" stroke-width="0.6111" stroke-linecap="round" stroke-linejoin="round" stroke-miterlimit="10" d="
			M43.086,17.093c0.137-0.171,0.323-0.336,0.562-0.504c1.036-0.728,1.864-1.143,2.523-1.329c0.031-0.083,0.624-1.717,0.227-2.262
			c-0.409-0.562-1.021-0.892-1.784,0.66C43.875,15.165,43.131,16.982,43.086,17.093z"/>
		
			<path fill="#FFFFFF" stroke="#000000" stroke-width="0.6111" stroke-linecap="round" stroke-linejoin="round" stroke-miterlimit="10" d="
			M47.413,15.195c0.699,0.181,1.051,0.782,1.24,1.433h0.003c2.438-0.54,2.502-1.823,2.172-2.282
			c-0.333-0.458-0.892-0.688-1.579-0.277C48.561,14.475,47.413,15.195,47.413,15.195z"/>
		
			<path fill="#FFFFFF" stroke="#000000" stroke-width="0.6111" stroke-linecap="round" stroke-linejoin="round" stroke-miterlimit="10" d="
			M48.689,16.757c0.056,0.217,0.095,0.437,0.126,0.645c0.07,0.477,0.137,1.039,0.137,1.598c1.978-0.247,3.278-0.938,3.392-1.487
			c0.113-0.575-0.306-1.052-1.262-1.052S48.689,16.757,48.689,16.757z"/>
		
			<path fill="#FFFFFF" stroke="#000000" stroke-width="0.6111" stroke-linecap="round" stroke-linejoin="round" stroke-miterlimit="10" d="
			M48.359,21.129c0.238,0.024,3.447,0.354,3.258-1.078c-0.19-1.434-2.671-0.765-2.671-0.765
			C48.913,19.971,48.759,20.637,48.359,21.129z"/>
		
			<path fill="#FFFFFF" stroke="#000000" stroke-width="0.6111" stroke-linecap="round" stroke-linejoin="round" stroke-miterlimit="10" d="
			M40.65,22.991l4.013-1.476c-1.033-0.771-1.467-1.637-1.626-2.076c-0.217-0.596-0.348-1.091-0.299-1.531l-3.505,0.718
			C39.233,18.626,38.126,21.348,40.65,22.991z"/>
		
			<path fill="#FFFFFF" stroke="#000000" stroke-width="0.6111" stroke-linecap="round" stroke-linejoin="round" stroke-miterlimit="10" d="
			M36.798,23.576c-0.01,0.306-0.043,0.58-0.095,0.828l3.946-1.413c-2.523-1.644-1.417-4.365-1.417-4.365l-3.052,0.63
			C36.523,20.46,36.847,22.027,36.798,23.576z"/>
	</g>
	<g>
		<path fill="#FFFFFF" d="M39.038,15.18l0.303-0.563c0.289-0.539,0.437-1.138,0.437-1.78V9.161c0-0.439-0.068-0.858-0.204-1.246
			l-0.178-0.508h2.407c0.645,0,1.412,0.352,1.412,2.025v3.725c0,1.672-0.768,2.022-1.412,2.022H39.038z"/>
		<g>
			<path d="M41.802,7.789c0.532,0,1.03,0.306,1.03,1.644v3.725c0,1.335-0.498,1.641-1.03,1.641h-2.126
				c0.306-0.568,0.482-1.222,0.482-1.961V9.161c0-0.498-0.079-0.953-0.226-1.372H41.802 M41.802,7.025h-1.869h-1.076l0.355,1.016
				c0.123,0.352,0.183,0.718,0.183,1.12v3.676c0,0.578-0.132,1.116-0.392,1.599l-0.605,1.125h1.278h2.126
				c0.539,0,1.794-0.234,1.794-2.404V9.433C43.596,7.26,42.341,7.025,41.802,7.025L41.802,7.025z"/>
		</g>
	</g>
	<g>
		<path fill="#FFFFFF" d="M10.865,15.18c-0.644,0-1.411-0.351-1.411-2.022V9.433c0-1.674,0.768-2.025,1.411-2.025h2.41l-0.179,0.509
			c-0.136,0.386-0.205,0.805-0.205,1.245v3.676c0,0.641,0.147,1.239,0.437,1.78l0.302,0.563H10.865z"/>
		<path d="M12.735,7.789c-0.147,0.419-0.227,0.874-0.227,1.372v3.676c0,0.739,0.178,1.393,0.482,1.961h-2.126
			c-0.531,0-1.029-0.306-1.029-1.641V9.433c0-1.338,0.498-1.644,1.029-1.644H12.735 M13.813,7.025h-1.079h-1.87
			c-0.539,0-1.793,0.234-1.793,2.407v3.725c0,2.17,1.254,2.404,1.793,2.404h2.126h1.276l-0.603-1.125
			c-0.26-0.485-0.392-1.023-0.392-1.6V9.161c0-0.402,0.06-0.768,0.184-1.119L13.813,7.025L13.813,7.025z"/>
	</g>
	<g>
		<path fill="#FFFFFF" d="M26.333,20.509c-6.829,0-10.798-2.526-12.557-4.031c-1.13-0.965-1.727-2.224-1.727-3.641V9.16
			c0-1.417,0.597-2.675,1.727-3.641c1.758-1.505,5.728-4.031,12.557-4.031c6.825,0,10.797,2.526,12.558,4.031
			c1.129,0.965,1.726,2.224,1.726,3.64v3.677c0,1.417-0.597,2.676-1.726,3.641C37.13,17.983,33.159,20.509,26.333,20.509z"/>
		<path d="M26.333,1.947c7.523,0,11.343,3.137,12.26,3.921c0.916,0.783,1.565,1.881,1.565,3.292v3.677
			c0,1.411-0.649,2.51-1.565,3.293c-0.917,0.784-4.736,3.921-12.26,3.921s-11.343-3.137-12.259-3.921
			c-0.917-0.783-1.566-1.882-1.566-3.293V9.16c0-1.411,0.649-2.509,1.566-3.292C14.991,5.084,18.81,1.947,26.333,1.947
			 M26.333,1.031c-6.976,0-11.048,2.595-12.855,4.141c-1.234,1.054-1.887,2.434-1.887,3.988v3.677c0,1.556,0.653,2.935,1.888,3.99
			c1.806,1.546,5.878,4.141,12.854,4.141c6.973,0,11.047-2.594,12.855-4.141c1.234-1.055,1.887-2.435,1.887-3.99V9.16
			c0-1.554-0.652-2.934-1.887-3.989C37.38,3.625,33.306,1.031,26.333,1.031L26.333,1.031z"/>
	</g>
	<path fill="#5D5E5E" d="M23.935,17.35c0.429,0.487,1.072,0.76,2.398,0.76c1.327,0,1.97-0.272,2.398-0.76H23.935z"/>
	<g>
		<path fill="#263137" d="M26.333,6.317c-4.635,0-8.607,0.687-10.385,2.507c-0.638,0.653-0.992,1.453-0.992,2.419
			c0,3.656,4.24,5.027,6.221,5.027c3.048,0,2.672-2.006,5.156-2.006c2.486,0,2.11,2.006,5.157,2.006
			c1.735,0,5.202-1.051,6.037-3.769c0.119-0.386,0.184-0.805,0.184-1.259C37.711,7.586,32.633,6.317,26.333,6.317z"/>
		<path fill="#354A55" d="M37.711,11.243c0,0.454-0.064,0.873-0.184,1.259c-3.854,0.332-9.663,0.463-14.688-0.961
			c-2.93-0.831-5.19-1.803-6.891-2.717c1.777-1.82,5.75-2.507,10.385-2.507C32.633,6.317,37.711,7.586,37.711,11.243z"/>
		<path fill="#00AEEF" d="M20.967,14.294c-0.759,0-1.374-0.615-1.374-1.375V9.577c0-0.759,0.615-1.375,1.374-1.375
			c0.76,0,1.375,0.616,1.375,1.375v3.342C22.342,13.679,21.727,14.294,20.967,14.294z"/>
		<path fill="#00AEEF" d="M31.7,14.294c0.759,0,1.375-0.615,1.375-1.375V9.577c0-0.759-0.616-1.375-1.375-1.375
			c-0.76,0-1.375,0.616-1.375,1.375v3.342C30.325,13.679,30.94,14.294,31.7,14.294z"/>
		<path fill="none" stroke="#000000" stroke-width="0.6" stroke-miterlimit="10" d="M26.333,14.265
			c-2.485,0-2.109,2.006-5.156,2.006c-1.98,0-6.221-1.371-6.221-5.027s5.078-4.926,11.377-4.926c6.3,0,11.378,1.27,11.378,4.926
			s-4.24,5.027-6.221,5.027C28.444,16.271,28.82,14.265,26.333,14.265z"/>
	</g>
	<g>
		<g>
			<path fill="#00AEEF" d="M26.333,7.638c-3.365,0-4.229-2.128-4.693-3.272c-0.069-0.17-0.131-0.325-0.195-0.454
				C21.213,3.437,20.927,3.195,20.696,3c-0.245-0.207-0.499-0.421-0.499-0.798c0-0.427,0.442-1.82,6.136-1.82
				s6.136,1.393,6.136,1.82c0,0.377-0.253,0.591-0.499,0.798c-0.229,0.194-0.517,0.437-0.749,0.911
				c-0.063,0.128-0.125,0.283-0.193,0.453C30.563,5.508,29.7,7.638,26.333,7.638z"/>
			<path d="M26.333,0.764c4.735,0,5.754,1.006,5.754,1.438c0,0.434-0.713,0.528-1.209,1.541c-0.496,1.012-0.955,3.513-4.545,3.513
				s-4.048-2.501-4.545-3.513C21.292,2.73,20.58,2.636,20.58,2.202C20.58,1.77,21.598,0.764,26.333,0.764 M26.333,0
				c-5.671,0-6.518,1.38-6.518,2.202c0,0.555,0.366,0.864,0.634,1.09c0.224,0.189,0.456,0.385,0.653,0.787
				c0.06,0.123,0.119,0.269,0.184,0.43c0.498,1.227,1.425,3.51,5.047,3.51c3.624,0,4.55-2.285,5.048-3.512
				c0.065-0.161,0.123-0.307,0.183-0.428c0.197-0.402,0.429-0.598,0.653-0.788c0.268-0.226,0.634-0.535,0.634-1.09
				C32.851,1.38,32.004,0,26.333,0L26.333,0z"/>
		</g>
		<path fill="#0095DA" d="M32.087,2.201c0,0.435-0.712,0.529-1.21,1.543c-0.495,1.012-0.953,3.514-4.544,3.514
			c-1.292,0-2.175-0.324-2.805-0.785c6.7,0.223,7.553-3.465,4.409-4.5c-2.417-0.795-5.338-0.584-6.813-0.4
			c0.703-0.406,2.212-0.81,5.209-0.81C31.07,0.763,32.087,1.771,32.087,2.201z"/>
	</g>
</g>
</svg>
