<?xml version="1.0" encoding="utf-8"?>
<!-- Generator: Adobe Illustrator 16.0.0, SVG Export Plug-In . SVG Version: 6.00 Build 0)  -->
<!DOCTYPE svg PUBLIC "-//W3C//DTD SVG 1.1//EN" "http://www.w3.org/Graphics/SVG/1.1/DTD/svg11.dtd">
<svg version="1.1" id="Layer_1" xmlns="http://www.w3.org/2000/svg" xmlns:xlink="http://www.w3.org/1999/xlink" x="0px" y="0px"
	 width="230.729px" height="230.887px" viewBox="0 0 230.729 230.887" enable-background="new 0 0 230.729 230.887"
	 xml:space="preserve">
<path fill="#FFFFFF" stroke="#000000" stroke-width="3.0553" stroke-linecap="round" stroke-linejoin="round" stroke-miterlimit="10" d="
	M48.15,96.454c-0.825,2.262-2.154,4.751-4.033,6.92c-0.092,0.122-0.184,0.229-0.29,0.336c-3.33,3.636-8.311,6.217-15.399,4.965
	c-3.178-0.565-5.377-1.925-6.889-3.773c-2.002-2.459-2.766-5.789-2.934-9.212c-0.016-0.473-0.03-0.962-0.03-1.436
	c0-2.796,0.336-5.606,0.688-7.989c0.152-1.04,0.352-2.139,0.626-3.224c0.062-0.213,0.123-0.429,0.168-0.643h0.016
	c0.947-3.253,2.704-6.262,6.202-7.165c1.635-0.427,3.682-0.381,6.202,0.322c3.3,0.932,7.439,3.009,12.618,6.645
	c1.191,0.841,2.124,1.665,2.811,2.521c0.016,0.017,0.016,0.031,0.016,0.031c0.947,1.161,1.482,2.368,1.681,3.667
	C49.967,90.725,49.295,93.307,48.15,96.454z"/>
<path fill="#FFFFFF" stroke="#000000" stroke-width="3.0553" stroke-linecap="round" stroke-linejoin="round" stroke-miterlimit="10" d="
	M47.905,84.721c-0.687-0.855-1.619-1.68-2.811-2.521c-5.179-3.636-9.318-5.713-12.618-6.645c-0.152-0.413-3.116-8.585-1.131-11.306
	c2.047-2.811,5.104-4.46,8.922,3.301C43.963,75.081,47.676,84.171,47.905,84.721z"/>
<path fill="#FFFFFF" stroke="#000000" stroke-width="3.0553" stroke-linecap="round" stroke-linejoin="round" stroke-miterlimit="10" d="
	M26.274,75.233c-3.498,0.903-5.255,3.912-6.202,7.165h-0.016C7.867,79.695,7.545,73.279,9.195,70.987
	c1.665-2.291,4.46-3.437,7.897-1.39C20.53,71.629,26.274,75.233,26.274,75.233z"/>
<path fill="#FFFFFF" stroke="#000000" stroke-width="3.0553" stroke-linecap="round" stroke-linejoin="round" stroke-miterlimit="10" d="
	M19.888,83.041c-0.274,1.085-0.474,2.184-0.626,3.224c-0.352,2.383-0.688,5.193-0.688,7.989c-9.884-1.237-16.392-4.688-16.957-7.439
	c-0.565-2.872,1.528-5.256,6.31-5.256S19.888,83.041,19.888,83.041z"/>
<path fill="#FFFFFF" stroke="#000000" stroke-width="3.0553" stroke-linecap="round" stroke-linejoin="round" stroke-miterlimit="10" d="
	M21.539,104.901c-1.191,0.122-17.232,1.771-16.285-5.392c0.948-7.165,13.352-3.82,13.352-3.82
	C18.773,99.112,19.537,102.442,21.539,104.901z"/>
<ellipse opacity="0.2" cx="131.665" cy="216.373" rx="76.488" ry="14.514"/>
<g>
	<path fill="#0095DA" stroke="#000000" stroke-width="3.0553" stroke-miterlimit="10" d="M183.688,109.698
		c-3.787-0.642-7.545-0.901-11.074-0.947c-1.344-5.178-3.391-10.035-5.865-14.528c4.66-1.543,8.707-3.27,12.115-4.995
		C180.513,93.826,182.866,101.449,183.688,109.698z"/>
	
		<path fill="#FFFFFF" stroke="#000000" stroke-width="3.0553" stroke-linecap="round" stroke-linejoin="round" stroke-miterlimit="10" d="
		M183.979,117.139c-0.334,10.86-6.385,13.854-10.234,14.649c0.381-3.07,0.596-6.31,0.596-9.746c0-4.613-0.625-9.061-1.727-13.291
		c3.529,0.046,7.287,0.306,11.074,0.947C183.95,112.157,184.058,114.649,183.979,117.139z"/>
</g>
<g>
	<path fill="#0095DA" stroke="#000000" stroke-width="3.0553" stroke-miterlimit="10" d="M79.643,109.698
		c3.788-0.642,7.545-0.901,11.075-0.947c1.344-5.178,3.392-10.035,5.866-14.528c-4.661-1.543-8.709-3.27-12.115-4.995
		C82.819,93.826,80.466,101.449,79.643,109.698z"/>
	
		<path fill="#FFFFFF" stroke="#000000" stroke-width="3.0553" stroke-linecap="round" stroke-linejoin="round" stroke-miterlimit="10" d="
		M79.352,117.139c0.336,10.86,6.385,13.854,10.235,14.649c-0.382-3.07-0.598-6.31-0.598-9.746c0-4.613,0.627-9.061,1.729-13.291
		c-3.53,0.046-7.287,0.306-11.075,0.947C79.381,112.157,79.276,114.649,79.352,117.139z"/>
</g>
<g>
	<path fill="#FFFFFF" d="M146.292,209.981c-4.041-18.904-4.399-29.631-4.412-32.469l-0.007-1.389l1.099-0.109
		c4.997-2.566,12.026-7.604,17.43-17.103l0.058-0.099l1.585-3.765l1.256,3.92c1.484,4.521,6.564,20.911,9.613,42.002l0.326,2.253
		l-2.15-0.537l-0.14-0.026c-1.476-0.277-3.092-0.418-4.804-0.418c-9.589,0-14.529,4.414-16.984,8.116l-0.096,0.138l-2.006,3.076
		L146.292,209.981z"/>
	<path d="M161.849,159.445c1.635,4.979,6.553,20.994,9.553,41.744h-0.002c-0.061-0.016-0.107-0.03-0.168-0.03
		c-1.543-0.29-3.238-0.444-5.086-0.444c-10.205,0-15.553,4.721-18.258,8.799c-0.043,0.06-0.072,0.104-0.102,0.148
		c-3.994-18.684-4.365-29.266-4.379-32.156c0.039-0.004,0.07-0.028,0.113-0.057c6.705-3.406,13.35-9.241,18.209-17.781
		C161.772,159.594,161.817,159.52,161.849,159.445 M162.203,150.731l-3.121,7.412c-5.138,9.025-11.762,13.87-16.554,16.38
		l-2.189,0.219l0.013,2.778c0.014,2.874,0.375,13.732,4.446,32.78l1.536,7.184l4.012-6.154l0.035-0.048l0.053-0.08
		c2.249-3.391,6.801-7.432,15.712-7.432c1.617,0,3.139,0.132,4.521,0.392l0.082,0.015l0.222,0.059l0.429,0.01h3.528l-0.503-3.493
		c-3.066-21.213-8.18-37.709-9.673-42.26L162.203,150.731L162.203,150.731z"/>
</g>
<path d="M144.237,188.738c0.105,0.947,0.229,1.971,0.383,3.041c10.938-1.696,18.498-5.683,23.373-9.335
	c-0.244-1.146-0.504-2.261-0.764-3.346C162.782,182.674,155.36,186.98,144.237,188.738z"/>
<g>
	<path fill="#C0BFBF" d="M143.413,177.51c0.014,1.543,0.123,5.256,0.824,11.229c2.047-0.32,3.971-0.732,5.775-1.223l-0.535-2.688
		c8.951-7.594,12.848-14.527,14.467-18.516c-0.887-3.101-1.635-5.438-2.092-6.875c-0.031,0.077-0.078,0.153-0.123,0.23
		c-4.859,8.54-11.504,14.375-18.209,17.781C143.474,177.48,143.442,177.495,143.413,177.51z"/>
</g>
<g>
	<path fill="#C0BFBF" d="M144.62,191.779c0.643,4.78,1.65,10.738,3.16,17.889c0.033-0.047,0.063-0.094,0.107-0.154
		c1.223-1.832,2.949-3.788,5.424-5.376l-2.703-13.581C148.728,191.03,146.743,191.458,144.62,191.779z"/>
</g>
<g>
	<path fill="#FFFFFF" d="M166.138,219.683c-10.408,0-20.865-2.365-21.305-2.466l-1.811-0.414l0.364-1.821
		c0.032-0.162,3.457-16.176,22.751-16.176c19.292,0,22.715,16.014,22.747,16.176l0.364,1.821l-1.811,0.414
		C186.999,217.317,176.544,219.683,166.138,219.683z"/>
	<path d="M166.138,200.715c17.949,0,20.875,14.641,20.875,14.641s-10.564,2.418-20.875,2.418c-10.313,0-20.879-2.418-20.879-2.418
		S148.187,200.715,166.138,200.715 M166.138,196.896c-16.676,0-23.398,11.585-24.624,17.711l-0.729,3.644l3.622,0.828
		c0.448,0.103,11.108,2.515,21.73,2.515c10.62,0,21.278-2.412,21.728-2.515l3.62-0.828l-0.728-3.643
		C189.533,208.481,182.813,196.896,166.138,196.896L166.138,196.896z"/>
</g>
<g>
	<path fill="#C0BFBF" d="M145.265,215.35c0,0,4.783,1.1,11.061,1.818c2.566-6.324,7.623-12.145,11.992-16.361
		c-0.703-0.062-1.436-0.092-2.186-0.092C148.183,200.715,145.265,215.35,145.265,215.35z"/>
</g>
<g>
	<path fill="#FFFFFF" d="M114.171,210.358c-2.456-3.702-7.396-8.116-16.982-8.116c-1.713,0-3.33,0.141-4.806,0.418l-0.143,0.026
		l-2.095,0.526l0.275-2.242c3.043-21.065,8.126-37.475,9.611-42.002l1.274-3.882l1.585,3.766
		c5.443,9.557,12.472,14.596,17.47,17.162l1.099,0.109l-0.007,1.389c-0.013,2.838-0.371,13.563-4.411,32.469l-0.751,3.517
		L114.171,210.358z"/>
	<path d="M101.483,159.445c0.031,0.074,0.076,0.148,0.12,0.223c4.858,8.54,11.503,14.375,18.208,17.781
		c0.043,0.028,0.074,0.053,0.113,0.057c-0.014,2.891-0.385,13.473-4.377,32.156c-0.03-0.045-0.059-0.089-0.104-0.148
		c-2.705-4.078-8.052-8.799-18.255-8.799c-1.849,0-3.545,0.154-5.088,0.444c-0.061,0-0.107,0.015-0.169,0.03c0,0,0,0-0.001,0
		C94.929,180.439,99.849,164.425,101.483,159.445 M101.127,150.729l-2.547,7.764c-1.495,4.557-6.611,21.071-9.673,42.26
		l-0.651,4.505l4.301-1.075l0.108-0.021c1.383-0.26,2.905-0.392,4.523-0.392c8.909,0,13.46,4.041,15.709,7.432l0.051,0.077
		l0.056,0.074l4.018,5.964l1.513-7.017c4.07-19.048,4.432-29.906,4.445-32.78l0.013-2.779l-2.189-0.218
		c-4.794-2.51-11.419-7.355-16.545-16.366l-0.012-0.021L101.127,150.729L101.127,150.729z"/>
</g>
<path d="M119.095,188.738c-0.107,0.947-0.229,1.971-0.383,3.041c-10.938-1.696-18.499-5.683-23.372-9.335
	c0.244-1.146,0.504-2.261,0.764-3.346C100.549,182.674,107.972,186.98,119.095,188.738z"/>
<g>
	<path fill="#C0BFBF" d="M119.919,177.51c-0.014,1.543-0.121,5.256-0.824,11.229c-2.047-0.32-3.972-0.732-5.775-1.223l0.535-2.688
		c-8.952-7.594-12.848-14.527-14.467-18.516c0.887-3.101,1.634-5.438,2.092-6.875c0.031,0.077,0.077,0.153,0.123,0.23
		c4.858,8.54,11.503,14.375,18.208,17.781C119.858,177.48,119.89,177.495,119.919,177.51z"/>
</g>
<g>
	<path fill="#C0BFBF" d="M118.712,191.779c-0.641,4.78-1.648,10.738-3.161,17.889c-0.031-0.047-0.062-0.094-0.107-0.154
		c-1.222-1.832-2.947-3.788-5.423-5.376l2.703-13.581C114.604,191.03,116.589,191.458,118.712,191.779z"/>
</g>
<g>
	<path fill="#FFFFFF" d="M97.196,219.683c-10.409,0-20.863-2.365-21.303-2.466l-1.811-0.414l0.364-1.821
		c0.032-0.162,3.458-16.176,22.75-16.176c19.292,0,22.717,16.014,22.75,16.176l0.364,1.821l-1.811,0.414
		C118.06,217.317,107.604,219.683,97.196,219.683z"/>
	<path d="M97.196,200.715c17.95,0,20.877,14.641,20.877,14.641s-10.566,2.418-20.877,2.418c-10.313,0-20.877-2.418-20.877-2.418
		S79.247,200.715,97.196,200.715 M97.196,196.896c-16.674,0-23.397,11.585-24.622,17.711l-0.729,3.643l3.622,0.829
		c0.449,0.103,11.107,2.515,21.729,2.515c10.621,0,21.281-2.412,21.729-2.515l3.622-0.828l-0.729-3.644
		C120.594,208.48,113.871,196.896,97.196,196.896L97.196,196.896z"/>
</g>
<g>
	<path fill="#C0BFBF" d="M118.067,215.35c0,0-4.783,1.1-11.061,1.818c-2.566-6.324-7.622-12.145-11.991-16.361
		c0.702-0.062,1.436-0.092,2.184-0.092C115.149,200.715,118.067,215.35,118.067,215.35z"/>
</g>
<g>
	<path fill="#FFFFFF" d="M131.669,177.037c-17.603,0-42.392-17.062-42.392-54.995c0-11.393,3.646-22.813,10.837-33.941l0.904-1.398
		l1.609,0.427c8.976,2.386,18.747,3.595,29.041,3.595s20.065-1.209,29.042-3.595l1.609-0.427l0.904,1.398
		c7.191,11.13,10.837,22.55,10.837,33.941C174.062,159.976,149.271,177.037,131.669,177.037z"/>
	<g>
		<path d="M161.3,89.345c5.973,9.244,10.471,20.304,10.471,32.697c0,37.045-24.443,52.704-40.102,52.704
			c-15.659,0-40.1-15.659-40.1-52.704c0-12.394,4.497-23.453,10.471-32.697c8.194,2.178,18.028,3.672,29.629,3.672
			S153.104,91.522,161.3,89.345 M99.998,84.06l-1.808,2.797c-7.435,11.505-11.205,23.343-11.205,35.185
			c0,22.355,8.39,35.935,15.429,43.39c8.215,8.702,19.152,13.897,29.254,13.897s21.039-5.195,29.255-13.897
			c7.039-7.455,15.43-21.034,15.43-43.39c0-11.84-3.77-23.678-11.204-35.185l-1.808-2.797l-3.219,0.855
			c-8.785,2.334-18.358,3.518-28.454,3.518s-19.668-1.184-28.452-3.518L99.998,84.06L99.998,84.06z"/>
	</g>
</g>
<g>
	
		<path fill="#FFFFFF" stroke="#000000" stroke-width="3.0553" stroke-linecap="round" stroke-linejoin="round" stroke-miterlimit="10" d="
		M219.247,154.627c-11.32,4.201-22.396,12.357-22.656,1.283c-0.26-11.076-1.404-13.505-1.404-13.505s-6.752-10.801-13.385-16.423
		c1.223-2.122,2.064-4.995,2.186-8.844c0.244-7.944-1.451-15.979-3.223-22.06c8.662,4.276,26.383,15.703,30.537,39
		C211.302,134.079,230.581,150.426,219.247,154.627z"/>
	
		<path fill="#FFFFFF" stroke="#000000" stroke-width="3.0553" stroke-linecap="round" stroke-linejoin="round" stroke-miterlimit="10" d="
		M197.218,159.285c-3.086,1.939-7.791,3.712-9.73,1.771c-2.889-2.886-0.354-7.224,3.084-10.372c3.438-3.147,5.027-6.767,5.027-6.767
		c0.352,1.741,0.838,5.271,0.992,11.992C196.622,157.346,196.835,158.445,197.218,159.285z"/>
	
		<path fill="#FFFFFF" stroke="#000000" stroke-width="3.0553" stroke-linecap="round" stroke-linejoin="round" stroke-miterlimit="10" d="
		M208.11,176.273c-1.207,6.689-10.373,5.346-10.496,0c-0.092-3.514,0.52-10.786,0.932-15.369c2.016,1.283,5.455,0.244,9.547-1.497
		C208.476,163.808,208.95,171.645,208.11,176.273z"/>
	
		<path fill="#FFFFFF" stroke="#000000" stroke-width="3.0553" stroke-linecap="round" stroke-linejoin="round" stroke-miterlimit="10" d="
		M221.601,168.482c-1.576-2.338-3.484-6.203-4.984-9.426c-0.014-0.031-0.014-0.062-0.029-0.092
		c-0.428-1.023-0.824-1.971-1.191-2.765c1.268-0.565,2.551-1.1,3.852-1.573c0.809-0.307,1.465-0.658,1.984-1.085
		c1.957,2.46,5.865,7.546,7.502,10.769C230.964,168.695,224.655,173.035,221.601,168.482z"/>
	
		<path fill="#FFFFFF" stroke="#000000" stroke-width="3.0553" stroke-linecap="round" stroke-linejoin="round" stroke-miterlimit="10" d="
		M213.272,176.716c-2.932-1.222-4.109-8.981-5.119-17.323c2.232-0.947,4.676-2.093,7.182-3.177c0.352,0.794,0.777,1.741,1.252,2.749
		c0.016,0.03,0.016,0.061,0.029,0.092c1.453,3.528,3.102,8.096,3.531,11.61C220.972,177.357,216.235,177.969,213.272,176.716z"/>
	<path fill="none" stroke="#000000" stroke-width="3.0553" stroke-miterlimit="10" d="M189.915,134.883
		c0,0,4.52-12.754,15.082-17.89"/>
	
		<line fill="none" stroke="#000000" stroke-width="3.0553" stroke-miterlimit="10" x1="211.294" y1="134.071" x2="195.19" y2="142.411"/>
</g>
<path fill="#0095DA" d="M134.981,92.971v81.546c-1.131,0.152-2.248,0.229-3.314,0.229c-1.07,0-2.17-0.077-3.301-0.229V92.971
	c1.084,0.031,2.184,0.046,3.301,0.046C132.78,93.017,133.896,93.002,134.981,92.971z"/>
<rect x="144.14" y="113.687" fill="#0095DA" width="18.344" height="3.307"/>
<g>
	<polygon points="120.628,118.368 121.271,118.368 121.271,113.192 122.929,113.192 122.685,112.729 122.542,112.312 
		120.628,112.312 118.704,112.312 118.563,112.729 118.315,113.192 120.007,113.192 120.007,118.368 	"/>
	<path d="M98.472,114.32c0-0.582,0.075-1.057,0.388-1.418c0.327-0.35,0.806-0.591,1.367-0.591h2.053l0.274,0.976h-1.794
		c-0.302,0-1.043,0.092-1.043,0.779v2.556c0,0.683,0.741,0.787,1.043,0.787h1.473l0.466,0.959h-2.472
		c-0.562,0-1.04-0.236-1.367-0.591c-0.313-0.368-0.388-0.822-0.388-1.409V114.32z"/>
	<path d="M108.105,116.487c0,1.04-0.989,1.881-2.222,1.881c-1.224,0-2.222-0.841-2.222-1.881v-2.294
		c0-1.037,0.998-1.882,2.222-1.882c1.232,0,2.222,0.845,2.222,1.882V116.487z M104.897,116.592c0,0.747,0.622,0.792,0.986,0.792
		c0.365,0,0.975-0.045,0.975-0.792v-2.502c0-0.748-0.609-0.793-0.975-0.793c-0.364,0-0.986,0.045-0.986,0.793V116.592z"/>
	<rect x="115.867" y="112.312" width="1.394" height="6.057"/>
	<path d="M112.022,116.422h0.621v-2.451c0-0.494,0.938-0.801,0.938-0.801v5.198h1.296v-6.057h-1.882
		c-0.156,0-0.367,0.124-0.367,0.124l-0.606,0.467l-0.624-0.467c0,0-0.211-0.124-0.337-0.124h-1.913v6.057h1.312v-5.198
		c0,0,0.938,0.307,0.938,0.801v2.451H112.022z"/>
</g>
<path fill="#FFFFFF" stroke="#000000" stroke-width="3.0553" stroke-linecap="round" stroke-linejoin="round" stroke-miterlimit="10" d="
	M60.085,114.212l-20.064-7.378c5.169-3.855,7.335-8.181,8.129-10.38c1.084-2.979,1.742-5.454,1.497-7.654l17.522,3.59
	C67.169,92.39,72.703,105.994,60.085,114.212z"/>
<path fill="#FFFFFF" stroke="#000000" stroke-width="3.0553" stroke-linecap="round" stroke-linejoin="round" stroke-miterlimit="10" d="
	M79.345,117.139c0.045,1.527,0.213,2.902,0.473,4.14l-19.732-7.066c12.617-8.218,7.084-21.822,7.084-21.822l15.261,3.147
	C80.718,101.557,79.1,109.394,79.345,117.139z"/>
<path fill="#5D5E5E" d="M119.675,86.007c2.144,2.436,5.358,3.799,11.992,3.799c6.633,0,9.848-1.363,11.99-3.799H119.675z"/>
<g>
	<path fill="#FFFFFF" d="M54.724,65.465c-2.131-0.304-3.71-1.322-4.692-3.023c-1.081-1.874-1.363-4.486-0.862-7.987l2.637-18.435
		c0.864-6.044,3.321-9.108,7.301-9.108c0.36,0,0.736,0.028,1.119,0.083L72.147,28.7l-1.241,2.389
		c-0.946,1.821-1.583,3.846-1.894,6.02L66.41,55.302c-0.454,3.178-0.15,6.247,0.903,9.122l1.1,3L54.724,65.465z"/>
	<g>
		<path d="M59.108,28.822c0.282,0,0.565,0.022,0.849,0.063l9.255,1.324c-1.022,1.968-1.737,4.165-2.089,6.629L64.52,55.031
			c-0.523,3.66-0.109,7.021,1,10.05l-10.526-1.506c-2.631-0.376-4.879-2.241-3.934-8.85l2.637-18.435
			C54.542,30.381,56.769,28.822,59.108,28.822 M59.108,25.002c-2.858,0-7.854,1.396-9.191,10.748L47.28,54.185
			c-0.563,3.94-0.204,6.953,1.099,9.211c0.887,1.537,2.661,3.472,6.076,3.96l10.525,1.506l6.326,0.905l-2.199-6
			c-0.944-2.575-1.215-5.333-0.806-8.195l2.603-18.193c0.28-1.96,0.852-3.78,1.698-5.41l2.482-4.778l-5.33-0.763l-9.255-1.324
			C60.025,25.037,59.558,25.002,59.108,25.002L59.108,25.002z"/>
	</g>
</g>
<g>
	<path fill="#FFFFFF" d="M208.976,87.451c-0.36,0-0.737-0.028-1.12-0.083l-13.688-1.958l1.896-2.571
		c1.817-2.465,2.97-5.326,3.424-8.503l2.603-18.192c0.312-2.174,0.268-4.297-0.131-6.309l-0.523-2.643l11.922,1.706
		c2.133,0.304,3.712,1.323,4.693,3.026c1.08,1.875,1.361,4.491,0.86,7.999l-2.637,18.435
		C215.411,84.392,212.955,87.451,208.976,87.451z"/>
	<path d="M203.832,49.464l9.255,1.324c2.633,0.376,4.881,2.241,3.934,8.864l-2.637,18.435c-0.844,5.896-3.069,7.455-5.408,7.455
		c-0.282,0-0.566-0.022-0.85-0.063l-10.525-1.506c1.914-2.596,3.254-5.706,3.777-9.366l2.603-18.192
		C204.333,53.949,204.263,51.64,203.832,49.464 M199.039,44.92l1.047,5.286c0.356,1.8,0.395,3.707,0.114,5.668l-2.603,18.192
		c-0.409,2.862-1.442,5.433-3.071,7.641l-3.792,5.142l6.325,0.905l10.525,1.506c0.473,0.067,0.94,0.102,1.391,0.102
		c2.858,0,7.853-1.395,9.188-10.733l2.637-18.435c0.564-3.946,0.206-6.962-1.096-9.222c-0.886-1.539-2.66-3.476-6.078-3.964
		l-9.254-1.324L199.039,44.92L199.039,44.92z"/>
</g>
<g>
	<path fill="#FFFFFF" d="M145.291,104.095c-5.75,0-11.73-0.438-17.773-1.303C93.729,97.959,75.861,82.65,68.217,73.954
		c-4.905-5.579-6.968-12.234-5.965-19.244l2.603-18.198c1.003-7.011,4.849-12.82,11.122-16.8
		C88.712,11.625,105.045,7.35,123.21,7.35c5.749,0,11.729,0.438,17.771,1.302c33.796,4.833,51.66,20.144,59.302,28.84
		c4.905,5.578,6.969,12.232,5.967,19.243l-2.604,18.199c-1.003,7.01-4.849,12.819-11.123,16.8
		C179.786,99.82,163.452,104.095,145.291,104.095C145.291,104.095,145.292,104.095,145.291,104.095z"/>
	<path d="M123.21,9.642c5.357,0,11.177,0.382,17.447,1.279c37.24,5.326,53.923,23.553,57.904,28.084
		c3.982,4.528,6.418,10.421,5.42,17.406l-2.604,18.198c-0.999,6.984-4.99,11.959-10.082,15.189
		c-4.234,2.688-19.552,12.004-46.005,12.004c-5.358,0-11.176-0.382-17.449-1.28c-37.238-5.326-53.922-23.553-57.904-28.082
		c-3.982-4.529-6.417-10.423-5.418-17.407l2.603-18.198c0.999-6.985,4.989-11.959,10.081-15.189
		C81.438,18.958,96.754,9.642,123.21,9.642 M123.21,5.059c-18.6,0-35.358,4.398-48.463,12.719
		c-6.855,4.349-11.061,10.715-12.161,18.41l-2.603,18.198c-1.101,7.694,1.151,14.984,6.513,21.082
		c7.852,8.933,26.179,24.656,60.697,29.593c6.15,0.88,12.239,1.326,18.098,1.326c18.597,0,35.354-4.398,48.461-12.718
		c6.856-4.35,11.063-10.716,12.163-18.41l2.604-18.198c1.1-7.695-1.154-14.985-6.516-21.082
		c-7.849-8.932-26.172-24.657-60.697-29.594C135.156,5.504,129.067,5.059,123.21,5.059L123.21,5.059z"/>
</g>
<path fill="#5D5E5E" d="M141.624,88.855c-2.467,2.107-5.842,3.002-12.408,2.063s-9.557-2.744-11.332-5.459L141.624,88.855z"/>
<g>
	<path fill="#263137" d="M187.19,52.311c-7.506-10.266-26.686-16.479-49.627-19.76c-31.182-4.461-57.214-1.774-59.803,16.326
		c-0.321,2.247-0.297,4.367,0.02,6.362c2.209,14.039,18.626,21.695,27.213,22.924c15.083,2.157,14.641-8.038,26.946-6.278
		c12.299,1.76,9.018,11.422,24.1,13.579c9.805,1.402,31.762-2.382,34.35-20.478C191.072,60.205,189.888,55.995,187.19,52.311z"/>
	<path fill="#354A55" d="M77.76,48.877c-0.321,2.247-0.297,4.367,0.02,6.362c18.836,4.371,47.5,9.132,73.379,5.642
		c15.092-2.039,26.971-5.249,36.031-8.57c-7.506-10.266-26.686-16.479-49.627-19.76C106.381,28.09,80.349,30.776,77.76,48.877z"/>
	<path fill="none" stroke="#000000" stroke-width="3" stroke-miterlimit="10" d="M131.938,71.886
		c12.304,1.76,9.022,11.423,24.104,13.58c9.803,1.401,31.762-2.383,34.35-20.48c2.588-18.097-21.647-27.977-52.827-32.436
		c-31.18-4.46-57.213-1.771-59.802,16.326c-2.588,18.098,17.429,27.886,27.231,29.288C120.075,80.321,119.634,70.126,131.938,71.886
		z"/>
</g>
<g>
	<g>
		<path fill="#00AEEF" d="M141.541,39.455c-1.556,0-3.209-0.124-4.912-0.367c-16.66-2.383-19.427-13.538-20.914-19.53
			c-0.229-0.925-0.428-1.725-0.64-2.379c-0.814-2.509-2.063-3.911-3.065-5.038c-1.067-1.198-2.17-2.438-1.903-4.303
			c0.255-1.782,2.348-5.928,16.243-5.928c4.374,0,9.561,0.425,15.417,1.263c28.18,4.031,29.386,11.24,29.084,13.354
			c-0.268,1.866-1.674,2.746-3.034,3.597c-1.279,0.8-2.871,1.796-4.356,3.977c-0.388,0.569-0.802,1.281-1.282,2.105
			C159.292,31.161,154.462,39.455,141.541,39.455C141.541,39.455,141.542,39.455,141.541,39.455z"/>
		<path d="M126.35,3.819c3.957,0,8.931,0.354,15.146,1.243c23.44,3.353,27.77,9.052,27.464,11.193
			c-0.307,2.143-3.904,2.111-7.078,6.769c-2.877,4.222-6.463,14.521-20.341,14.521c-1.434,0-2.978-0.11-4.642-0.348
			c-17.768-2.542-18.268-15.247-20.008-20.608c-1.74-5.36-5.201-6.338-4.895-8.481C112.222,6.535,115.387,3.819,126.35,3.819
			 M126.35,0c-14.836,0-17.729,4.741-18.133,7.567c-0.392,2.743,1.203,4.535,2.367,5.843c0.976,1.096,1.985,2.229,2.676,4.358
			c0.191,0.59,0.382,1.359,0.603,2.249c1.595,6.429,4.563,18.395,22.496,20.961c1.793,0.256,3.537,0.386,5.183,0.386
			c14.021,0,19.397-9.236,22.287-14.198c0.462-0.793,0.86-1.479,1.21-1.991c1.26-1.85,2.547-2.655,3.791-3.434
			c1.485-0.929,3.519-2.202,3.911-4.945c0.27-1.887-0.258-5.571-6.815-9.056c-5.199-2.762-13.236-4.936-23.888-6.459
			C136.092,0.431,130.813,0,126.35,0L126.35,0z"/>
	</g>
	<path fill="#0095DA" d="M112,8.104c-0.307,2.148,3.15,3.122,4.897,8.493c1.734,5.357,2.23,18.066,20,20.607
		c6.396,0.915,10.996-0.063,14.438-1.899c-33.32-3.64-34.93-22.496-18.635-25.397c12.525-2.221,26.832,0.891,34.006,2.843
		c-3.19-2.509-10.375-5.573-25.21-7.695C118.056,1.702,112.306,5.971,112,8.104z"/>
</g>
<path fill="#00AEEF" d="M170.429,68.195c-0.684-0.098-1.158-0.73-1.061-1.414c0.605-4.23-2.344-8.164-6.574-8.77
	s-8.164,2.344-8.77,6.574c-0.098,0.684-0.73,1.158-1.414,1.061s-1.158-0.73-1.061-1.414c0.801-5.595,6.004-9.496,11.599-8.695
	c5.595,0.8,9.495,6.003,8.695,11.598C171.746,67.818,171.112,68.293,170.429,68.195z"/>
<path fill="#00AEEF" d="M96.024,57.553c0.684,0.098,1.317-0.377,1.415-1.061c0.605-4.23,4.539-7.18,8.769-6.574
	s7.18,4.539,6.575,8.77c-0.098,0.684,0.377,1.316,1.061,1.414s1.316-0.377,1.414-1.061c0.8-5.595-3.101-10.798-8.695-11.598
	c-5.595-0.801-10.798,3.101-11.598,8.695C94.866,56.822,95.341,57.455,96.024,57.553z"/>
</svg>
