<?xml version="1.0" encoding="utf-8"?>
<!-- Generator: Adobe Illustrator 16.0.0, SVG Export Plug-In . SVG Version: 6.00 Build 0)  -->
<!DOCTYPE svg PUBLIC "-//W3C//DTD SVG 1.1//EN" "http://www.w3.org/Graphics/SVG/1.1/DTD/svg11.dtd">
<svg version="1.1" id="Layer_1" xmlns="http://www.w3.org/2000/svg" xmlns:xlink="http://www.w3.org/1999/xlink" x="0px" y="0px"
	 width="152.137px" height="152.606px" viewBox="39.296 16.572 152.137 152.606"
	 enable-background="new 39.296 16.572 152.137 152.606" xml:space="preserve">
<g>
	
		<path fill="#FFFFFF" stroke="#000000" stroke-width="2.1373" stroke-linecap="round" stroke-linejoin="round" stroke-miterlimit="10" d="
		M71.081,80.608c-0.543,1.491-1.419,3.131-2.657,4.56c-0.062,0.081-0.122,0.153-0.192,0.222c-2.194,2.395-5.475,4.096-10.146,3.271
		c-2.094-0.373-3.542-1.269-4.538-2.487c-1.319-1.62-1.822-3.813-1.933-6.069c-0.009-0.311-0.02-0.633-0.02-0.945
		c0-1.841,0.221-3.694,0.454-5.265c0.1-0.685,0.232-1.408,0.413-2.123c0.04-0.142,0.08-0.282,0.11-0.424h0.009
		c0.625-2.144,1.782-4.126,4.086-4.721c1.078-0.281,2.426-0.251,4.087,0.211c2.173,0.615,4.901,1.983,8.313,4.378
		c0.784,0.555,1.399,1.098,1.852,1.662c0.011,0.011,0.011,0.021,0.011,0.021c0.624,0.765,0.976,1.56,1.106,2.415
		C72.278,76.834,71.835,78.536,71.081,80.608z"/>
	
		<path fill="#FFFFFF" stroke="#000000" stroke-width="2.1373" stroke-linecap="round" stroke-linejoin="round" stroke-miterlimit="10" d="
		M70.919,72.879c-0.452-0.563-1.067-1.106-1.852-1.662c-3.412-2.395-6.14-3.763-8.313-4.378c-0.101-0.271-2.053-5.655-0.745-7.448
		c1.348-1.851,3.362-2.938,5.877,2.175C68.323,66.527,70.769,72.516,70.919,72.879z"/>
	
		<path fill="#FFFFFF" stroke="#000000" stroke-width="2.1373" stroke-linecap="round" stroke-linejoin="round" stroke-miterlimit="10" d="
		M56.668,66.628c-2.304,0.595-3.461,2.577-4.086,4.721h-0.009c-8.031-1.78-8.244-6.008-7.156-7.518
		c1.097-1.51,2.938-2.264,5.203-0.917C52.884,64.253,56.668,66.628,56.668,66.628z"/>
	
		<path fill="#FFFFFF" stroke="#000000" stroke-width="2.1373" stroke-linecap="round" stroke-linejoin="round" stroke-miterlimit="10" d="
		M52.462,71.772c-0.181,0.715-0.313,1.438-0.413,2.123c-0.233,1.571-0.454,3.423-0.454,5.265
		c-6.511-0.816-10.799-3.089-11.172-4.902c-0.373-1.892,1.007-3.463,4.157-3.463S52.462,71.772,52.462,71.772z"/>
	
		<path fill="#FFFFFF" stroke="#000000" stroke-width="2.1373" stroke-linecap="round" stroke-linejoin="round" stroke-miterlimit="10" d="
		M53.548,86.174c-0.785,0.081-11.354,1.167-10.729-3.551c0.625-4.721,8.795-2.518,8.795-2.518
		C51.726,82.36,52.229,84.553,53.548,86.174z"/>
	<ellipse opacity="0.3" cx="126.104" cy="159.615" rx="50.394" ry="9.563"/>
	<g>
		<path fill="#0094D9" stroke="#231F20" stroke-width="2.0129" stroke-miterlimit="10" d="M160.38,89.335
			c-2.494-0.424-4.97-0.595-7.296-0.625c-0.886-3.413-2.235-6.612-3.866-9.572c3.071-1.018,5.738-2.154,7.982-3.291
			C158.288,78.877,159.837,83.9,160.38,89.335z"/>
		
			<path fill="#FFFFFF" stroke="#000000" stroke-width="2.1373" stroke-linecap="round" stroke-linejoin="round" stroke-miterlimit="10" d="
			M160.573,94.236c-0.223,7.155-4.208,9.127-6.743,9.652c0.251-2.022,0.392-4.157,0.392-6.421c0-3.039-0.411-5.97-1.137-8.756
			c2.326,0.03,4.802,0.2,7.296,0.625C160.552,90.954,160.623,92.595,160.573,94.236z"/>
	</g>
	<g>
		<path fill="#0094D9" stroke="#231F20" stroke-width="2.0129" stroke-miterlimit="10" d="M91.83,89.335
			c2.495-0.424,4.971-0.595,7.296-0.625c0.886-3.413,2.234-6.612,3.865-9.572c-3.072-1.018-5.737-2.154-7.982-3.291
			C93.921,78.877,92.372,83.9,91.83,89.335z"/>
		
			<path fill="#FFFFFF" stroke="#000000" stroke-width="2.1373" stroke-linecap="round" stroke-linejoin="round" stroke-miterlimit="10" d="
			M91.637,94.236c0.222,7.155,4.207,9.127,6.744,9.652c-0.251-2.022-0.394-4.157-0.394-6.421c0-3.039,0.414-5.97,1.139-8.756
			c-2.326,0.03-4.801,0.2-7.296,0.625C91.657,90.954,91.589,92.595,91.637,94.236z"/>
	</g>
	<g>
		<path fill="#FFFFFF" d="M136.733,156.211c-0.058,0-0.115-0.005-0.173-0.016c-0.423-0.08-0.79-0.357-0.88-0.778
			c-2.663-12.457-2.9-19.532-2.91-21.403c-0.003-0.44,0.263-0.823,0.646-0.988c0.005-0.002,0.009-0.005,0.013-0.007
			c3.29-1.671,7.966-4.987,11.554-11.291c0.169-0.396,0.569-0.667,0.997-0.667c0.015,0,0.029,0,0.044,0.001
			c0.444,0.019,0.843,0.292,0.981,0.715c0.979,2.979,4.327,13.784,6.337,27.682c0.052,0.354-0.078,0.712-0.346,0.95
			c-0.198,0.177-0.452,0.271-0.712,0.271c-0.08,0-0.16-0.009-0.239-0.026c-0.023-0.003-0.047-0.007-0.07-0.011
			c-0.972-0.183-2.033-0.275-3.153-0.275c-6.292,0-9.529,2.893-11.138,5.319C137.479,155.997,137.104,156.211,136.733,156.211z"/>
		<g>
			<path d="M145.99,122.11c1.077,3.28,4.318,13.831,6.295,27.502c-0.041-0.011-0.071-0.02-0.112-0.02
				c-1.016-0.19-2.135-0.293-3.351-0.293c-6.725,0-10.247,3.109-12.028,5.798c-0.03,0.038-0.05,0.067-0.068,0.097
				c-2.631-12.309-2.877-19.281-2.887-21.186c0.027-0.002,0.047-0.019,0.075-0.036c4.419-2.245,8.796-6.09,11.998-11.716
				C145.939,122.208,145.969,122.157,145.99,122.11 M145.989,119.972c-0.826,0-1.581,0.479-1.933,1.228l-0.002-0.001
				c-3.452,6.065-7.937,9.254-11.096,10.861c-0.748,0.338-1.262,1.093-1.258,1.959c0.01,1.897,0.25,9.065,2.935,21.621
				c0.182,0.85,0.858,1.504,1.713,1.657c0.126,0.022,0.252,0.033,0.377,0.033c0.707,0,1.378-0.352,1.778-0.951
				c0.025-0.033,0.049-0.067,0.072-0.102c2.128-3.213,5.575-4.841,10.246-4.841c1.055,0,2.05,0.086,2.957,0.256
				c0.036,0.007,0.073,0.013,0.11,0.018c0.126,0.023,0.254,0.034,0.381,0.034c0.521,0,1.034-0.188,1.43-0.542
				c0.534-0.478,0.803-1.188,0.7-1.896c-2.021-13.983-5.395-24.862-6.38-27.863c-0.277-0.845-1.049-1.43-1.937-1.469
				C146.052,119.973,146.02,119.972,145.989,119.972L145.989,119.972z"/>
		</g>
	</g>
	<path d="M134.387,141.409c0.069,0.623,0.151,1.298,0.252,2.003c7.206-1.118,12.188-3.744,15.398-6.151
		c-0.161-0.754-0.331-1.489-0.503-2.204C146.605,137.412,141.715,140.251,134.387,141.409z"/>
	<g>
		<path fill="#BFBEBE" d="M133.844,134.011c0.008,1.018,0.08,3.462,0.543,7.398c1.349-0.212,2.616-0.483,3.806-0.807l-0.354-1.771
			c5.897-5.003,8.464-9.571,9.53-12.198c-0.583-2.043-1.075-3.583-1.377-4.529c-0.021,0.05-0.051,0.101-0.081,0.151
			c-3.202,5.626-7.579,9.471-11.998,11.716C133.884,133.992,133.864,134,133.844,134.011z"/>
	</g>
	<g>
		<path fill="#BFBEBE" d="M134.639,143.412c0.423,3.148,1.087,7.075,2.083,11.786c0.021-0.032,0.039-0.062,0.071-0.102
			c0.803-1.208,1.94-2.497,3.571-3.542l-1.781-8.948C137.345,142.919,136.037,143.199,134.639,143.412z"/>
	</g>
	<g>
		<path fill="#FFFFFF" d="M148.815,161.797c-6.857,0-13.745-1.56-14.035-1.626l-1.192-0.273l0.24-1.2
			c0.021-0.106,2.277-10.656,14.987-10.656c12.712,0,14.968,10.55,14.989,10.656l0.24,1.2l-1.192,0.273
			C162.562,160.238,155.674,161.797,148.815,161.797z"/>
		<path d="M148.815,149.299c11.827,0,13.756,9.646,13.756,9.646s-6.96,1.595-13.756,1.595c-6.794,0-13.754-1.595-13.754-1.595
			S136.99,149.299,148.815,149.299 M148.815,146.782c-10.985,0-15.414,7.633-16.222,11.669l-0.479,2.399l2.386,0.546
			c0.295,0.068,7.317,1.659,14.315,1.659c7,0,14.022-1.591,14.317-1.659l2.386-0.546l-0.479-2.399
			C164.231,154.415,159.802,146.782,148.815,146.782L148.815,146.782z"/>
	</g>
	<g>
		<path fill="#BFBEBE" d="M135.064,158.942c0,0,3.151,0.723,7.287,1.198c1.691-4.167,5.021-8.003,7.901-10.779
			c-0.463-0.042-0.945-0.062-1.44-0.062C136.986,149.299,135.064,158.942,135.064,158.942z"/>
	</g>
	<g>
		<path fill="#FFFFFF" d="M115.485,156.262c-0.357,0-0.697-0.18-0.896-0.486l0.896-0.582l-0.908,0.564
			c-1.66-2.497-4.897-5.391-11.187-5.391c-1.121,0-2.182,0.093-3.156,0.275c-0.027,0.005-0.054,0.009-0.081,0.012
			c-0.068,0.013-0.138,0.02-0.208,0.02c-0.262,0-0.522-0.093-0.72-0.27c-0.266-0.239-0.408-0.592-0.357-0.945
			c2.005-13.881,5.355-24.698,6.334-27.683c0.139-0.424,0.527-0.717,0.973-0.734c0.014-0.001,0.029-0.001,0.043-0.001
			c0.429,0,0.818,0.257,0.985,0.656c3.608,6.334,8.284,9.65,11.574,11.321c0.004,0.003,0.008,0.005,0.013,0.007
			c0.384,0.165,0.649,0.548,0.646,0.988c-0.01,1.874-0.247,8.955-2.908,21.403c-0.09,0.422-0.426,0.749-0.851,0.827
			C115.614,156.256,115.549,156.262,115.485,156.262z"/>
		<g>
			<path d="M106.219,122.11c0.02,0.048,0.05,0.099,0.079,0.146c3.201,5.626,7.578,9.471,11.997,11.716
				c0.028,0.018,0.048,0.034,0.075,0.036c-0.01,1.904-0.254,8.877-2.885,21.186c-0.019-0.029-0.038-0.059-0.068-0.097
				c-1.782-2.688-5.305-5.798-12.027-5.798c-1.218,0-2.335,0.103-3.353,0.293c-0.04,0-0.071,0.009-0.111,0.02
				C101.901,135.941,105.142,125.39,106.219,122.11 M106.219,119.972c-0.028,0-0.057,0.001-0.085,0.002
				c-0.892,0.035-1.668,0.621-1.946,1.47c-0.986,3.005-4.36,13.896-6.377,27.862c-0.103,0.712,0.159,1.427,0.696,1.904
				c0.396,0.352,0.902,0.539,1.419,0.539c0.142,0,0.285-0.015,0.426-0.043c0.026-0.004,0.052-0.009,0.078-0.014
				c0.909-0.17,1.904-0.256,2.959-0.256c4.668,0,8.116,1.629,10.246,4.841c0.024,0.036,0.049,0.071,0.075,0.106
				c0.404,0.59,1.074,0.938,1.774,0.938c0.129,0,0.259-0.012,0.389-0.036c0.847-0.158,1.521-0.802,1.701-1.646
				c2.683-12.547,2.923-19.721,2.933-21.621c0.004-0.866-0.51-1.621-1.259-1.959c-3.159-1.608-7.643-4.796-11.093-10.86
				c-0.006-0.011-0.012-0.021-0.018-0.031C107.78,120.438,107.035,119.972,106.219,119.972L106.219,119.972z"/>
		</g>
	</g>
	<path d="M117.821,141.409c-0.069,0.623-0.149,1.298-0.251,2.003c-7.207-1.118-12.188-3.744-15.398-6.151
		c0.161-0.754,0.332-1.489,0.503-2.204C105.603,137.412,110.494,140.251,117.821,141.409z"/>
	<g>
		<path fill="#BFBEBE" d="M118.365,134.011c-0.01,1.018-0.081,3.462-0.545,7.398c-1.347-0.212-2.616-0.483-3.804-0.807l0.352-1.771
			c-5.897-5.003-8.464-9.571-9.53-12.198c0.584-2.043,1.077-3.583,1.377-4.529c0.021,0.05,0.051,0.101,0.082,0.151
			c3.201,5.626,7.578,9.471,11.997,11.716C118.324,133.992,118.345,134,118.365,134.011z"/>
	</g>
	<g>
		<path fill="#BFBEBE" d="M117.57,143.412c-0.423,3.148-1.087,7.075-2.082,11.786c-0.021-0.032-0.041-0.062-0.071-0.102
			c-0.805-1.208-1.941-2.497-3.573-3.542l1.781-8.948C114.863,142.919,116.17,143.199,117.57,143.412z"/>
	</g>
	<g>
		<path fill="#FFFFFF" d="M103.394,161.797c-6.858,0-13.746-1.56-14.036-1.626l-1.193-0.273l0.24-1.2
			c0.021-0.106,2.279-10.656,14.989-10.656c12.71,0,14.966,10.55,14.988,10.656l0.24,1.2l-1.192,0.273
			C117.14,160.238,110.251,161.797,103.394,161.797z"/>
		<path d="M103.394,149.299c11.826,0,13.754,9.646,13.754,9.646s-6.961,1.595-13.754,1.595c-6.795,0-13.755-1.595-13.755-1.595
			S91.569,149.299,103.394,149.299 M103.394,146.782c-10.986,0-15.415,7.633-16.222,11.669l-0.48,2.399l2.385,0.546
			c0.295,0.068,7.318,1.659,14.317,1.659c6.997,0,14.021-1.591,14.316-1.659l2.386-0.546l-0.479-2.399
			C118.809,154.415,114.38,146.782,103.394,146.782L103.394,146.782z"/>
	</g>
	<g>
		<path fill="#BFBEBE" d="M117.145,158.942c0,0-3.151,0.723-7.287,1.198c-1.691-4.167-5.022-8.003-7.9-10.779
			c0.462-0.042,0.945-0.062,1.439-0.062C115.223,149.299,117.145,158.942,117.145,158.942z"/>
	</g>
	<g>
		<path fill="#FFFFFF" d="M126.107,133.506c-11.517,0-27.737-11.181-27.737-36.039c0-7.469,2.392-14.958,7.109-22.258l0.52-0.804
			l0.926,0.246c5.925,1.576,12.379,2.375,19.183,2.375s13.257-0.799,19.182-2.375l0.926-0.246l0.52,0.805
			c4.719,7.302,7.11,14.791,7.11,22.258C153.844,122.325,137.624,133.506,126.107,133.506z"/>
		<g>
			<path d="M145.627,75.924c3.936,6.091,6.899,13.377,6.899,21.543c0,24.405-16.104,34.722-26.42,34.722
				c-10.316,0-26.419-10.316-26.419-34.722c0-8.166,2.962-15.452,6.898-21.543c5.398,1.436,11.878,2.419,19.521,2.419
				C133.748,78.344,140.229,77.36,145.627,75.924 M146.801,72.885l-1.852,0.492c-5.814,1.547-12.153,2.331-18.843,2.331
				s-13.03-0.784-18.844-2.331l-1.851-0.492l-1.04,1.609c-4.857,7.517-7.32,15.246-7.32,22.973c0,14.602,5.471,23.461,10.06,28.322
				c5.341,5.657,12.442,9.035,18.995,9.035c6.552,0,13.652-3.378,18.994-9.035c4.59-4.861,10.062-13.721,10.062-28.322
				c0-7.725-2.464-15.454-7.321-22.973L146.801,72.885L146.801,72.885z"/>
		</g>
	</g>
	<g>
		
			<path fill="#FFFFFF" stroke="#000000" stroke-width="2.1373" stroke-linecap="round" stroke-linejoin="round" stroke-miterlimit="10" d="
			M183.808,118.935c-7.459,2.769-14.756,8.143-14.928,0.846c-0.171-7.297-0.925-8.898-0.925-8.898s-4.449-7.115-8.819-10.82
			c0.808-1.398,1.361-3.291,1.44-5.827c0.161-5.233-0.955-10.526-2.123-14.532c5.706,2.816,17.381,10.345,20.12,25.693
			C178.573,105.397,191.274,116.166,183.808,118.935z"/>
		
			<path fill="#FFFFFF" stroke="#000000" stroke-width="2.1373" stroke-linecap="round" stroke-linejoin="round" stroke-miterlimit="10" d="
			M169.293,122.003c-2.033,1.279-5.134,2.445-6.41,1.169c-1.903-1.902-0.233-4.761,2.032-6.834c2.264-2.075,3.312-4.459,3.312-4.459
			c0.23,1.147,0.552,3.473,0.653,7.901C168.901,120.726,169.042,121.449,169.293,122.003z"/>
		
			<path fill="#FFFFFF" stroke="#000000" stroke-width="2.1373" stroke-linecap="round" stroke-linejoin="round" stroke-miterlimit="10" d="
			M176.47,133.196c-0.797,4.409-6.834,3.523-6.916,0c-0.061-2.314,0.342-7.105,0.613-10.124c1.33,0.844,3.594,0.161,6.292-0.987
			C176.71,124.984,177.024,130.146,176.47,133.196z"/>
		
			<path fill="#FFFFFF" stroke="#000000" stroke-width="2.1373" stroke-linecap="round" stroke-linejoin="round" stroke-miterlimit="10" d="
			M185.357,128.063c-1.037-1.539-2.295-4.086-3.282-6.209c-0.011-0.021-0.011-0.041-0.02-0.061c-0.282-0.675-0.544-1.3-0.785-1.822
			c0.835-0.372,1.68-0.724,2.538-1.036c0.532-0.202,0.964-0.434,1.307-0.715c1.289,1.62,3.865,4.973,4.941,7.095
			C191.526,128.203,187.369,131.063,185.357,128.063z"/>
		
			<path fill="#FFFFFF" stroke="#000000" stroke-width="2.1373" stroke-linecap="round" stroke-linejoin="round" stroke-miterlimit="10" d="
			M179.87,133.488c-1.932-0.805-2.707-5.918-3.372-11.413c1.471-0.625,3.08-1.379,4.731-2.093c0.232,0.522,0.513,1.147,0.825,1.812
			c0.009,0.02,0.009,0.04,0.02,0.061c0.956,2.323,2.043,5.334,2.325,7.648C184.944,133.91,181.822,134.313,179.87,133.488z"/>
		<path fill="none" stroke="#000000" stroke-width="2.0129" stroke-miterlimit="10" d="M164.483,105.927
			c0,0,2.978-8.403,9.937-11.787"/>
		
			<line fill="none" stroke="#000000" stroke-width="2.0129" stroke-miterlimit="10" x1="178.568" y1="105.392" x2="167.956" y2="110.886"/>
	</g>
	<path fill="#0094D9" d="M128.287,78.314v53.726c-0.743,0.1-1.479,0.149-2.184,0.149s-1.43-0.05-2.174-0.149V78.314
		c0.715,0.021,1.438,0.03,2.174,0.03S127.573,78.334,128.287,78.314z"/>
	<g>
		<path fill="#FFFFFF" d="M167.952,66.578l0.998-1.854c0.955-1.775,1.439-3.748,1.439-5.864V46.75c0-1.448-0.227-2.828-0.674-4.101
			l-0.587-1.675h7.935c2.121,0,4.649,1.158,4.649,6.671v12.269c0,5.507-2.528,6.663-4.649,6.663H167.952z"/>
		<g>
			<path d="M177.064,42.233c1.751,0,3.392,1.005,3.392,5.413v12.269c0,4.398-1.641,5.405-3.392,5.405h-7.006
				c1.007-1.871,1.59-4.025,1.59-6.46V46.75c0-1.641-0.261-3.14-0.744-4.517H177.064 M177.064,39.717h-6.16h-3.55l1.176,3.349
				c0.399,1.139,0.602,2.378,0.602,3.684v12.109c0,1.906-0.434,3.678-1.289,5.268l-1.995,3.708h4.211h7.006
				c1.776,0,5.908-0.772,5.908-7.921V47.646C182.972,40.49,178.84,39.717,177.064,39.717L177.064,39.717z"/>
		</g>
	</g>
	<g>
		<path fill="#FFFFFF" d="M75.147,66.578c-2.121,0-4.65-1.156-4.65-6.663V47.646c0-5.514,2.529-6.671,4.65-6.671h7.935l-0.588,1.675
			c-0.447,1.274-0.673,2.653-0.673,4.101v12.109c0,2.116,0.484,4.089,1.439,5.864l0.998,1.854H75.147z"/>
		<path d="M81.306,42.233c-0.483,1.377-0.745,2.876-0.745,4.517v12.109c0,2.436,0.583,4.589,1.59,6.46h-7.005
			c-1.75,0-3.392-1.006-3.392-5.405V47.646c0-4.408,1.641-5.413,3.392-5.413H81.306 M84.856,39.717h-3.55h-6.16
			c-1.776,0-5.908,0.772-5.908,7.929v12.269c0,7.149,4.131,7.921,5.908,7.921h7.005h4.211l-1.996-3.708
			c-0.855-1.59-1.29-3.362-1.29-5.268V46.75c0-1.305,0.203-2.544,0.603-3.684L84.856,39.717L84.856,39.717z"/>
	</g>
	<g>
		<path fill="#FFFFFF" d="M126.104,83.94c-22.423,0-35.463-8.289-41.24-13.23c-3.676-3.145-5.62-7.243-5.62-11.85V46.749
			c0-4.606,1.943-8.703,5.62-11.848c5.775-4.941,18.813-13.231,41.24-13.231c22.428,0,35.467,8.29,41.243,13.231
			c3.676,3.145,5.618,7.242,5.618,11.849V58.86c0,4.608-1.942,8.706-5.618,11.85C161.569,75.651,148.528,83.94,126.104,83.94z"/>
		<path d="M126.104,22.987c24.786,0,37.367,10.332,40.387,12.915c3.02,2.583,5.157,6.199,5.157,10.847V58.86
			c0,4.648-2.138,8.266-5.157,10.849c-3.02,2.582-15.601,12.914-40.387,12.914c-24.783,0-37.365-10.332-40.384-12.914
			c-3.02-2.583-5.158-6.2-5.158-10.849V46.749c0-4.648,2.139-8.264,5.158-10.847C88.739,33.319,101.321,22.987,126.104,22.987
			 M126.104,20.352c-22.851,0-36.184,8.488-42.097,13.547c-3.978,3.403-6.08,7.847-6.08,12.85V58.86
			c0,5.004,2.103,9.448,6.081,12.851c5.915,5.06,19.25,13.546,42.097,13.546s36.184-8.487,42.1-13.546
			c3.978-3.403,6.08-7.847,6.08-12.852V46.749c0-5.003-2.103-9.447-6.08-12.85C162.289,28.84,148.955,20.352,126.104,20.352
			L126.104,20.352z"/>
	</g>
	<rect x="134.322" y="91.962" fill="#0094D9" width="12.087" height="2.178"/>
	<g>
		<polygon points="118.831,95.046 119.256,95.046 119.256,91.636 120.347,91.636 120.188,91.331 120.093,91.056 118.831,91.056 
			117.565,91.056 117.472,91.331 117.308,91.636 118.424,91.636 118.424,95.046 		"/>
		<path d="M104.235,92.38c0-0.383,0.05-0.697,0.255-0.935c0.216-0.23,0.531-0.389,0.901-0.389h1.353l0.181,0.643h-1.182
			c-0.199,0-0.687,0.06-0.687,0.513v1.685c0,0.45,0.488,0.518,0.687,0.518h0.97l0.307,0.632h-1.629c-0.37,0-0.685-0.156-0.901-0.389
			c-0.205-0.243-0.255-0.543-0.255-0.929V92.38z"/>
		<path d="M110.581,93.806c0,0.687-0.652,1.24-1.464,1.24c-0.806,0-1.464-0.554-1.464-1.24v-1.511c0-0.682,0.659-1.239,1.464-1.239
			c0.812,0,1.464,0.557,1.464,1.239V93.806z M108.468,93.876c0,0.492,0.409,0.522,0.649,0.522c0.241,0,0.642-0.03,0.642-0.522
			v-1.647c0-0.493-0.401-0.522-0.642-0.522c-0.24,0-0.649,0.03-0.649,0.522V93.876z"/>
		<rect x="115.695" y="91.056" width="0.918" height="3.99"/>
		<path d="M113.162,93.764h0.409v-1.615c0-0.325,0.619-0.528,0.619-0.528v3.425h0.854v-3.99h-1.24c-0.104,0-0.243,0.082-0.243,0.082
			l-0.399,0.307l-0.412-0.307c0,0-0.138-0.082-0.221-0.082h-1.261v3.99h0.864v-3.425c0,0,0.618,0.203,0.618,0.528v1.615H113.162z"/>
	</g>
	
		<path fill="#FFFFFF" stroke="#000000" stroke-width="2.1373" stroke-linecap="round" stroke-linejoin="round" stroke-miterlimit="10" d="
		M78.944,92.307l-13.218-4.86c3.405-2.541,4.833-5.39,5.355-6.84c0.714-1.961,1.148-3.592,0.986-5.042l11.544,2.367
		C83.612,77.932,87.257,86.894,78.944,92.307z"/>
	
		<path fill="#FFFFFF" stroke="#000000" stroke-width="2.1373" stroke-linecap="round" stroke-linejoin="round" stroke-miterlimit="10" d="
		M91.634,94.236c0.03,1.007,0.14,1.913,0.311,2.728l-13.001-4.656c8.313-5.414,4.668-14.375,4.668-14.375l10.054,2.072
		C92.538,83.969,91.472,89.134,91.634,94.236z"/>
	<path fill="#5E5E5E" d="M118.204,73.725c1.413,1.605,3.529,2.503,7.899,2.503c4.371,0,6.488-0.897,7.901-2.503H118.204z"/>
	<path fill="#263137" d="M126.104,37.383c-15.268,0-28.354,2.263-34.21,8.258c-2.1,2.151-3.267,4.786-3.267,7.968
		c0,12.045,13.966,16.561,20.493,16.561c10.038,0,8.799-6.608,16.984-6.608c8.19,0,6.952,6.608,16.989,6.608
		c5.715,0,17.137-3.463,19.887-12.413c0.393-1.271,0.608-2.651,0.608-4.148C163.588,41.563,146.857,37.383,126.104,37.383z"/>
	<path fill="#354A55" d="M163.588,53.609c0,1.497-0.216,2.876-0.608,4.148c-12.692,1.094-31.832,1.525-48.386-3.166
		c-9.651-2.738-17.099-5.938-22.7-8.95c5.854-5.996,18.942-8.258,34.21-8.258C146.857,37.383,163.588,41.563,163.588,53.609z"/>
	<path fill="#00ADEE" d="M108.428,63.658c-2.502,0-4.529-2.028-4.529-4.528V48.121c0-2.501,2.027-4.529,4.529-4.529
		c2.5,0,4.529,2.028,4.529,4.529V59.13C112.957,61.631,110.929,63.658,108.428,63.658z"/>
	<path fill="#00ADEE" d="M143.781,63.658c2.501,0,4.529-2.028,4.529-4.528V48.121c0-2.501-2.028-4.529-4.529-4.529
		c-2.502,0-4.528,2.028-4.528,4.529V59.13C139.252,61.631,141.279,63.658,143.781,63.658z"/>
	<path fill="none" stroke="#000000" stroke-width="1.9765" stroke-miterlimit="10" d="M126.104,63.562
		c-8.188,0-6.949,6.608-16.986,6.608c-6.524,0-20.492-4.516-20.492-16.561c0-12.044,16.729-16.228,37.479-16.228
		c20.753,0,37.481,4.183,37.481,16.228c0,12.045-13.969,16.561-20.494,16.561C133.054,70.17,134.294,63.562,126.104,63.562z"/>
	<g>
		<g>
			<path fill="#00ADEE" d="M126.104,41.733c-11.086,0-13.931-7.016-15.459-10.785c-0.228-0.562-0.432-1.069-0.64-1.493
				c-0.766-1.561-1.71-2.358-2.47-3c-0.808-0.683-1.644-1.388-1.644-2.63c0-1.407,1.458-5.997,20.213-5.997
				c18.757,0,20.214,4.59,20.214,5.997c0,1.242-0.835,1.947-1.643,2.63c-0.76,0.641-1.704,1.439-2.47,3
				c-0.208,0.424-0.413,0.932-0.641,1.493C140.036,34.717,137.192,41.733,126.104,41.733z"/>
			<path fill="#231F20" d="M126.104,19.088c15.601,0,18.956,3.314,18.956,4.738c0,1.427-2.349,1.742-3.984,5.075
				c-1.636,3.334-3.146,11.574-14.972,11.574c-11.825,0-13.334-8.239-14.97-11.574c-1.635-3.333-3.984-3.648-3.984-5.075
				C107.149,22.402,110.504,19.088,126.104,19.088 M126.104,16.572c-18.681,0-21.471,4.545-21.471,7.254
				c0,1.826,1.208,2.846,2.09,3.591c0.738,0.624,1.502,1.269,2.152,2.592c0.18,0.367,0.376,0.852,0.604,1.412
				c1.64,4.043,4.691,11.57,16.625,11.57c11.936,0,14.987-7.526,16.627-11.57c0.228-0.561,0.424-1.045,0.604-1.412
				c0.649-1.324,1.413-1.969,2.152-2.593c0.882-0.745,2.09-1.765,2.09-3.591C147.576,21.116,144.786,16.572,126.104,16.572
				L126.104,16.572z"/>
		</g>
		<path fill="#0094D9" d="M145.058,23.823c0,1.43-2.346,1.742-3.986,5.082c-1.632,3.332-3.14,11.575-14.966,11.575
			c-4.257,0-7.166-1.066-9.239-2.586c22.07,0.734,24.88-11.413,14.522-14.825c-7.961-2.618-17.582-1.922-22.443-1.319
			c2.314-1.338,7.286-2.666,17.16-2.666C141.705,19.084,145.058,22.405,145.058,23.823z"/>
	</g>
</g>
</svg>
