<?xml version="1.0" encoding="utf-8"?>
<!-- Generator: Adobe Illustrator 16.0.0, SVG Export Plug-In . SVG Version: 6.00 Build 0)  -->
<!DOCTYPE svg PUBLIC "-//W3C//DTD SVG 1.1//EN" "http://www.w3.org/Graphics/SVG/1.1/DTD/svg11.dtd">
<svg version="1.1" id="Layer_1" xmlns="http://www.w3.org/2000/svg" xmlns:xlink="http://www.w3.org/1999/xlink" x="0px" y="0px"
	 width="720px" height="720px" viewBox="0 0 720 720" enable-background="new 0 0 720 720" xml:space="preserve">
<polyline fill="#F1F5FA" points="0,621.154 0,720 720,720 720,101.32 "/>
<g>
	<linearGradient id="SVGID_1_" gradientUnits="userSpaceOnUse" x1="227.8501" y1="627.3037" x2="227.8501" y2="92.6963">
		<stop  offset="0" style="stop-color:#ABE0F9"/>
		<stop  offset="0.5" style="stop-color:#0083B5"/>
		<stop  offset="1" style="stop-color:#ABE0F9"/>
	</linearGradient>
	<rect x="224.603" y="92.696" fill="url(#SVGID_1_)" width="6.495" height="534.608"/>
	
		<linearGradient id="SVGID_2_" gradientUnits="userSpaceOnUse" x1="1474.5962" y1="1980.6777" x2="1474.5962" y2="1380.4326" gradientTransform="matrix(0 1 -1 0 2040.5552 -1098.4136)">
		<stop  offset="0" style="stop-color:#ABE0F9"/>
		<stop  offset="0.0341" style="stop-color:#95D4F0"/>
		<stop  offset="0.1131" style="stop-color:#68BBDE"/>
		<stop  offset="0.1926" style="stop-color:#42A7CF"/>
		<stop  offset="0.2714" style="stop-color:#2597C4"/>
		<stop  offset="0.3494" style="stop-color:#118CBC"/>
		<stop  offset="0.426" style="stop-color:#0485B7"/>
		<stop  offset="0.5" style="stop-color:#0083B5"/>
		<stop  offset="0.574" style="stop-color:#0485B7"/>
		<stop  offset="0.6506" style="stop-color:#118CBC"/>
		<stop  offset="0.7286" style="stop-color:#2597C4"/>
		<stop  offset="0.8074" style="stop-color:#42A7CF"/>
		<stop  offset="0.8869" style="stop-color:#68BBDE"/>
		<stop  offset="0.9659" style="stop-color:#95D4F0"/>
		<stop  offset="1" style="stop-color:#ABE0F9"/>
	</linearGradient>
	<rect x="59.878" y="372.934" fill="url(#SVGID_2_)" width="600.245" height="6.498"/>
	<path fill="#929791" d="M243.3,197.847h198.862c0,0,26.382,17.063,26.382,49.444c0,20.616-4.871,40.785-19.505,65.852
		c-14.632,25.046-61.854,101.75-77.16,125.26c-15.299,23.498-30.371,47.89-82.917,47.89c-52.548,0-85.972-19.738-103.755-43.465
		c-7.326-9.74-5.99-13.851-11.756-24.598c-5.762-10.763-15.179-38.367-15.179-75.954C158.271,304.708,167.688,222.337,243.3,197.847
		z"/>
	<linearGradient id="SVGID_3_" gradientUnits="userSpaceOnUse" x1="313.4014" y1="482.0791" x2="313.4014" y2="202.5083">
		<stop  offset="0" style="stop-color:#F1F1F2"/>
		<stop  offset="0.0425" style="stop-color:#D5D6D7"/>
		<stop  offset="0.141" style="stop-color:#9A9D9E"/>
		<stop  offset="0.1882" style="stop-color:#838687"/>
		<stop  offset="0.414" style="stop-color:#838687"/>
		<stop  offset="0.6505" style="stop-color:#838687"/>
		<stop  offset="0.6612" style="stop-color:#878A8B"/>
		<stop  offset="0.8196" style="stop-color:#C0C1C2"/>
		<stop  offset="0.9372" style="stop-color:#E4E4E5"/>
		<stop  offset="1" style="stop-color:#F1F1F2"/>
	</linearGradient>
	<path fill="url(#SVGID_3_)" d="M245.282,202.508h194.989c0,0,23.28,17.061,23.28,44.003c0,26.942-4.647,44.229-20.947,72.168
		c-16.306,27.927-53.861,88.461-72.817,117.72c-18.973,29.281-34.05,45.681-79.278,45.681c-45.227,0-89.35-14.396-107.966-51.322
		c-18.637-36.916-19.292-64.189-19.292-99.105C163.251,291.077,179.989,223.007,245.282,202.508z"/>
	<g>
		<polygon fill="#231F20" points="522.258,365.398 526.799,365.398 526.799,328.206 538.875,328.206 537.056,324.888 
			536.125,321.95 522.258,321.95 508.402,321.95 507.461,324.888 505.631,328.206 517.718,328.206 517.718,365.398 		"/>
		<path fill="#231F20" d="M363.124,336.306c0-4.167,0.471-7.539,2.745-10.103c2.283-2.578,5.813-4.253,9.781-4.253
			c3.985,0,14.857,0,14.857,0l1.878,6.931c0,0-10.643,0-12.88,0c-2.26,0-7.573,0.662-7.573,5.593v18.406
			c0,4.931,5.313,5.602,7.573,5.602c2.237,0,10.499,0,10.499,0l3.411,6.917c0,0-13.78,0-17.766,0c-3.968,0-7.498-1.669-9.781-4.247
			c-2.274-2.577-2.745-5.942-2.745-10.109V336.306z"/>
		<path fill="#231F20" d="M432.297,351.958c0,7.432-7.144,13.441-15.96,13.441c-8.812,0-15.964-6.009-15.964-13.441v-16.57
			c0-7.421,7.152-13.438,15.964-13.438c8.816,0,15.96,6.017,15.96,13.438V351.958z M409.232,352.672
			c0,5.355,4.447,5.689,7.105,5.689c2.663,0,7.103-0.333,7.103-5.689V334.68c0-5.363-4.439-5.703-7.103-5.703
			c-2.658,0-7.105,0.34-7.105,5.703V352.672z"/>
		<rect x="488.047" y="321.95" fill="#231F20" width="9.987" height="43.449"/>
		<path fill="#231F20" d="M460.403,351.443h4.537c0,0,0-14.202,0-17.688c0-3.486,6.655-5.703,6.655-5.703v37.346h9.318V321.95
			c0,0-12.5,0-13.528,0c-1.021,0-2.545,0.881-2.545,0.881l-4.438,3.332l-4.431-3.332c0,0-1.521-0.881-2.563-0.881
			c-1.018,0-13.518,0-13.518,0v43.449h9.311v-37.346c0,0,6.659,2.216,6.659,5.703c0,3.485,0,17.688,0,17.688H460.403z"/>
	</g>
	<g>
		<path fill="#0099CD" d="M323.645,343.504c0,60.25-32.548,109.094-72.704,109.094c-40.17,0-72.738-48.845-72.738-109.094
			c0-60.24,32.568-109.079,72.738-109.079C291.097,234.425,323.645,283.264,323.645,343.504z"/>
		<path fill="#0099CD" d="M345.325,262.871c0,24.477-13.605,44.295-30.369,44.295c-16.778,0-30.405-19.818-30.405-44.295
			c0-24.464,13.627-44.301,30.405-44.301C331.72,218.57,345.325,238.407,345.325,262.871z"/>
		<linearGradient id="SVGID_4_" gradientUnits="userSpaceOnUse" x1="261.3403" y1="246.4927" x2="250.1992" y2="303.8086">
			<stop  offset="0" style="stop-color:#FFFFFF"/>
			<stop  offset="0.1339" style="stop-color:#E3F4FA"/>
			<stop  offset="0.4234" style="stop-color:#9CD7EC"/>
			<stop  offset="0.843" style="stop-color:#2CABD6"/>
			<stop  offset="1" style="stop-color:#0099CD"/>
		</linearGradient>
		<path fill="url(#SVGID_4_)" d="M209.945,264.583c9.865-13.167,28.893-23.896,56.019-17.078
			c27.13,6.818,42.222,34.046,34.656,56.315c-1.891,5.542-5.933,8.868-11.484,7.546c-5.546-1.342-72.819-17.498-76.815-18.79
			C205.984,290.52,199.906,277.986,209.945,264.583z"/>
		<linearGradient id="SVGID_5_" gradientUnits="userSpaceOnUse" x1="231.0815" y1="444.583" x2="242.5633" y2="351.0719">
			<stop  offset="0" style="stop-color:#FFFFFF"/>
			<stop  offset="0.0795" style="stop-color:#F5FBFD"/>
			<stop  offset="0.2165" style="stop-color:#D9F0F8"/>
			<stop  offset="0.3944" style="stop-color:#ACDEEF"/>
			<stop  offset="0.6064" style="stop-color:#6DC5E2"/>
			<stop  offset="0.8446" style="stop-color:#1EA5D3"/>
			<stop  offset="0.9301" style="stop-color:#0099CD"/>
		</linearGradient>
		<path fill="url(#SVGID_5_)" d="M250.489,446.608c13.515,0,28.601-8.867,35.242-17.297c6.665-8.417,12.423-28.382-10.179-48.107
			c-22.632-19.725-91.355-52.547-90.251-24.398C186.408,384.977,205.712,446.608,250.489,446.608z"/>
		<linearGradient id="SVGID_6_" gradientUnits="userSpaceOnUse" x1="314.9463" y1="298.085" x2="314.9463" y2="222.2285">
			<stop  offset="0" style="stop-color:#FFFFFF"/>
			<stop  offset="0.6505" style="stop-color:#009BCE"/>
			<stop  offset="1" style="stop-color:#0099CD"/>
		</linearGradient>
		<path fill="url(#SVGID_6_)" d="M340.956,260.169c0,20.942-11.648,37.916-26,37.916c-14.382,0-26.02-16.974-26.02-37.916
			c0-20.96,11.637-37.941,26.02-37.941C329.308,222.229,340.956,239.209,340.956,260.169z"/>
		<path opacity="0.8" fill="#FFFFFF" d="M302.523,293.498c-8.049-6.367-13.514-18.79-13.586-33.063
			C298.036,269.479,303.036,281.632,302.523,293.498z"/>
	</g>
	<g>
		<path fill="#231F20" d="M321.937,398.232h-2.84v-6.217c0-1.579-0.476-2.371-1.464-2.371c-0.468,0-0.859,0.24-1.141,0.711
			c-0.297,0.478-0.458,1.068-0.458,1.78v6.097h-2.838v-6.283c0-1.537-0.488-2.305-1.442-2.305c-0.489,0-0.885,0.213-1.172,0.674
			c-0.29,0.451-0.429,1.089-0.429,1.86v6.054h-2.854v-10.895h2.854v1.692h0.033c0.284-0.574,0.696-1.049,1.239-1.41
			c0.525-0.358,1.119-0.54,1.734-0.54c1.297,0,2.209,0.668,2.671,2.023c0.712-1.355,1.749-2.023,3.115-2.023
			c2.004,0,2.99,1.456,2.99,4.378V398.232z"/>
		<path fill="#231F20" d="M338.833,398.232H336v-6.217c0-1.579-0.472-2.371-1.468-2.371c-0.481,0-0.837,0.24-1.15,0.711
			c-0.287,0.478-0.434,1.068-0.434,1.78v6.097h-2.858v-6.283c0-1.537-0.484-2.305-1.452-2.305c-0.476,0-0.868,0.213-1.155,0.674
			c-0.297,0.451-0.437,1.089-0.437,1.86v6.054h-2.848v-10.895h2.848v1.692h0.026c0.299-0.574,0.716-1.049,1.235-1.41
			c0.541-0.358,1.118-0.54,1.75-0.54c1.304,0,2.193,0.668,2.673,2.023c0.696-1.355,1.734-2.023,3.103-2.023c2,0,3,1.456,3,4.378
			V398.232z"/>
		<path fill="#231F20" d="M349.858,398.232h-2.836v-1.67h-0.046c-0.702,1.309-1.639,1.936-2.815,1.936
			c-2.148,0-3.212-1.529-3.212-4.593v-6.567h2.843v6.282c0,1.533,0.511,2.301,1.545,2.301c0.507,0,0.924-0.209,1.231-0.628
			c0.306-0.426,0.454-1,0.454-1.719v-6.236h2.836V398.232z"/>
		<path fill="#231F20" d="M361.165,398.232h-2.844v-6.054c0-1.692-0.501-2.534-1.532-2.534c-0.483,0-0.893,0.213-1.207,0.668
			c-0.333,0.446-0.476,1.015-0.476,1.703v6.217h-2.856v-10.895h2.856v1.726h0.035c0.667-1.336,1.659-1.983,2.955-1.983
			c2.049,0,3.069,1.479,3.069,4.474V398.232z"/>
		<path fill="#231F20" d="M374.231,398.104c-0.411,0.271-1.058,0.394-1.89,0.394c-2.012,0-3.017-1.225-3.017-3.691v-4.985h-1.498
			v-2.483h1.498v-2.354l2.84-0.04v2.395h2.066v2.483h-2.066v4.407c0,1.133,0.369,1.692,1.138,1.692c0.305,0,0.609-0.1,0.929-0.3
			V398.104z"/>
		<path fill="#231F20" d="M384.623,387.338l-3.757,11.762c-0.897,2.852-2.252,4.261-4.056,4.261c-0.699,0-1.269-0.087-1.723-0.273
			v-2.694c0.39,0.27,0.807,0.4,1.245,0.4c0.726,0,1.232-0.404,1.536-1.222l0.472-1.363l-3.729-10.87h3.151l1.703,6.621
			c0.116,0.427,0.213,0.903,0.259,1.475h0.039c0.057-0.424,0.159-0.911,0.288-1.436l1.743-6.66H384.623z"/>
		<path fill="#231F20" d="M408.143,384.67c-0.367-0.173-0.711-0.254-1.045-0.254c-0.919,0-1.378,0.587-1.378,1.764v1.158h2.116
			v2.483h-2.116v8.411h-2.838v-8.411h-1.552v-2.483h1.552v-1.359c0-1.242,0.348-2.236,1.028-3.008
			c0.68-0.745,1.605-1.125,2.798-1.125c0.582,0,1.047,0.066,1.435,0.204V384.67z"/>
		<path fill="#231F20" d="M419.342,382.971v2.667h-1.256v9.943h1.256v2.651H413.5v-2.651h1.234v-9.943H413.5v-2.667H419.342z"/>
		<path fill="#231F20" d="M430.104,398.232h-2.84v-6.054c0-1.692-0.51-2.534-1.539-2.534c-0.481,0-0.895,0.213-1.227,0.668
			c-0.304,0.446-0.463,1.015-0.463,1.703v6.217h-2.844v-10.895h2.844v1.726h0.04c0.674-1.336,1.649-1.983,2.957-1.983
			c2.054,0,3.071,1.479,3.071,4.474V398.232z"/>
		<path fill="#231F20" d="M438.161,384.67c-0.384-0.173-0.73-0.254-1.063-0.254c-0.93,0-1.376,0.587-1.376,1.764v1.158h2.124v2.483
			h-2.124v8.411h-2.832v-8.411h-1.556v-2.483h1.556v-1.359c0-1.242,0.342-2.236,1.043-3.008c0.659-0.745,1.589-1.125,2.783-1.125
			c0.559,0,1.049,0.066,1.445,0.204V384.67z"/>
		<path fill="#231F20" d="M456.22,390.379c-0.34-0.227-0.747-0.34-1.216-0.34c-0.601,0-1.082,0.27-1.435,0.794
			c-0.338,0.54-0.521,1.266-0.521,2.197v5.202h-2.844v-10.895h2.844v2.02h0.033c0.455-1.485,1.272-2.224,2.436-2.224
			c0.296,0,0.523,0.047,0.703,0.128V390.379z"/>
		<path fill="#231F20" d="M472.921,398.232h-2.853v-6.217c0-1.579-0.483-2.371-1.476-2.371c-0.466,0-0.853,0.24-1.143,0.711
			c-0.286,0.478-0.44,1.068-0.44,1.78v6.097h-2.834v-6.283c0-1.537-0.498-2.305-1.451-2.305c-0.492,0-0.877,0.213-1.176,0.674
			c-0.287,0.451-0.436,1.089-0.436,1.86v6.054h-2.844v-10.895h2.844v1.692h0.041c0.28-0.574,0.693-1.049,1.229-1.41
			c0.534-0.358,1.128-0.54,1.743-0.54c1.302,0,2.196,0.668,2.678,2.023c0.704-1.355,1.739-2.023,3.101-2.023
			c2.001,0,3.017,1.456,3.017,4.378V398.232z"/>
		<path fill="#231F20" d="M482.899,398.232h-2.691v-1.557h-0.042c-0.615,1.216-1.535,1.822-2.742,1.822
			c-0.896,0-1.611-0.304-2.12-0.895c-0.52-0.613-0.768-1.395-0.768-2.41c0-2.097,1.062-3.335,3.18-3.662l2.504-0.391
			c0-1.182-0.546-1.783-1.637-1.783c-1.095,0-2.146,0.387-3.134,1.165v-2.533c0.402-0.247,0.937-0.465,1.614-0.635
			c0.698-0.194,1.339-0.274,1.887-0.274c2.627,0,3.949,1.523,3.949,4.635V398.232z M480.219,393.818v-0.741l-1.659,0.247
			c-0.93,0.15-1.407,0.635-1.407,1.482c0,0.387,0.114,0.7,0.342,0.938c0.227,0.251,0.535,0.37,0.922,0.37
			c0.521,0,0.965-0.213,1.301-0.654C480.053,395.023,480.219,394.472,480.219,393.818z"/>
		<path fill="#231F20" d="M490.714,398.104c-0.413,0.271-1.049,0.394-1.888,0.394c-2.018,0-3.006-1.225-3.006-3.691v-4.985h-1.51
			v-2.483h1.51v-2.354h2.823v2.354h2.07v2.483h-2.07v4.407c0,1.133,0.383,1.692,1.152,1.692c0.311,0,0.611-0.1,0.918-0.3V398.104z"
			/>
		<path fill="#231F20" d="M518.085,398.232h-2.844v-6.054c0-1.692-0.509-2.534-1.517-2.534c-0.5,0-0.908,0.213-1.228,0.668
			c-0.317,0.446-0.472,1.015-0.472,1.703v6.217h-2.84v-10.895h2.84v1.726h0.031c0.687-1.336,1.688-1.983,2.964-1.983
			c2.052,0,3.064,1.479,3.064,4.474V398.232z"/>
		<path fill="#231F20" d="M533.129,385.771h-3.705v12.462h-2.898v-12.462h-3.672v-2.8h10.275V385.771z"/>
		<path fill="#231F20" d="M541.95,393.741h-6.012c0.097,1.579,0.924,2.373,2.527,2.373c1.014,0,1.91-0.273,2.684-0.854v2.428
			c-0.858,0.545-1.956,0.811-3.325,0.811c-1.489,0-2.65-0.486-3.459-1.454c-0.833-0.988-1.235-2.339-1.235-4.08
			c0-1.823,0.44-3.249,1.329-4.314c0.888-1.045,1.982-1.569,3.269-1.569c1.346,0,2.4,0.458,3.128,1.403
			c0.722,0.94,1.095,2.22,1.095,3.839V393.741z M539.319,391.678c0-1.565-0.52-2.354-1.602-2.354c-0.461,0-0.855,0.24-1.188,0.681
			c-0.334,0.448-0.534,1.006-0.606,1.673H539.319z"/>
		<path fill="#231F20" d="M562.269,398.179h-2.84v-6.197c0-1.603-0.494-2.397-1.48-2.397c-0.494,0-0.898,0.228-1.211,0.672
			c-0.313,0.447-0.469,1.024-0.469,1.709v6.214h-2.851v-16.133h2.851v6.844h0.031c0.694-1.255,1.635-1.865,2.825-1.865
			c2.089,0,3.144,1.478,3.144,4.456V398.179z"/>
		<path fill="#231F20" d="M573.42,398.232h-2.823v-6.054c0-1.692-0.522-2.534-1.534-2.534c-0.5,0-0.896,0.213-1.218,0.668
			c-0.317,0.446-0.478,1.015-0.478,1.703v6.217h-2.847v-10.895h2.847v1.726h0.023c0.688-1.336,1.688-1.983,2.983-1.983
			c2.024,0,3.046,1.479,3.046,4.474V398.232z"/>
		<path fill="#231F20" d="M589.799,398.232h-2.834v-16.146h2.834V398.232z"/>
		<path fill="#231F20" d="M612.036,396.99c0,2.02-0.505,3.582-1.489,4.7c-0.994,1.115-2.438,1.67-4.308,1.67
			c-1.247,0-2.235-0.215-2.957-0.641v-2.832c0.944,0.664,1.902,0.984,2.869,0.984c0.97,0,1.712-0.3,2.225-0.897
			c0.549-0.608,0.803-1.413,0.803-2.437v-0.862h-0.035c-0.646,1.216-1.605,1.822-2.869,1.822c-1.172,0-2.118-0.486-2.813-1.469
			c-0.682-0.974-1.021-2.29-1.021-3.933c0-1.843,0.385-3.318,1.141-4.395c0.769-1.091,1.791-1.622,3.037-1.622
			c1.131,0,1.965,0.501,2.525,1.523h0.035v-1.266h2.857V396.99z M609.22,392.996v-0.86c0-0.688-0.169-1.269-0.523-1.757
			c-0.34-0.494-0.794-0.734-1.359-0.734c-0.61,0-1.111,0.28-1.482,0.878c-0.356,0.577-0.527,1.393-0.527,2.454
			c0,0.898,0.164,1.632,0.502,2.143c0.343,0.535,0.81,0.802,1.418,0.802c0.575,0,1.068-0.267,1.429-0.802
			C609.037,394.589,609.22,393.875,609.22,392.996z"/>
		<path fill="#231F20" d="M622.912,387.338l-3.758,11.762c-0.898,2.852-2.25,4.261-4.067,4.261c-0.693,0-1.248-0.087-1.696-0.273
			v-2.694c0.382,0.27,0.797,0.4,1.227,0.4c0.744,0,1.241-0.404,1.532-1.222l0.501-1.363l-3.766-10.87h3.158l1.735,6.621
			c0.094,0.427,0.18,0.903,0.254,1.475h0.02c0.048-0.424,0.162-0.911,0.307-1.436l1.751-6.66H622.912z"/>
		<path fill="#231F20" d="M291.82,393.631c-0.041,1.603-1.44,1.709-2.265,1.709c-0.862,0-2.272-0.106-2.272-1.766v-5.571
			c0-1.67,1.411-1.771,2.272-1.771c0.825,0,2.224,0.101,2.265,1.723h3.587v-0.117c0-2.627-2.638-4.777-5.852-4.777
			c-3.237,0-5.855,2.15-5.855,4.777v5.903c0,2.627,2.618,4.757,5.855,4.757c3.214,0,5.852-2.13,5.852-4.757v-0.11H291.82z"/>
		<path fill="#231F20" d="M549.163,394.886c-0.04,1.199-0.962,1.27-1.533,1.27c-0.566,0-1.532-0.07-1.532-1.31v-4.112
			c0-1.242,0.966-1.31,1.532-1.31c0.571,0,1.493,0.067,1.533,1.25h2.419v-0.062c0-1.963-1.765-3.532-3.952-3.532
			c-2.166,0-3.93,1.569-3.93,3.532v4.354c0,1.95,1.764,3.532,3.93,3.532c2.188,0,3.952-1.582,3.952-3.532v-0.08H549.163z"/>
		<path fill="#231F20" d="M366.265,398.232h-2.856v-10.895h2.856V398.232z M366.265,384.042h-2.856v1.804h2.856V384.042z"/>
		<path fill="#231F20" d="M495.781,398.232h-2.85v-10.895h2.85V398.232z M495.781,384.042h-2.85v1.804h2.85V384.042z"/>
		<path fill="#231F20" d="M596.637,387.08c-2.437,0-4.417,1.569-4.417,3.532v4.354c0,1.95,1.98,3.532,4.417,3.532
			c2.458,0,4.422-1.582,4.422-3.532v-0.08v-4.212v-0.062C601.059,388.649,599.095,387.08,596.637,387.08z M598.37,394.886
			c-0.035,1.199-1.082,1.27-1.732,1.27c-0.641,0-1.719-0.07-1.719-1.31v-4.112c0-1.242,1.078-1.31,1.719-1.31
			c0.65,0,1.697,0.067,1.732,1.25V394.886z"/>
		<path fill="#231F20" d="M580.132,387.08c-2.451,0-4.435,1.569-4.435,3.532v4.354c0,1.95,1.983,3.532,4.435,3.532
			c2.436,0,4.413-1.582,4.413-3.532v-0.08v-4.212v-0.062C584.545,388.649,582.568,387.08,580.132,387.08z M581.834,394.886
			c-0.011,1.199-1.076,1.27-1.702,1.27c-0.662,0-1.736-0.07-1.736-1.31v-4.112c0-1.242,1.074-1.31,1.736-1.31
			c0.626,0,1.691,0.067,1.702,1.25V394.886z"/>
		<path fill="#231F20" d="M502.334,387.08c-2.438,0-4.421,1.569-4.421,3.532v4.354c0,1.95,1.983,3.532,4.421,3.532
			c2.459,0,4.439-1.582,4.439-3.532v-0.08v-4.212v-0.062C506.774,388.649,504.793,387.08,502.334,387.08z M504.063,394.886
			c-0.013,1.199-1.08,1.27-1.729,1.27c-0.642,0-1.703-0.07-1.703-1.31v-4.112c0-1.242,1.062-1.31,1.703-1.31
			c0.648,0,1.716,0.067,1.729,1.25V394.886z"/>
		<path fill="#231F20" d="M443.919,387.08c-2.456,0-4.425,1.569-4.425,3.532v4.354c0,1.95,1.969,3.532,4.425,3.532
			c2.457,0,4.421-1.582,4.421-3.532v-0.08v-4.212v-0.062C448.34,388.649,446.376,387.08,443.919,387.08z M445.65,394.886
			c-0.029,1.199-1.082,1.27-1.73,1.27c-0.646,0-1.729-0.07-1.729-1.31v-4.112c0-1.242,1.082-1.31,1.729-1.31
			c0.648,0,1.701,0.067,1.73,1.25V394.886z"/>
		<path fill="#231F20" d="M395.3,387.08c-2.46,0-4.447,1.569-4.447,3.532v4.354c0,1.95,1.987,3.532,4.447,3.532
			c2.446,0,4.43-1.582,4.43-3.532v-0.08v-4.212v-0.062C399.73,388.649,397.747,387.08,395.3,387.08z M397.012,394.886
			c-0.021,1.199-1.069,1.27-1.712,1.27c-0.652,0-1.73-0.07-1.73-1.31v-4.112c0-1.242,1.078-1.31,1.73-1.31
			c0.643,0,1.691,0.067,1.712,1.25V394.886z"/>
		<path fill="#231F20" d="M300.961,387.08c-2.453,0-4.437,1.569-4.437,3.532v4.354c0,1.95,1.984,3.532,4.437,3.532
			c2.454,0,4.422-1.582,4.422-3.532v-0.08v-4.212v-0.062C305.383,388.649,303.415,387.08,300.961,387.08z M302.679,394.886
			c-0.022,1.199-1.085,1.27-1.718,1.27c-0.66,0-1.719-0.07-1.719-1.31v-4.112c0-1.242,1.06-1.31,1.719-1.31
			c0.633,0,1.696,0.067,1.718,1.25V394.886z"/>
	</g>
</g>
</svg>
