<?xml version="1.0" encoding="utf-8"?>
<!-- Generator: Adobe Illustrator 16.0.0, SVG Export Plug-In . SVG Version: 6.00 Build 0)  -->
<!DOCTYPE svg PUBLIC "-//W3C//DTD SVG 1.1//EN" "http://www.w3.org/Graphics/SVG/1.1/DTD/svg11.dtd">
<svg version="1.1" id="Layer_1" xmlns="http://www.w3.org/2000/svg" xmlns:xlink="http://www.w3.org/1999/xlink" x="0px" y="0px"
	 width="720px" height="720px" viewBox="0 0 720 720" enable-background="new 0 0 720 720" xml:space="preserve">
<polygon fill="#F1F5FA" points="720,98.845 720,0 0,0 0,618.679 "/>
<g>
	<g>
		<path opacity="0.23" fill="#1D1D1B" d="M509.569,640.957h-7.203c-0.078-2.859-0.554-3.093-0.554-3.093l-23.005-1.855
			c-0.595-2.255-1.461-2.477-1.461-2.477l-85.678-4.005v-1.475h-6.153h-3.271H266.644h-2.896h-5.889c-2.06,0-3.729,1.67-3.729,3.728
			v1.44h-11.826c-2.163,0-3.916,1.752-3.916,3.915v9.726c0,2.16,1.753,3.913,3.916,3.913h11.826v1.439
			c0,2.06,1.67,3.729,3.729,3.729h5.889h2.896h115.601h3.271h6.153v-1.474l85.678-4.004c0,0,0.688-0.534,1.261-2.462l23.205-1.871
			c0,0,0.427-0.567,0.54-3.093h7.217c0.575,0,1.042-0.466,1.042-1.042C510.611,641.424,510.144,640.957,509.569,640.957z"/>
		<g>
			<g>
				<path opacity="0.23" fill="#1D1D1B" d="M229.933,566.964c0,0,317.02,44.063,365.123,43.688
					c28.242-93.466,43.104-358.749,93.231-468.583c-6.354-1.008-41.132-6.065-41.132-6.065L229.933,566.964z"/>
				<path fill="#FAFAFA" d="M586.238,600.685c-106.69,10.096-356.305-33.722-356.305-33.722L306.955,81.54l370.076,58.719
					C677.031,140.259,590.421,574.32,586.238,600.685z"/>
				<g>
					<path fill="#BEBFBF" d="M369.508,159.219l-2.017-0.319l-0.881,5.545l-7.435-1.18l3.499-22.054l10.617,1.685
						c2.037,0.322,3.759,0.941,5.166,1.851c1.404,0.913,2.416,2.064,3.036,3.455c0.62,1.39,0.795,2.927,0.529,4.605
						c-0.25,1.576-0.825,2.895-1.727,3.957c-0.9,1.065-2.078,1.836-3.531,2.314l3.55,7.542l-7.939-1.26L369.508,159.219z
						 M374.073,149.59c-0.435-0.531-1.154-0.876-2.163-1.036l-2.708-0.43l-0.821,5.167l2.71,0.43
						c1.009,0.16,1.801,0.054,2.376-0.319c0.575-0.37,0.929-0.965,1.059-1.785C374.656,150.798,374.503,150.123,374.073,149.59z"/>
					<path fill="#BEBFBF" d="M401.874,164.29l-0.891,5.608l-18.335-2.908l3.499-22.054l17.927,2.844l-0.89,5.608l-10.619-1.685
						l-0.408,2.583l9.325,1.479l-0.851,5.356l-9.325-1.479l-0.46,2.899L401.874,164.29z"/>
					<path fill="#BEBFBF" d="M420.283,161.042l6.458,1.025l-1.479,9.327c-1.445,0.695-3.068,1.149-4.865,1.36
						c-1.8,0.208-3.53,0.183-5.188-0.082c-2.354-0.373-4.387-1.197-6.101-2.469c-1.715-1.274-2.963-2.872-3.745-4.794
						c-0.783-1.923-0.998-3.995-0.644-6.222c0.354-2.227,1.199-4.134,2.537-5.72c1.34-1.584,3.037-2.715,5.093-3.39
						c2.057-0.674,4.281-0.821,6.676-0.442c2.162,0.344,4.044,1.013,5.642,2.011c1.597,0.995,2.852,2.274,3.767,3.843l-5.424,3.435
						c-1.13-1.837-2.65-2.907-4.562-3.209c-1.639-0.261-3.019,0.026-4.141,0.86c-1.123,0.834-1.82,2.103-2.089,3.803
						c-0.264,1.659,0.002,3.068,0.797,4.229c0.796,1.16,1.992,1.868,3.588,2.121c0.945,0.15,1.877,0.113,2.797-0.108
						L420.283,161.042z"/>
					<path fill="#BEBFBF" d="M431.579,152.144l7.436,1.178l-3.501,22.054l-7.435-1.179L431.579,152.144z"/>
					<path fill="#BEBFBF" d="M442.006,176.295c-1.667-0.685-3.002-1.462-4.006-2.333l3.255-5.039
						c0.953,0.777,2.052,1.452,3.296,2.026c1.244,0.574,2.464,0.957,3.661,1.145c1.028,0.165,1.78,0.183,2.253,0.051
						c0.473-0.129,0.741-0.392,0.805-0.792c0.073-0.46-0.161-0.855-0.701-1.179c-0.542-0.321-1.452-0.724-2.732-1.208
						c-1.644-0.626-3-1.235-4.071-1.823c-1.068-0.589-1.949-1.419-2.64-2.486c-0.692-1.068-0.912-2.402-0.658-3.998
						c0.219-1.388,0.809-2.584,1.766-3.595c0.957-1.013,2.258-1.72,3.904-2.125c1.648-0.407,3.575-0.434,5.78-0.084
						c1.512,0.24,2.973,0.637,4.38,1.196c1.409,0.557,2.618,1.238,3.633,2.044l-3.092,5.034c-1.989-1.437-3.951-2.307-5.883-2.612
						c-1.911-0.304-2.941,0.006-3.087,0.929c-0.07,0.442,0.16,0.818,0.692,1.128c0.532,0.312,1.429,0.695,2.691,1.154
						c1.631,0.583,2.99,1.169,4.081,1.763c1.09,0.591,1.987,1.418,2.69,2.477c0.705,1.061,0.931,2.387,0.677,3.983
						c-0.219,1.387-0.807,2.582-1.762,3.581c-0.957,1.002-2.259,1.708-3.907,2.125s-3.576,0.451-5.781,0.101
						C445.422,177.467,443.676,176.978,442.006,176.295z"/>
					<path fill="#BEBFBF" d="M466.865,163.653l-6.46-1.025l0.915-5.764l20.354,3.229l-0.916,5.766l-6.458-1.025l-2.585,16.288
						l-7.434-1.18L466.865,163.653z"/>
					<path fill="#BEBFBF" d="M490.428,178.406l-2.017-0.321l-0.879,5.545l-7.436-1.18l3.499-22.054l10.617,1.685
						c2.038,0.324,3.759,0.941,5.164,1.853c1.406,0.913,2.419,2.064,3.039,3.453c0.618,1.392,0.795,2.927,0.528,4.606
						c-0.251,1.576-0.826,2.895-1.726,3.957c-0.902,1.066-2.079,1.835-3.533,2.314l3.552,7.542l-7.94-1.26L490.428,178.406z
						 M494.992,168.778c-0.434-0.531-1.152-0.876-2.162-1.038l-2.709-0.43l-0.819,5.167l2.709,0.43
						c1.008,0.161,1.8,0.055,2.377-0.318c0.575-0.371,0.929-0.967,1.058-1.786C495.576,169.986,495.426,169.31,494.992,168.778z"/>
					<path fill="#BEBFBF" d="M519.206,184.716l-8.38-1.331l-2.092,3.61l-7.562-1.199l13.142-20.525l7.309,1.16l6.141,23.584
						l-7.686-1.22L519.206,184.716z M518.009,179.036l-1.263-5.886l-3.022,5.206L518.009,179.036z"/>
					<path fill="#BEBFBF" d="M535.234,174.502l-6.46-1.025l0.916-5.766l20.353,3.229l-0.915,5.766l-6.456-1.023l-2.585,16.287
						l-7.438-1.179L535.234,174.502z"/>
					<path fill="#BEBFBF" d="M551.965,171.245l7.435,1.18l-3.499,22.054l-7.437-1.18L551.965,171.245z"/>
					<path fill="#BEBFBF" d="M564.816,194.893c-1.735-1.288-2.997-2.893-3.791-4.818c-0.793-1.923-1.015-3.987-0.664-6.192
						c0.35-2.206,1.198-4.101,2.549-5.685c1.351-1.584,3.047-2.718,5.096-3.407c2.047-0.686,4.256-0.841,6.63-0.465
						c2.373,0.378,4.426,1.208,6.162,2.496c1.732,1.288,2.997,2.892,3.787,4.816c0.794,1.925,1.015,3.989,0.665,6.194
						s-1.198,4.101-2.55,5.683c-1.347,1.584-3.046,2.72-5.094,3.409c-2.047,0.686-4.257,0.843-6.63,0.465
						C568.602,197.012,566.548,196.18,564.816,194.893z M574.543,191.09c0.816-0.333,1.512-0.879,2.084-1.639
						c0.574-0.76,0.946-1.694,1.123-2.809c0.177-1.113,0.11-2.12-0.198-3.021c-0.31-0.899-0.802-1.634-1.475-2.205
						c-0.674-0.568-1.474-0.926-2.397-1.073c-0.925-0.146-1.795-0.054-2.611,0.278c-0.816,0.334-1.514,0.881-2.086,1.641
						c-0.572,0.761-0.947,1.697-1.124,2.81c-0.176,1.114-0.11,2.119,0.198,3.019c0.311,0.899,0.803,1.635,1.477,2.204
						c0.672,0.571,1.472,0.93,2.397,1.076C572.855,191.518,573.727,191.424,574.543,191.09z"/>
					<path fill="#BEBFBF" d="M611.448,180.684l-3.499,22.054l-6.113-0.97l-6.791-11.35l-1.59,10.019l-7.245-1.149l3.499-22.054
						l6.111,0.97l6.793,11.348l1.588-10.019L611.448,180.684z"/>
				</g>
				<g>
					<g>
						<g>
							<path fill="#44C68B" d="M369.599,239.281l-12.677-16.681l6.51-4.947l7.73,10.171l37.058-27.911l4.948,6.51L369.599,239.281z"
								/>
						</g>
					</g>
					<path fill="#585A59" d="M382.558,256.753l-36.578-5.804c-4.84-0.768-8.155-5.332-7.386-10.174l5.862-36.949
						c0.769-4.842,5.332-8.157,10.174-7.39l36.577,5.804l-0.739,4.656l-36.576-5.803c-2.274-0.362-4.418,1.196-4.779,3.469
						l-5.862,36.95c-0.361,2.274,1.195,4.418,3.47,4.779l36.577,5.804c2.273,0.361,4.417-1.197,4.778-3.47l2.312-14.566l4.656,0.74
						l-2.312,14.564C391.963,254.206,387.4,257.521,382.558,256.753z"/>
					
						<rect x="417.793" y="234.235" transform="matrix(0.9876 0.1567 -0.1567 0.9876 43.567 -76.4396)" fill="#BEBFBF" width="177.509" height="7.676"/>
					
						<rect x="414.26" y="256.506" transform="matrix(0.9876 0.1567 -0.1567 0.9876 47.0164 -75.6148)" fill="#BEBFBF" width="177.508" height="7.675"/>
				</g>
				<g>
					<g>
						<g>
							<path fill="#44C68B" d="M355.035,331.065l-12.677-16.681l6.51-4.947l7.73,10.169l37.058-27.911l4.946,6.511L355.035,331.065z
								"/>
						</g>
					</g>
					<path fill="#585A59" d="M367.994,348.537l-36.576-5.805c-4.843-0.767-8.157-5.332-7.388-10.173l5.863-36.949
						c0.767-4.842,5.332-8.157,10.174-7.388l36.578,5.805l-0.74,4.656l-36.576-5.804c-2.274-0.362-4.418,1.197-4.779,3.47
						l-5.863,36.949c-0.362,2.275,1.194,4.42,3.47,4.779l36.578,5.805c2.272,0.36,4.417-1.197,4.777-3.47l2.312-14.566l4.656,0.74
						l-2.312,14.565C377.4,345.99,372.837,349.304,367.994,348.537z"/>
					
						<rect x="403.739" y="319.564" transform="matrix(0.9876 0.1567 -0.1567 0.9876 56.2595 -66.731)" fill="#BEBFBF" width="95.128" height="7.676"/>
					
						<rect x="399.697" y="348.29" transform="matrix(0.9876 0.1567 -0.1567 0.9876 61.2204 -72.198)" fill="#BEBFBF" width="177.509" height="7.675"/>
				</g>
				<g>
					<g>
						<g>
							<path fill="#44C68B" d="M340.472,422.848l-12.677-16.681l6.512-4.946l7.729,10.169l37.058-27.91l4.946,6.512L340.472,422.848
								z"/>
						</g>
					</g>
					<path fill="#585A59" d="M353.431,440.32l-36.577-5.803c-4.841-0.769-8.156-5.333-7.388-10.175l5.862-36.949
						c0.769-4.842,5.333-8.157,10.176-7.389l36.577,5.805l-0.739,4.656l-36.578-5.804c-2.275-0.361-4.417,1.196-4.778,3.47
						l-5.864,36.95c-0.359,2.273,1.197,4.419,3.472,4.779l36.577,5.803c2.273,0.36,4.417-1.195,4.778-3.47l2.311-14.564l4.656,0.737
						l-2.311,14.565C362.836,437.774,358.274,441.09,353.431,440.32z"/>
					
						<rect x="388.892" y="414.944" transform="matrix(0.9876 0.1567 -0.1567 0.9876 71.3051 -66.8196)" fill="#BEBFBF" width="141.013" height="7.675"/>
					
						<rect x="385.134" y="440.073" transform="matrix(0.9876 0.1567 -0.1567 0.9876 75.4208 -68.7787)" fill="#BEBFBF" width="177.508" height="7.676"/>
				</g>
				<g>
					<g>
						<g>
							<path fill="#44C68B" d="M325.909,514.633l-12.677-16.682l6.51-4.946l7.73,10.169l37.058-27.91l4.946,6.512L325.909,514.633z"
								/>
						</g>
					</g>
					<path fill="#585A59" d="M338.868,532.103l-36.576-5.803c-4.844-0.769-8.157-5.333-7.388-10.174l5.862-36.95
						c0.768-4.842,5.332-8.155,10.174-7.388l36.578,5.804l-0.74,4.657l-36.576-5.805c-2.274-0.36-4.418,1.197-4.779,3.47
						l-5.863,36.95c-0.362,2.274,1.194,4.419,3.468,4.779l36.579,5.803c2.273,0.361,4.417-1.195,4.778-3.47l2.31-14.564l4.658,0.738
						l-2.312,14.565C348.273,529.557,343.709,532.873,338.868,532.103z"/>
					
						<rect x="374.821" y="500.492" transform="matrix(0.9876 0.1567 -0.1567 0.9876 84.0378 -57.3167)" fill="#BEBFBF" width="61.43" height="7.676"/>
					
						<rect x="370.984" y="526.618" transform="matrix(0.9876 0.1567 -0.1567 0.9876 88.3907 -60.2516)" fill="#BEBFBF" width="110.667" height="7.677"/>
				</g>
				
					<rect x="354.551" y="148.94" transform="matrix(0.9885 0.1514 -0.1514 0.9885 31.9441 -72.3558)" fill="none" stroke="#BEBFBF" stroke-width="3.1431" stroke-miterlimit="10" width="273.022" height="49.256"/>
			</g>
			<g>
				<path opacity="0.23" fill="#1D1D1B" d="M119.297,614.46l19.528,0.838c0,0,245.906-43.19,334.573-70.395
					C445.424,437.535,383.951,185.907,395,65.68c-6.331,1.148-24.184,4.225-24.184,4.225L119.297,614.46z"/>
				<path fill="#FAFAFA" d="M466.75,528.639c-97.374,44.758-347.454,85.82-347.454,85.82L31.714,130.83L400.42,64.058
					C400.42,64.058,461.992,502.371,466.75,528.639z"/>
				<g>
					<path fill="#BEBFBF" d="M108.05,184.774l-2.009,0.364l1.001,5.525l-7.408,1.341l-3.979-21.973l10.577-1.916
						c2.031-0.368,3.86-0.353,5.488,0.043c1.627,0.397,2.962,1.149,4.006,2.256c1.045,1.108,1.717,2.5,2.021,4.173
						c0.284,1.57,0.177,3.005-0.322,4.305c-0.5,1.303-1.356,2.419-2.571,3.352l5.843,5.946l-7.91,1.432L108.05,184.774z
						 M109.178,174.18c-0.583-0.359-1.378-0.448-2.383-0.267l-2.698,0.49l0.932,5.149l2.7-0.49c1.005-0.181,1.717-0.543,2.138-1.083
						c0.422-0.542,0.559-1.22,0.41-2.037C110.128,175.127,109.763,174.537,109.178,174.18z"/>
					<path fill="#BEBFBF" d="M140.275,178.873l1.013,5.588l-18.27,3.307l-3.979-21.973l17.861-3.234l1.013,5.588l-10.579,1.916
						l0.465,2.572l9.291-1.682l0.967,5.338l-9.292,1.682l0.523,2.887L140.275,178.873z"/>
					<path fill="#BEBFBF" d="M156.578,169.729l6.434-1.165l1.685,9.292c-1.136,1.136-2.517,2.096-4.147,2.89
						c-1.628,0.791-3.267,1.338-4.922,1.638c-2.342,0.425-4.535,0.317-6.573-0.318c-2.04-0.635-3.745-1.731-5.118-3.289
						c-1.372-1.555-2.259-3.442-2.661-5.662c-0.402-2.217-0.233-4.295,0.506-6.235c0.741-1.937,1.971-3.565,3.688-4.88
						c1.717-1.315,3.77-2.19,6.156-2.622c2.155-0.391,4.15-0.379,5.987,0.034c1.836,0.413,3.444,1.208,4.826,2.384l-3.986,5.034
						c-1.673-1.361-3.461-1.868-5.364-1.524c-1.633,0.296-2.842,1.021-3.626,2.179c-0.784,1.157-1.022,2.584-0.715,4.279
						c0.299,1.655,1.016,2.898,2.148,3.728c1.134,0.832,2.496,1.105,4.088,0.816c0.941-0.17,1.808-0.511,2.602-1.022
						L156.578,169.729z"/>
					<path fill="#BEBFBF" d="M164.301,157.598l7.41-1.341l3.978,21.973l-7.406,1.341L164.301,157.598z"/>
					<path fill="#BEBFBF" d="M182.119,176.951c-1.799-0.095-3.318-0.388-4.552-0.876l1.409-5.832
						c1.157,0.417,2.416,0.692,3.779,0.822c1.366,0.132,2.643,0.089,3.836-0.127c1.025-0.186,1.741-0.416,2.143-0.693
						c0.402-0.279,0.571-0.617,0.498-1.016c-0.083-0.459-0.433-0.752-1.05-0.879c-0.62-0.125-1.612-0.206-2.978-0.238
						c-1.759-0.049-3.241-0.175-4.445-0.379c-1.206-0.202-2.311-0.695-3.315-1.475c-1.007-0.78-1.654-1.964-1.94-3.555
						c-0.251-1.383-0.092-2.707,0.479-3.978c0.568-1.271,1.563-2.368,2.983-3.295c1.421-0.927,3.232-1.59,5.427-1.987
						c1.507-0.273,3.018-0.381,4.531-0.318c1.513,0.06,2.879,0.304,4.104,0.73l-1.255,5.772c-2.354-0.7-4.494-0.873-6.418-0.524
						c-1.903,0.345-2.772,0.978-2.606,1.898c0.08,0.439,0.42,0.718,1.025,0.834c0.607,0.118,1.581,0.186,2.922,0.203
						c1.731,0.009,3.211,0.114,4.436,0.315c1.225,0.199,2.345,0.683,3.358,1.45c1.016,0.768,1.667,1.946,1.955,3.536
						c0.249,1.381,0.089,2.701-0.485,3.961c-0.571,1.26-1.565,2.359-2.983,3.297c-1.421,0.938-3.226,1.607-5.424,2.004
						C185.732,176.931,183.921,177.047,182.119,176.951z"/>
					<path fill="#BEBFBF" d="M201.411,156.813l-6.437,1.165l-1.041-5.745l20.277-3.673l1.041,5.745l-6.434,1.165l2.941,16.228
						l-7.41,1.343L201.411,156.813z"/>
					<path fill="#BEBFBF" d="M228.524,162.956l-2.01,0.364l1,5.525l-7.407,1.341l-3.981-21.973l10.581-1.916
						c2.029-0.368,3.858-0.353,5.485,0.043c1.627,0.397,2.965,1.149,4.006,2.256c1.047,1.108,1.719,2.5,2.023,4.173
						c0.282,1.57,0.175,3.005-0.322,4.305c-0.5,1.303-1.357,2.419-2.572,3.352l5.844,5.946l-7.91,1.432L228.524,162.956z
						 M229.654,152.362c-0.586-0.359-1.381-0.448-2.385-0.267l-2.698,0.49l0.93,5.149l2.701-0.49
						c1.004-0.181,1.716-0.543,2.14-1.083c0.42-0.542,0.556-1.22,0.408-2.037C230.602,153.309,230.237,152.719,229.654,152.362z"/>
					<path fill="#BEBFBF" d="M257.77,159.409l-8.349,1.512l-0.783,4.098l-7.532,1.365l5.626-23.712l7.281-1.318l13.585,20.232
						l-7.659,1.388L257.77,159.409z M254.765,154.445l-3.137-5.138l-1.132,5.91L254.765,154.445z"/>
					<path fill="#BEBFBF" d="M269.526,144.476l-6.434,1.165l-1.04-5.745l20.277-3.672l1.041,5.744l-6.434,1.167l2.938,16.229
						l-7.41,1.341L269.526,144.476z"/>
					<path fill="#BEBFBF" d="M284.244,135.877l7.407-1.341l3.978,21.973l-7.407,1.341L284.244,135.877z"/>
					<path fill="#BEBFBF" d="M304.18,153.957c-2.063-0.643-3.782-1.742-5.169-3.295c-1.381-1.555-2.275-3.43-2.67-5.628
						c-0.399-2.196-0.221-4.267,0.528-6.207c0.752-1.939,1.98-3.573,3.687-4.898c1.704-1.325,3.738-2.2,6.102-2.628
						c2.366-0.428,4.577-0.322,6.642,0.319c2.06,0.645,3.782,1.742,5.166,3.297c1.384,1.553,2.274,3.43,2.673,5.626
						c0.396,2.198,0.221,4.267-0.531,6.208c-0.749,1.938-1.977,3.573-3.684,4.897c-1.707,1.325-3.742,2.203-6.105,2.631
						S306.243,154.598,304.18,153.957z M312.109,147.155c0.66-0.583,1.136-1.329,1.424-2.234c0.292-0.909,0.334-1.914,0.135-3.025
						c-0.203-1.108-0.596-2.037-1.185-2.784c-0.589-0.746-1.298-1.275-2.121-1.595c-0.822-0.313-1.697-0.387-2.618-0.219
						c-0.921,0.166-1.713,0.542-2.373,1.124c-0.66,0.587-1.139,1.332-1.427,2.237c-0.289,0.906-0.334,1.914-0.132,3.022
						c0.2,1.111,0.596,2.037,1.185,2.787c0.589,0.746,1.295,1.277,2.121,1.591c0.822,0.316,1.694,0.39,2.615,0.224
						C310.654,148.115,311.446,147.74,312.109,147.155z"/>
					<path fill="#BEBFBF" d="M343.507,125.145l3.981,21.973l-6.09,1.104l-10.16-8.47l1.808,9.982l-7.216,1.308l-3.981-21.973
						l6.09-1.102l10.157,8.469l-1.808-9.982L343.507,125.145z"/>
				</g>
				
					<rect x="83.455" y="133.7" transform="matrix(0.9846 -0.175 0.175 0.9846 -24.3082 40.927)" fill="none" stroke="#BEBFBF" stroke-width="3.1431" stroke-miterlimit="10" width="273.022" height="49.258"/>
				<g>
					<g>
						<g>
							<path fill="#44C68B" d="M142.928,259.037l-17.473-11.558l4.511-6.819l10.656,7.048l25.762-38.583l6.82,4.514L142.928,259.037
								z"/>
						</g>
					</g>
					<path fill="#585A59" d="M160.931,271.25l-36.442,6.6c-4.825,0.875-9.46-2.339-10.333-7.164l-6.667-36.813
						c-0.873-4.824,2.341-9.46,7.165-10.332l36.442-6.601l0.841,4.64l-36.442,6.599c-2.267,0.412-3.775,2.588-3.366,4.853
						l6.667,36.815c0.41,2.265,2.587,3.775,4.853,3.364l36.442-6.599c2.265-0.411,3.775-2.587,3.364-4.853l-2.627-14.512l4.638-0.84
						l2.629,14.511C168.967,265.742,165.753,270.379,160.931,271.25z"/>
					
						<rect x="183.043" y="208.84" transform="matrix(0.984 -0.1782 0.1782 0.984 -33.5481 51.8365)" fill="#BEBFBF" width="177.508" height="7.677"/>
					
						<rect x="187.061" y="231.029" transform="matrix(0.984 -0.1782 0.1782 0.984 -37.439 52.9101)" fill="#BEBFBF" width="177.508" height="7.675"/>
				</g>
				<g>
					<g>
						<g>
							<path fill="#44C68B" d="M159.488,350.483l-17.473-11.56l4.512-6.819l10.654,7.046l25.762-38.58l6.82,4.512L159.488,350.483z"
								/>
						</g>
					</g>
					<path fill="#585A59" d="M177.49,362.696l-36.442,6.6c-4.824,0.873-9.459-2.341-10.333-7.164l-6.666-36.814
						c-0.875-4.824,2.339-9.458,7.164-10.333l36.441-6.599l0.839,4.64l-36.44,6.601c-2.267,0.408-3.776,2.588-3.366,4.853
						l6.667,36.813c0.411,2.265,2.587,3.775,4.854,3.365l36.441-6.599c2.265-0.41,3.775-2.587,3.364-4.853l-2.627-14.511
						l4.639-0.841l2.628,14.511C185.527,357.187,182.313,361.823,177.49,362.696z"/>
					
						<rect x="200.262" y="307.626" transform="matrix(0.984 -0.1782 0.1782 0.984 -51.5344 49.1459)" fill="#BEBFBF" width="95.128" height="7.675"/>
					
						<rect x="203.622" y="322.472" transform="matrix(0.984 -0.1782 0.1782 0.984 -53.4675 57.3224)" fill="#BEBFBF" width="177.507" height="7.677"/>
				</g>
				<g>
					<g>
						<g>
							<path fill="#44C68B" d="M176.048,441.927l-17.473-11.56l4.511-6.819l10.656,7.048l25.764-38.582l6.819,4.514L176.048,441.927
								z"/>
						</g>
					</g>
					<path fill="#585A59" d="M194.051,454.14l-36.442,6.6c-4.824,0.873-9.458-2.341-10.332-7.164l-6.667-36.813
						c-0.874-4.824,2.339-9.459,7.164-10.332l36.442-6.6l0.838,4.638l-36.441,6.6c-2.265,0.411-3.775,2.589-3.364,4.854
						l6.666,36.813c0.411,2.266,2.587,3.775,4.854,3.364l36.441-6.6c2.265-0.409,3.775-2.587,3.364-4.853l-2.627-14.511l4.64-0.841
						l2.627,14.511C202.087,448.631,198.873,453.267,194.051,454.14z"/>
					
						<rect x="216.456" y="394.982" transform="matrix(0.984 -0.1782 0.1782 0.984 -66.4739 57.517)" fill="#BEBFBF" width="141.011" height="7.676"/>
					
						<rect x="220.182" y="413.918" transform="matrix(0.984 -0.1782 0.1782 0.984 -69.4973 61.7367)" fill="#BEBFBF" width="177.507" height="7.676"/>
				</g>
				<g>
					<g>
						<g>
							<path fill="#44C68B" d="M192.608,533.372l-17.474-11.559l4.512-6.82l10.655,7.048l25.764-38.582l6.82,4.514L192.608,533.372z
								"/>
						</g>
					</g>
					<path fill="#585A59" d="M210.611,545.585l-36.442,6.6c-4.824,0.873-9.459-2.341-10.333-7.164l-6.666-36.813
						c-0.873-4.824,2.34-9.459,7.163-10.332l36.444-6.6l0.84,4.64l-36.442,6.6c-2.266,0.409-3.775,2.587-3.364,4.853l6.667,36.813
						c0.408,2.266,2.586,3.775,4.853,3.364l36.441-6.6c2.265-0.409,3.775-2.587,3.364-4.853l-2.627-14.511l4.64-0.841l2.629,14.512
						C218.646,540.077,215.434,544.712,210.611,545.585z"/>
					
						<rect x="233.652" y="493.517" transform="matrix(0.984 -0.1782 0.1782 0.984 -84.3947 55.0687)" fill="#BEBFBF" width="61.429" height="7.676"/>
					
						<rect x="237.276" y="511.318" transform="matrix(0.984 -0.1782 0.1782 0.984 -87.1125 60.3845)" fill="#BEBFBF" width="110.667" height="7.676"/>
				</g>
			</g>
			<g>
				<path opacity="0.23" fill="#1D1D1B" d="M181.272,573.072c0,0,342.819,15.324,390.27,7.416
					c-8.395-110.637-28.68-366.167-7.629-496.229c-8.02-1.004-38.107-2.207-38.107-2.207L181.272,573.072z"/>
				<path fill="#FFFFFF" d="M538.458,550.542c-103.79,26.689-357.186,22.53-357.186,22.53V81.575h374.705
					C555.977,81.575,538.458,523.845,538.458,550.542z"/>
				<g>
					<path fill="#BEBFBF" d="M255.581,148.822h-2.043v5.614h-7.528v-22.331h10.75c2.063,0,3.861,0.341,5.393,1.021
						c1.53,0.681,2.71,1.659,3.539,2.934c0.83,1.277,1.245,2.766,1.245,4.466c0,1.596-0.361,2.988-1.085,4.179
						c-0.723,1.192-1.765,2.138-3.125,2.839l4.689,6.891h-8.039L255.581,148.822z M258.58,138.597
						c-0.513-0.458-1.277-0.686-2.299-0.686h-2.743v5.232h2.743c1.022,0,1.787-0.229,2.299-0.686
						c0.509-0.458,0.764-1.101,0.764-1.931C259.344,139.698,259.09,139.054,258.58,138.597z"/>
					<path fill="#BEBFBF" d="M288.342,148.757v5.678h-18.566v-22.331h18.151v5.679h-10.751v2.615h9.443v5.424h-9.443v2.935H288.342z
						"/>
					<path fill="#BEBFBF" d="M306.014,142.664h6.54v9.443c-1.32,0.915-2.85,1.616-4.594,2.105c-1.745,0.488-3.456,0.734-5.137,0.734
						c-2.382,0-4.518-0.496-6.412-1.484c-1.892-0.988-3.376-2.371-4.449-4.146c-1.074-1.776-1.61-3.791-1.61-6.045
						s0.536-4.27,1.61-6.045c1.073-1.776,2.574-3.159,4.499-4.147c1.924-0.988,4.098-1.482,6.522-1.482
						c2.192,0,4.153,0.367,5.887,1.101c1.731,0.733,3.174,1.802,4.322,3.206l-4.817,4.242c-1.404-1.637-3.074-2.456-5.008-2.456
						c-1.659,0-2.978,0.499-3.957,1.498c-0.978,1-1.467,2.362-1.467,4.084c0,1.681,0.485,3.031,1.452,4.052
						c0.967,1.021,2.259,1.532,3.877,1.532c0.956,0,1.869-0.181,2.743-0.543V142.664z"/>
					<path fill="#BEBFBF" d="M315.777,132.105h7.526v22.331h-7.526V132.105z"/>
					<path fill="#BEBFBF" d="M329.86,154.323c-1.754-0.415-3.195-0.973-4.322-1.674l2.425-5.487
						c1.062,0.617,2.253,1.111,3.573,1.482c1.317,0.373,2.583,0.559,3.795,0.559c1.042,0,1.787-0.1,2.233-0.302
						c0.447-0.203,0.669-0.505,0.669-0.91c0-0.466-0.292-0.818-0.876-1.053c-0.585-0.233-1.548-0.488-2.887-0.764
						c-1.722-0.362-3.159-0.75-4.307-1.165s-2.148-1.096-2.999-2.041c-0.85-0.947-1.277-2.229-1.277-3.845
						c0-1.404,0.393-2.68,1.182-3.828c0.786-1.149,1.961-2.052,3.523-2.712c1.563-0.658,3.462-0.988,5.694-0.988
						c1.532,0,3.036,0.164,4.515,0.494c1.477,0.33,2.78,0.813,3.908,1.45l-2.265,5.456c-2.192-1.106-4.264-1.659-6.221-1.659
						c-1.935,0-2.902,0.468-2.902,1.403c0,0.447,0.285,0.783,0.859,1.005c0.576,0.224,1.521,0.463,2.839,0.718
						c1.702,0.319,3.137,0.686,4.306,1.101c1.169,0.414,2.186,1.089,3.048,2.026c0.861,0.936,1.292,2.211,1.292,3.828
						c0,1.404-0.395,2.675-1.182,3.812c-0.786,1.139-1.961,2.042-3.524,2.712c-1.564,0.669-3.462,1.005-5.694,1.005
						C333.417,154.947,331.615,154.738,329.86,154.323z"/>
					<path fill="#BEBFBF" d="M352.429,137.943h-6.54v-5.838h20.606v5.838h-6.538v16.492h-7.529V137.943z"/>
					<path fill="#BEBFBF" d="M378.014,148.822h-2.042v5.614h-7.529v-22.331h10.751c2.063,0,3.86,0.341,5.392,1.021
						c1.531,0.681,2.71,1.659,3.541,2.934c0.83,1.277,1.244,2.766,1.244,4.466c0,1.596-0.362,2.988-1.085,4.179
						c-0.723,1.192-1.767,2.138-3.126,2.839l4.69,6.891h-8.039L378.014,148.822z M381.012,138.597
						c-0.511-0.458-1.276-0.686-2.297-0.686h-2.743v5.232h2.743c1.021,0,1.786-0.229,2.297-0.686
						c0.51-0.458,0.765-1.101,0.765-1.931C381.777,139.698,381.522,139.054,381.012,138.597z"/>
					<path fill="#BEBFBF" d="M407.425,150.543h-8.485l-1.5,3.892h-7.654l9.761-22.331h7.4l9.761,22.331h-7.782L407.425,150.543z
						 M405.352,145.121l-2.169-5.615l-2.17,5.615H405.352z"/>
					<path fill="#BEBFBF" d="M421.653,137.943h-6.538v-5.838h20.606v5.838h-6.538v16.492h-7.53V137.943z"/>
					<path fill="#BEBFBF" d="M437.667,132.105h7.528v22.331h-7.528V132.105z"/>
					<path fill="#BEBFBF" d="M454.065,153.447c-1.916-1-3.414-2.388-4.499-4.164c-1.085-1.776-1.626-3.78-1.626-6.013
						s0.541-4.237,1.626-6.013s2.583-3.163,4.499-4.164c1.913-1,4.071-1.498,6.475-1.498s4.562,0.499,6.477,1.498
						c1.914,1,3.413,2.388,4.497,4.164c1.085,1.776,1.627,3.78,1.627,6.013s-0.542,4.237-1.627,6.013
						c-1.084,1.775-2.583,3.163-4.497,4.164c-1.915,0.999-4.073,1.5-6.477,1.5S455.978,154.446,454.065,153.447z M463.076,148.168
						c0.754-0.458,1.355-1.107,1.802-1.946c0.446-0.841,0.669-1.823,0.669-2.951c0-1.126-0.223-2.11-0.669-2.951
						c-0.446-0.84-1.048-1.487-1.802-1.946c-0.755-0.456-1.601-0.685-2.537-0.685s-1.781,0.229-2.535,0.685
						c-0.755,0.459-1.356,1.106-1.804,1.946c-0.446,0.841-0.669,1.825-0.669,2.951c0,1.128,0.223,2.11,0.669,2.951
						c0.447,0.839,1.049,1.489,1.804,1.946c0.754,0.457,1.599,0.686,2.535,0.686S462.322,148.625,463.076,148.168z"/>
					<path fill="#BEBFBF" d="M497.895,132.105v22.331h-6.189l-8.485-10.145v10.145h-7.336v-22.331h6.188l8.485,10.145v-10.145
						H497.895z"/>
				</g>
				<g>
					<g>
						<g>
							<path fill="#44C68B" d="M267.862,227.551l-15.135-14.488l5.654-5.906l9.23,8.833l32.225-33.373l5.907,5.655L267.862,227.551z
								"/>
						</g>
					</g>
					<path fill="#585A59" d="M283.398,242.777h-37.035c-4.902,0-8.891-3.989-8.891-8.891v-37.412c0-4.902,3.989-8.891,8.891-8.891
						h37.035v4.715h-37.035c-2.302,0-4.176,1.874-4.176,4.176v37.412c0,2.302,1.874,4.176,4.176,4.176h37.035
						c2.302,0,4.176-1.874,4.176-4.176v-14.747h4.715v14.747C292.289,238.788,288.301,242.777,283.398,242.777z"/>
					<rect x="314.175" y="201.059" fill="#BEBFBF" width="177.507" height="7.675"/>
					<rect x="314.175" y="223.608" fill="#BEBFBF" width="177.507" height="7.675"/>
				</g>
				<g>
					<g>
						<g>
							<path fill="#44C68B" d="M267.862,320.482l-15.135-14.488l5.654-5.906l9.23,8.834l32.225-33.375l5.907,5.657L267.862,320.482z
								"/>
						</g>
					</g>
					<path fill="#585A59" d="M283.398,335.71h-37.035c-4.902,0-8.891-3.991-8.891-8.893v-37.411c0-4.902,3.989-8.892,8.891-8.892
						h37.035v4.714h-37.035c-2.302,0-4.176,1.874-4.176,4.178v37.411c0,2.302,1.874,4.178,4.176,4.178h37.035
						c2.302,0,4.176-1.875,4.176-4.178v-14.746h4.715v14.746C292.289,331.719,288.301,335.71,283.398,335.71z"/>
					<rect x="314.175" y="293.992" fill="#BEBFBF" width="95.127" height="7.675"/>
					<rect x="314.175" y="316.541" fill="#BEBFBF" width="177.507" height="7.675"/>
				</g>
				<g>
					<g>
						<g>
							<path fill="#44C68B" d="M267.862,413.415l-15.135-14.488l5.654-5.905l9.23,8.832l32.225-33.374l5.907,5.657L267.862,413.415z
								"/>
						</g>
					</g>
					<path fill="#585A59" d="M283.398,428.641h-37.035c-4.902,0-8.891-3.989-8.891-8.892v-37.412c0-4.901,3.989-8.891,8.891-8.891
						h37.035v4.715h-37.035c-2.302,0-4.176,1.874-4.176,4.176v37.412c0,2.303,1.874,4.177,4.176,4.177h37.035
						c2.302,0,4.176-1.874,4.176-4.177v-14.747h4.715v14.747C292.289,424.652,288.301,428.641,283.398,428.641z"/>
					<rect x="314.175" y="386.924" fill="#BEBFBF" width="141.011" height="7.676"/>
					<rect x="314.175" y="409.472" fill="#BEBFBF" width="177.507" height="7.675"/>
				</g>
				<g>
					<g>
						<g>
							<path fill="#44C68B" d="M267.862,506.346l-15.135-14.488l5.654-5.905l9.23,8.832l32.225-33.373l5.907,5.656L267.862,506.346z
								"/>
						</g>
					</g>
					<path fill="#585A59" d="M283.398,521.572h-37.035c-4.902,0-8.891-3.988-8.891-8.891v-37.412c0-4.902,3.989-8.891,8.891-8.891
						h37.035v4.715h-37.035c-2.302,0-4.176,1.874-4.176,4.176v37.412c0,2.303,1.874,4.176,4.176,4.176h37.035
						c2.302,0,4.176-1.873,4.176-4.176v-14.747h4.715v14.747C292.289,517.584,288.301,521.572,283.398,521.572z"/>
					<rect x="314.175" y="479.855" fill="#BEBFBF" width="61.429" height="7.677"/>
					<rect x="314.175" y="502.403" fill="#BEBFBF" width="110.667" height="7.677"/>
				</g>
			</g>
		</g>
		<g>
			<g>
				<path fill="#3C3C3B" d="M504.476,635.864L504.476,635.864c0,0.576-0.467,1.041-1.04,1.041h-7.456
					c-0.574,0-1.041-0.465-1.041-1.041l0,0c0-0.575,0.467-1.042,1.041-1.042h7.456C504.009,634.822,504.476,635.289,504.476,635.864
					z"/>
				<path fill="#99CDA2" d="M495.677,631.731c0,0,0.571,0.235,0.571,3.878c0,3.644-0.571,4.389-0.571,4.389l-24.856,2.004v-12.274
					L495.677,631.731z"/>
				<path fill="#3C3C3B" d="M232.253,640.726v-9.724c0-2.163,1.753-3.915,3.915-3.915h13.404v17.554h-13.404
					C234.006,644.641,232.253,642.888,232.253,640.726z"/>
				<rect x="257.614" y="621.92" fill="#3C3C3B" width="121.768" height="27.89"/>
				<path fill="#3C3C3B" d="M471.213,627.399c0,0,2.013,0.483,2.013,7.945s-2.013,8.985-2.013,8.985l-87.83,4.105v-25.142
					L471.213,627.399z"/>
				<path fill="#99CDA2" d="M260.511,621.92v27.89h-8.787c-2.058,0-3.728-1.67-3.728-3.729v-20.434c0-2.058,1.67-3.728,3.728-3.728
					H260.511z"/>
				<polygon fill="#99CDA2" points="458.283,644.934 468.425,644.461 468.425,627.268 458.283,626.794 				"/>
				<path fill="#99CDA2" d="M351.63,635.864L351.63,635.864c0-2.751-2.23-4.983-4.983-4.983h-75.792v9.967h75.792
					C349.4,640.847,351.63,638.616,351.63,635.864z"/>
				<rect x="376.112" y="621.92" fill="#99CDA2" width="9.424" height="27.89"/>
			</g>
			<path opacity="0.51" fill="#5D5D5D" d="M232.253,635.804v4.922c0,2.162,1.753,3.915,3.915,3.915h11.828v1.439
				c0,2.059,1.67,3.729,3.728,3.729h5.889h2.897h115.601h3.27h6.154v-1.476l85.678-4.004c0,0,0.688-0.532,1.259-2.462l23.205-1.87
				c0,0,0.429-0.566,0.542-3.092h7.217c0.573,0,1.04-0.466,1.04-1.042c0-0.021-0.011-0.038-0.013-0.06H232.253z"/>
		</g>
		
			<rect x="235.634" y="118.031" fill="none" stroke="#BEBFBF" stroke-width="3.1431" stroke-miterlimit="10" width="273.022" height="49.257"/>
	</g>
</g>
</svg>
