<?xml version="1.0" encoding="utf-8"?>
<!-- Generator: Adobe Illustrator 16.0.0, SVG Export Plug-In . SVG Version: 6.00 Build 0)  -->
<!DOCTYPE svg PUBLIC "-//W3C//DTD SVG 1.1//EN" "http://www.w3.org/Graphics/SVG/1.1/DTD/svg11.dtd">
<svg version="1.1" id="Layer_1" xmlns="http://www.w3.org/2000/svg" xmlns:xlink="http://www.w3.org/1999/xlink" x="0px" y="0px"
	 width="219.335px" height="89.8px" viewBox="0 0 219.335 89.8" enable-background="new 0 0 219.335 89.8" xml:space="preserve">
<g>
	<g>
		<path d="M70.161,28.521h7.48c-5.229-8.934-14.604-15.148-25.484-15.997v6.21C59.435,19.438,65.845,23.108,70.161,28.521z"/>
		<path d="M23.426,47.462h-6.211c1.24,15.895,13.92,28.574,29.815,29.815v-6.215C34.557,69.857,24.633,59.935,23.426,47.462z"/>
		<path d="M17.217,42.337h6.209c1.209-12.473,11.132-22.397,23.605-23.604v-6.21C31.138,13.764,18.458,26.443,17.217,42.337z"/>
		<path d="M70.161,61.279c-4.318,5.412-10.727,9.086-18.004,9.785v6.215c10.881-0.85,20.256-7.064,25.484-16H70.161z"/>
	</g>
	<g>
		<rect x="0" y="43.458" fill="#EC2024" width="23.301" height="2.883"/>
		<rect x="48.153" y="71.191" fill="#EC2024" width="2.883" height="18.609"/>
		<rect x="48.153" y="0" fill="#EC2024" width="2.883" height="18.608"/>
	</g>
	<g>
		<g>
			<path fill="#EC2024" d="M34.399,56.878c-2.602-3.293-4.154-7.455-4.154-11.979c0-4.652,1.641-8.92,4.377-12.257l-3.428-3.429
				c-3.602,4.223-5.777,9.699-5.777,15.686c0,5.855,2.082,11.229,5.549,15.412L34.399,56.878z"/>
			<path fill="#EC2024" d="M60.254,28.751c-3.109-1.938-6.721-3.201-10.659-3.201c-4.526,0-8.687,1.553-11.979,4.154l-3.434-3.434
				c4.186-3.467,9.556-5.549,15.413-5.549c5.985,0,11.463,2.177,15.686,5.779l-2.146,2.145
				C62.157,29.623,61.163,29.316,60.254,28.751z"/>
		</g>
		<path fill="#EC2024" d="M73.743,46.083c-0.758,12.793-11.193,22.992-24.15,22.992c-5.983,0-11.463-2.172-15.684-5.777l3.426-3.428
			c3.34,2.736,7.604,4.377,12.258,4.377c9.021,0,16.597-6.17,18.742-14.52H49.592v-4.83h22.656
			C73.527,44.9,73.774,45.555,73.743,46.083z"/>
	</g>
	<path fill="#EC2024" d="M87.629,44.9c0.273,0,0.408,0.154,0.408,0.459v2.139c0,0.305-0.137,0.457-0.408,0.457h-6.03
		c-0.484,0-0.886,0.047-1.203,0.141c-0.315,0.094-0.572,0.246-0.763,0.461c-0.188,0.213-0.319,0.498-0.395,0.863
		c-0.076,0.367-0.115,0.813-0.115,1.336v7.559c0,0.375-0.164,0.561-0.498,0.561h-2.221c-0.347,0-0.521-0.186-0.521-0.561v-8.246
		c0-0.914,0.093-1.699,0.273-2.354c0.182-0.652,0.477-1.187,0.895-1.602c0.419-0.416,0.97-0.722,1.656-0.916
		c0.687-0.195,1.543-0.293,2.572-0.293h6.35V44.9z"/>
	<path fill="#EC2024" d="M99.917,44.9c1.016,0,1.867,0.098,2.563,0.292s1.252,0.502,1.666,0.918c0.414,0.415,0.715,0.95,0.896,1.599
		c0.183,0.656,0.271,1.44,0.271,2.354v6.772c0,0.404-0.027,0.738-0.08,1.006c-0.053,0.265-0.143,0.47-0.271,0.623
		c-0.129,0.15-0.299,0.259-0.512,0.316c-0.212,0.063-0.482,0.088-0.816,0.088H92.845c-0.667,0-1.224-0.07-1.669-0.213
		c-0.444-0.146-0.805-0.361-1.077-0.65c-0.271-0.287-0.466-0.662-0.576-1.118c-0.112-0.462-0.17-1.003-0.17-1.634v-1.219
		c0-0.527,0.058-0.996,0.17-1.414c0.11-0.414,0.306-0.766,0.576-1.055c0.272-0.287,0.633-0.504,1.077-0.65
		c0.445-0.141,1.002-0.215,1.669-0.215h9.225v-0.48c0-0.41-0.036-0.756-0.11-1.043c-0.078-0.291-0.207-0.525-0.388-0.703
		c-0.18-0.176-0.429-0.309-0.748-0.396c-0.317-0.082-0.724-0.125-1.223-0.125h-9.479c-0.271,0-0.404-0.152-0.404-0.457v-2.14
		c0-0.304,0.135-0.458,0.404-0.458h9.795V44.9z M101.415,56.074c0.242,0,0.41-0.064,0.51-0.191c0.098-0.129,0.146-0.352,0.146-0.674
		V52.97h-8.297c-0.471,0-0.797,0.104-0.986,0.316c-0.188,0.215-0.283,0.521-0.283,0.93v0.533c0,0.459,0.096,0.793,0.283,1.004
		c0.189,0.217,0.519,0.32,0.986,0.32H101.415L101.415,56.074z"/>
	<path fill="#EC2024" d="M119.415,44.9c1.015,0,1.867,0.098,2.563,0.292s1.252,0.502,1.666,0.918
		c0.416,0.415,0.715,0.95,0.896,1.599c0.183,0.656,0.271,1.44,0.271,2.354v3.666c0,0.916-0.09,1.701-0.271,2.354
		c-0.182,0.652-0.479,1.187-0.896,1.603c-0.414,0.416-0.972,0.72-1.666,0.905c-0.694,0.188-1.549,0.277-2.563,0.277h-8.5v5.066
		c0,0.371-0.166,0.559-0.498,0.559h-2.224c-0.346,0-0.521-0.188-0.521-0.559V50.064c0-0.914,0.092-1.699,0.272-2.355
		c0.183-0.651,0.479-1.184,0.896-1.598c0.416-0.416,0.969-0.724,1.654-0.918c0.689-0.193,1.545-0.292,2.572-0.292L119.415,44.9
		L119.415,44.9z M110.913,55.818h8.186c0.498,0,0.906-0.041,1.223-0.129c0.316-0.084,0.574-0.236,0.762-0.457
		c0.188-0.219,0.318-0.51,0.398-0.863c0.072-0.356,0.111-0.807,0.111-1.348v-2.268c0-0.525-0.039-0.971-0.111-1.336
		c-0.08-0.367-0.211-0.654-0.398-0.865c-0.187-0.211-0.444-0.365-0.762-0.459c-0.318-0.094-0.725-0.141-1.223-0.141h-5.715
		c-0.48,0-0.885,0.047-1.203,0.141c-0.316,0.094-0.568,0.246-0.76,0.459c-0.188,0.211-0.318,0.498-0.396,0.865
		c-0.076,0.365-0.113,0.811-0.113,1.336v5.063L110.913,55.818L110.913,55.818z"/>
	<path fill="#EC2024" d="M130.231,39.783c0.332,0,0.498,0.188,0.498,0.561v4.556h8.479c1.015,0,1.867,0.099,2.564,0.293
		c0.693,0.194,1.25,0.5,1.664,0.916c0.416,0.416,0.715,0.949,0.896,1.601c0.18,0.656,0.271,1.439,0.271,2.354v8.246
		c0,0.375-0.166,0.562-0.498,0.562h-2.224c-0.332,0-0.498-0.187-0.498-0.562V50.93c0-0.524-0.028-0.972-0.09-1.337
		c-0.063-0.366-0.178-0.653-0.352-0.866c-0.174-0.215-0.41-0.362-0.717-0.457c-0.301-0.095-0.693-0.142-1.178-0.142h-8.32v10.181
		c0,0.373-0.166,0.562-0.498,0.562h-2.223c-0.332,0-0.498-0.188-0.498-0.562V40.345c0-0.374,0.166-0.561,0.498-0.561h2.223v-0.002
		H130.231z"/>
	<path fill="#EC2024" d="M150.159,39.732c0.334,0,0.502,0.188,0.502,0.561v2.418c0,0.392-0.168,0.584-0.502,0.584h-2.221
		c-0.348,0-0.521-0.192-0.521-0.584v-2.418c0-0.373,0.174-0.561,0.521-0.561H150.159z M150.159,44.9
		c0.334,0,0.502,0.196,0.502,0.586v12.828c0,0.373-0.168,0.561-0.502,0.561h-2.221c-0.332,0-0.5-0.188-0.5-0.561V45.485
		c0-0.392,0.168-0.587,0.5-0.587h2.221V44.9z"/>
	<path d="M169.999,41.057c0.332,0,0.498,0.187,0.498,0.562v2.493c0,0.39-0.166,0.584-0.498,0.584h-10.09
		c-0.59,0-1.078,0.058-1.463,0.166c-0.387,0.11-0.691,0.298-0.918,0.562s-0.393,0.615-0.486,1.056c-0.1,0.44-0.146,1-0.146,1.681
		v3.61c0,0.681,0.045,1.246,0.146,1.692c0.095,0.451,0.26,0.808,0.486,1.07c0.227,0.264,0.531,0.451,0.918,0.559
		c0.385,0.111,0.873,0.164,1.463,0.164h10.09c0.332,0,0.498,0.188,0.498,0.563v2.494c0,0.371-0.166,0.56-0.498,0.56h-10.227
		c-1.148,0-2.121-0.117-2.924-0.354c-0.799-0.237-1.453-0.625-1.961-1.158c-0.506-0.534-0.875-1.229-1.109-2.088
		c-0.234-0.854-0.352-1.896-0.352-3.116v-4.378c0-1.226,0.117-2.258,0.352-3.106c0.234-0.848,0.604-1.539,1.109-2.074
		c0.508-0.533,1.16-0.924,1.961-1.17c0.803-0.246,1.775-0.369,2.924-0.369L169.999,41.057L169.999,41.057z"/>
	<path d="M186.098,41.057c1.146,0,2.127,0.123,2.936,0.368c0.809,0.246,1.465,0.638,1.969,1.171
		c0.506,0.534,0.873,1.226,1.103,2.075c0.228,0.849,0.34,1.881,0.34,3.105v4.377c0,1.221-0.11,2.262-0.34,3.117
		s-0.597,1.553-1.103,2.088c-0.504,0.537-1.16,0.92-1.969,1.158c-0.809,0.236-1.789,0.354-2.936,0.354h-7.008
		c-1.15,0-2.125-0.117-2.924-0.354c-0.802-0.238-1.457-0.625-1.963-1.158c-0.511-0.535-0.879-1.23-1.111-2.088
		c-0.234-0.859-0.35-1.896-0.35-3.117v-4.377c0-1.225,0.114-2.258,0.35-3.105c0.232-0.85,0.602-1.541,1.111-2.075
		c0.506-0.535,1.159-0.925,1.963-1.171c0.801-0.245,1.774-0.368,2.924-0.368H186.098z M176.211,51.873
		c0,0.662,0.049,1.221,0.147,1.666c0.099,0.451,0.261,0.808,0.486,1.07c0.225,0.264,0.532,0.451,0.915,0.559
		c0.39,0.111,0.873,0.168,1.468,0.168h6.731c0.588,0,1.078-0.057,1.461-0.168c0.388-0.106,0.691-0.295,0.92-0.559
		c0.226-0.264,0.39-0.619,0.486-1.07c0.1-0.447,0.146-1.004,0.146-1.666v-3.817c0-0.658-0.047-1.218-0.146-1.666
		c-0.098-0.448-0.262-0.806-0.486-1.068c-0.229-0.263-0.532-0.45-0.92-0.562c-0.383-0.109-0.873-0.163-1.461-0.163h-6.731
		c-0.595,0-1.078,0.054-1.468,0.163c-0.383,0.111-0.69,0.299-0.915,0.562c-0.228,0.265-0.39,0.62-0.486,1.068
		c-0.101,0.45-0.147,1.007-0.147,1.666V51.873z"/>
	<path d="M199.745,41.057c0.334,0,0.621,0.026,0.863,0.075c0.24,0.052,0.451,0.15,0.633,0.293c0.182,0.146,0.344,0.341,0.488,0.586
		c0.145,0.246,0.291,0.572,0.443,0.979l4.715,12.219c0.061,0.151,0.166,0.227,0.316,0.227h0.274c0.149,0,0.256-0.074,0.315-0.227
		l4.715-12.219c0.154-0.406,0.3-0.732,0.445-0.979c0.146-0.245,0.305-0.44,0.486-0.586c0.182-0.145,0.389-0.241,0.623-0.293
		c0.234-0.049,0.518-0.075,0.85-0.075h2.426c0.785,0,1.316,0.198,1.586,0.599c0.271,0.396,0.41,1.082,0.41,2.049v14.608
		c0,0.371-0.174,0.56-0.522,0.56H216.5c-0.334,0-0.502-0.188-0.502-0.56V45.026c0-0.168-0.059-0.255-0.178-0.255h-0.205
		c-0.152,0-0.25,0.068-0.297,0.203l-4.578,11.404c-0.182,0.459-0.367,0.846-0.557,1.156c-0.188,0.315-0.393,0.573-0.613,0.776
		c-0.219,0.207-0.469,0.349-0.746,0.435c-0.281,0.088-0.609,0.125-0.986,0.125h-1.088c-0.379,0-0.709-0.037-0.985-0.125
		c-0.279-0.086-0.531-0.228-0.748-0.435c-0.22-0.203-0.425-0.461-0.611-0.776c-0.19-0.313-0.375-0.697-0.557-1.156l-4.58-11.404
		c-0.047-0.135-0.146-0.203-0.295-0.203h-0.203c-0.123,0-0.183,0.087-0.183,0.255v13.286c0,0.371-0.166,0.559-0.498,0.559h-2.313
		c-0.348,0-0.521-0.188-0.521-0.559V43.703c0-0.967,0.137-1.65,0.408-2.049c0.271-0.398,0.809-0.598,1.608-0.598L199.745,41.057
		L199.745,41.057z"/>
</g>
</svg>
