<?xml version="1.0" encoding="utf-8"?>
<!-- Generator: Adobe Illustrator 16.0.0, SVG Export Plug-In . SVG Version: 6.00 Build 0)  -->
<!DOCTYPE svg PUBLIC "-//W3C//DTD SVG 1.1//EN" "http://www.w3.org/Graphics/SVG/1.1/DTD/svg11.dtd">
<svg version="1.1" id="Layer_1" xmlns="http://www.w3.org/2000/svg" xmlns:xlink="http://www.w3.org/1999/xlink" x="0px" y="0px"
	 width="219.335px" height="89.8px" viewBox="0 0 219.335 89.8" enable-background="new 0 0 219.335 89.8" xml:space="preserve">
<g>
	<g>
		<path d="M70.16,28.521h7.48c-5.229-8.934-14.604-15.148-25.484-15.997v6.21C59.434,19.438,65.844,23.108,70.16,28.521z"/>
		<path d="M23.426,47.462h-6.211c1.24,15.895,13.92,28.574,29.815,29.816v-6.215C34.556,69.857,24.633,59.935,23.426,47.462z"/>
		<path d="M17.217,42.338h6.209c1.209-12.474,11.131-22.398,23.605-23.604v-6.21C31.137,13.764,18.457,26.443,17.217,42.338z"/>
		<path d="M70.16,61.279c-4.318,5.412-10.727,9.086-18.004,9.785v6.215c10.881-0.85,20.256-7.064,25.484-16H70.16z"/>
	</g>
	<g>
		<rect y="43.459" fill="#EC2024" width="23.301" height="2.883"/>
		<rect x="48.152" y="71.191" fill="#EC2024" width="2.883" height="18.609"/>
		<rect x="48.152" fill="#EC2024" width="2.883" height="18.608"/>
	</g>
	<g>
		<g>
			<path fill="#EC2024" d="M34.398,56.878c-2.602-3.293-4.155-7.455-4.155-11.978c0-4.652,1.642-8.92,4.378-12.257l-3.428-3.428
				c-3.602,4.222-5.778,9.699-5.778,15.685c0,5.855,2.083,11.228,5.549,15.412L34.398,56.878z"/>
			<path fill="#EC2024" d="M60.254,28.751c-3.11-1.937-6.721-3.2-10.66-3.2c-4.526,0-8.686,1.552-11.979,4.154l-3.434-3.434
				c4.185-3.467,9.556-5.549,15.413-5.549c5.986,0,11.463,2.177,15.686,5.779l-2.145,2.145
				C62.156,29.623,61.162,29.316,60.254,28.751z"/>
		</g>
		<path fill="#EC2024" d="M73.742,46.084c-0.758,12.792-11.193,22.992-24.15,22.992c-5.984,0-11.463-2.172-15.684-5.777l3.426-3.428
			c3.339,2.736,7.604,4.377,12.258,4.377c9.02,0,16.596-6.17,18.742-14.52H49.592v-4.83h22.656
			C73.526,44.9,73.773,45.555,73.742,46.084z"/>
	</g>
	<path fill="#EC2024" d="M87.629,44.9c0.273,0,0.408,0.154,0.408,0.459v2.138c0,0.305-0.137,0.457-0.408,0.457h-6.031
		c-0.484,0-0.885,0.047-1.203,0.141c-0.316,0.094-0.572,0.246-0.762,0.461c-0.188,0.213-0.32,0.498-0.395,0.863
		c-0.076,0.367-0.115,0.813-0.115,1.336v7.559c0,0.375-0.164,0.561-0.498,0.561h-2.221c-0.347,0-0.522-0.186-0.522-0.561v-8.246
		c0-0.914,0.093-1.699,0.274-2.354c0.182-0.652,0.477-1.186,0.895-1.601c0.418-0.416,0.969-0.722,1.656-0.916
		c0.686-0.195,1.543-0.293,2.572-0.293h6.35V44.9z"/>
	<path fill="#EC2024" d="M99.916,44.9c1.015,0,1.867,0.098,2.563,0.292s1.252,0.502,1.666,0.918c0.414,0.415,0.715,0.95,0.896,1.598
		c0.182,0.656,0.271,1.441,0.271,2.355v6.773c0,0.404-0.027,0.738-0.08,1.006c-0.053,0.264-0.143,0.469-0.271,0.623
		c-0.129,0.15-0.299,0.258-0.513,0.316c-0.211,0.063-0.482,0.088-0.816,0.088H92.844c-0.667,0-1.223-0.07-1.668-0.213
		c-0.445-0.146-0.805-0.361-1.078-0.65c-0.271-0.287-0.465-0.662-0.576-1.119c-0.113-0.461-0.17-1.002-0.17-1.633v-1.219
		c0-0.527,0.057-0.996,0.17-1.414c0.111-0.414,0.305-0.766,0.576-1.055c0.273-0.287,0.633-0.504,1.078-0.65
		c0.445-0.141,1.001-0.215,1.668-0.215h9.225V50.22c0-0.41-0.036-0.756-0.111-1.043c-0.077-0.291-0.206-0.525-0.387-0.703
		c-0.18-0.176-0.429-0.309-0.748-0.396c-0.318-0.082-0.724-0.125-1.223-0.125h-9.479c-0.271,0-0.405-0.152-0.405-0.457v-2.14
		c0-0.304,0.135-0.458,0.405-0.458h9.795V44.9z M101.414,56.074c0.242,0,0.41-0.064,0.51-0.191c0.097-0.129,0.146-0.352,0.146-0.674
		V52.97h-8.297c-0.471,0-0.797,0.104-0.986,0.316c-0.188,0.215-0.283,0.521-0.283,0.93v0.533c0,0.459,0.095,0.793,0.283,1.004
		c0.189,0.217,0.518,0.32,0.986,0.32H101.414z"/>
	<path fill="#EC2024" d="M119.414,44.9c1.014,0,1.867,0.098,2.563,0.292s1.252,0.502,1.666,0.918
		c0.416,0.415,0.715,0.95,0.896,1.598c0.182,0.656,0.271,1.441,0.271,2.355v3.666c0,0.916-0.09,1.701-0.271,2.355
		c-0.182,0.652-0.48,1.186-0.896,1.602c-0.414,0.416-0.971,0.719-1.666,0.906s-1.549,0.277-2.563,0.277h-8.501v5.066
		c0,0.371-0.166,0.559-0.498,0.559h-2.223c-0.346,0-0.521-0.188-0.521-0.559V50.064c0-0.914,0.092-1.699,0.273-2.355
		c0.182-0.652,0.479-1.184,0.896-1.598c0.416-0.416,0.968-0.724,1.654-0.918c0.689-0.194,1.544-0.292,2.572-0.292H119.414z
		 M110.912,55.818h8.185c0.498,0,0.906-0.041,1.223-0.129c0.316-0.084,0.574-0.236,0.762-0.457c0.188-0.219,0.318-0.51,0.398-0.863
		c0.072-0.357,0.111-0.807,0.111-1.348v-2.268c0-0.525-0.039-0.971-0.111-1.336c-0.08-0.367-0.211-0.654-0.398-0.865
		s-0.445-0.365-0.762-0.459c-0.318-0.094-0.725-0.141-1.223-0.141h-5.715c-0.48,0-0.885,0.047-1.203,0.141
		c-0.316,0.094-0.568,0.246-0.76,0.459c-0.188,0.211-0.318,0.498-0.396,0.865c-0.076,0.365-0.113,0.811-0.113,1.336v5.064H110.912z"
		/>
	<path fill="#EC2024" d="M130.23,39.783c0.332,0,0.498,0.187,0.498,0.56v4.556h8.479c1.014,0,1.867,0.098,2.564,0.293
		c0.693,0.194,1.25,0.5,1.664,0.916c0.416,0.416,0.715,0.949,0.896,1.601c0.18,0.656,0.271,1.439,0.271,2.354v8.246
		c0,0.375-0.166,0.561-0.498,0.561h-2.223c-0.332,0-0.498-0.186-0.498-0.561v-7.379c0-0.525-0.029-0.971-0.09-1.336
		c-0.063-0.367-0.178-0.654-0.352-0.867c-0.174-0.215-0.41-0.363-0.717-0.457c-0.301-0.094-0.693-0.141-1.178-0.141h-8.32v10.18
		c0,0.373-0.166,0.561-0.498,0.561h-2.223c-0.332,0-0.498-0.188-0.498-0.561V40.345c0-0.374,0.166-0.56,0.498-0.56h2.223V39.783z"/>
	<path fill="#EC2024" d="M150.158,39.732c0.334,0,0.502,0.188,0.502,0.56v2.418c0,0.392-0.168,0.585-0.502,0.585h-2.221
		c-0.348,0-0.521-0.193-0.521-0.585v-2.418c0-0.372,0.174-0.56,0.521-0.56H150.158z M150.158,44.9c0.334,0,0.502,0.196,0.502,0.586
		v12.828c0,0.373-0.168,0.561-0.502,0.561h-2.221c-0.332,0-0.5-0.188-0.5-0.561V45.485c0-0.391,0.168-0.587,0.5-0.587h2.221V44.9z"
		/>
	<path d="M169.998,41.057c0.332,0,0.498,0.187,0.498,0.561v2.494c0,0.39-0.166,0.584-0.498,0.584h-10.09
		c-0.59,0-1.078,0.057-1.463,0.166c-0.387,0.11-0.691,0.297-0.918,0.561s-0.393,0.615-0.486,1.056c-0.1,0.441-0.146,1-0.146,1.68
		v3.611c0,0.68,0.045,1.246,0.146,1.693c0.094,0.451,0.26,0.807,0.486,1.07s0.531,0.451,0.918,0.559
		c0.385,0.111,0.873,0.164,1.463,0.164h10.09c0.332,0,0.498,0.188,0.498,0.563v2.494c0,0.371-0.166,0.559-0.498,0.559h-10.227
		c-1.148,0-2.121-0.117-2.924-0.354c-0.799-0.238-1.453-0.625-1.961-1.158c-0.506-0.535-0.875-1.23-1.109-2.088
		c-0.234-0.855-0.352-1.896-0.352-3.117v-4.377c0-1.225,0.117-2.258,0.352-3.106c0.234-0.849,0.604-1.54,1.109-2.075
		c0.508-0.533,1.16-0.924,1.961-1.17c0.803-0.246,1.775-0.369,2.924-0.369H169.998z"/>
	<path d="M186.097,41.057c1.146,0,2.127,0.123,2.936,0.369s1.465,0.637,1.969,1.17c0.506,0.534,0.873,1.226,1.102,2.075
		c0.227,0.849,0.34,1.881,0.34,3.106v4.377c0,1.221-0.111,2.262-0.34,3.117s-0.596,1.553-1.102,2.088
		c-0.504,0.537-1.16,0.92-1.969,1.158c-0.809,0.236-1.789,0.354-2.936,0.354h-7.008c-1.15,0-2.125-0.117-2.924-0.354
		c-0.801-0.238-1.457-0.625-1.963-1.158c-0.51-0.535-0.879-1.23-1.111-2.088c-0.234-0.859-0.35-1.896-0.35-3.117v-4.377
		c0-1.225,0.115-2.258,0.35-3.106c0.232-0.849,0.602-1.54,1.111-2.075c0.506-0.535,1.16-0.924,1.963-1.17
		c0.801-0.246,1.775-0.369,2.924-0.369H186.097z M176.21,51.873c0,0.662,0.049,1.221,0.148,1.666c0.098,0.451,0.26,0.807,0.486,1.07
		c0.225,0.264,0.533,0.451,0.916,0.559c0.389,0.111,0.873,0.168,1.467,0.168h6.732c0.588,0,1.078-0.057,1.461-0.168
		c0.387-0.107,0.691-0.295,0.92-0.559c0.225-0.264,0.389-0.619,0.486-1.07c0.1-0.447,0.146-1.004,0.146-1.666v-3.818
		c0-0.658-0.047-1.217-0.146-1.666c-0.098-0.448-0.262-0.805-0.486-1.068c-0.229-0.263-0.533-0.45-0.92-0.562
		c-0.383-0.109-0.873-0.163-1.461-0.163h-6.732c-0.594,0-1.078,0.054-1.467,0.163c-0.383,0.111-0.691,0.299-0.916,0.562
		c-0.227,0.264-0.389,0.62-0.486,1.068c-0.1,0.451-0.148,1.007-0.148,1.666V51.873z"/>
	<path d="M199.744,41.057c0.334,0,0.621,0.026,0.863,0.076c0.24,0.051,0.451,0.149,0.633,0.293c0.182,0.145,0.344,0.34,0.488,0.585
		c0.145,0.246,0.291,0.573,0.443,0.979l4.715,12.218c0.061,0.152,0.166,0.227,0.316,0.227h0.275c0.15,0,0.256-0.074,0.316-0.227
		l4.715-12.218c0.154-0.406,0.299-0.733,0.445-0.979c0.145-0.245,0.305-0.44,0.486-0.585c0.182-0.146,0.389-0.242,0.623-0.293
		c0.234-0.05,0.518-0.076,0.85-0.076h2.426c0.785,0,1.316,0.199,1.586,0.598c0.271,0.398,0.41,1.083,0.41,2.049v14.609
		c0,0.371-0.174,0.559-0.523,0.559h-2.311c-0.334,0-0.502-0.188-0.502-0.559V45.026c0-0.168-0.059-0.255-0.178-0.255h-0.205
		c-0.152,0-0.25,0.068-0.297,0.203l-4.578,11.404c-0.182,0.459-0.367,0.846-0.557,1.156c-0.188,0.316-0.393,0.574-0.613,0.777
		c-0.219,0.207-0.469,0.348-0.746,0.434c-0.281,0.088-0.609,0.125-0.986,0.125h-1.088c-0.379,0-0.709-0.037-0.986-0.125
		c-0.279-0.086-0.531-0.227-0.748-0.434c-0.219-0.203-0.424-0.461-0.611-0.777c-0.191-0.313-0.375-0.697-0.557-1.156l-4.58-11.404
		c-0.047-0.135-0.145-0.203-0.295-0.203h-0.203c-0.123,0-0.182,0.087-0.182,0.255v13.286c0,0.371-0.166,0.559-0.498,0.559h-2.314
		c-0.348,0-0.521-0.188-0.521-0.559V43.703c0-0.967,0.137-1.651,0.408-2.049c0.271-0.399,0.809-0.598,1.609-0.598H199.744z"/>
</g>
</svg>
