<?xml version="1.0" encoding="utf-8"?>
<!-- Generator: Adobe Illustrator 16.0.0, SVG Export Plug-In . SVG Version: 6.00 Build 0)  -->
<!DOCTYPE svg PUBLIC "-//W3C//DTD SVG 1.1//EN" "http://www.w3.org/Graphics/SVG/1.1/DTD/svg11.dtd">
<svg version="1.1" id="Layer_1" xmlns="http://www.w3.org/2000/svg" xmlns:xlink="http://www.w3.org/1999/xlink" x="0px" y="0px"
	 width="223.586px" height="94.053px" viewBox="-37.264 -15.676 223.586 94.053"
	 enable-background="new -37.264 -15.676 223.586 94.053" xml:space="preserve">
<g>
	<path fill="#FFFFFF" d="M185.549,26.916c-0.473-0.701-1.438-1.535-3.346-1.535h-2.426c-0.492,0-0.918,0.041-1.293,0.123
		c-0.557,0.119-1.061,0.357-1.504,0.708c-0.381,0.303-0.717,0.698-0.996,1.17c-0.207,0.35-0.404,0.78-0.594,1.294l-3.186,8.254
		l-3.178-8.232c-0.199-0.535-0.396-0.966-0.604-1.316c-0.279-0.471-0.615-0.866-0.996-1.169c-0.441-0.351-0.953-0.589-1.518-0.708
		c-0.387-0.082-0.814-0.123-1.301-0.123h-2.469c-1.926,0-2.896,0.832-3.365,1.525c-0.313,0.459-0.516,1.019-0.641,1.683
		c-0.221-0.354-0.441-0.709-0.721-1.005c-0.762-0.802-1.734-1.389-2.898-1.74c-1.006-0.307-2.201-0.463-3.553-0.463h-7.008
		c-1.354,0-2.547,0.156-3.549,0.465c-1.152,0.354-2.123,0.939-2.879,1.738c-0.029,0.03-0.047,0.071-0.072,0.102
		c-0.168-1.354-1.199-2.305-2.592-2.305h-10.227c-1.367,0-2.529,0.153-3.549,0.465c-1.156,0.354-2.123,0.941-2.877,1.738
		c-0.217,0.229-0.377,0.512-0.559,0.775v-1.614c0-1.556-1.105-2.686-2.627-2.686h-2.221c-1.533,0-2.646,1.13-2.646,2.686v2.417
		c0,0.525,0.123,1.002,0.346,1.406c-0.16,0.303-0.246,0.656-0.285,1.031c-0.139-0.18-0.252-0.382-0.412-0.542
		c-0.674-0.676-1.547-1.166-2.596-1.46c-0.893-0.25-1.918-0.372-3.135-0.372h-6.354v-2.431c0-1.555-1.104-2.686-2.623-2.686h-2.223
		c-1.521,0-2.623,1.131-2.623,2.686v4.576c-0.086-0.099-0.146-0.22-0.234-0.31c-0.674-0.677-1.549-1.169-2.602-1.464
		c-0.891-0.25-1.916-0.372-3.135-0.372h-6.348c-1.232,0-2.266,0.122-3.151,0.374c-1.036,0.292-1.903,0.781-2.581,1.459
		c-0.326,0.327-0.606,0.7-0.844,1.108c-0.236-0.408-0.516-0.781-0.842-1.108c-0.674-0.675-1.549-1.166-2.598-1.461
		c-0.893-0.25-1.916-0.372-3.137-0.372H54.99c-0.463,0-0.883,0.123-1.247,0.327c-0.364-0.204-0.784-0.327-1.247-0.327H46.15
		c-1.236,0-2.268,0.122-3.152,0.374c-1.037,0.292-1.905,0.782-2.579,1.458c-0.002,0.001-0.004,0.003-0.005,0.004
		c-0.134-0.28-0.296-0.545-0.511-0.774c-0.457-0.484-1.312-1.062-2.785-1.062H14.455c-1.176,0-2.127,0.952-2.127,2.126v4.829
		c0,1.175,0.951,2.126,2.127,2.126h15.764c-2.711,6.159-8.849,10.27-15.764,10.27c-3.971,0-7.845-1.386-10.912-3.898
		c-0.393-0.322-1.975-1.853-2.615-2.661c-2.416-3.067-3.697-6.753-3.697-10.664c0-3.969,1.385-7.844,3.898-10.908
		c0.654-0.798,2.276-2.31,2.663-2.617c3.063-2.418,6.75-3.696,10.663-3.696c3.258,0,6.467,0.969,9.535,2.879
		c0.918,0.571,1.779,0.849,2.63,0.849c0.739,0,1.841-0.219,2.878-1.259l2.145-2.142c0.014-0.015,0.022-0.032,0.034-0.045
		c0.592,0.599,1.155,1.226,1.682,1.887c0.405,0.508,1.015,0.802,1.663,0.802H42.5c0.764,0,1.467-0.408,1.845-1.07
		c0.378-0.659,0.375-1.473-0.011-2.132c-5.585-9.55-15.379-15.83-26.313-16.955V-13.55c0-1.174-0.951-2.126-2.125-2.126h-2.883
		c-1.176,0-2.127,0.952-2.127,2.126v10.507C-5.242-1.375-18.271,11.654-19.938,27.783h-15.199c-1.175,0-2.127,0.95-2.127,2.125
		v2.883c0,1.175,0.952,2.125,2.127,2.125h15.2c1.666,16.129,14.697,29.158,30.825,30.825V76.25c0,1.175,0.952,2.127,2.127,2.127
		h2.883c1.173,0,2.126-0.952,2.126-2.127V65.755c10.934-1.125,20.726-7.406,26.315-16.954c0.281-0.48,0.353-1.04,0.229-1.567
		c0.938-0.398,1.547-1.315,1.547-2.47v-7.559c0-0.282,0.015-0.495,0.032-0.663c0.084-0.008,0.188-0.012,0.313-0.012h6.03
		c0.461,0,0.875-0.122,1.24-0.324c0.012,0.006,0.021,0.02,0.031,0.025c-0.124,0.104-0.241,0.215-0.353,0.335
		c-0.511,0.544-0.874,1.201-1.079,1.957c-0.16,0.595-0.242,1.259-0.242,1.966v1.222c0,0.806,0.074,1.503,0.231,2.14
		c0.2,0.813,0.568,1.51,1.091,2.066c0.515,0.546,1.174,0.953,1.975,1.217c0.66,0.215,1.418,0.316,2.32,0.316h10.791
		c0.539,0,0.996-0.053,1.384-0.162c0.188-0.053,0.352-0.151,0.526-0.233v3.337c0,1.556,1.114,2.687,2.648,2.687h2.222
		c1.52,0,2.623-1.131,2.623-2.687v-2.938h6.377c1.219,0,2.236-0.114,3.115-0.352c1.063-0.284,1.943-0.776,2.615-1.453
		c0.109-0.111,0.184-0.255,0.281-0.375c0.215,1.289,1.23,2.18,2.578,2.18h2.225c1.52,0,2.623-1.131,2.623-2.687v-8.054
		c0,0,6.326,0,6.381,0.005c0.014,0.168,0.023,0.388,0.023,0.669v7.38c0,1.556,1.104,2.687,2.625,2.687h2.223
		c0.781,0,1.447-0.302,1.916-0.803c0.467,0.501,1.135,0.803,1.914,0.803h2.221c1.521,0,2.627-1.131,2.627-2.687V44.5
		c0.182,0.264,0.342,0.546,0.557,0.773c0.764,0.809,1.74,1.394,2.902,1.737c1.006,0.299,2.158,0.442,3.527,0.442h10.227
		c1.383,0,2.412-0.94,2.588-2.28c0.029,0.03,0.045,0.071,0.076,0.101c0.764,0.809,1.74,1.392,2.9,1.734
		c1.002,0.299,2.156,0.442,3.529,0.442h7.008c1.369,0,2.523-0.144,3.533-0.439c1.168-0.343,2.15-0.926,2.916-1.737
		c0.225-0.237,0.395-0.533,0.582-0.812v0.305c0,1.556,1.113,2.684,2.648,2.684h2.313c1.523,0,2.625-1.128,2.625-2.684v-4.031
		l1.156,2.88c0.229,0.577,0.465,1.061,0.707,1.462c0.291,0.489,0.629,0.911,0.982,1.239c0.457,0.425,0.986,0.733,1.586,0.917
		c0.482,0.146,1.008,0.217,1.604,0.217h1.09c0.592,0,1.119-0.07,1.605-0.219c0.592-0.18,1.121-0.487,1.568-0.903
		c0.369-0.341,0.707-0.762,0.986-1.235c0.254-0.417,0.488-0.9,0.715-1.469l1.16-2.891v4.033c0,1.556,1.104,2.684,2.625,2.684h2.313
		c1.533,0,2.648-1.128,2.648-2.684V30.158C186.324,28.716,186.076,27.683,185.549,26.916z M38.619,41.53v3.231
		c0,0.299,0.053,0.577,0.13,0.841h-2.297C37.285,44.316,38.012,42.957,38.619,41.53z M84.33,39.468c0,0.301-0.018,0.525-0.021,0.664
		c-0.092,0.006-0.207,0.012-0.348,0.012h-6.059v-2.941c0-0.279,0.012-0.492,0.031-0.662c0.086-0.008,0.188-0.012,0.314-0.012h5.713
		c0.137,0,0.248,0.006,0.336,0.012c0.02,0.161,0.033,0.379,0.033,0.662V39.468z M124.771,39.582c-0.391,0-0.631-0.031-0.779-0.062
		c-0.006-0.018-0.01-0.041-0.016-0.067c-0.043-0.196-0.096-0.571-0.096-1.232v-3.613c0-0.656,0.051-1.02,0.098-1.225
		c0.004-0.02,0.008-0.033,0.012-0.05c0.135-0.028,0.381-0.059,0.781-0.059h10.09c0.225,0,0.439-0.034,0.645-0.082
		c-0.018,0.331-0.027,0.675-0.027,1.034v4.379c0,0.385,0.037,0.716,0.057,1.067c-0.215-0.053-0.438-0.091-0.674-0.091H124.771z
		 M151.711,38.322c0,0.642-0.053,1.011-0.098,1.217c-0.006,0.022-0.012,0.043-0.016,0.063c-0.131,0.027-0.377,0.06-0.775,0.06
		h-6.732c-0.383,0-0.625-0.032-0.779-0.062c-0.006-0.021-0.01-0.044-0.016-0.07c-0.045-0.202-0.098-0.577-0.098-1.207v-3.817
		c0-0.627,0.053-1.002,0.102-1.219c0.004-0.021,0.008-0.038,0.012-0.058c0.146-0.027,0.389-0.057,0.779-0.057h6.732
		c0.389,0,0.633,0.032,0.775,0.059c0.004,0.021,0.01,0.041,0.016,0.068c0.045,0.198,0.098,0.568,0.098,1.209V38.322z"/>
	<g>
		<path fill="#231F20" d="M35.023,14.97h7.481C37.274,6.037,27.899-0.178,17.018-1.027v6.21C24.295,5.886,30.705,9.557,35.023,14.97
			z"/>
		<path fill="#231F20" d="M-11.712,33.913h-6.211c1.241,15.892,13.921,28.573,29.815,29.813v-6.212
			C-0.582,56.307-10.505,46.384-11.712,33.913z"/>
		<path fill="#231F20" d="M-17.922,28.787h6.21C-10.504,16.313-0.58,6.389,11.895,5.183v-6.21
			C-4.001,0.213-16.68,12.893-17.922,28.787z"/>
		<path fill="#231F20" d="M35.023,47.728c-4.318,5.412-10.728,9.086-18.005,9.786v6.212c10.881-0.848,20.256-7.063,25.486-15.998
			H35.023z"/>
	</g>
	<g>
		<rect x="-35.137" y="29.908" fill="#EC1C24" width="23.302" height="2.883"/>
		<rect x="13.015" y="57.64" fill="#EC1C24" width="2.883" height="18.609"/>
		<rect x="13.015" y="-13.55" fill="#EC1C24" width="2.883" height="18.607"/>
	</g>
	<g>
		<g>
			<path fill="#EC1C24" d="M-0.738,43.329c-2.602-3.294-4.156-7.456-4.156-11.979c0-4.651,1.643-8.92,4.379-12.256l-3.428-3.428
				c-3.603,4.221-5.779,9.698-5.779,15.684c0,5.856,2.083,11.229,5.549,15.413L-0.738,43.329z"/>
			<path fill="#EC1C24" d="M25.115,15.2c-3.109-1.937-6.721-3.2-10.659-3.2c-4.526,0-8.685,1.552-11.979,4.154l-3.434-3.434
				c4.186-3.466,9.555-5.549,15.413-5.549c5.987,0,11.462,2.178,15.686,5.78l-2.145,2.144C27.019,16.072,26.024,15.765,25.115,15.2z
				"/>
		</g>
		<path fill="#EC1C24" d="M38.604,32.533c-0.757,12.794-11.192,22.992-24.148,22.992c-5.986,0-11.465-2.172-15.685-5.777
			l3.427-3.428c3.338,2.734,7.604,4.377,12.258,4.377c9.019,0,16.595-6.17,18.74-14.52h-18.74v-4.83H37.11
			C38.389,31.349,38.637,32.003,38.604,32.533z"/>
	</g>
	<path fill="#EC1C24" d="M52.49,31.349c0.274,0,0.409,0.154,0.409,0.459v2.14c0,0.305-0.136,0.457-0.409,0.457h-6.03
		c-0.485,0-0.885,0.047-1.202,0.141c-0.316,0.094-0.573,0.246-0.762,0.46c-0.189,0.213-0.321,0.498-0.396,0.864
		c-0.076,0.364-0.113,0.81-0.113,1.336v7.559c0,0.375-0.164,0.56-0.498,0.56h-2.221c-0.348,0-0.523-0.185-0.523-0.56v-8.247
		c0-0.914,0.092-1.699,0.273-2.354c0.182-0.652,0.479-1.186,0.896-1.602s0.968-0.722,1.657-0.916
		c0.686-0.195,1.542-0.293,2.572-0.293h6.348V31.349z"/>
	<path fill="#EC1C24" d="M64.778,31.349c1.016,0,1.868,0.098,2.564,0.292c0.693,0.195,1.25,0.502,1.665,0.918
		c0.415,0.415,0.715,0.949,0.896,1.6c0.182,0.656,0.271,1.44,0.271,2.355v6.772c0,0.405-0.025,0.739-0.078,1.004
		c-0.053,0.264-0.145,0.471-0.271,0.625c-0.129,0.15-0.299,0.259-0.513,0.317c-0.211,0.06-0.481,0.088-0.815,0.088H57.705
		c-0.666,0-1.221-0.07-1.666-0.214c-0.445-0.146-0.807-0.36-1.078-0.65c-0.273-0.289-0.467-0.662-0.578-1.119
		c-0.112-0.46-0.17-1.002-0.17-1.632v-1.22c0-0.526,0.058-0.995,0.17-1.414c0.111-0.413,0.305-0.766,0.578-1.055
		c0.271-0.289,0.633-0.504,1.078-0.65c0.445-0.143,1-0.214,1.666-0.214h9.227v-0.483c0-0.41-0.037-0.756-0.111-1.043
		c-0.078-0.29-0.207-0.524-0.387-0.703c-0.181-0.176-0.43-0.309-0.749-0.396c-0.317-0.082-0.724-0.126-1.224-0.126h-9.477
		c-0.273,0-0.406-0.152-0.406-0.457v-2.141c0-0.304,0.135-0.458,0.406-0.458h9.793V31.349z M66.277,42.523
		c0.241,0,0.41-0.064,0.51-0.19c0.097-0.129,0.146-0.352,0.146-0.675v-2.238h-8.297c-0.47,0-0.797,0.104-0.985,0.317
		c-0.189,0.214-0.285,0.521-0.285,0.927v0.535c0,0.459,0.096,0.793,0.285,1.005c0.188,0.216,0.517,0.319,0.985,0.319H66.277z"/>
	<path fill="#EC1C24" d="M84.277,31.349c1.014,0,1.865,0.098,2.561,0.292c0.697,0.195,1.254,0.502,1.666,0.918
		c0.416,0.415,0.717,0.949,0.896,1.6c0.182,0.656,0.273,1.44,0.273,2.355v3.663c0,0.918-0.092,1.704-0.273,2.355
		c-0.18,0.655-0.479,1.188-0.896,1.604c-0.412,0.415-0.969,0.716-1.666,0.903c-0.695,0.188-1.547,0.28-2.561,0.28h-8.502v5.065
		c0,0.372-0.166,0.56-0.498,0.56h-2.222c-0.346,0-0.521-0.188-0.521-0.56V36.514c0-0.915,0.09-1.699,0.271-2.355
		c0.182-0.653,0.479-1.185,0.896-1.6c0.416-0.416,0.969-0.723,1.656-0.918c0.688-0.194,1.543-0.292,2.572-0.292H84.277z
		 M75.775,42.268h8.186c0.498,0,0.904-0.041,1.223-0.129c0.316-0.085,0.572-0.237,0.76-0.457s0.32-0.51,0.398-0.864
		c0.074-0.357,0.111-0.806,0.111-1.35v-2.266c0-0.525-0.037-0.97-0.111-1.336c-0.078-0.366-0.211-0.653-0.398-0.864
		c-0.188-0.212-0.443-0.366-0.76-0.46c-0.32-0.094-0.725-0.141-1.223-0.141h-5.715c-0.482,0-0.885,0.047-1.205,0.141
		c-0.316,0.094-0.568,0.246-0.758,0.46c-0.188,0.211-0.32,0.498-0.396,0.864c-0.076,0.365-0.113,0.811-0.113,1.336v5.065H75.775z"/>
	<path fill="#EC1C24" d="M95.094,26.232c0.33,0,0.498,0.187,0.498,0.561v4.555h8.479c1.014,0,1.865,0.098,2.563,0.293
		c0.695,0.194,1.252,0.5,1.666,0.916s0.715,0.949,0.895,1.602c0.18,0.657,0.273,1.439,0.273,2.354v8.247
		c0,0.375-0.168,0.56-0.498,0.56h-2.223c-0.332,0-0.5-0.185-0.5-0.56v-7.38c0-0.525-0.029-0.971-0.09-1.336
		c-0.061-0.366-0.176-0.653-0.352-0.867c-0.172-0.214-0.41-0.363-0.715-0.459c-0.303-0.092-0.695-0.139-1.178-0.139h-8.32v10.181
		c0,0.372-0.168,0.56-0.498,0.56h-2.225c-0.33,0-0.498-0.188-0.498-0.56V26.793c0-0.374,0.168-0.56,0.498-0.56h2.225V26.232z"/>
	<path fill="#EC1C24" d="M115.021,26.182c0.334,0,0.5,0.188,0.5,0.559v2.419c0,0.391-0.166,0.585-0.5,0.585h-2.221
		c-0.348,0-0.521-0.194-0.521-0.585v-2.419c0-0.371,0.172-0.559,0.521-0.559H115.021z M115.021,31.349c0.334,0,0.5,0.196,0.5,0.587
		v12.828c0,0.372-0.166,0.56-0.5,0.56h-2.221c-0.334,0-0.5-0.188-0.5-0.56v-12.83c0-0.39,0.166-0.587,0.5-0.587h2.221V31.349z"/>
	<path fill="#231F20" d="M134.861,27.506c0.332,0,0.498,0.186,0.498,0.56v2.494c0,0.39-0.166,0.585-0.498,0.585h-10.09
		c-0.592,0-1.078,0.056-1.465,0.165c-0.387,0.111-0.691,0.297-0.916,0.562c-0.227,0.263-0.393,0.614-0.488,1.056
		c-0.1,0.44-0.146,1-0.146,1.678v3.614c0,0.68,0.045,1.245,0.146,1.693c0.096,0.45,0.262,0.806,0.488,1.069
		c0.225,0.264,0.529,0.451,0.916,0.56c0.387,0.111,0.873,0.164,1.465,0.164h10.09c0.332,0,0.498,0.188,0.498,0.563v2.493
		c0,0.372-0.166,0.56-0.498,0.56h-10.227c-1.15,0-2.121-0.117-2.924-0.354c-0.801-0.237-1.455-0.624-1.961-1.157
		c-0.508-0.536-0.877-1.23-1.111-2.089c-0.232-0.857-0.352-1.896-0.352-3.117v-4.379c0-1.223,0.119-2.257,0.352-3.104
		c0.234-0.848,0.604-1.539,1.111-2.075c0.506-0.533,1.16-0.923,1.961-1.169c0.803-0.246,1.775-0.369,2.924-0.369H134.861z"/>
	<path fill="#231F20" d="M150.959,27.506c1.146,0,2.127,0.123,2.936,0.369s1.465,0.636,1.971,1.169
		c0.506,0.534,0.873,1.226,1.1,2.075c0.227,0.849,0.342,1.882,0.342,3.104v4.379c0,1.222-0.113,2.26-0.342,3.117
		c-0.229,0.855-0.594,1.553-1.1,2.089c-0.506,0.534-1.162,0.92-1.971,1.157s-1.789,0.354-2.936,0.354h-7.008
		c-1.15,0-2.123-0.117-2.924-0.354c-0.799-0.237-1.455-0.624-1.963-1.157c-0.508-0.536-0.877-1.23-1.109-2.089
		c-0.234-0.858-0.352-1.896-0.352-3.117v-4.379c0-1.223,0.117-2.257,0.352-3.104c0.232-0.848,0.602-1.539,1.109-2.075
		c0.508-0.535,1.162-0.923,1.963-1.169s1.775-0.369,2.924-0.369H150.959z M141.072,38.322c0,0.662,0.049,1.221,0.15,1.667
		c0.096,0.451,0.26,0.806,0.486,1.069c0.225,0.264,0.531,0.451,0.916,0.56c0.387,0.111,0.873,0.167,1.465,0.167h6.732
		c0.59,0,1.078-0.056,1.463-0.167c0.387-0.108,0.691-0.296,0.92-0.56c0.225-0.264,0.389-0.618,0.486-1.069
		c0.098-0.448,0.146-1.005,0.146-1.667v-3.817c0-0.661-0.047-1.218-0.146-1.667c-0.098-0.448-0.262-0.805-0.486-1.068
		c-0.229-0.263-0.533-0.45-0.92-0.562c-0.385-0.108-0.873-0.163-1.463-0.163h-6.732c-0.592,0-1.078,0.055-1.465,0.163
		c-0.385,0.111-0.691,0.299-0.916,0.562c-0.227,0.264-0.391,0.62-0.486,1.068c-0.1,0.451-0.15,1.006-0.15,1.667V38.322z"/>
	<path fill="#231F20" d="M164.605,27.506c0.336,0,0.621,0.025,0.865,0.076c0.24,0.05,0.451,0.148,0.633,0.293
		c0.182,0.144,0.344,0.34,0.486,0.584c0.146,0.246,0.293,0.573,0.445,0.98l4.713,12.218c0.063,0.153,0.168,0.227,0.318,0.227h0.273
		c0.15,0,0.256-0.073,0.318-0.227l4.713-12.218c0.154-0.407,0.299-0.734,0.445-0.98c0.146-0.244,0.305-0.44,0.486-0.584
		c0.182-0.146,0.389-0.243,0.625-0.293c0.234-0.051,0.518-0.076,0.85-0.076h2.426c0.783,0,1.314,0.199,1.584,0.597
		c0.273,0.399,0.41,1.083,0.41,2.049v14.609c0,0.372-0.172,0.56-0.521,0.56h-2.313c-0.334,0-0.5-0.188-0.5-0.56V31.475
		c0-0.168-0.059-0.255-0.18-0.255h-0.205c-0.152,0-0.248,0.068-0.295,0.203l-4.58,11.404c-0.182,0.46-0.365,0.846-0.557,1.157
		c-0.188,0.315-0.393,0.574-0.611,0.776c-0.219,0.207-0.469,0.349-0.746,0.434c-0.283,0.086-0.609,0.126-0.988,0.126h-1.088
		c-0.377,0-0.707-0.04-0.986-0.126c-0.279-0.085-0.529-0.227-0.746-0.434c-0.221-0.202-0.426-0.461-0.613-0.776
		c-0.189-0.313-0.375-0.698-0.557-1.157l-4.578-11.404c-0.047-0.135-0.145-0.203-0.297-0.203h-0.201
		c-0.123,0-0.182,0.087-0.182,0.255v13.286c0,0.372-0.168,0.56-0.5,0.56h-2.313c-0.35,0-0.523-0.188-0.523-0.56V30.152
		c0-0.967,0.139-1.651,0.408-2.049c0.271-0.399,0.809-0.597,1.611-0.597H164.605z"/>
</g>
</svg>
