<?xml version="1.0" encoding="utf-8"?>
<!-- Generator: Adobe Illustrator 16.0.0, SVG Export Plug-In . SVG Version: 6.00 Build 0)  -->
<!DOCTYPE svg PUBLIC "-//W3C//DTD SVG 1.1//EN" "http://www.w3.org/Graphics/SVG/1.1/DTD/svg11.dtd">
<svg version="1.1" id="Layer_1" xmlns="http://www.w3.org/2000/svg" xmlns:xlink="http://www.w3.org/1999/xlink" x="0px" y="0px"
	 width="149.058px" height="62.7px" viewBox="0 0 149.058 62.7" enable-background="new 0 0 149.058 62.7" xml:space="preserve">
<g>
	<path fill="#FFFFFF" d="M148.542,28.394c-0.315-0.467-0.958-1.023-2.231-1.023h-1.617c-0.328,0-0.612,0.027-0.861,0.082
		c-0.371,0.079-0.708,0.238-1.003,0.472c-0.254,0.202-0.478,0.465-0.664,0.78c-0.138,0.233-0.27,0.52-0.397,0.863l-2.123,5.502
		l-2.118-5.488c-0.133-0.357-0.265-0.644-0.403-0.878c-0.186-0.314-0.409-0.577-0.663-0.779c-0.295-0.234-0.636-0.393-1.012-0.472
		c-0.259-0.055-0.543-0.082-0.868-0.082h-1.646c-1.284,0-1.93,0.555-2.243,1.017c-0.208,0.306-0.344,0.679-0.427,1.122
		c-0.147-0.236-0.295-0.473-0.481-0.67c-0.507-0.535-1.156-0.926-1.932-1.161c-0.671-0.204-1.468-0.308-2.368-0.308h-4.672
		c-0.902,0-1.698,0.104-2.366,0.31c-0.769,0.236-1.415,0.626-1.92,1.159c-0.019,0.02-0.03,0.047-0.048,0.067
		c-0.111-0.902-0.799-1.536-1.727-1.536h-6.818c-0.912,0-1.686,0.102-2.366,0.31c-0.77,0.236-1.415,0.627-1.918,1.159
		c-0.144,0.152-0.252,0.341-0.373,0.517v-1.077c0-1.037-0.736-1.79-1.751-1.79h-1.48c-1.022,0-1.765,0.753-1.765,1.79v1.612
		c0,0.35,0.083,0.668,0.231,0.937c-0.107,0.202-0.164,0.438-0.19,0.688c-0.093-0.12-0.168-0.255-0.275-0.362
		c-0.45-0.45-1.032-0.777-1.73-0.973c-0.596-0.167-1.279-0.248-2.091-0.248h-4.235v-1.62c0-1.037-0.735-1.791-1.749-1.791h-1.482
		c-1.014,0-1.749,0.754-1.749,1.791v3.05c-0.056-0.065-0.096-0.146-0.156-0.206c-0.449-0.451-1.032-0.779-1.733-0.976
		c-0.595-0.167-1.279-0.248-2.09-0.248h-4.232c-0.822,0-1.51,0.081-2.101,0.249c-0.69,0.195-1.269,0.521-1.721,0.973
		c-0.218,0.218-0.404,0.467-0.562,0.739c-0.157-0.272-0.344-0.521-0.562-0.739c-0.449-0.45-1.032-0.777-1.731-0.974
		c-0.595-0.167-1.278-0.248-2.091-0.248h-6.529c-0.309,0-0.588,0.082-0.831,0.218c-0.244-0.136-0.523-0.218-0.831-0.218h-4.232
		c-0.824,0-1.512,0.081-2.101,0.249c-0.692,0.195-1.271,0.522-1.72,0.972c-0.001,0.001-0.002,0.002-0.003,0.003
		c-0.089-0.187-0.197-0.363-0.341-0.516c-0.305-0.323-0.874-0.708-1.856-0.708H34.479c-0.783,0-1.418,0.635-1.418,1.417v3.22
		c0,0.783,0.635,1.417,1.418,1.417h10.51c-1.808,4.107-5.899,6.846-10.51,6.846c-2.646,0-5.229-0.923-7.274-2.598
		c-0.262-0.215-1.317-1.235-1.743-1.775c-1.612-2.044-2.465-4.502-2.465-7.109c0-2.646,0.923-5.229,2.598-7.272
		c0.437-0.532,1.518-1.54,1.776-1.745c2.042-1.612,4.5-2.464,7.108-2.464c2.172,0,4.312,0.646,6.358,1.919
		c0.611,0.381,1.185,0.566,1.753,0.566c0.493,0,1.227-0.146,1.919-0.839l1.429-1.428c0.009-0.01,0.015-0.021,0.023-0.03
		c0.394,0.399,0.77,0.817,1.121,1.258c0.27,0.338,0.677,0.534,1.108,0.534h4.987c0.508,0,0.977-0.272,1.229-0.713
		c0.252-0.44,0.25-0.982-0.007-1.421C50.676,13.35,44.146,9.163,36.857,8.413V1.417C36.857,0.635,36.223,0,35.44,0h-1.922
		c-0.783,0-1.418,0.635-1.418,1.417v7.005c-10.752,1.112-19.438,9.798-20.549,20.55H1.418C0.635,28.972,0,29.606,0,30.389v1.922
		c0,0.783,0.635,1.417,1.418,1.417h10.134c1.11,10.752,9.797,19.438,20.549,20.55v7.006c0,0.783,0.635,1.417,1.418,1.417h1.922
		c0.782,0,1.417-0.634,1.417-1.417v-6.996c7.289-0.75,13.818-4.938,17.544-11.303c0.188-0.32,0.235-0.694,0.152-1.045
		c0.625-0.265,1.032-0.877,1.032-1.647v-5.039c0-0.188,0.009-0.33,0.021-0.442c0.056-0.005,0.125-0.008,0.209-0.008h4.021
		c0.306,0,0.583-0.081,0.826-0.215c0.008,0.004,0.014,0.012,0.021,0.016c-0.083,0.069-0.161,0.144-0.235,0.223
		c-0.341,0.363-0.583,0.802-0.72,1.305c-0.106,0.397-0.161,0.839-0.161,1.311v0.814c0,0.537,0.05,1.003,0.154,1.427
		c0.134,0.542,0.379,1.006,0.728,1.377c0.343,0.364,0.782,0.636,1.316,0.812c0.44,0.143,0.946,0.211,1.547,0.211h7.194
		c0.359,0,0.664-0.036,0.922-0.109c0.126-0.035,0.235-0.1,0.351-0.155v2.225c0,1.037,0.743,1.79,1.766,1.79h1.481
		c1.014,0,1.749-0.753,1.749-1.79v-1.96h4.251c0.813,0,1.491-0.076,2.077-0.234c0.708-0.19,1.296-0.518,1.743-0.969
		c0.074-0.074,0.123-0.169,0.189-0.249c0.142,0.858,0.819,1.452,1.719,1.452h1.482c1.014,0,1.749-0.753,1.749-1.79v-5.37
		c0,0,4.217,0.001,4.254,0.003c0.009,0.112,0.016,0.259,0.016,0.447v4.92c0,1.037,0.735,1.79,1.75,1.79h1.481
		c0.521,0,0.965-0.2,1.277-0.534c0.312,0.334,0.757,0.534,1.277,0.534h1.48c1.015,0,1.751-0.753,1.751-1.79v-0.178
		c0.121,0.176,0.228,0.364,0.371,0.516c0.51,0.538,1.16,0.928,1.936,1.158c0.67,0.198,1.438,0.294,2.351,0.294h6.818
		c0.922,0,1.607-0.626,1.725-1.52c0.019,0.021,0.03,0.048,0.05,0.068c0.51,0.538,1.16,0.927,1.934,1.156
		c0.669,0.199,1.438,0.295,2.353,0.295h4.672c0.912,0,1.683-0.096,2.356-0.293c0.778-0.229,1.433-0.618,1.943-1.158
		c0.15-0.159,0.264-0.356,0.389-0.541v0.202c0,1.037,0.742,1.79,1.765,1.79h1.542c1.015,0,1.75-0.753,1.75-1.79v-2.687l0.771,1.92
		c0.152,0.385,0.309,0.707,0.471,0.974c0.194,0.327,0.419,0.608,0.655,0.826c0.304,0.284,0.658,0.49,1.057,0.612
		c0.322,0.098,0.672,0.145,1.07,0.145h0.725c0.396,0,0.746-0.047,1.072-0.146c0.394-0.12,0.747-0.325,1.044-0.602
		c0.247-0.228,0.472-0.509,0.659-0.824c0.169-0.278,0.325-0.601,0.476-0.979l0.773-1.927v2.688c0,1.037,0.736,1.79,1.751,1.79h1.541
		c1.022,0,1.765-0.753,1.765-1.79v-9.739C149.058,29.595,148.893,28.906,148.542,28.394z M50.589,38.137v2.155
		c0,0.199,0.035,0.385,0.087,0.56h-1.532C49.7,39.995,50.184,39.089,50.589,38.137z M81.062,36.763c0,0.201-0.01,0.35-0.013,0.442
		c-0.062,0.005-0.139,0.008-0.232,0.008h-4.04v-1.96c0-0.187,0.009-0.329,0.022-0.442c0.056-0.005,0.125-0.008,0.209-0.008h3.809
		c0.091,0,0.165,0.004,0.224,0.008c0.012,0.108,0.021,0.253,0.021,0.442V36.763z M108.023,36.839c-0.26,0-0.42-0.021-0.518-0.041
		c-0.004-0.013-0.007-0.028-0.011-0.046c-0.029-0.131-0.064-0.38-0.064-0.821v-2.409c0-0.438,0.034-0.68,0.065-0.816
		c0.003-0.013,0.005-0.023,0.008-0.033c0.09-0.019,0.254-0.04,0.52-0.04h6.727c0.15,0,0.293-0.022,0.43-0.054
		c-0.012,0.221-0.018,0.45-0.018,0.689v2.919c0,0.257,0.024,0.477,0.038,0.712c-0.144-0.035-0.292-0.06-0.45-0.06H108.023z
		 M125.983,35.999c0,0.427-0.035,0.673-0.065,0.811c-0.004,0.015-0.007,0.028-0.01,0.041c-0.088,0.018-0.251,0.04-0.518,0.04h-4.488
		c-0.255,0-0.416-0.021-0.518-0.041c-0.004-0.014-0.007-0.029-0.011-0.047c-0.03-0.135-0.066-0.384-0.066-0.804v-2.545
		c0-0.419,0.036-0.669,0.068-0.813c0.003-0.014,0.006-0.026,0.009-0.038c0.096-0.019,0.258-0.038,0.518-0.038h4.488
		c0.26,0,0.422,0.021,0.518,0.039c0.003,0.014,0.007,0.028,0.011,0.046c0.029,0.132,0.064,0.379,0.064,0.805V35.999z"/>
	<g>
		<path fill="#231F20" d="M48.191,20.431h4.987c-3.486-5.956-9.736-10.099-16.99-10.665v4.14
			C41.04,14.375,45.313,16.822,48.191,20.431z"/>
		<path fill="#231F20" d="M17.035,33.059h-4.141c0.827,10.595,9.281,19.049,19.877,19.876v-4.141
			C24.455,47.989,17.84,41.374,17.035,33.059z"/>
		<path fill="#231F20" d="M12.895,29.642h4.14c0.806-8.316,7.421-14.932,15.737-15.736v-4.14
			C22.176,10.593,13.722,19.046,12.895,29.642z"/>
		<path fill="#231F20" d="M48.191,42.269c-2.879,3.609-7.151,6.057-12.003,6.525v4.141c7.254-0.566,13.504-4.709,16.99-10.666
			H48.191z"/>
	</g>
	<g>
		<rect x="1.418" y="30.389" fill="#EC1C24" width="15.534" height="1.922"/>
		<rect x="33.519" y="48.878" fill="#EC1C24" width="1.922" height="12.405"/>
		<rect x="33.519" y="1.417" fill="#EC1C24" width="1.922" height="12.405"/>
	</g>
	<g>
		<g>
			<path fill="#EC1C24" d="M24.35,39.337c-1.734-2.197-2.77-4.972-2.77-7.987c0-3.101,1.095-5.946,2.919-8.171l-2.285-2.285
				c-2.402,2.814-3.853,6.466-3.853,10.456c0,3.905,1.389,7.486,3.699,10.275L24.35,39.337z"/>
			<path fill="#EC1C24" d="M41.587,20.584c-2.074-1.291-4.481-2.134-7.107-2.134c-3.017,0-5.79,1.035-7.986,2.77l-2.289-2.289
				c2.79-2.311,6.37-3.699,10.275-3.699c3.991,0,7.642,1.451,10.457,3.853l-1.429,1.429C42.855,21.165,42.192,20.961,41.587,20.584z
				"/>
		</g>
		<path fill="#EC1C24" d="M50.579,32.139c-0.505,8.53-7.462,15.329-16.1,15.329c-3.99,0-7.642-1.449-10.456-3.852l2.284-2.285
			c2.226,1.823,5.07,2.918,8.172,2.918c6.013,0,11.064-4.113,12.494-9.68H34.479v-3.22h15.104
			C50.435,31.35,50.6,31.786,50.579,32.139z"/>
	</g>
	<path fill="#EC1C24" d="M59.837,31.35c0.182,0,0.272,0.103,0.272,0.306v1.426c0,0.203-0.091,0.305-0.272,0.305h-4.021
		c-0.323,0-0.59,0.031-0.802,0.094c-0.211,0.063-0.381,0.164-0.507,0.306s-0.214,0.333-0.264,0.577
		c-0.051,0.243-0.076,0.54-0.076,0.891v5.039c0,0.249-0.11,0.373-0.332,0.373h-1.481c-0.231,0-0.348-0.124-0.348-0.373v-5.498
		c0-0.61,0.061-1.133,0.182-1.57c0.121-0.435,0.319-0.79,0.597-1.067s0.645-0.481,1.104-0.611c0.457-0.13,1.029-0.195,1.715-0.195
		H59.837z"/>
	<path fill="#EC1C24" d="M68.028,31.35c0.677,0,1.245,0.065,1.709,0.195c0.463,0.13,0.834,0.334,1.11,0.611
		c0.277,0.277,0.477,0.633,0.598,1.067c0.121,0.438,0.181,0.96,0.181,1.57v4.515c0,0.271-0.018,0.494-0.053,0.67
		s-0.096,0.313-0.181,0.416c-0.086,0.101-0.199,0.173-0.341,0.212c-0.141,0.04-0.322,0.059-0.544,0.059h-7.194
		c-0.444,0-0.814-0.047-1.111-0.143c-0.297-0.098-0.537-0.24-0.719-0.434c-0.181-0.192-0.31-0.441-0.385-0.746
		c-0.075-0.307-0.113-0.668-0.113-1.087v-0.814c0-0.351,0.038-0.663,0.113-0.942c0.075-0.276,0.204-0.511,0.385-0.704
		c0.182-0.192,0.422-0.335,0.719-0.433c0.297-0.095,0.667-0.143,1.111-0.143h6.151v-0.322c0-0.273-0.025-0.504-0.075-0.696
		c-0.051-0.193-0.137-0.349-0.257-0.468c-0.121-0.118-0.287-0.206-0.499-0.264c-0.212-0.055-0.483-0.084-0.816-0.084h-6.318
		c-0.182,0-0.271-0.102-0.271-0.305v-1.426c0-0.203,0.09-0.306,0.271-0.306H68.028z M69.027,38.8c0.161,0,0.274-0.043,0.34-0.128
		c0.064-0.085,0.098-0.234,0.098-0.45v-1.492h-5.532c-0.313,0-0.531,0.07-0.657,0.212s-0.189,0.348-0.189,0.618v0.356
		c0,0.306,0.063,0.529,0.189,0.671c0.126,0.143,0.345,0.213,0.657,0.213H69.027z"/>
	<path fill="#EC1C24" d="M81.027,31.35c0.676,0,1.244,0.065,1.708,0.195s0.835,0.334,1.11,0.611
		c0.278,0.277,0.478,0.633,0.598,1.067c0.121,0.438,0.182,0.96,0.182,1.57v2.443c0,0.611-0.061,1.135-0.182,1.57
		c-0.12,0.436-0.319,0.791-0.598,1.069c-0.275,0.277-0.646,0.478-1.11,0.603s-1.032,0.186-1.708,0.186h-5.668v3.377
		c0,0.249-0.11,0.373-0.332,0.373h-1.481c-0.231,0-0.348-0.124-0.348-0.373v-9.248c0-0.61,0.061-1.133,0.182-1.57
		c0.121-0.435,0.319-0.79,0.597-1.067s0.646-0.481,1.104-0.611c0.459-0.13,1.029-0.195,1.715-0.195H81.027z M75.359,38.63h5.457
		c0.332,0,0.604-0.028,0.816-0.086c0.211-0.057,0.381-0.158,0.506-0.305c0.125-0.147,0.213-0.34,0.266-0.576
		c0.049-0.238,0.074-0.538,0.074-0.9v-1.51c0-0.351-0.025-0.647-0.074-0.891c-0.053-0.244-0.141-0.436-0.266-0.577
		s-0.295-0.243-0.506-0.306c-0.213-0.063-0.484-0.094-0.816-0.094h-3.809c-0.322,0-0.59,0.031-0.803,0.094
		c-0.211,0.063-0.379,0.164-0.506,0.306c-0.125,0.142-0.213,0.333-0.265,0.577c-0.05,0.243-0.075,0.54-0.075,0.891V38.63z"/>
	<path fill="#EC1C24" d="M88.238,27.939c0.221,0,0.332,0.124,0.332,0.373v3.037h5.652c0.676,0,1.245,0.065,1.709,0.195
		c0.463,0.13,0.834,0.334,1.111,0.611c0.276,0.277,0.476,0.633,0.596,1.067c0.121,0.438,0.182,0.96,0.182,1.57v5.498
		c0,0.249-0.111,0.373-0.332,0.373h-1.481c-0.222,0-0.333-0.124-0.333-0.373v-4.92c0-0.351-0.02-0.648-0.06-0.891
		c-0.041-0.244-0.118-0.436-0.234-0.578c-0.116-0.142-0.274-0.242-0.478-0.306c-0.201-0.062-0.463-0.093-0.785-0.093H88.57v6.787
		c0,0.249-0.111,0.373-0.332,0.373h-1.482c-0.221,0-0.332-0.124-0.332-0.373V28.313c0-0.249,0.111-0.373,0.332-0.373H88.238z"/>
	<path fill="#EC1C24" d="M101.523,27.905c0.223,0,0.334,0.125,0.334,0.373v1.612c0,0.261-0.111,0.39-0.334,0.39h-1.48
		c-0.232,0-0.348-0.129-0.348-0.39v-1.612c0-0.248,0.115-0.373,0.348-0.373H101.523z M101.523,31.35
		c0.223,0,0.334,0.131,0.334,0.391v8.552c0,0.249-0.111,0.373-0.334,0.373h-1.48c-0.222,0-0.333-0.124-0.333-0.373V31.74
		c0-0.26,0.111-0.391,0.333-0.391H101.523z"/>
	<path fill="#231F20" d="M114.75,28.788c0.221,0,0.332,0.124,0.332,0.373v1.663c0,0.26-0.111,0.39-0.332,0.39h-6.727
		c-0.393,0-0.719,0.037-0.975,0.11c-0.258,0.074-0.461,0.198-0.612,0.374c-0.151,0.175-0.261,0.41-0.325,0.704
		c-0.066,0.294-0.098,0.667-0.098,1.119v2.409c0,0.453,0.031,0.83,0.098,1.129c0.064,0.3,0.174,0.537,0.325,0.713
		s0.354,0.301,0.612,0.373c0.256,0.074,0.582,0.11,0.975,0.11h6.727c0.221,0,0.332,0.124,0.332,0.374v1.662
		c0,0.249-0.111,0.373-0.332,0.373h-6.818c-0.766,0-1.414-0.078-1.949-0.236c-0.533-0.158-0.97-0.416-1.307-0.772
		c-0.338-0.356-0.584-0.82-0.741-1.392c-0.155-0.571-0.234-1.264-0.234-2.078v-2.919c0-0.815,0.079-1.505,0.234-2.07
		c0.157-0.565,0.403-1.026,0.741-1.383c0.337-0.356,0.773-0.616,1.307-0.78c0.535-0.164,1.184-0.246,1.949-0.246H114.75z"/>
	<path fill="#231F20" d="M125.482,28.788c0.765,0,1.418,0.082,1.957,0.246s0.977,0.424,1.314,0.78s0.582,0.817,0.733,1.383
		s0.228,1.255,0.228,2.07v2.919c0,0.814-0.076,1.507-0.228,2.078s-0.396,1.035-0.733,1.392s-0.775,0.614-1.314,0.772
		s-1.192,0.236-1.957,0.236h-4.672c-0.766,0-1.416-0.078-1.949-0.236s-0.971-0.416-1.309-0.772s-0.584-0.82-0.74-1.392
		s-0.233-1.264-0.233-2.078v-2.919c0-0.815,0.077-1.505,0.233-2.07s0.402-1.026,0.74-1.383s0.775-0.616,1.309-0.78
		s1.184-0.246,1.949-0.246H125.482z M118.891,35.999c0,0.441,0.033,0.813,0.1,1.111c0.064,0.301,0.173,0.537,0.324,0.713
		c0.15,0.176,0.355,0.3,0.611,0.373c0.258,0.074,0.582,0.111,0.977,0.111h4.488c0.393,0,0.719-0.037,0.975-0.111
		c0.258-0.073,0.461-0.197,0.613-0.373c0.15-0.176,0.259-0.412,0.324-0.713c0.066-0.299,0.098-0.67,0.098-1.111v-2.545
		c0-0.441-0.031-0.812-0.098-1.111c-0.065-0.3-0.174-0.537-0.324-0.713c-0.152-0.175-0.355-0.3-0.613-0.374
		c-0.256-0.073-0.582-0.109-0.975-0.109h-4.488c-0.395,0-0.719,0.036-0.977,0.109c-0.256,0.074-0.461,0.199-0.611,0.374
		c-0.151,0.176-0.26,0.413-0.324,0.713c-0.066,0.3-0.1,0.67-0.1,1.111V35.999z"/>
	<path fill="#231F20" d="M134.58,28.788c0.223,0,0.414,0.017,0.576,0.051c0.16,0.033,0.301,0.099,0.422,0.195
		c0.121,0.096,0.229,0.227,0.325,0.39c0.097,0.164,0.194,0.382,0.296,0.653l3.143,8.145c0.041,0.103,0.111,0.152,0.211,0.152h0.183
		c0.101,0,0.171-0.05,0.212-0.152l3.143-8.145c0.102-0.271,0.199-0.489,0.296-0.653c0.097-0.163,0.204-0.294,0.325-0.39
		c0.121-0.097,0.258-0.162,0.416-0.195c0.156-0.034,0.344-0.051,0.566-0.051h1.617c0.523,0,0.877,0.133,1.057,0.398
		c0.182,0.266,0.273,0.722,0.273,1.366v9.739c0,0.249-0.115,0.373-0.348,0.373h-1.541c-0.223,0-0.334-0.124-0.334-0.373v-8.857
		c0-0.112-0.039-0.17-0.119-0.17h-0.137c-0.102,0-0.166,0.046-0.197,0.136l-3.053,7.603c-0.121,0.306-0.244,0.563-0.371,0.771
		c-0.125,0.21-0.262,0.383-0.408,0.518c-0.146,0.137-0.313,0.232-0.498,0.289c-0.188,0.057-0.406,0.084-0.658,0.084h-0.725
		c-0.252,0-0.472-0.027-0.658-0.084c-0.186-0.057-0.353-0.152-0.498-0.289c-0.146-0.135-0.283-0.308-0.408-0.518
		c-0.127-0.209-0.25-0.466-0.371-0.771l-3.053-7.603c-0.031-0.09-0.096-0.136-0.197-0.136h-0.135c-0.082,0-0.121,0.058-0.121,0.17
		v8.857c0,0.249-0.111,0.373-0.333,0.373h-1.542c-0.232,0-0.348-0.124-0.348-0.373v-9.739c0-0.645,0.091-1.101,0.272-1.366
		c0.181-0.266,0.539-0.398,1.073-0.398H134.58z"/>
</g>
</svg>
