<?xml version="1.0" encoding="utf-8"?>
<!-- Generator: Adobe Illustrator 16.0.0, SVG Export Plug-In . SVG Version: 6.00 Build 0)  -->
<!DOCTYPE svg PUBLIC "-//W3C//DTD SVG 1.1//EN" "http://www.w3.org/Graphics/SVG/1.1/DTD/svg11.dtd">
<svg version="1.1" id="ae7ad495-543d-4c4b-9483-8059c5566fe6"
	 xmlns="http://www.w3.org/2000/svg" xmlns:xlink="http://www.w3.org/1999/xlink" x="0px" y="0px" width="883px" height="586.938px"
	 viewBox="63.269 126.351 883 586.938" enable-background="new 63.269 126.351 883 586.938" xml:space="preserve">
<title>personalization</title>
<g>
	<path opacity="0.2" fill="#007BFF" enable-background="new    " d="M504.769,650.093c243.83,0,441.5,14.148,441.5,31.598
		s-197.67,31.598-441.5,31.598c-243.835,0-441.5-14.15-441.5-31.598C63.27,664.242,260.934,650.093,504.769,650.093z"/>
	<path fill="#020D3E" d="M678.769,422.353c-7.902,22.32-17.944,49.23-27.222,71.012c-21.386,50.143-54.25,143.398-125.411,136.162
		c-6.042-0.613-11.912-2.387-17.271-5.256c-42.386-22.621-53.475-22.127-29.773-53.67c12.519-16.666,53.588-81.633,67.258-97.33
		c27.528-31.584,56.529-63.355,90.916-87.626C637.264,385.645,672.609,382.57,678.769,422.353z"/>
	<path fill="#020D3E" d="M641.16,678.369c-23.564,2.27-52.2,4.539-75.857,5.311c-54.486,1.799-152.896,11.398-176.388-56.162
		c-1.998-5.738-2.864-11.813-2.536-17.879c2.609-47.979-2.526-57.816,36.08-49.658c20.39,4.313,96.625,14.098,116.628,19.865
		c40.262,11.611,81.305,24.482,117.825,45.402C656.912,625.248,674.625,655.986,641.16,678.369z"/>
	<g>
		<path fill="#FFBBA6" d="M674.131,666.22c0.617,0.797,1.482,1.506,2.691,2.16c3.142,1.689,24.977-0.752,32.309-1.16
			c7.134-0.398,14.271-0.807,21.404-1.205c33.279,0.42,52.928-6.986,52.928-6.986c45.875-14.17,40.091-23.244,40.091-23.244
			c-6.321-4.344-11.406-4.979-13.503-5.547c-2.097-0.572-40.547-1.27-40.547-1.27s-35.217-9.031-55.331-16.686l0.053-0.014
			c-9.009-20.574-8.251-57.902-8.251-57.902l-42.031,6.609c0,0,8.769,41.717,10.375,57.045c0.107,1.057-1.333,10.752-1.543,11.75
			c-0.747,3.52-1.758,7.184-1.698,10.689C671.19,647.771,669.362,660.146,674.131,666.22z"/>
		
			<linearGradient id="SVGID_1_" gradientUnits="userSpaceOnUse" x1="-4089.3074" y1="-2592.3921" x2="-3935.2285" y2="-2592.3921" gradientTransform="matrix(-0.9924 0.1228 0.1228 0.9924 -2916.8762 3705.1978)">
			<stop  offset="0" style="stop-color:#071786"/>
			<stop  offset="0.1509" style="stop-color:#05136B"/>
			<stop  offset="0.3236" style="stop-color:#041055"/>
			<stop  offset="0.5107" style="stop-color:#030E45"/>
			<stop  offset="0.7204" style="stop-color:#020C3B"/>
			<stop  offset="1" style="stop-color:#020C38"/>
		</linearGradient>
		<path fill="url(#SVGID_1_)" d="M671.078,640.46c0.112,7.311-1.716,19.686,3.054,25.76c0.618,0.797,1.482,1.506,2.691,2.16
			c3.142,1.689,24.977-0.752,32.309-1.16c7.134-0.398,14.271-0.807,21.404-1.205c33.279,0.42,52.928-6.986,52.928-6.986
			c45.875-14.17,40.091-23.244,40.091-23.244c-6.321-4.344-11.406-4.979-13.503-5.547c-2.097-0.572-40.547-1.281-40.547-1.281
			s-15.906-4.074-32.441-9.063c-0.317,0.141-0.645,0.291-0.995,0.418c-18.583,6.84-37.871,10.559-57.121,4.141
			c-1.661-0.559-3.37-1.15-5.105-1.795c-0.408,3.043-0.94,6.537-1.064,7.117C672.029,633.291,671.017,636.957,671.078,640.46z"/>
		<path fill="#020D3E" d="M637.264,385.644c0.167,3.587-5.203,9.21-5.079,12.483c0.666,17.718,3.595,46.546,6.423,64.06
			c6.51,40.285,16.578,80.191,28.99,119.004l43.3-8.203c-3.575-39.318-9.88-108.254-14.347-154.805
			c-1.822-19.019-18.058-33.43-37.155-32.854c-0.113,0.01-0.226,0.01-0.344,0.01C649.51,385.635,646.092,384.386,637.264,385.644z"
			/>
	</g>
	
		<linearGradient id="SVGID_2_" gradientUnits="userSpaceOnUse" x1="-3702.9167" y1="-2622.5024" x2="-3718.2769" y2="-2631.3706" gradientTransform="matrix(-0.9972 -0.0754 -0.0754 0.9972 -3344.1978 2636.4563)">
		<stop  offset="0" style="stop-color:#E2B691"/>
		<stop  offset="1" style="stop-color:#EF9367"/>
	</linearGradient>
	<polygon fill="url(#SVGID_2_)" points="561.842,308.801 547.859,304.179 555.873,279.914 	"/>
	<path fill="#FFBBA6" d="M473.805,273.14l-7.982,67.667c0,0,0.375,5.968,7.649,13.127c9.144,8.998,32.441,8.79,37.623,3.742
		c0,0,1.945-46.596,2.392-54.514L473.805,273.14z"/>
	
		<linearGradient id="SVGID_3_" gradientUnits="userSpaceOnUse" x1="-3626.4148" y1="-2621.2148" x2="-3722.2488" y2="-2676.5447" gradientTransform="matrix(-0.9972 -0.0754 -0.0754 0.9972 -3344.1978 2636.4563)">
		<stop  offset="0" style="stop-color:#FFD1C1"/>
		<stop  offset="0.3861" style="stop-color:#FFCFBF"/>
		<stop  offset="0.5877" style="stop-color:#FFC9B7"/>
		<stop  offset="0.7467" style="stop-color:#FFBDA9"/>
		<stop  offset="0.8825" style="stop-color:#FFAE97"/>
		<stop  offset="1" style="stop-color:#FF9A7F"/>
	</linearGradient>
	<path fill="url(#SVGID_3_)" d="M566.119,241.156c0,0-11.455,75.902-25.104,88.31c-13.646,12.418-52.304,5.236-72.813-36.575
		l1.877-10.3l6.664-36.623l4.377-24.002L566.119,241.156z"/>
	
		<linearGradient id="SVGID_4_" gradientUnits="userSpaceOnUse" x1="-330.9451" y1="-2655.2729" x2="-186.7517" y2="-2655.2729" gradientTransform="matrix(0.9972 0.0754 -0.0754 0.9972 579.0763 2933.2915)">
		<stop  offset="0" style="stop-color:#000000"/>
		<stop  offset="0.0334" style="stop-color:#000105"/>
		<stop  offset="0.23" style="stop-color:#01061B"/>
		<stop  offset="0.4429" style="stop-color:#02092B"/>
		<stop  offset="0.6817" style="stop-color:#020B35"/>
		<stop  offset="1" style="stop-color:#020C38"/>
	</linearGradient>
	<path fill="url(#SVGID_4_)" d="M471.217,323.316c-9.021-3.506-17.057-36.006-20.229-74.188
		c-3.167-38.183,24.712-38.903,24.712-38.903c8.102-16.749,52.311-13.406,72.894,2.688c20.227,15.805,34.042-7.117,40.375-5.429
		c6.332,1.688,15.195,15.072-2.881,38.134c-18.32,23.362-48.671,13.675-58.298,18.196c-9.629,4.52-44.063,64.962-44.063,64.962
		L471.217,323.316z"/>
	
		<linearGradient id="SVGID_5_" gradientUnits="userSpaceOnUse" x1="-3656.6018" y1="-2631.8306" x2="-3681.7183" y2="-2646.3315" gradientTransform="matrix(-0.9972 -0.0754 -0.0754 0.9972 -3344.1978 2636.4563)">
		<stop  offset="0" style="stop-color:#FFD1C1"/>
		<stop  offset="0.3861" style="stop-color:#FFCFBF"/>
		<stop  offset="0.5877" style="stop-color:#FFC9B7"/>
		<stop  offset="0.7467" style="stop-color:#FFBDA9"/>
		<stop  offset="0.8825" style="stop-color:#FFAE97"/>
		<stop  offset="1" style="stop-color:#FF9A7F"/>
	</linearGradient>
	<path fill="url(#SVGID_5_)" d="M523.309,268.872l-10.289,35.726c-17.48-13.583-16.223-35.731-6.112-42.666
		C513.558,257.369,522.744,263.196,523.309,268.872z"/>
	
		<linearGradient id="SVGID_6_" gradientUnits="userSpaceOnUse" x1="-418.2449" y1="-2741.4829" x2="-276.1208" y2="-2741.4829" gradientTransform="matrix(-1 0 0 1 128.6304 3118.1201)">
		<stop  offset="0" style="stop-color:#007BFF"/>
		<stop  offset="0.3174" style="stop-color:#0071FF"/>
		<stop  offset="0.8621" style="stop-color:#0055FF"/>
		<stop  offset="1" style="stop-color:#004DFF"/>
	</linearGradient>
	<path fill="url(#SVGID_6_)" d="M416.367,352.828c3.354-4.951,11.831-7.155,17.17-8.472c11.729-2.925,23.562-3.307,35.231-1.931
		c26.312,3.08,67.65,10.788,75.246,41.118c2.311,9.137,3.086,18.609,2.806,28.07l-142.069-30.049
		C408.054,369.394,411.906,359.38,416.367,352.828z"/>
	<path fill="#FFFFFF" d="M404.75,381.564l142.07,30.049c-0.105,7.32-0.936,14.537-2.199,21.642
		c-2.315,12.762-4.4,25.588-5.891,38.531c-2.531,21.793-5.617,46.4,0.387,67.926l24.604,45.133c0,0-5.892,2.592-15.632,5.838
		c-5.893-9.311-21.19-34.404-28.898-56.971c0,0,0.937,39.963,7.483,63.186c-40.124,9.965-103.593,15.965-141.904-29.168
		C384.771,567.73,387.47,445.029,404.75,381.564z"/>
	<g>
		<path fill="#FFBBA6" d="M933.086,685.884c0.883-0.473,1.742-1.205,2.592-2.291c2.192-2.805,3.505-24.738,4.343-32.025
			c0.818-7.096,1.634-14.203,2.457-21.299c6.075-32.727-5.104-52.465-5.104-52.465c-6.156-47.617-7.198-19.137-7.198-19.137
			c-5.354,5.494,1.247,10.299,0.333,12.268c-0.926,1.967-8.999,22.564-8.999,22.564s-23.804,25.232-34.767,43.746l-0.006-0.055
			c-21.813,5.389-58.464-1.709-58.464-1.709l-0.628,42.541c0,0,42.59-1.547,57.977-0.523c1.06,0.074,10.362,3.139,11.31,3.523
			c3.344,1.334,6.785,2.945,10.257,3.494C914.41,685.636,926.279,689.55,933.086,685.884z"/>
		<path fill="#020D3E" d="M907.186,684.517c7.225,1.117,19.093,5.031,25.898,1.365c0.883-0.473,1.742-1.205,2.592-2.291
			c2.192-2.805,3.505-24.736,4.343-32.025c0.817-7.096,1.634-14.201,2.457-21.297c6.075-32.729,2.112-53.348,2.112-53.348
			c-6.159-47.617-15.804-32.736-15.804-32.736c-5.358,5.492-6.849,10.385-7.763,12.361c-0.925,1.969-8.429,29.02-8.429,29.02
			s-10.601,23.607-20.491,42.102c3.252,6.783,5.059,14.523,5.734,21.416c0.946,9.633,1.29,21.287-0.703,32.016
			C900.412,682.423,903.778,683.982,907.186,684.517z"/>
		<path fill="#020D3E" d="M847.466,633.796c-58.292-4.686-181.65-14.523-200.977-15.406c-6.82-0.301-26.426,1.086-32.334,5.236
			c-7.148,5.02-10.601,17.211-9.762,25.523c1.096,10.752,11.579,20.682,21.362,24.023c62.188,21.246,172.285,11.676,222.428,4.689
			L847.466,633.796z"/>
	</g>
	
		<line fill="none" stroke="#231F20" stroke-width="2.7523" stroke-miterlimit="10" x1="409.448" y1="382.521" x2="533.265" y2="408.738"/>
	<g>
		<path fill="#3A3768" d="M373.815,381.194c21.008-26.818,34.045-60.169,34.045-96.884c0-87.233-70.727-157.959-157.966-157.959
			S91.934,197.077,91.934,284.31c0,36.715,13.037,70.066,34.043,96.884h52.628c-29.798-21.971-49.363-57.024-49.363-96.884
			c0-66.634,54.018-120.654,120.652-120.654c66.641,0,120.66,54.02,120.66,120.654c0,39.86-19.567,74.914-49.365,96.884H373.815z"/>
		<g>
			<path fill="#3A3768" d="M63.68,345.462v312.372c0,13.182,10.683,23.857,23.854,23.857h329.657
				c13.177,0,23.853-10.674,23.853-23.857V345.463c0-13.164-10.676-23.845-23.853-23.845H87.531
				C74.362,321.618,63.68,332.298,63.68,345.462z M201.475,445.373c0-27.239,22.465-49.208,49.885-48.402
				c25.659,0.76,46.802,22.459,46.951,48.123c0.107,18.299-10.348,33.65-25.231,41.961v90.072c0,6.697-5.426,12.115-12.117,12.115
				H238.82c-6.687,0-12.109-5.418-12.109-12.115v-90.072C211.904,478.787,201.476,463.541,201.475,445.373z"/>
		</g>
	</g>
	<polygon points="512.94,344.56 525.281,358.945 463.228,347.257 464.603,334.959 	"/>
	<path d="M548.092,590.683c-5.894,1.979-13.16,4.182-21.416,6.215c-6.548-23.223-7.483-63.186-7.483-63.186
		C526.9,556.281,542.198,581.373,548.092,590.683z"/>
	<g>
		<g>
			<path fill="#FFBBA6" d="M638.341,419.048c-13.993,12.551-19.744,35.342-19.744,35.342l-13.263,8.859
				c-34.937,21.039-74.92,37.963-91.336,77.955c-1.752,4.27-3.345,8.988-2.054,13.418c9.843,33.824,106.561-58.959,116.283-71.484
				c12.363-15.951,27.431-21.93,40.628-37.025c13.192-15.094,16.03-37.607,16.03-37.607L638.341,419.048z"/>
			<path fill="#191752" d="M681.231,352.107l-58.502,54.948c-2.226,2.086-2.366,5.579-0.313,7.838l28.518,31.417
				c2.075,2.289,5.612,2.463,7.902,0.389l59.056-53.467c2.27-2.064,2.462-5.559,0.44-7.859l-29.075-32.894
				C687.166,350.112,683.531,349.945,681.231,352.107z"/>
			<g>
				
					<linearGradient id="SVGID_7_" gradientUnits="userSpaceOnUse" x1="-572.283" y1="-2536.5513" x2="-496.3621" y2="-2536.5513" gradientTransform="matrix(-0.9972 -0.0754 -0.0754 0.9972 -50.1783 2885.4739)">
					<stop  offset="0.0457" style="stop-color:#F8F2FA"/>
					<stop  offset="0.2204" style="stop-color:#F4F1FA"/>
					<stop  offset="0.3885" style="stop-color:#E9ECFA"/>
					<stop  offset="0.554" style="stop-color:#D5E5FB"/>
					<stop  offset="0.7179" style="stop-color:#BADAFC"/>
					<stop  offset="0.8791" style="stop-color:#97CDFD"/>
					<stop  offset="1" style="stop-color:#78C1FE"/>
				</linearGradient>
				<path fill="url(#SVGID_7_)" d="M684.989,357.826l-49.813,47.187l26.996,29.737l50.356-45.76L684.989,357.826z"/>
			</g>
			<path fill="#FFBBA6" d="M627.669,455.037c1.278-11.664,8.382-19.039,11.102-21.748c2.714-2.711,5.146-13.26,5.146-13.26
				c2.345-12.279,8.386-16.649,11.187-18.202c2.8-1.553,2.854,5.511,2.854,5.511s-3.851,19.792-5.666,28.167
				c-1.817,8.387,2.596,11.064,2.596,11.064C647.58,461.746,627.671,455.037,627.669,455.037z"/>
		</g>
		<g>
			<path fill="#FFBBA6" d="M517.836,560.656c7.795,2.225,18.294,0.926,22.545-7.752c3.988-8.115,3.697-19.082,4.16-27.781
				c0.57-10.547,0.63-21.082,0.561-31.596c-0.114-16.375-0.727-32.705-1.635-49.004c-0.44-7.936,0.161-19.256-1.87-28.388
				c-0.953-4.306-2.495-8.123-4.995-10.875c-3.337-3.654-10.272-7.611-15.626-6.634c-23.519,4.301-22.298,30.696-21.695,48.661
				c0.291,8.805,0.677,17.588,1.064,26.383c0.882,19.738,1.85,39.467,2.516,59.217c0.271,8.127,0.872,15.814,4.937,21.244
				C509.977,557.052,513.159,559.324,517.836,560.656z"/>
		</g>
		
			<linearGradient id="SVGID_8_" gradientUnits="userSpaceOnUse" x1="-344.9553" y1="-2637.6035" x2="-453.3572" y2="-2732.2708" gradientTransform="matrix(-1 0 0 1 128.6304 3118.1201)">
			<stop  offset="0" style="stop-color:#004DFF"/>
			<stop  offset="0.1379" style="stop-color:#0055FF"/>
			<stop  offset="0.6826" style="stop-color:#0071FF"/>
			<stop  offset="1" style="stop-color:#007BFF"/>
		</linearGradient>
		<path fill="url(#SVGID_8_)" d="M555.025,483.775c0,0,7.488-120.563-31.146-116.606c-34.915,3.58-31.501,91.18-34.737,115.563
			L555.025,483.775z"/>
	</g>
</g>
</svg>
