<?xml version="1.0" encoding="utf-8"?>
<!-- Generator: Adobe Illustrator 16.0.0, SVG Export Plug-In . SVG Version: 6.00 Build 0)  -->
<!DOCTYPE svg PUBLIC "-//W3C//DTD SVG 1.1//EN" "http://www.w3.org/Graphics/SVG/1.1/DTD/svg11.dtd">
<svg version="1.1" id="ae7ad495-543d-4c4b-9483-8059c5566fe6"
	 xmlns="http://www.w3.org/2000/svg" xmlns:xlink="http://www.w3.org/1999/xlink" x="0px" y="0px" width="677.231px"
	 height="552.338px" viewBox="153.978 140.279 677.231 552.338" enable-background="new 153.978 140.279 677.231 552.338"
	 xml:space="preserve">
<title>personalization</title>
<g>
	<g>
		<g>
			<path fill="#B3ADEC" d="M779.83,181.421l-10.62,3.69l-4.61-13.267c-8.501-24.47-35.337-37.458-59.786-28.963
				c-24.458,8.499-37.431,35.317-28.93,59.787l4.61,13.266l-10.656,3.703c-8.284,2.878-12.732,12.048-9.851,20.343l29.994,86.329
				c2.926,8.42,12.107,12.874,20.395,9.996l109.988-38.216c8.419-2.925,12.872-12.117,9.945-20.536l-29.994-86.33
				C797.433,182.929,788.247,178.496,779.83,181.421z M695.926,195.704c-4.66-13.41,2.446-28.11,15.856-32.769
				c13.399-4.656,28.099,2.469,32.758,15.879l4.607,13.267l-48.611,16.89L695.926,195.704z M759.698,274.382l7.661,22.046
				c0.324,0.932-0.23,1.889-1.174,2.216l-10.555,3.668c-0.808,0.28-1.843-0.125-2.168-1.056l-7.658-22.046
				c-8.19-0.292-15.816-5.449-18.699-13.743c-3.703-10.664,1.959-22.368,12.655-26.084c10.691-3.715,22.388,1.958,26.095,12.621
				C768.738,260.298,765.948,269.072,759.698,274.382z"/>
			<g>
				<path fill="#001047" d="M688.745,672.74l-153.565,0.041c-17.737,0.005-32.119-14.369-32.124-32.104l-0.095-362.829
					c-0.004-17.736,14.37-32.119,32.106-32.124l153.566-0.04c17.733-0.004,32.117,14.37,32.122,32.106l0.095,362.829
					C720.856,658.355,706.48,672.736,688.745,672.74z"/>
				<path fill="#FFFFFF" d="M688.31,657.648l-152.704,0.039c-12.42,0.003-22.493-10.063-22.496-22.485l-0.094-354.422
					c-0.003-12.421,10.064-22.495,22.486-22.498l152.703-0.041c12.421-0.003,22.493,10.065,22.496,22.487l0.094,354.422
					C710.798,647.573,700.73,657.644,688.31,657.648z"/>
				<path fill="#001047" d="M671.009,258.246l-12.858,0.003c-3.944,0.001-7.142,3.2-7.141,7.145l0.002,5.104
					c0.001,3.945-3.195,7.143-7.14,7.144l-57.332,0.015c-3.945,0.001-7.144-3.195-7.145-7.14l-0.002-5.104
					c-0.001-3.945-3.198-7.142-7.144-7.141l-36.505,0.01l-0.001-3.665l135.264-0.036L671.009,258.246z"/>
				<g>
					<g>
						<g>
							<path fill="#37366A" d="M617.364,319.815c0.839-0.448,1.415-1.323,1.415-2.339c-0.002-1.472-1.19-2.663-2.662-2.662
								c-1.471,0-2.664,1.192-2.663,2.664c0,1.016,0.582,1.891,1.418,2.338c-1.677,0.532-2.905,2.111-2.905,3.96l0.001,2.094
								l8.305-0.002l-0.001-2.094C620.271,321.923,619.042,320.346,617.364,319.815z"/>
							<g>
								<g>
									<path fill="#37366A" d="M582.804,340.222c-0.511-0.28-0.911-0.669-1.2-1.166c-0.29-0.498-0.435-1.054-0.435-1.67
										c0-0.617,0.145-1.173,0.435-1.671c0.287-0.497,0.69-0.886,1.203-1.167c0.511-0.281,1.087-0.421,1.722-0.421
										c0.474,0,0.913,0.079,1.316,0.237s0.745,0.391,1.026,0.695l-0.43,0.43c-0.502-0.506-1.134-0.759-1.896-0.759
										c-0.506,0-0.966,0.116-1.382,0.348c-0.415,0.231-0.741,0.549-0.975,0.952s-0.353,0.854-0.353,1.355
										c0,0.5,0.119,0.952,0.353,1.354c0.234,0.403,0.561,0.72,0.977,0.951c0.416,0.232,0.876,0.347,1.382,0.347
										c0.77,0,1.401-0.256,1.896-0.769l0.431,0.43c-0.281,0.305-0.626,0.539-1.032,0.701c-0.403,0.162-0.845,0.242-1.32,0.243
										C583.886,340.643,583.314,340.502,582.804,340.222z"/>
									<path fill="#37366A" d="M589.483,335.983c0.302-0.165,0.676-0.248,1.12-0.248v0.632l-0.153-0.008
										c-0.508,0-0.902,0.155-1.189,0.466c-0.288,0.311-0.431,0.748-0.431,1.309l0.001,2.453l-0.648,0l-0.001-4.814l0.622,0v0.942
										C588.954,336.391,589.182,336.148,589.483,335.983z"/>
									<path fill="#37366A" d="M595.921,338.379l-4.024,0.001c0.036,0.5,0.228,0.905,0.576,1.213
										c0.348,0.308,0.789,0.461,1.319,0.461c0.298,0,0.573-0.054,0.822-0.161c0.252-0.107,0.469-0.264,0.648-0.471l0.368,0.421
										c-0.213,0.256-0.479,0.452-0.8,0.586s-0.674,0.202-1.059,0.202c-0.492,0-0.932-0.105-1.312-0.315
										c-0.382-0.211-0.68-0.502-0.894-0.875c-0.214-0.372-0.32-0.792-0.32-1.263c0-0.47,0.101-0.89,0.305-1.263
										c0.205-0.372,0.487-0.662,0.843-0.87c0.356-0.208,0.759-0.312,1.205-0.312c0.444,0,0.845,0.103,1.197,0.311
										c0.354,0.208,0.632,0.497,0.833,0.865c0.202,0.369,0.304,0.792,0.304,1.268L595.921,338.379z M592.431,336.737
										c-0.314,0.296-0.493,0.682-0.534,1.158l3.413-0.001c-0.045-0.477-0.222-0.862-0.537-1.158
										c-0.313-0.295-0.705-0.444-1.173-0.444C593.134,336.292,592.745,336.441,592.431,336.737z"/>
									<path fill="#37366A" d="M600.252,336.204c0.335,0.315,0.503,0.78,0.503,1.396l0.002,2.984h-0.623v-0.751
										c-0.146,0.251-0.362,0.447-0.646,0.586c-0.282,0.14-0.62,0.21-1.012,0.21c-0.536,0-0.964-0.127-1.281-0.384
										c-0.317-0.255-0.475-0.595-0.476-1.016c0-0.408,0.148-0.738,0.445-0.989c0.294-0.25,0.765-0.375,1.412-0.375h1.53v-0.293
										c0-0.415-0.116-0.731-0.35-0.947c-0.232-0.217-0.57-0.325-1.016-0.325c-0.305,0-0.599,0.05-0.877,0.151
										c-0.282,0.101-0.522,0.24-0.724,0.417l-0.294-0.484c0.243-0.208,0.537-0.368,0.878-0.48c0.344-0.114,0.702-0.17,1.082-0.17
										C599.433,335.733,599.916,335.89,600.252,336.204z M599.52,339.865c0.265-0.168,0.457-0.41,0.587-0.727v-0.788h-1.511
										c-0.823,0-1.236,0.288-1.236,0.862c0.001,0.28,0.107,0.501,0.321,0.663c0.214,0.162,0.514,0.243,0.896,0.243
										C598.946,340.118,599.259,340.034,599.52,339.865z"/>
									<path fill="#37366A" d="M605.058,340.29c-0.122,0.109-0.273,0.193-0.454,0.251c-0.178,0.059-0.368,0.087-0.563,0.087
										c-0.451,0-0.798-0.122-1.041-0.366c-0.246-0.244-0.368-0.589-0.369-1.034v-2.91h-0.859v-0.548l0.859,0l-0.001-1.053h0.649
										l0.001,1.053l1.466,0v0.548l-1.466,0.001v2.874c0,0.287,0.075,0.504,0.218,0.654c0.143,0.15,0.351,0.225,0.616,0.224
										c0.135,0,0.265-0.021,0.39-0.065c0.124-0.042,0.234-0.103,0.326-0.182L605.058,340.29z"/>
									<path fill="#37366A" d="M610.253,338.375l-4.024,0.001c0.035,0.5,0.228,0.905,0.574,1.213
										c0.349,0.309,0.79,0.462,1.321,0.462c0.297,0,0.572-0.053,0.822-0.16c0.252-0.107,0.469-0.264,0.649-0.472l0.367,0.421
										c-0.214,0.257-0.48,0.452-0.801,0.586s-0.673,0.201-1.059,0.201c-0.492,0-0.932-0.105-1.311-0.315
										c-0.383-0.21-0.68-0.502-0.894-0.874c-0.215-0.372-0.321-0.793-0.321-1.263s0.101-0.891,0.306-1.263
										c0.205-0.373,0.486-0.663,0.843-0.871c0.356-0.208,0.759-0.311,1.204-0.311c0.444,0,0.846,0.103,1.198,0.311
										c0.353,0.208,0.632,0.496,0.833,0.864c0.201,0.37,0.303,0.792,0.303,1.268L610.253,338.375z M606.762,336.733
										c-0.314,0.296-0.492,0.682-0.533,1.158l3.413,0c-0.044-0.477-0.223-0.862-0.537-1.158
										c-0.314-0.295-0.706-0.444-1.174-0.443C607.465,336.289,607.076,336.438,606.762,336.733z"/>
									<path fill="#37366A" d="M618.143,338.868l-3.568,0.001l-0.767,1.711h-0.706l2.925-6.408h0.671l2.929,6.406l-0.715,0
										L618.143,338.868z M617.897,338.318l-1.541-3.441l-1.535,3.442L617.897,338.318z"/>
									<path fill="#37366A" d="M621.222,340.313c-0.373-0.208-0.667-0.499-0.882-0.874c-0.213-0.375-0.32-0.797-0.32-1.267
										c0-0.47,0.107-0.891,0.32-1.263c0.214-0.373,0.508-0.662,0.881-0.87c0.376-0.208,0.801-0.312,1.278-0.312
										c0.415,0,0.786,0.081,1.112,0.242c0.326,0.162,0.585,0.398,0.774,0.709l-0.487,0.33c-0.156-0.238-0.358-0.416-0.604-0.535
										c-0.243-0.119-0.507-0.178-0.795-0.178c-0.347,0-0.661,0.077-0.938,0.233c-0.278,0.155-0.495,0.376-0.648,0.664
										c-0.158,0.287-0.235,0.613-0.235,0.979c0,0.372,0.077,0.7,0.235,0.984c0.153,0.283,0.371,0.503,0.649,0.658
										c0.276,0.155,0.591,0.233,0.938,0.233c0.288,0,0.552-0.058,0.795-0.173c0.246-0.117,0.448-0.293,0.604-0.532l0.488,0.329
										c-0.189,0.312-0.451,0.548-0.78,0.709c-0.329,0.162-0.697,0.243-1.106,0.243
										C622.023,340.624,621.599,340.52,621.222,340.313z"/>
									<path fill="#37366A" d="M626.294,340.311c-0.377-0.208-0.67-0.499-0.885-0.874c-0.214-0.375-0.32-0.797-0.32-1.267
										c0-0.47,0.106-0.891,0.32-1.263c0.214-0.373,0.507-0.663,0.884-0.871c0.373-0.208,0.801-0.312,1.275-0.312
										c0.415,0,0.785,0.081,1.111,0.243c0.327,0.162,0.585,0.397,0.774,0.709l-0.483,0.33c-0.16-0.238-0.362-0.416-0.604-0.536
										c-0.243-0.119-0.51-0.178-0.798-0.178c-0.348,0-0.659,0.078-0.938,0.233c-0.275,0.155-0.492,0.376-0.65,0.664
										c-0.153,0.287-0.233,0.613-0.233,0.979c0,0.372,0.08,0.7,0.233,0.984c0.159,0.283,0.376,0.503,0.651,0.659
										c0.278,0.155,0.59,0.233,0.938,0.233c0.288,0,0.555-0.058,0.798-0.174c0.243-0.116,0.443-0.293,0.604-0.531l0.484,0.329
										c-0.189,0.312-0.447,0.549-0.777,0.71c-0.328,0.162-0.699,0.243-1.108,0.243
										C627.095,340.623,626.667,340.519,626.294,340.311z"/>
									<path fill="#37366A" d="M631.361,340.305c-0.375-0.21-0.665-0.501-0.88-0.874c-0.214-0.372-0.32-0.792-0.32-1.263
										c0-0.47,0.106-0.89,0.32-1.263c0.214-0.372,0.504-0.662,0.879-0.87c0.37-0.208,0.788-0.312,1.254-0.312
										c0.463,0,0.881,0.104,1.252,0.311c0.373,0.208,0.664,0.498,0.875,0.87c0.21,0.373,0.317,0.793,0.317,1.263
										c0,0.47-0.107,0.891-0.317,1.263c-0.21,0.373-0.501,0.664-0.874,0.875c-0.371,0.21-0.789,0.316-1.252,0.316
										C632.149,340.621,631.731,340.516,631.361,340.305z M633.533,339.81c0.27-0.155,0.482-0.376,0.634-0.663
										c0.154-0.287,0.229-0.613,0.229-0.979s-0.075-0.692-0.229-0.979c-0.151-0.287-0.365-0.508-0.635-0.664
										c-0.272-0.155-0.578-0.232-0.919-0.232c-0.344,0-0.65,0.078-0.92,0.233c-0.272,0.156-0.485,0.377-0.641,0.665
										c-0.156,0.287-0.233,0.613-0.233,0.979c0,0.366,0.077,0.693,0.233,0.979c0.156,0.286,0.369,0.508,0.642,0.663
										c0.27,0.155,0.576,0.233,0.92,0.233C632.955,340.044,633.261,339.966,633.533,339.81z"/>
									<path fill="#37366A" d="M640.723,335.759l0.001,4.814h-0.623v-0.879c-0.173,0.293-0.406,0.521-0.707,0.682
										c-0.296,0.162-0.64,0.243-1.022,0.243c-0.629,0-1.124-0.175-1.489-0.526c-0.361-0.351-0.543-0.864-0.543-1.542v-2.791
										h0.648v2.728c0,0.506,0.126,0.89,0.376,1.152c0.252,0.262,0.607,0.394,1.07,0.394c0.507,0,0.907-0.155,1.2-0.463
										c0.29-0.308,0.438-0.736,0.438-1.286v-2.525H640.723z"/>
									<path fill="#37366A" d="M646.438,336.247c0.355,0.35,0.533,0.861,0.533,1.532l0.001,2.792l-0.648,0.001l-0.001-2.728
										c0-0.5-0.125-0.882-0.374-1.144c-0.253-0.263-0.608-0.394-1.07-0.394c-0.52,0-0.932,0.154-1.231,0.463
										c-0.302,0.308-0.454,0.733-0.454,1.276l0.001,2.526l-0.649,0.001l-0.001-4.814l0.623,0v0.887
										c0.175-0.293,0.421-0.52,0.735-0.682c0.314-0.162,0.68-0.243,1.095-0.243C645.598,335.721,646.079,335.896,646.438,336.247
										z"/>
									<path fill="#37366A" d="M651.274,340.277c-0.122,0.11-0.273,0.194-0.45,0.251c-0.182,0.059-0.369,0.088-0.564,0.088
										c-0.451,0-0.801-0.122-1.044-0.366s-0.365-0.589-0.366-1.034v-2.911l-0.859,0.001v-0.549l0.859,0l-0.001-1.053h0.649
										l0.002,1.053l1.465,0v0.549h-1.465v2.875c0.001,0.287,0.071,0.504,0.214,0.654c0.146,0.149,0.351,0.225,0.62,0.225
										c0.134,0,0.264-0.022,0.388-0.065c0.126-0.042,0.232-0.103,0.324-0.182L651.274,340.277z"/>
								</g>
							</g>
						</g>
						<g>
							<path fill="#FF3B83" d="M650.558,599.08l-79.286,0.021c-0.822,0-1.488-0.665-1.488-1.487l-0.004-15.496
								c0-0.821,0.666-1.487,1.488-1.487l79.286-0.021c0.821,0,1.485,0.665,1.485,1.486l0.004,15.496
								C652.043,598.415,651.379,599.08,650.558,599.08z"/>
							<g>
								<g>
									<path fill="#F3F4E9" d="M600.753,591.864l-1.088-1.534c-0.124,0.013-0.252,0.019-0.383,0.019l-1.281,0.001v1.516h-0.504
										l-0.002-4.772l1.786-0.001c0.608,0,1.086,0.145,1.433,0.436c0.345,0.291,0.518,0.691,0.518,1.2
										c0,0.372-0.093,0.688-0.282,0.943c-0.189,0.257-0.456,0.441-0.808,0.556l1.167,1.638H600.753z M600.354,589.606
										c0.249-0.21,0.373-0.501,0.373-0.879c0-0.387-0.124-0.684-0.374-0.892c-0.249-0.205-0.611-0.309-1.086-0.309L598,587.528
										l0.001,2.394l1.267-0.001C599.742,589.92,600.105,589.815,600.354,589.606z"/>
									<path fill="#F3F4E9" d="M605.447,590.219l-3,0.001c0.028,0.372,0.17,0.675,0.428,0.902c0.262,0.23,0.588,0.343,0.982,0.343
										c0.225,0,0.427-0.038,0.613-0.117c0.188-0.082,0.35-0.197,0.487-0.353l0.27,0.313c-0.158,0.191-0.356,0.336-0.597,0.438
										c-0.237,0.1-0.5,0.148-0.785,0.148c-0.368,0-0.693-0.077-0.979-0.235c-0.285-0.154-0.505-0.372-0.666-0.65
										c-0.159-0.277-0.239-0.59-0.239-0.94c0-0.35,0.077-0.663,0.229-0.939c0.153-0.276,0.361-0.494,0.629-0.648
										c0.266-0.153,0.563-0.231,0.896-0.231s0.629,0.077,0.893,0.23c0.264,0.154,0.472,0.37,0.62,0.645
										c0.151,0.274,0.225,0.59,0.225,0.943L605.447,590.219z M602.845,588.996c-0.234,0.222-0.367,0.508-0.398,0.862l2.543-0.001
										c-0.032-0.354-0.167-0.641-0.397-0.862c-0.235-0.22-0.528-0.33-0.878-0.33
										C603.369,588.665,603.079,588.776,602.845,588.996z"/>
									<path fill="#F3F4E9" d="M609.762,588.275v3.149c0.001,0.608-0.15,1.062-0.448,1.353c-0.296,0.295-0.747,0.441-1.346,0.441
										c-0.332,0-0.646-0.049-0.943-0.146c-0.299-0.099-0.54-0.233-0.727-0.406l0.247-0.368c0.172,0.155,0.382,0.277,0.628,0.361
										c0.249,0.086,0.51,0.128,0.783,0.128c0.454,0,0.786-0.104,0.999-0.317c0.214-0.209,0.32-0.539,0.319-0.984v-0.455
										c-0.147,0.226-0.344,0.398-0.587,0.519c-0.243,0.115-0.512,0.177-0.809,0.177c-0.336,0-0.642-0.075-0.917-0.222
										c-0.276-0.147-0.489-0.353-0.647-0.621c-0.156-0.265-0.237-0.565-0.237-0.903c0-0.336,0.081-0.635,0.237-0.899
										c0.158-0.263,0.371-0.468,0.644-0.612c0.273-0.147,0.579-0.219,0.92-0.219c0.305,0,0.582,0.062,0.825,0.184
										c0.246,0.122,0.444,0.299,0.593,0.53v-0.688H609.762z M608.629,591.127c0.21-0.11,0.37-0.267,0.485-0.466
										c0.119-0.202,0.176-0.428,0.176-0.684c0-0.253-0.057-0.48-0.176-0.678c-0.115-0.197-0.275-0.352-0.482-0.464
										c-0.206-0.111-0.442-0.167-0.706-0.167c-0.259,0-0.493,0.056-0.698,0.165c-0.207,0.107-0.367,0.264-0.482,0.465
										c-0.116,0.199-0.175,0.427-0.175,0.68c0,0.256,0.059,0.481,0.175,0.684c0.115,0.199,0.275,0.354,0.482,0.465
										c0.205,0.111,0.439,0.166,0.698,0.166C608.187,591.293,608.421,591.239,608.629,591.127z"/>
									<path fill="#F3F4E9" d="M611.111,587.387c-0.068-0.069-0.102-0.15-0.102-0.244c0-0.092,0.033-0.171,0.102-0.24
										c0.068-0.066,0.15-0.102,0.251-0.102c0.102,0,0.185,0.032,0.252,0.1c0.068,0.065,0.104,0.143,0.104,0.234
										c0,0.1-0.036,0.183-0.104,0.252c-0.067,0.067-0.15,0.102-0.252,0.102C611.261,587.489,611.179,587.455,611.111,587.387z
										 M611.116,588.274h0.484l0.001,3.587h-0.484L611.116,588.274z"/>
									<path fill="#F3F4E9" d="M613.078,591.767c-0.267-0.084-0.476-0.189-0.623-0.317l0.215-0.381
										c0.152,0.118,0.339,0.216,0.568,0.289c0.225,0.075,0.461,0.114,0.707,0.114c0.327,0,0.57-0.053,0.728-0.153
										c0.158-0.104,0.234-0.249,0.234-0.434c0-0.133-0.044-0.236-0.131-0.312c-0.086-0.074-0.196-0.131-0.326-0.17
										s-0.305-0.075-0.524-0.111c-0.291-0.056-0.525-0.112-0.703-0.167c-0.178-0.058-0.326-0.153-0.454-0.291
										c-0.125-0.137-0.187-0.323-0.187-0.565c0-0.299,0.125-0.545,0.376-0.736c0.249-0.191,0.598-0.285,1.042-0.285
										c0.23,0,0.466,0.028,0.696,0.092c0.232,0.06,0.421,0.14,0.572,0.241l-0.21,0.389c-0.297-0.206-0.65-0.307-1.059-0.307
										c-0.309,0-0.54,0.055-0.697,0.163c-0.157,0.109-0.237,0.252-0.237,0.429c0,0.137,0.044,0.246,0.134,0.33
										c0.089,0.081,0.198,0.14,0.331,0.179c0.131,0.039,0.312,0.077,0.547,0.12c0.284,0.055,0.513,0.107,0.688,0.161
										c0.172,0.056,0.32,0.148,0.442,0.281c0.121,0.132,0.184,0.313,0.184,0.543c0,0.315-0.131,0.563-0.392,0.749
										c-0.261,0.183-0.623,0.275-1.089,0.275C613.621,591.893,613.343,591.852,613.078,591.767z"/>
									<path fill="#F3F4E9" d="M618.173,591.64c-0.091,0.083-0.205,0.144-0.337,0.187c-0.134,0.043-0.274,0.065-0.419,0.065
										c-0.338,0-0.596-0.09-0.778-0.272c-0.181-0.182-0.272-0.439-0.272-0.77v-2.168h-0.641v-0.409h0.641l-0.001-0.785h0.483
										l0.001,0.785h1.092v0.409h-1.092v2.14c0,0.214,0.054,0.376,0.16,0.488c0.107,0.112,0.262,0.167,0.46,0.167
										c0.101,0,0.198-0.017,0.291-0.049c0.092-0.03,0.175-0.077,0.243-0.137L618.173,591.64z"/>
									<path fill="#F3F4E9" d="M622.047,590.214h-3.003c0.027,0.373,0.172,0.676,0.431,0.903c0.259,0.23,0.588,0.344,0.982,0.344
										c0.222,0,0.426-0.038,0.613-0.118c0.188-0.081,0.347-0.197,0.483-0.352l0.273,0.313c-0.161,0.191-0.359,0.336-0.596,0.438
										c-0.24,0.1-0.501,0.148-0.79,0.148c-0.368,0-0.693-0.077-0.976-0.236c-0.284-0.154-0.507-0.372-0.668-0.65
										c-0.156-0.276-0.236-0.589-0.236-0.939c0-0.35,0.077-0.663,0.229-0.94c0.15-0.276,0.361-0.494,0.626-0.649
										c0.266-0.152,0.566-0.229,0.898-0.229s0.629,0.077,0.893,0.229c0.264,0.155,0.469,0.371,0.62,0.646s0.225,0.59,0.225,0.943
										L622.047,590.214z M619.446,588.99c-0.234,0.222-0.368,0.509-0.401,0.863h2.545c-0.032-0.354-0.166-0.642-0.399-0.863
										c-0.235-0.22-0.524-0.329-0.875-0.329C619.967,588.661,619.679,588.77,619.446,588.99z"/>
									<path fill="#F3F4E9" d="M624.013,588.427c0.226-0.121,0.505-0.183,0.833-0.183v0.47l-0.115-0.008
										c-0.377,0-0.67,0.116-0.884,0.348c-0.217,0.232-0.323,0.558-0.323,0.975v1.828h-0.484v-3.586h0.466v0.702
										C623.618,588.733,623.787,588.549,624.013,588.427z"/>
								</g>
							</g>
						</g>
						<g>
							<g opacity="0.57">
								<g>
									<path fill="#37366A" d="M544.689,365.02v0.398l-3.082,0.001l-0.001-4.359l2.989-0.001v0.398l-2.529,0l0.001,1.551l2.255,0
										v0.392l-2.255,0v1.62L544.689,365.02z"/>
									<path fill="#37366A" d="M550.732,362.471c0.234,0.236,0.354,0.585,0.354,1.046v1.9h-0.442v-1.855
										c0-0.341-0.083-0.6-0.248-0.779c-0.162-0.178-0.394-0.267-0.693-0.267c-0.341,0-0.608,0.104-0.804,0.314
										c-0.194,0.21-0.293,0.5-0.293,0.869v1.719h-0.441v-1.855c0-0.341-0.083-0.6-0.248-0.779
										c-0.162-0.178-0.396-0.267-0.699-0.267c-0.338,0-0.604,0.104-0.8,0.314c-0.198,0.21-0.296,0.5-0.296,0.869v1.719l-0.442,0
										l-0.001-3.276l0.424,0v0.598c0.116-0.199,0.279-0.353,0.486-0.461c0.208-0.108,0.445-0.162,0.715-0.162
										c0.276,0,0.514,0.059,0.716,0.173c0.201,0.117,0.35,0.29,0.451,0.517c0.12-0.215,0.293-0.384,0.519-0.507
										c0.228-0.122,0.486-0.184,0.777-0.184C550.174,362.116,550.498,362.235,550.732,362.471z"/>
									<path fill="#37366A" d="M554.415,362.436c0.229,0.214,0.345,0.53,0.345,0.95v2.03h-0.423v-0.511
										c-0.102,0.171-0.247,0.304-0.439,0.399c-0.193,0.096-0.421,0.144-0.688,0.144c-0.365,0-0.656-0.087-0.871-0.262
										c-0.217-0.174-0.324-0.405-0.324-0.691c0-0.278,0.102-0.503,0.304-0.673c0.198-0.17,0.521-0.256,0.96-0.256l1.041,0v-0.199
										c0-0.282-0.08-0.497-0.238-0.645c-0.157-0.147-0.389-0.221-0.69-0.221c-0.208,0-0.406,0.034-0.6,0.103
										c-0.189,0.069-0.352,0.163-0.492,0.284l-0.199-0.331c0.167-0.141,0.365-0.25,0.6-0.327
										c0.231-0.076,0.478-0.115,0.735-0.115C553.861,362.115,554.188,362.222,554.415,362.436z M553.918,364.927
										c0.181-0.114,0.312-0.279,0.4-0.495v-0.536l-1.028,0c-0.561,0-0.841,0.196-0.841,0.586c0,0.191,0.071,0.342,0.218,0.452
										c0.145,0.11,0.35,0.165,0.61,0.165C553.527,365.099,553.74,365.042,553.918,364.927z"/>
									<path fill="#37366A" d="M555.955,361.33c-0.063-0.063-0.093-0.137-0.093-0.225c0-0.083,0.03-0.155,0.093-0.218
										c0.063-0.062,0.139-0.093,0.231-0.093c0.092,0,0.165,0.03,0.229,0.09c0.063,0.06,0.095,0.132,0.095,0.215
										c0,0.091-0.032,0.168-0.095,0.23c-0.063,0.062-0.137,0.093-0.229,0.093C556.094,361.423,556.018,361.392,555.955,361.33z
										 M555.961,362.14h0.441l0.001,3.276h-0.441L555.961,362.14z"/>
									<path fill="#37366A" d="M557.637,360.793h0.442l0.001,4.622h-0.442L557.637,360.793z"/>
									<path fill="#37366A" d="M563.775,364.249l-2.43,0.001l-0.524,1.165h-0.48l1.991-4.36h0.457l1.994,4.359h-0.486
										L563.775,364.249z M563.605,363.875l-1.047-2.341l-1.046,2.342L563.605,363.875z"/>
									<path fill="#37366A" d="M568.367,360.791l0.001,4.622h-0.424v-0.648c-0.131,0.22-0.308,0.389-0.524,0.505
										c-0.22,0.116-0.466,0.174-0.739,0.174c-0.309,0-0.584-0.07-0.833-0.212c-0.249-0.141-0.444-0.338-0.587-0.591
										c-0.14-0.253-0.211-0.542-0.211-0.866c0-0.324,0.071-0.612,0.211-0.866c0.141-0.253,0.336-0.449,0.586-0.589
										c0.249-0.139,0.524-0.208,0.833-0.208c0.267,0,0.504,0.054,0.721,0.165c0.214,0.11,0.389,0.271,0.525,0.482l-0.001-1.968
										H568.367z M567.339,364.893c0.185-0.106,0.33-0.257,0.437-0.452c0.104-0.196,0.157-0.417,0.157-0.667
										c0-0.249-0.053-0.471-0.157-0.667c-0.106-0.195-0.252-0.345-0.437-0.452c-0.188-0.105-0.393-0.158-0.621-0.158
										c-0.233,0-0.441,0.053-0.625,0.159c-0.187,0.106-0.332,0.257-0.436,0.452c-0.106,0.195-0.16,0.417-0.16,0.667
										c0,0.25,0.054,0.471,0.16,0.667c0.104,0.195,0.249,0.345,0.437,0.451c0.184,0.105,0.392,0.159,0.625,0.159
										C566.948,365.052,567.153,364.998,567.339,364.893z"/>
									<path fill="#37366A" d="M572.591,360.79l0.001,4.622h-0.425v-0.648c-0.133,0.22-0.308,0.389-0.527,0.505
										c-0.217,0.116-0.463,0.174-0.735,0.174c-0.309,0-0.587-0.07-0.836-0.212c-0.249-0.141-0.445-0.338-0.585-0.591
										c-0.143-0.253-0.214-0.542-0.214-0.866c0-0.324,0.071-0.612,0.214-0.866c0.139-0.253,0.335-0.449,0.584-0.589
										c0.249-0.138,0.527-0.208,0.836-0.208c0.265,0,0.504,0.054,0.718,0.165c0.214,0.11,0.389,0.271,0.528,0.482v-1.968H572.591
										z M571.561,364.892c0.183-0.106,0.328-0.257,0.435-0.451c0.107-0.196,0.161-0.417,0.161-0.667
										c0-0.249-0.054-0.471-0.161-0.667c-0.106-0.195-0.253-0.345-0.436-0.452c-0.185-0.106-0.392-0.159-0.621-0.158
										c-0.23,0-0.441,0.053-0.625,0.159c-0.185,0.106-0.329,0.257-0.436,0.452c-0.106,0.195-0.156,0.417-0.156,0.667
										c0,0.25,0.05,0.471,0.156,0.667c0.106,0.194,0.252,0.345,0.437,0.451c0.184,0.105,0.395,0.159,0.625,0.159
										C571.169,365.05,571.376,364.997,571.561,364.892z"/>
									<path fill="#37366A" d="M574.712,362.278c0.205-0.113,0.46-0.169,0.762-0.169v0.43l-0.106-0.007
										c-0.344,0-0.614,0.107-0.81,0.319c-0.192,0.211-0.29,0.508-0.29,0.891v1.669h-0.441l-0.001-3.276h0.421v0.641
										C574.35,362.556,574.507,362.39,574.712,362.278z"/>
									<path fill="#37366A" d="M579.094,363.909l-2.741,0.001c0.026,0.34,0.158,0.615,0.395,0.826
										c0.237,0.208,0.534,0.313,0.896,0.313c0.204,0,0.392-0.036,0.561-0.109c0.172-0.073,0.317-0.179,0.441-0.321l0.249,0.287
										c-0.146,0.174-0.327,0.307-0.545,0.398c-0.217,0.091-0.457,0.137-0.719,0.137c-0.334,0-0.635-0.072-0.893-0.214
										c-0.261-0.144-0.463-0.341-0.608-0.595c-0.146-0.252-0.219-0.54-0.219-0.859s0.071-0.606,0.211-0.859
										c0.138-0.253,0.327-0.451,0.571-0.591c0.243-0.142,0.516-0.213,0.817-0.213c0.304,0,0.576,0.07,0.816,0.212
										c0.239,0.141,0.431,0.337,0.567,0.588c0.136,0.25,0.207,0.539,0.207,0.862L579.094,363.909z M576.718,362.792
										c-0.214,0.202-0.336,0.464-0.365,0.788l2.325,0c-0.029-0.323-0.15-0.586-0.365-0.788c-0.214-0.202-0.481-0.303-0.802-0.303
										C577.198,362.488,576.931,362.59,576.718,362.792z"/>
									<path fill="#37366A" d="M580.117,365.326c-0.24-0.077-0.431-0.173-0.57-0.29l0.202-0.348
										c0.136,0.107,0.308,0.196,0.517,0.264c0.207,0.069,0.424,0.103,0.646,0.103c0.3,0,0.522-0.047,0.665-0.141
										c0.143-0.093,0.214-0.225,0.214-0.395c0-0.121-0.039-0.215-0.119-0.283c-0.077-0.069-0.178-0.121-0.297-0.156
										c-0.121-0.036-0.282-0.07-0.48-0.103c-0.268-0.049-0.48-0.1-0.641-0.152c-0.163-0.052-0.303-0.14-0.415-0.265
										c-0.115-0.125-0.172-0.296-0.172-0.517c-0.001-0.275,0.114-0.499,0.343-0.673s0.545-0.262,0.952-0.262
										c0.211,0,0.424,0.028,0.635,0.083c0.214,0.057,0.386,0.131,0.524,0.222l-0.19,0.354c-0.272-0.187-0.596-0.28-0.969-0.28
										c-0.281,0-0.495,0.051-0.638,0.151c-0.146,0.099-0.217,0.23-0.216,0.392c0,0.125,0.042,0.225,0.122,0.299
										c0.083,0.075,0.184,0.13,0.303,0.165c0.122,0.036,0.287,0.072,0.498,0.108c0.262,0.05,0.472,0.099,0.629,0.15
										c0.157,0.05,0.294,0.135,0.406,0.255c0.113,0.121,0.166,0.287,0.166,0.499c0,0.286-0.119,0.514-0.356,0.682
										c-0.239,0.168-0.569,0.252-0.993,0.252C580.615,365.44,580.361,365.402,580.117,365.326z"/>
									<path fill="#37366A" d="M583.163,365.325c-0.24-0.077-0.431-0.173-0.569-0.29l0.201-0.349
										c0.136,0.107,0.308,0.196,0.517,0.264c0.207,0.069,0.423,0.103,0.646,0.103c0.301,0,0.522-0.047,0.664-0.141
										c0.143-0.094,0.214-0.225,0.214-0.395c0-0.121-0.038-0.215-0.118-0.283c-0.077-0.069-0.178-0.121-0.297-0.155
										c-0.121-0.036-0.281-0.07-0.479-0.103c-0.268-0.05-0.481-0.101-0.641-0.153c-0.164-0.052-0.304-0.14-0.415-0.265
										c-0.116-0.125-0.173-0.297-0.173-0.516c-0.002-0.275,0.114-0.499,0.344-0.673c0.228-0.174,0.545-0.262,0.951-0.262
										c0.211,0,0.425,0.028,0.635,0.083c0.214,0.056,0.386,0.13,0.525,0.221l-0.192,0.354c-0.271-0.186-0.594-0.28-0.968-0.28
										c-0.281,0-0.495,0.05-0.638,0.15c-0.145,0.1-0.215,0.23-0.215,0.392c0,0.125,0.041,0.225,0.12,0.299
										c0.084,0.075,0.185,0.13,0.304,0.165c0.122,0.036,0.288,0.072,0.498,0.109c0.261,0.05,0.472,0.099,0.629,0.15
										c0.157,0.049,0.294,0.134,0.406,0.254c0.112,0.121,0.166,0.286,0.166,0.499c0,0.286-0.119,0.514-0.355,0.682
										c-0.24,0.169-0.57,0.253-0.994,0.253C583.661,365.439,583.406,365.401,583.163,365.325z"/>
								</g>
							</g>
							<g>
								<g>
									<path fill="#37366A" d="M551.272,382.471l-1.637,3.669c-0.133,0.308-0.287,0.526-0.462,0.654
										c-0.176,0.129-0.383,0.194-0.629,0.194c-0.156,0-0.305-0.025-0.441-0.075s-0.256-0.125-0.356-0.225l0.208-0.33
										c0.166,0.166,0.364,0.25,0.596,0.25c0.15,0,0.279-0.042,0.383-0.125c0.106-0.083,0.205-0.224,0.296-0.423l0.143-0.317
										l-1.463-3.27h0.46l1.233,2.783l1.233-2.784H551.272z"/>
									<path fill="#37366A" d="M552.286,385.563c-0.253-0.144-0.454-0.341-0.599-0.595c-0.146-0.252-0.218-0.539-0.218-0.858
										c0-0.32,0.071-0.606,0.218-0.859c0.145-0.254,0.346-0.452,0.599-0.592c0.252-0.142,0.536-0.212,0.854-0.212
										c0.315,0,0.601,0.07,0.852,0.212c0.256,0.141,0.455,0.338,0.597,0.592c0.143,0.252,0.214,0.54,0.214,0.859
										c0,0.319-0.071,0.606-0.214,0.859c-0.142,0.254-0.341,0.452-0.597,0.595c-0.251,0.143-0.536,0.215-0.852,0.215
										C552.823,385.777,552.538,385.705,552.286,385.563z M553.767,385.226c0.183-0.106,0.328-0.256,0.434-0.451
										c0.104-0.196,0.153-0.418,0.153-0.667c0-0.249-0.05-0.472-0.153-0.667c-0.105-0.195-0.251-0.346-0.434-0.451
										c-0.188-0.106-0.395-0.158-0.627-0.158c-0.233,0-0.441,0.052-0.625,0.159c-0.188,0.105-0.333,0.256-0.437,0.452
										c-0.106,0.194-0.159,0.417-0.159,0.667c0,0.249,0.053,0.47,0.159,0.667c0.104,0.195,0.249,0.346,0.437,0.451
										c0.184,0.105,0.392,0.159,0.625,0.159C553.372,385.385,553.579,385.332,553.767,385.226z"/>
									<path fill="#37366A" d="M558.659,382.469v3.276h-0.424v-0.598c-0.115,0.199-0.275,0.354-0.479,0.464
										c-0.206,0.11-0.437,0.166-0.698,0.166c-0.427,0-0.765-0.12-1.011-0.358c-0.249-0.239-0.37-0.588-0.37-1.049v-1.899h0.441
										v1.856c0,0.345,0.083,0.606,0.255,0.785c0.169,0.178,0.412,0.267,0.729,0.267c0.344,0,0.614-0.104,0.815-0.314
										c0.199-0.209,0.297-0.501,0.297-0.875v-1.719H558.659z"/>
									<path fill="#37366A" d="M560.783,382.611c0.208-0.112,0.46-0.168,0.766-0.169v0.43l-0.106-0.006
										c-0.345,0-0.614,0.106-0.811,0.318c-0.195,0.211-0.293,0.508-0.293,0.89v1.669h-0.441v-3.276h0.423v0.642
										C560.425,382.889,560.579,382.723,560.783,382.611z"/>
									<path fill="#37366A" d="M565.167,384.242l-2.74,0c0.023,0.341,0.153,0.616,0.392,0.825
										c0.237,0.209,0.537,0.314,0.898,0.314c0.202,0,0.389-0.037,0.561-0.109c0.17-0.073,0.318-0.18,0.442-0.321l0.249,0.287
										c-0.146,0.174-0.33,0.307-0.546,0.398c-0.219,0.091-0.457,0.137-0.721,0.137c-0.336,0-0.632-0.072-0.893-0.215
										c-0.259-0.143-0.463-0.341-0.608-0.595c-0.146-0.253-0.217-0.54-0.217-0.859c0-0.32,0.068-0.607,0.208-0.859
										c0.14-0.254,0.329-0.451,0.572-0.592s0.517-0.212,0.821-0.212c0.303,0,0.573,0.071,0.816,0.212
										c0.239,0.141,0.43,0.338,0.566,0.588c0.136,0.252,0.204,0.54,0.204,0.864L565.167,384.242z M562.792,383.125
										c-0.214,0.201-0.336,0.464-0.365,0.787l2.322,0c-0.029-0.323-0.151-0.586-0.364-0.787
										c-0.214-0.202-0.481-0.303-0.799-0.303C563.269,382.822,563.006,382.923,562.792,383.125z"/>
									<path fill="#37366A" d="M571.129,382.795c0.234,0.237,0.353,0.585,0.353,1.046v1.9h-0.442v-1.856
										c0-0.34-0.082-0.6-0.246-0.778c-0.162-0.178-0.394-0.268-0.693-0.268c-0.341,0-0.608,0.104-0.804,0.314
										c-0.196,0.21-0.294,0.5-0.294,0.87v1.719h-0.441v-1.856c0-0.34-0.083-0.6-0.247-0.779
										c-0.162-0.178-0.396-0.267-0.699-0.267c-0.338,0-0.605,0.104-0.801,0.314c-0.199,0.21-0.297,0.499-0.297,0.869v1.719
										h-0.441v-3.276h0.424v0.598c0.115-0.2,0.279-0.353,0.486-0.461c0.208-0.107,0.444-0.162,0.715-0.162
										c0.275,0,0.513,0.059,0.715,0.174c0.202,0.117,0.351,0.289,0.451,0.517c0.121-0.215,0.294-0.385,0.519-0.507
										c0.229-0.123,0.486-0.184,0.777-0.184C570.572,382.44,570.894,382.559,571.129,382.795z"/>
									<path fill="#37366A" d="M574.816,382.761c0.229,0.212,0.341,0.529,0.341,0.949v2.031l-0.421,0v-0.511
										c-0.101,0.17-0.246,0.303-0.442,0.399c-0.192,0.096-0.421,0.144-0.688,0.144c-0.365,0-0.656-0.087-0.871-0.262
										c-0.214-0.174-0.324-0.405-0.324-0.691c0-0.278,0.101-0.503,0.303-0.672c0.201-0.171,0.521-0.256,0.964-0.256h1.038v-0.2
										c0-0.282-0.077-0.497-0.237-0.645c-0.157-0.147-0.386-0.221-0.691-0.221c-0.207,0-0.406,0.034-0.596,0.103
										c-0.193,0.069-0.355,0.164-0.492,0.285l-0.199-0.331c0.167-0.141,0.365-0.25,0.596-0.328
										c0.235-0.076,0.479-0.115,0.736-0.115C574.259,382.439,574.587,382.546,574.816,382.761z M574.318,385.252
										c0.178-0.114,0.312-0.28,0.397-0.495v-0.537h-1.026c-0.561,0-0.843,0.196-0.843,0.586c0,0.191,0.074,0.342,0.22,0.452
										c0.146,0.109,0.347,0.165,0.611,0.165C573.926,385.423,574.14,385.366,574.318,385.252z"/>
									<path fill="#37366A" d="M576.351,381.655c-0.062-0.063-0.092-0.137-0.092-0.225c0-0.083,0.03-0.155,0.092-0.218
										c0.063-0.063,0.14-0.094,0.232-0.094c0.091,0,0.165,0.031,0.228,0.09s0.096,0.132,0.096,0.215
										c0,0.09-0.033,0.168-0.096,0.231c-0.063,0.062-0.137,0.093-0.228,0.093C576.49,381.748,576.414,381.717,576.351,381.655z
										 M576.358,382.464h0.442v3.276h-0.442V382.464z"/>
									<path fill="#37366A" d="M578.033,381.118h0.441l0.001,4.622h-0.441L578.033,381.118z"/>
									<path fill="#37366A" d="M583.817,381.686c0.438,0.231,0.779,0.555,1.026,0.972c0.243,0.417,0.365,0.894,0.365,1.429
										c0,0.527-0.088,0.939-0.272,1.236c-0.184,0.297-0.437,0.446-0.76,0.446c-0.204,0-0.367-0.06-0.495-0.181
										c-0.127-0.12-0.195-0.287-0.207-0.499c-0.125,0.217-0.298,0.383-0.513,0.502c-0.214,0.118-0.46,0.178-0.733,0.178
										c-0.29,0-0.555-0.07-0.788-0.209c-0.235-0.139-0.423-0.332-0.556-0.576c-0.137-0.244-0.201-0.521-0.201-0.828
										c0-0.307,0.064-0.583,0.201-0.826c0.133-0.242,0.32-0.432,0.556-0.569c0.233-0.137,0.498-0.206,0.788-0.206
										c0.265,0,0.504,0.057,0.718,0.171c0.214,0.115,0.386,0.275,0.514,0.483v-0.63h0.406v2.361c0,0.166,0.035,0.286,0.106,0.361
										c0.068,0.075,0.163,0.112,0.278,0.112c0.196,0,0.351-0.116,0.463-0.349c0.116-0.233,0.172-0.557,0.172-0.972
										c0-0.482-0.106-0.906-0.323-1.273c-0.217-0.368-0.519-0.653-0.908-0.856c-0.386-0.204-0.831-0.306-1.328-0.305
										c-0.502,0-0.947,0.105-1.336,0.314c-0.389,0.21-0.689,0.505-0.906,0.885c-0.217,0.379-0.323,0.813-0.323,1.298
										c0,0.486,0.106,0.92,0.32,1.302c0.214,0.382,0.513,0.68,0.897,0.891c0.385,0.212,0.826,0.318,1.325,0.318
										c0.196,0,0.397-0.023,0.614-0.069c0.214-0.046,0.405-0.114,0.581-0.206l0.106,0.305c-0.181,0.092-0.386,0.162-0.619,0.211
										c-0.235,0.05-0.463,0.076-0.683,0.076c-0.566,0-1.065-0.121-1.5-0.361c-0.437-0.241-0.777-0.576-1.022-1.006
										c-0.243-0.429-0.364-0.917-0.364-1.46c0-0.548,0.124-1.034,0.367-1.46c0.246-0.426,0.59-0.758,1.031-0.998
										c0.442-0.238,0.946-0.358,1.511-0.358C582.882,381.341,583.378,381.456,583.817,381.686z M582.887,385.252
										c0.178-0.104,0.32-0.25,0.424-0.439c0.104-0.188,0.153-0.408,0.153-0.657c0-0.245-0.05-0.461-0.153-0.65
										c-0.104-0.189-0.246-0.334-0.424-0.436c-0.179-0.102-0.381-0.152-0.605-0.152c-0.229,0-0.434,0.052-0.611,0.155
										c-0.181,0.104-0.323,0.25-0.424,0.436c-0.104,0.187-0.155,0.403-0.155,0.647c0,0.246,0.051,0.461,0.155,0.651
										c0.101,0.189,0.243,0.336,0.424,0.443c0.178,0.105,0.383,0.159,0.611,0.159
										C582.506,385.409,582.708,385.357,582.887,385.252z"/>
									<path fill="#37366A" d="M589.177,382.461v2.876c0,0.557-0.135,0.969-0.408,1.237c-0.27,0.269-0.682,0.403-1.229,0.403
										c-0.305,0-0.593-0.046-0.862-0.134c-0.273-0.089-0.495-0.212-0.665-0.371l0.225-0.336c0.158,0.141,0.352,0.251,0.577,0.33
										c0.225,0.079,0.463,0.118,0.712,0.118c0.415,0,0.72-0.097,0.916-0.29c0.195-0.193,0.292-0.494,0.292-0.9v-0.417
										c-0.136,0.208-0.317,0.366-0.539,0.474c-0.223,0.107-0.469,0.162-0.739,0.162c-0.305,0-0.587-0.068-0.836-0.203
										c-0.252-0.134-0.447-0.323-0.593-0.566c-0.143-0.243-0.214-0.518-0.214-0.825c0-0.308,0.071-0.582,0.214-0.822
										c0.146-0.241,0.341-0.428,0.59-0.562c0.249-0.133,0.527-0.199,0.839-0.199c0.279,0,0.531,0.056,0.754,0.168
										c0.226,0.112,0.406,0.273,0.543,0.485v-0.628H589.177z M588.142,385.067c0.193-0.102,0.342-0.244,0.445-0.427
										c0.107-0.184,0.16-0.391,0.16-0.623c0-0.233-0.053-0.44-0.16-0.62c-0.104-0.181-0.252-0.321-0.442-0.423
										c-0.188-0.102-0.403-0.153-0.644-0.153c-0.237,0-0.451,0.05-0.638,0.149c-0.189,0.1-0.338,0.242-0.441,0.425
										c-0.106,0.183-0.161,0.39-0.161,0.623c0,0.232,0.055,0.439,0.161,0.622c0.104,0.183,0.252,0.325,0.441,0.426
										c0.187,0.102,0.4,0.153,0.638,0.153C587.74,385.22,587.952,385.169,588.142,385.067z"/>
									<path fill="#37366A" d="M595.471,382.789c0.233,0.237,0.353,0.585,0.353,1.047v1.9h-0.441v-1.856
										c0-0.34-0.083-0.6-0.247-0.778c-0.162-0.179-0.394-0.268-0.693-0.267c-0.341,0-0.608,0.104-0.804,0.314
										c-0.196,0.21-0.294,0.499-0.294,0.869v1.719h-0.441v-1.856c0-0.34-0.083-0.6-0.246-0.778
										c-0.164-0.178-0.397-0.267-0.7-0.267c-0.338,0-0.605,0.104-0.801,0.314c-0.198,0.21-0.297,0.499-0.297,0.869v1.719
										l-0.441,0v-3.276l0.424,0v0.597c0.116-0.199,0.278-0.353,0.486-0.461c0.207-0.107,0.445-0.162,0.715-0.162
										c0.275,0,0.513,0.058,0.715,0.174c0.201,0.116,0.35,0.289,0.451,0.517c0.122-0.216,0.294-0.385,0.519-0.507
										c0.229-0.123,0.487-0.184,0.776-0.185C594.913,382.434,595.237,382.552,595.471,382.789z"/>
									<path fill="#37366A" d="M599.155,382.754c0.228,0.213,0.344,0.53,0.344,0.949v2.031h-0.424v-0.511
										c-0.101,0.17-0.246,0.303-0.438,0.398c-0.193,0.096-0.421,0.144-0.688,0.144c-0.365,0-0.655-0.087-0.872-0.262
										s-0.323-0.405-0.323-0.691c0-0.278,0.101-0.503,0.302-0.672c0.2-0.171,0.522-0.256,0.962-0.256l1.041,0v-0.2
										c0-0.282-0.08-0.497-0.238-0.644c-0.156-0.147-0.388-0.221-0.69-0.22c-0.207,0-0.406,0.034-0.599,0.102
										c-0.19,0.069-0.353,0.164-0.492,0.284l-0.199-0.331c0.166-0.141,0.365-0.25,0.599-0.327
										c0.232-0.077,0.479-0.115,0.736-0.115C598.601,382.433,598.926,382.54,599.155,382.754z M598.656,385.246
										c0.181-0.115,0.312-0.28,0.4-0.496v-0.536l-1.029,0c-0.561,0-0.84,0.196-0.84,0.585c0,0.191,0.071,0.342,0.217,0.452
										s0.351,0.166,0.611,0.166C598.265,385.417,598.479,385.359,598.656,385.246z"/>
									<path fill="#37366A" d="M600.693,381.648c-0.063-0.063-0.092-0.137-0.092-0.225c0-0.083,0.029-0.156,0.092-0.218
										s0.14-0.093,0.231-0.093s0.166,0.03,0.229,0.09s0.095,0.132,0.095,0.215c0,0.091-0.032,0.168-0.095,0.231
										c-0.063,0.062-0.137,0.093-0.229,0.093S600.755,381.71,600.693,381.648z M600.699,382.458h0.442v3.276h-0.442V382.458z"/>
									<path fill="#37366A" d="M602.374,381.111h0.441l0.002,4.622h-0.441L602.374,381.111z"/>
									<path fill="#37366A" d="M603.862,385.665c-0.065-0.067-0.098-0.147-0.098-0.243s0.032-0.175,0.098-0.239
										c0.063-0.065,0.143-0.097,0.231-0.098c0.092,0,0.172,0.032,0.237,0.097c0.068,0.065,0.101,0.144,0.101,0.24
										s-0.032,0.176-0.101,0.243c-0.065,0.066-0.146,0.1-0.237,0.1C604.004,385.764,603.924,385.73,603.862,385.665z"/>
									<path fill="#37366A" d="M605.766,385.552c-0.256-0.141-0.457-0.339-0.603-0.595c-0.146-0.255-0.217-0.542-0.217-0.862
										c0-0.32,0.071-0.607,0.217-0.859c0.146-0.254,0.347-0.451,0.603-0.592c0.255-0.141,0.546-0.212,0.869-0.212
										c0.282,0,0.533,0.055,0.756,0.166c0.223,0.11,0.397,0.271,0.528,0.482l-0.332,0.224c-0.106-0.162-0.243-0.283-0.41-0.364
										c-0.165-0.082-0.347-0.122-0.542-0.122c-0.237,0-0.451,0.052-0.638,0.159c-0.189,0.106-0.339,0.257-0.442,0.452
										c-0.106,0.195-0.159,0.417-0.159,0.667c0,0.252,0.053,0.476,0.159,0.669c0.104,0.193,0.253,0.343,0.442,0.449
										c0.187,0.105,0.4,0.159,0.638,0.159c0.195,0,0.377-0.04,0.542-0.119c0.167-0.078,0.304-0.199,0.41-0.361l0.332,0.224
										c-0.131,0.212-0.306,0.373-0.531,0.483c-0.225,0.11-0.474,0.166-0.753,0.166
										C606.312,385.763,606.021,385.692,605.766,385.552z"/>
								</g>
							</g>
							<path fill="none" stroke="#37366A" stroke-width="0.7593" stroke-miterlimit="10" d="M687.181,394.823l-142.087,0.037
								c-2.313,0-4.192-1.874-4.192-4.188l-0.004-14.293c-0.001-2.313,1.877-4.19,4.19-4.19l142.087-0.037
								c2.314-0.001,4.188,1.874,4.189,4.188l0.004,14.294C691.368,392.946,689.495,394.822,687.181,394.823z"/>
						</g>
						<g>
							<g>
								<g opacity="0.52">
									<g>
										<path fill="#37366A" d="M545.261,411.523l0.001,4.361h-0.379l-2.805-3.537l0.001,3.537l-0.459,0l-0.002-4.361l0.38,0
											l2.811,3.537l-0.001-3.538H545.261z"/>
										<path fill="#37366A" d="M548.717,412.904c0.228,0.213,0.345,0.529,0.345,0.95v2.03h-0.424v-0.513
											c-0.101,0.173-0.247,0.305-0.439,0.401s-0.421,0.143-0.688,0.143c-0.364,0-0.655-0.087-0.872-0.26
											c-0.217-0.175-0.322-0.407-0.322-0.691c0-0.279,0.1-0.504,0.302-0.673c0.198-0.171,0.522-0.256,0.962-0.256l1.04,0v-0.199
											c0-0.281-0.08-0.497-0.237-0.645c-0.157-0.146-0.39-0.22-0.692-0.219c-0.207,0-0.405,0.033-0.598,0.102
											c-0.19,0.069-0.354,0.163-0.491,0.285l-0.201-0.332c0.166-0.141,0.364-0.25,0.6-0.328c0.23-0.075,0.477-0.114,0.735-0.114
											C548.161,412.583,548.489,412.688,548.717,412.904z M548.22,415.396c0.181-0.116,0.311-0.281,0.399-0.496v-0.537l-1.028,0
											c-0.562,0-0.84,0.197-0.84,0.586c0,0.191,0.071,0.344,0.217,0.454s0.35,0.165,0.611,0.165
											C547.827,415.567,548.04,415.507,548.22,415.396z"/>
										<path fill="#37366A" d="M555.316,412.935c0.235,0.238,0.354,0.585,0.354,1.047v1.9l-0.442,0v-1.855
											c0-0.341-0.083-0.602-0.247-0.781c-0.163-0.177-0.396-0.267-0.694-0.267c-0.342,0-0.608,0.104-0.803,0.314
											c-0.195,0.211-0.294,0.498-0.294,0.871v1.719h-0.442v-1.855c0-0.342-0.082-0.603-0.246-0.781
											c-0.163-0.177-0.397-0.267-0.7-0.267c-0.338,0-0.604,0.104-0.801,0.314c-0.197,0.211-0.295,0.498-0.295,0.871v1.719
											h-0.442l-0.001-3.277h0.424l0.001,0.598c0.115-0.201,0.278-0.354,0.485-0.461c0.208-0.106,0.445-0.161,0.715-0.161
											c0.276,0,0.514,0.057,0.715,0.173c0.202,0.118,0.351,0.291,0.451,0.517c0.121-0.214,0.294-0.382,0.519-0.507
											c0.229-0.122,0.487-0.183,0.778-0.183C554.758,412.581,555.082,412.699,555.316,412.935z"/>
										<path fill="#37366A" d="M559.736,414.379l-2.74,0.001c0.027,0.34,0.157,0.614,0.395,0.826
											c0.237,0.207,0.535,0.313,0.896,0.313c0.205,0,0.392-0.037,0.561-0.11c0.173-0.071,0.317-0.179,0.442-0.319l0.249,0.287
											c-0.146,0.173-0.326,0.308-0.546,0.399c-0.217,0.089-0.457,0.136-0.717,0.136c-0.336,0-0.635-0.071-0.894-0.215
											c-0.261-0.145-0.464-0.342-0.607-0.594c-0.146-0.252-0.22-0.541-0.22-0.86s0.07-0.604,0.21-0.858s0.329-0.452,0.571-0.592
											c0.243-0.143,0.518-0.212,0.819-0.212s0.574,0.069,0.814,0.212c0.241,0.14,0.433,0.337,0.568,0.587
											c0.137,0.252,0.208,0.539,0.208,0.862L559.736,414.379z M557.359,413.262c-0.212,0.202-0.333,0.464-0.363,0.787l2.326,0
											c-0.03-0.323-0.152-0.586-0.365-0.787c-0.215-0.201-0.481-0.303-0.802-0.303
											C557.84,412.958,557.573,413.06,557.359,413.262z"/>
									</g>
								</g>
								<g>
									<g>
										<g>
											<path fill="#37366A" d="M550.119,434.507v1.509h-0.453v-1.509l-1.745-2.852h0.492l1.496,2.448l1.494-2.449h0.459
												L550.119,434.507z"/>
											<path fill="#37366A" d="M552.599,435.832c-0.252-0.143-0.453-0.34-0.599-0.595c-0.146-0.252-0.217-0.539-0.217-0.86
												c0-0.319,0.071-0.604,0.217-0.858c0.146-0.254,0.347-0.451,0.599-0.592c0.253-0.144,0.537-0.213,0.854-0.213
												c0.313,0,0.6,0.069,0.852,0.212c0.254,0.141,0.453,0.338,0.596,0.592c0.143,0.255,0.214,0.539,0.214,0.858
												c0,0.321-0.071,0.608-0.214,0.86c-0.143,0.255-0.342,0.452-0.596,0.595c-0.252,0.144-0.537,0.215-0.852,0.215
												C553.136,436.045,552.852,435.974,552.599,435.832z M554.079,435.495c0.184-0.105,0.329-0.257,0.433-0.452
												c0.104-0.195,0.155-0.417,0.155-0.667c0-0.248-0.051-0.472-0.155-0.665c-0.104-0.195-0.249-0.346-0.433-0.453
												c-0.188-0.104-0.395-0.157-0.626-0.157c-0.234,0-0.442,0.053-0.625,0.157c-0.188,0.107-0.333,0.259-0.437,0.454
												c-0.107,0.193-0.16,0.417-0.16,0.665c0,0.25,0.053,0.473,0.16,0.667c0.104,0.195,0.249,0.346,0.437,0.451
												c0.183,0.105,0.391,0.158,0.625,0.158C553.685,435.653,553.892,435.6,554.079,435.495z"/>
											<path fill="#37366A" d="M558.97,432.737v3.277h-0.424v-0.598c-0.116,0.199-0.276,0.352-0.479,0.461
												c-0.204,0.112-0.435,0.167-0.699,0.167c-0.428,0-0.765-0.116-1.011-0.356c-0.246-0.238-0.372-0.588-0.372-1.05v-1.9
												h0.441l0.002,1.857c0,0.344,0.085,0.604,0.254,0.782c0.173,0.179,0.416,0.269,0.73,0.269
												c0.344,0,0.616-0.105,0.815-0.315c0.198-0.209,0.299-0.5,0.299-0.874l-0.001-1.72H558.97z"/>
											<path fill="#37366A" d="M561.097,432.878c0.206-0.111,0.459-0.167,0.764-0.167l0.001,0.43l-0.106-0.006
												c-0.344,0-0.613,0.105-0.81,0.317c-0.196,0.213-0.294,0.508-0.294,0.891v1.67l-0.441,0.001l-0.001-3.277l0.425-0.001
												v0.641C560.738,433.158,560.892,432.993,561.097,432.878z"/>
											<path fill="#37366A" d="M566.064,435.811c-0.082,0.075-0.186,0.134-0.308,0.173c-0.121,0.038-0.249,0.059-0.383,0.059
												c-0.308,0-0.546-0.083-0.712-0.25c-0.165-0.165-0.249-0.398-0.249-0.702v-1.98l-0.584,0.001l-0.001-0.375l0.584-0.001
												v-0.716h0.442l0.001,0.716h0.995l0.001,0.375h-0.996v1.954c0,0.195,0.05,0.344,0.147,0.445
												c0.099,0.104,0.238,0.153,0.421,0.153c0.09,0,0.18-0.015,0.265-0.045c0.084-0.026,0.158-0.069,0.22-0.124
												L566.064,435.811z"/>
											<path fill="#37366A" d="M569.603,434.51l-2.74,0.001c0.023,0.34,0.153,0.614,0.392,0.825
												c0.237,0.208,0.537,0.313,0.898,0.313c0.202,0,0.388-0.036,0.562-0.107c0.168-0.073,0.316-0.182,0.441-0.321l0.249,0.286
												c-0.146,0.173-0.33,0.308-0.547,0.399c-0.218,0.089-0.456,0.136-0.72,0.136c-0.336,0.001-0.632-0.07-0.893-0.215
												c-0.259-0.142-0.463-0.339-0.608-0.594c-0.146-0.252-0.217-0.539-0.217-0.86c0-0.319,0.068-0.604,0.208-0.858
												s0.329-0.451,0.572-0.592c0.243-0.143,0.517-0.212,0.821-0.212c0.302-0.001,0.573,0.068,0.816,0.211
												c0.239,0.141,0.43,0.338,0.566,0.588c0.136,0.252,0.204,0.539,0.204,0.862L569.603,434.51z M567.228,433.392
												c-0.214,0.201-0.336,0.464-0.365,0.787l2.322-0.001c-0.029-0.323-0.15-0.586-0.364-0.787s-0.481-0.303-0.799-0.302
												C567.704,433.089,567.442,433.191,567.228,433.392z"/>
											<path fill="#37366A" d="M572.503,436.01l-1.04-1.37l-1.045,1.371h-0.498l1.294-1.683l-1.231-1.595h0.499l0.981,1.284
												l0.983-1.285h0.486l-1.233,1.596l1.309,1.682H572.503z"/>
											<path fill="#37366A" d="M575.47,435.809c-0.083,0.075-0.188,0.134-0.309,0.173c-0.121,0.038-0.25,0.059-0.383,0.059
												c-0.309,0-0.545-0.083-0.712-0.25c-0.166-0.165-0.249-0.398-0.249-0.702v-1.981h-0.584v-0.374h0.584l-0.001-0.716h0.442
												v0.716h0.996l0.001,0.374h-0.996v1.955c0,0.195,0.05,0.344,0.148,0.445c0.098,0.104,0.237,0.153,0.421,0.153
												c0.089,0,0.178-0.015,0.264-0.045c0.083-0.026,0.157-0.069,0.22-0.124L575.47,435.809z"/>
										</g>
									</g>
									<path fill="none" stroke="#37366A" stroke-width="0.7593" stroke-miterlimit="10" d="M687.195,445.484l-142.087,0.037
										c-2.314,0.001-4.191-1.874-4.191-4.187l-0.004-14.294c-0.001-2.314,1.875-4.191,4.188-4.192l142.088-0.036
										c2.313-0.002,4.188,1.874,4.189,4.188l0.004,14.294C691.382,443.608,689.508,445.483,687.195,445.484z"/>
								</g>
							</g>
						</g>
						<g>
							<g>
								<g opacity="0.52">
									<g>
										<path fill="#37366A" d="M546.159,464.806l0.001,4.361h-0.442l-0.001-3.488l-1.71,2.935h-0.22l-1.712-2.915l0.001,3.47
											h-0.442l-0.001-4.361h0.38l1.894,3.234l1.873-3.235H546.159z"/>
										<path fill="#37366A" d="M549.618,466.185c0.228,0.215,0.341,0.53,0.341,0.951l0.001,2.03h-0.423v-0.511
											c-0.1,0.169-0.246,0.304-0.441,0.397c-0.192,0.098-0.421,0.146-0.688,0.146c-0.364,0-0.655-0.088-0.872-0.261
											c-0.214-0.175-0.323-0.405-0.323-0.693c0-0.277,0.102-0.501,0.303-0.672c0.2-0.171,0.521-0.254,0.963-0.254l1.038-0.001
											v-0.201c0-0.281-0.078-0.497-0.237-0.644c-0.157-0.148-0.386-0.224-0.69-0.223c-0.208,0-0.407,0.037-0.597,0.104
											c-0.192,0.068-0.355,0.164-0.493,0.284l-0.198-0.331c0.166-0.141,0.364-0.248,0.597-0.326
											c0.233-0.077,0.478-0.115,0.734-0.115C549.06,465.866,549.389,465.971,549.618,466.185z M549.12,468.676
											c0.178-0.113,0.312-0.278,0.397-0.494v-0.537l-1.027,0.001c-0.56,0-0.842,0.197-0.842,0.586
											c0,0.191,0.074,0.342,0.22,0.454c0.146,0.109,0.348,0.164,0.611,0.164C548.728,468.85,548.942,468.791,549.12,468.676z"/>
										<path fill="#37366A" d="M550.288,470.353c-0.124-0.037-0.225-0.088-0.302-0.159l0.153-0.338
											c0.131,0.114,0.3,0.171,0.511,0.171c0.175,0,0.309-0.053,0.403-0.156c0.092-0.104,0.14-0.259,0.14-0.462l-0.001-3.519
											h0.441l0.001,3.519c0,0.308-0.082,0.552-0.248,0.729c-0.167,0.179-0.404,0.269-0.71,0.269
											C550.54,470.406,550.41,470.387,550.288,470.353z M551.187,465.074c-0.063-0.061-0.092-0.138-0.092-0.226
											c0-0.081,0.029-0.154,0.092-0.218c0.063-0.061,0.139-0.094,0.231-0.094c0.092,0,0.166,0.033,0.228,0.092
											c0.063,0.062,0.096,0.133,0.096,0.216c0,0.092-0.032,0.169-0.096,0.229c-0.062,0.063-0.136,0.094-0.228,0.094
											C551.325,465.167,551.249,465.137,551.187,465.074z"/>
										<path fill="#37366A" d="M553.356,468.981c-0.252-0.143-0.453-0.34-0.599-0.595c-0.146-0.253-0.217-0.538-0.217-0.859
											c-0.001-0.319,0.07-0.604,0.216-0.859c0.146-0.254,0.347-0.451,0.599-0.592s0.537-0.211,0.854-0.211
											c0.314,0,0.599,0.07,0.851,0.211c0.256,0.141,0.454,0.338,0.597,0.592c0.143,0.255,0.214,0.539,0.214,0.858
											c0.001,0.321-0.07,0.606-0.213,0.86c-0.143,0.255-0.341,0.452-0.597,0.595c-0.252,0.145-0.536,0.215-0.851,0.215
											C553.893,469.196,553.608,469.125,553.356,468.981z M554.835,468.645c0.185-0.105,0.329-0.257,0.434-0.451
											c0.104-0.195,0.153-0.417,0.153-0.668c-0.001-0.248-0.051-0.47-0.154-0.665c-0.104-0.195-0.249-0.346-0.433-0.451
											c-0.188-0.106-0.396-0.161-0.626-0.161c-0.235,0-0.442,0.055-0.627,0.161c-0.187,0.105-0.331,0.256-0.435,0.451
											c-0.108,0.195-0.161,0.417-0.16,0.665c0,0.251,0.053,0.473,0.161,0.668c0.104,0.194,0.248,0.346,0.435,0.451
											c0.185,0.105,0.392,0.158,0.627,0.158C554.441,468.803,554.649,468.75,554.835,468.645z"/>
										<path fill="#37366A" d="M557.661,466.03c0.205-0.109,0.459-0.167,0.763-0.167v0.43l-0.108-0.006
											c-0.344,0-0.613,0.105-0.81,0.317c-0.191,0.213-0.29,0.508-0.289,0.891v1.67h-0.441l-0.001-3.277h0.421v0.642
											C557.299,466.309,557.456,466.144,557.661,466.03z"/>
									</g>
								</g>
								<g>
									<g>
										<g>
											<path fill="#37366A" d="M550.134,487.793v1.507h-0.454v-1.507l-1.745-2.851h0.492l1.496,2.445l1.494-2.446h0.46
												L550.134,487.793z"/>
											<path fill="#37366A" d="M552.614,489.118c-0.252-0.143-0.454-0.342-0.6-0.596c-0.146-0.253-0.216-0.539-0.216-0.86
												c0-0.317,0.07-0.604,0.215-0.858c0.146-0.253,0.348-0.45,0.6-0.593c0.252-0.141,0.537-0.212,0.854-0.212
												c0.313,0,0.599,0.071,0.851,0.211c0.255,0.143,0.454,0.34,0.597,0.593c0.143,0.254,0.214,0.541,0.214,0.857
												c0,0.322-0.07,0.608-0.213,0.861c-0.143,0.254-0.342,0.453-0.597,0.596c-0.252,0.143-0.536,0.214-0.851,0.214
												C553.151,489.331,552.865,489.259,552.614,489.118z M554.093,488.779c0.185-0.105,0.33-0.256,0.434-0.451
												s0.154-0.417,0.154-0.668c0-0.248-0.051-0.47-0.155-0.665c-0.104-0.195-0.249-0.346-0.434-0.451
												c-0.187-0.105-0.395-0.159-0.625-0.159c-0.235,0-0.442,0.054-0.626,0.159c-0.187,0.105-0.332,0.257-0.436,0.452
												c-0.106,0.195-0.159,0.417-0.159,0.666c0,0.25,0.053,0.472,0.159,0.667c0.104,0.195,0.25,0.345,0.437,0.45
												c0.184,0.108,0.391,0.159,0.626,0.159C553.698,488.938,553.906,488.887,554.093,488.779z"/>
											<path fill="#37366A" d="M558.984,486.024l0.001,3.274h-0.425v-0.598c-0.115,0.199-0.276,0.354-0.478,0.464
												c-0.204,0.109-0.436,0.165-0.7,0.165c-0.427,0-0.765-0.117-1.011-0.355c-0.246-0.24-0.371-0.59-0.371-1.052l-0.001-1.897
												h0.442l0.001,1.854c0,0.345,0.086,0.606,0.254,0.784c0.174,0.178,0.416,0.267,0.73,0.267
												c0.344,0,0.616-0.104,0.816-0.313c0.198-0.21,0.299-0.503,0.299-0.877l-0.001-1.717H558.984z"/>
											<path fill="#37366A" d="M561.11,486.166c0.208-0.112,0.46-0.169,0.766-0.169v0.431l-0.107-0.006
												c-0.344,0-0.613,0.104-0.81,0.317c-0.196,0.212-0.293,0.509-0.293,0.889v1.67l-0.441,0.001l-0.001-3.274l0.425-0.001
												v0.639C560.751,486.444,560.905,486.277,561.11,486.166z"/>
											<path fill="#37366A" d="M565.171,489.048c-0.347-0.193-0.616-0.455-0.815-0.794c-0.195-0.338-0.297-0.716-0.297-1.138
												c-0.001-0.419,0.101-0.797,0.296-1.135c0.199-0.341,0.472-0.605,0.818-0.796c0.35-0.191,0.741-0.287,1.172-0.287
												c0.323,0,0.622,0.055,0.898,0.163c0.273,0.107,0.504,0.264,0.697,0.472l-0.294,0.295
												c-0.341-0.346-0.771-0.519-1.291-0.519c-0.344,0-0.657,0.079-0.939,0.237c-0.281,0.157-0.505,0.375-0.661,0.647
												c-0.16,0.274-0.24,0.581-0.239,0.921c0,0.342,0.08,0.649,0.24,0.924c0.157,0.272,0.38,0.488,0.661,0.646
												c0.282,0.159,0.596,0.236,0.939,0.236c0.526,0,0.956-0.175,1.291-0.522l0.294,0.293
												c-0.193,0.207-0.424,0.366-0.703,0.476c-0.276,0.11-0.575,0.165-0.898,0.165
												C565.906,489.333,565.518,489.24,565.171,489.048z"/>
											<path fill="#37366A" d="M568.824,485.209c-0.062-0.062-0.093-0.137-0.093-0.225c0-0.081,0.031-0.154,0.093-0.217
												c0.063-0.062,0.14-0.094,0.231-0.094s0.166,0.03,0.229,0.091c0.062,0.06,0.095,0.131,0.095,0.214
												c0,0.092-0.033,0.169-0.095,0.23c-0.063,0.063-0.137,0.093-0.229,0.093S568.887,485.272,568.824,485.209z
												 M568.83,486.021h0.441l0.001,3.274h-0.441L568.83,486.021z"/>
											<path fill="#37366A" d="M572.234,489.095c-0.083,0.075-0.188,0.133-0.309,0.172c-0.121,0.041-0.25,0.059-0.383,0.059
												c-0.309,0-0.546-0.083-0.712-0.248c-0.166-0.166-0.249-0.4-0.249-0.703l-0.001-1.981h-0.584v-0.372h0.584v-0.719h0.442
												v0.719h0.996v0.372h-0.996l0.001,1.957c0,0.193,0.05,0.342,0.148,0.445c0.098,0.102,0.237,0.152,0.421,0.152
												c0.089,0,0.178-0.017,0.264-0.045c0.083-0.028,0.157-0.069,0.22-0.124L572.234,489.095z"/>
											<path fill="#37366A" d="M575.727,486.02l-1.637,3.667c-0.134,0.308-0.288,0.525-0.463,0.655
												c-0.175,0.126-0.383,0.191-0.629,0.191c-0.157,0-0.305-0.024-0.442-0.075c-0.136-0.049-0.254-0.124-0.355-0.225
												l0.208-0.329c0.166,0.167,0.364,0.25,0.597,0.25c0.15,0,0.278-0.042,0.382-0.124c0.107-0.083,0.204-0.226,0.297-0.425
												l0.143-0.317l-1.464-3.269h0.46l1.235,2.782l1.232-2.782H575.727z"/>
										</g>
									</g>
									<path fill="none" stroke="#37366A" stroke-width="0.7593" stroke-miterlimit="10" d="M687.209,498.769l-142.088,0.036
										c-2.313,0.001-4.191-1.871-4.192-4.187l-0.003-14.294c-0.001-2.313,1.876-4.187,4.189-4.188l142.087-0.036
										c2.314-0.001,4.188,1.872,4.189,4.186l0.003,14.294C691.396,496.894,689.523,498.768,687.209,498.769z"/>
								</g>
							</g>
						</g>
						<g>
							<g>
								<g opacity="0.52">
									<g>
										<path fill="#37366A" d="M544.587,518.751c0.313,0.265,0.471,0.629,0.471,1.095s-0.157,0.83-0.471,1.094
											c-0.317,0.265-0.754,0.396-1.309,0.396h-1.172l0.001,1.377h-0.459l-0.001-4.361h1.631
											C543.833,518.352,544.27,518.487,544.587,518.751z M544.257,520.649c0.229-0.189,0.341-0.458,0.341-0.802
											c0-0.352-0.112-0.624-0.341-0.812c-0.228-0.188-0.561-0.284-0.99-0.284h-1.16v2.181h1.16
											C543.697,520.932,544.03,520.836,544.257,520.649z"/>
										<path fill="#37366A" d="M548.063,519.731c0.229,0.215,0.341,0.53,0.341,0.951l0.001,2.03h-0.421v-0.511
											c-0.101,0.169-0.246,0.304-0.441,0.397c-0.193,0.098-0.421,0.144-0.688,0.144c-0.365,0-0.656-0.087-0.872-0.26
											c-0.213-0.175-0.323-0.405-0.324-0.694c0-0.276,0.101-0.5,0.303-0.671s0.521-0.254,0.964-0.254h1.038v-0.201
											c0-0.281-0.077-0.497-0.238-0.644c-0.156-0.148-0.385-0.224-0.69-0.224c-0.208,0-0.405,0.037-0.597,0.104
											c-0.192,0.069-0.355,0.165-0.492,0.285l-0.198-0.331c0.166-0.141,0.365-0.249,0.597-0.326
											c0.234-0.077,0.478-0.115,0.734-0.115C547.505,519.412,547.834,519.517,548.063,519.731z M547.566,522.222
											c0.178-0.113,0.311-0.278,0.396-0.494v-0.537h-1.027c-0.559,0-0.842,0.197-0.842,0.586
											c0.001,0.191,0.076,0.342,0.221,0.454c0.146,0.109,0.348,0.164,0.611,0.164
											C547.174,522.395,547.388,522.336,547.566,522.222z"/>
										<path fill="#37366A" d="M549.722,522.626c-0.243-0.075-0.434-0.173-0.569-0.289l0.198-0.348
											c0.136,0.107,0.309,0.195,0.517,0.262c0.207,0.071,0.424,0.104,0.648,0.104c0.301,0,0.521-0.047,0.662-0.141
											c0.146-0.094,0.217-0.226,0.217-0.396c-0.001-0.12-0.039-0.212-0.12-0.283c-0.08-0.067-0.178-0.12-0.3-0.154
											c-0.118-0.035-0.278-0.071-0.479-0.104c-0.265-0.049-0.479-0.1-0.642-0.153c-0.16-0.051-0.299-0.138-0.415-0.262
											c-0.112-0.126-0.168-0.299-0.168-0.519c0-0.275,0.111-0.499,0.34-0.674c0.229-0.173,0.547-0.261,0.955-0.261
											c0.211,0,0.422,0.029,0.635,0.084c0.211,0.057,0.386,0.13,0.523,0.222l-0.193,0.354c-0.271-0.187-0.59-0.28-0.965-0.28
											c-0.284,0-0.495,0.051-0.641,0.15c-0.143,0.1-0.213,0.229-0.213,0.393c0,0.126,0.038,0.224,0.121,0.299
											c0.08,0.075,0.182,0.131,0.303,0.165c0.119,0.034,0.284,0.071,0.498,0.109c0.262,0.049,0.472,0.101,0.63,0.149
											c0.156,0.049,0.29,0.136,0.402,0.256c0.113,0.12,0.169,0.285,0.169,0.498c0.001,0.285-0.117,0.515-0.357,0.682
											c-0.237,0.167-0.569,0.252-0.994,0.252C550.22,522.742,549.965,522.704,549.722,522.626z"/>
										<path fill="#37366A" d="M552.768,522.625c-0.244-0.074-0.433-0.172-0.569-0.288l0.199-0.348
											c0.137,0.107,0.308,0.194,0.515,0.261c0.209,0.071,0.425,0.104,0.651,0.104c0.299,0,0.519-0.047,0.661-0.141
											c0.144-0.094,0.215-0.226,0.215-0.396c-0.001-0.12-0.039-0.212-0.118-0.283c-0.081-0.067-0.179-0.12-0.3-0.154
											c-0.12-0.035-0.279-0.071-0.48-0.104c-0.264-0.049-0.478-0.1-0.641-0.153c-0.16-0.051-0.301-0.137-0.415-0.261
											c-0.113-0.126-0.17-0.299-0.17-0.519c0-0.275,0.113-0.499,0.342-0.675c0.228-0.173,0.545-0.261,0.955-0.261
											c0.21,0,0.421,0.029,0.635,0.084c0.21,0.057,0.385,0.13,0.521,0.222l-0.193,0.354c-0.269-0.187-0.59-0.28-0.963-0.28
											c-0.285,0-0.496,0.051-0.641,0.15c-0.143,0.1-0.214,0.229-0.214,0.393c0,0.126,0.038,0.224,0.121,0.299
											c0.081,0.075,0.181,0.131,0.303,0.165c0.119,0.034,0.285,0.071,0.498,0.109c0.261,0.049,0.473,0.1,0.629,0.148
											c0.157,0.049,0.291,0.137,0.403,0.257c0.113,0.12,0.169,0.285,0.169,0.498c0.001,0.285-0.117,0.515-0.357,0.682
											c-0.237,0.167-0.569,0.252-0.994,0.252C553.267,522.741,553.011,522.703,552.768,522.625z"/>
										<path fill="#37366A" d="M560.443,519.431l-1.238,3.278h-0.415l-1.036-2.685l-1.032,2.685l-0.418,0.001l-1.234-3.277h0.424
											l1.027,2.785l1.052-2.786h0.381l1.046,2.785l1.041-2.785L560.443,519.431z"/>
										<path fill="#37366A" d="M561.502,522.523c-0.252-0.142-0.45-0.339-0.596-0.594c-0.146-0.254-0.221-0.539-0.221-0.86
											c0-0.319,0.074-0.604,0.22-0.858s0.344-0.451,0.596-0.592c0.256-0.141,0.54-0.212,0.854-0.212
											c0.317,0,0.6,0.071,0.854,0.212c0.252,0.141,0.451,0.338,0.593,0.592c0.146,0.254,0.217,0.539,0.217,0.858
											c0,0.321-0.071,0.606-0.217,0.86c-0.142,0.255-0.34,0.452-0.592,0.594c-0.255,0.145-0.537,0.216-0.854,0.216
											C562.042,522.739,561.758,522.667,561.502,522.523z M562.983,522.188c0.184-0.106,0.328-0.257,0.432-0.452
											c0.104-0.195,0.158-0.417,0.158-0.667c0-0.248-0.054-0.47-0.158-0.665c-0.104-0.197-0.249-0.346-0.433-0.451
											c-0.185-0.106-0.392-0.161-0.626-0.161c-0.231,0-0.442,0.055-0.626,0.161c-0.184,0.105-0.329,0.254-0.436,0.451
											c-0.106,0.195-0.158,0.417-0.158,0.665c0,0.25,0.052,0.472,0.158,0.667s0.253,0.346,0.437,0.452
											c0.184,0.105,0.395,0.158,0.626,0.158C562.591,522.346,562.798,522.293,562.983,522.188z"/>
										<path fill="#37366A" d="M565.808,519.573c0.207-0.111,0.46-0.167,0.766-0.167v0.43l-0.106-0.006
											c-0.345,0-0.614,0.105-0.81,0.317c-0.196,0.213-0.294,0.508-0.294,0.891l0.001,1.67h-0.442l-0.001-3.277h0.424v0.641
											C565.448,519.851,565.604,519.687,565.808,519.573z"/>
										<path fill="#37366A" d="M570.328,518.084l0.001,4.622h-0.424v-0.649c-0.131,0.222-0.309,0.389-0.525,0.505
											c-0.219,0.118-0.465,0.175-0.738,0.175c-0.309,0-0.584-0.07-0.833-0.21c-0.249-0.143-0.446-0.34-0.588-0.593
											c-0.141-0.254-0.212-0.541-0.212-0.866c0-0.323,0.071-0.612,0.211-0.864c0.142-0.255,0.338-0.45,0.588-0.588
											c0.249-0.141,0.524-0.211,0.833-0.211c0.267,0,0.504,0.056,0.721,0.165c0.214,0.109,0.389,0.271,0.524,0.482l-0.001-1.968
											H570.328z M569.3,522.186c0.184-0.106,0.329-0.257,0.435-0.452c0.104-0.195,0.158-0.417,0.158-0.667
											c0-0.248-0.055-0.47-0.158-0.665c-0.106-0.197-0.252-0.346-0.436-0.451c-0.187-0.106-0.392-0.161-0.62-0.161
											c-0.233,0-0.441,0.055-0.625,0.162c-0.188,0.105-0.333,0.254-0.437,0.451c-0.106,0.195-0.16,0.417-0.16,0.665
											c0,0.25,0.054,0.472,0.16,0.667c0.104,0.195,0.25,0.346,0.438,0.452c0.184,0.104,0.392,0.157,0.625,0.157
											C568.909,522.344,569.114,522.292,569.3,522.186z"/>
									</g>
								</g>
								<g>
									<g>
										<g>
											<path fill="#37366A" d="M551.738,542.445v0.398l-3.085,0.001l-0.001-4.358l2.99-0.002v0.399h-2.527v1.55h2.254v0.393
												h-2.254l0.001,1.619H551.738z"/>
											<path fill="#37366A" d="M555.376,539.901c0.244,0.238,0.364,0.586,0.364,1.042l0.001,1.899h-0.442l-0.001-1.857
												c0-0.339-0.085-0.598-0.254-0.776c-0.173-0.18-0.413-0.269-0.73-0.269c-0.353,0-0.631,0.105-0.836,0.315
												c-0.207,0.209-0.309,0.5-0.309,0.868l0.001,1.719h-0.441l-0.001-3.274h0.421v0.602c0.122-0.197,0.287-0.352,0.501-0.464
												c0.217-0.109,0.463-0.164,0.744-0.164C554.806,539.542,555.133,539.661,555.376,539.901z"/>
											<path fill="#37366A" d="M558.669,542.642c-0.082,0.075-0.187,0.132-0.309,0.171c-0.122,0.041-0.249,0.059-0.382,0.059
												c-0.31,0-0.547-0.081-0.712-0.248c-0.167-0.167-0.25-0.4-0.25-0.703v-1.981l-0.585,0.001v-0.372l0.585-0.001v-0.717
												h0.441v0.717h0.996v0.372h-0.996l0.002,1.957c0,0.195,0.05,0.342,0.147,0.445c0.099,0.102,0.236,0.152,0.422,0.152
												c0.088,0,0.177-0.015,0.263-0.045c0.083-0.028,0.158-0.069,0.219-0.124L558.669,542.642z"/>
											<path fill="#37366A" d="M560.36,539.708c0.203-0.112,0.46-0.17,0.762-0.17v0.432l-0.106-0.006
												c-0.344,0-0.615,0.105-0.811,0.318c-0.192,0.211-0.29,0.509-0.29,0.889l0.001,1.67h-0.441l-0.001-3.274h0.421v0.641
												C559.997,539.988,560.154,539.821,560.36,539.708z"/>
											<path fill="#37366A" d="M564.814,539.564l-1.636,3.669c-0.134,0.308-0.288,0.525-0.46,0.655
												c-0.175,0.128-0.386,0.193-0.629,0.193c-0.16,0-0.306-0.026-0.445-0.077c-0.136-0.049-0.255-0.124-0.353-0.225
												l0.204-0.327c0.167,0.165,0.365,0.248,0.6,0.248c0.148,0,0.276-0.04,0.383-0.124c0.104-0.083,0.205-0.226,0.296-0.425
												l0.143-0.317l-1.466-3.269h0.463l1.235,2.782l1.229-2.782L564.814,539.564z"/>
											<path fill="#37366A" d="M569.592,539.747c0.249,0.141,0.445,0.336,0.587,0.59c0.14,0.25,0.211,0.541,0.211,0.864
												c0.001,0.328-0.07,0.618-0.21,0.871c-0.142,0.254-0.338,0.451-0.584,0.59c-0.247,0.138-0.525,0.207-0.837,0.207
												c-0.266,0-0.507-0.053-0.721-0.161c-0.214-0.11-0.389-0.272-0.524-0.484v1.824h-0.441l-0.001-4.483h0.421v0.647
												c0.133-0.216,0.308-0.383,0.527-0.498c0.217-0.117,0.463-0.177,0.738-0.177
												C569.064,539.537,569.343,539.608,569.592,539.747z M569.349,542.318c0.188-0.104,0.336-0.257,0.439-0.45
												c0.107-0.197,0.16-0.419,0.159-0.667c0-0.25-0.053-0.472-0.16-0.663c-0.104-0.193-0.252-0.344-0.439-0.451
												c-0.186-0.108-0.395-0.163-0.622-0.163c-0.231,0-0.442,0.055-0.625,0.164c-0.185,0.107-0.33,0.258-0.437,0.451
												c-0.107,0.191-0.158,0.413-0.158,0.663c0.001,0.248,0.052,0.47,0.159,0.667c0.106,0.193,0.252,0.347,0.437,0.45
												c0.183,0.106,0.394,0.157,0.625,0.157C568.954,542.476,569.163,542.425,569.349,542.318z"/>
											<path fill="#37366A" d="M573.404,539.857c0.228,0.216,0.344,0.531,0.344,0.95l0.001,2.03h-0.424v-0.511
												c-0.101,0.171-0.246,0.304-0.439,0.398c-0.192,0.096-0.421,0.143-0.688,0.143c-0.365,0.001-0.656-0.086-0.872-0.259
												c-0.217-0.175-0.323-0.405-0.323-0.692c0-0.278,0.1-0.502,0.301-0.673c0.199-0.169,0.521-0.254,0.961-0.255h1.042v-0.2
												c0-0.282-0.08-0.498-0.238-0.645c-0.156-0.148-0.389-0.222-0.69-0.222c-0.208,0-0.407,0.036-0.599,0.104
												c-0.19,0.067-0.354,0.163-0.492,0.283l-0.2-0.33c0.167-0.142,0.365-0.25,0.6-0.327c0.231-0.077,0.478-0.117,0.736-0.117
												C572.848,539.536,573.175,539.644,573.404,539.857z M572.906,542.349c0.181-0.116,0.311-0.278,0.4-0.496v-0.535h-1.029
												c-0.562,0.001-0.84,0.196-0.84,0.587c0,0.191,0.071,0.342,0.216,0.451c0.146,0.11,0.351,0.165,0.611,0.164
												C572.515,542.52,572.728,542.463,572.906,542.349z"/>
											<path fill="#37366A" d="M575.066,542.754c-0.243-0.078-0.434-0.176-0.57-0.291l0.199-0.348
												c0.137,0.107,0.309,0.195,0.517,0.264c0.207,0.069,0.424,0.104,0.648,0.104c0.3-0.001,0.52-0.048,0.662-0.142
												c0.146-0.094,0.217-0.226,0.217-0.396c0-0.12-0.039-0.214-0.119-0.283s-0.178-0.12-0.3-0.156
												c-0.118-0.035-0.279-0.069-0.48-0.101c-0.265-0.051-0.478-0.103-0.641-0.153c-0.16-0.053-0.3-0.14-0.416-0.264
												c-0.113-0.124-0.169-0.298-0.169-0.517c0-0.275,0.112-0.499,0.341-0.674c0.228-0.175,0.546-0.263,0.955-0.263
												c0.211-0.001,0.421,0.027,0.635,0.085c0.211,0.057,0.386,0.128,0.521,0.222l-0.192,0.354
												c-0.271-0.187-0.591-0.28-0.964-0.279c-0.285,0-0.495,0.051-0.641,0.15c-0.143,0.098-0.214,0.229-0.214,0.393
												c0,0.124,0.039,0.224,0.122,0.297c0.079,0.077,0.182,0.13,0.303,0.167c0.118,0.034,0.284,0.071,0.498,0.106
												c0.262,0.051,0.472,0.1,0.629,0.15c0.158,0.049,0.29,0.135,0.404,0.255c0.113,0.12,0.169,0.287,0.169,0.498
												c0,0.287-0.119,0.515-0.359,0.684c-0.236,0.167-0.569,0.25-0.993,0.251C575.564,542.868,575.309,542.832,575.066,542.754
												z"/>
											<path fill="#37366A" d="M578.109,542.753c-0.24-0.078-0.431-0.176-0.57-0.291l0.202-0.348
												c0.136,0.107,0.309,0.194,0.517,0.264c0.207,0.069,0.424,0.104,0.646,0.104c0.3,0,0.522-0.047,0.665-0.141
												s0.214-0.226,0.214-0.396c0-0.12-0.039-0.214-0.119-0.283c-0.077-0.069-0.178-0.12-0.297-0.156
												c-0.121-0.035-0.282-0.069-0.481-0.102c-0.266-0.052-0.479-0.103-0.641-0.153c-0.162-0.053-0.302-0.14-0.415-0.264
												c-0.115-0.125-0.172-0.298-0.172-0.518c0-0.274,0.115-0.498,0.344-0.673s0.546-0.263,0.952-0.263
												c0.211,0,0.424,0.028,0.635,0.086c0.214,0.057,0.386,0.127,0.524,0.221l-0.191,0.354c-0.271-0.187-0.595-0.28-0.968-0.28
												c-0.281,0-0.495,0.051-0.638,0.15c-0.146,0.098-0.217,0.229-0.217,0.393c0,0.124,0.042,0.224,0.122,0.297
												c0.083,0.077,0.185,0.13,0.303,0.167c0.122,0.034,0.287,0.071,0.498,0.107c0.262,0.051,0.472,0.1,0.629,0.15
												c0.158,0.049,0.295,0.134,0.406,0.254c0.114,0.12,0.167,0.286,0.167,0.498c0,0.287-0.119,0.515-0.356,0.685
												c-0.239,0.167-0.569,0.25-0.993,0.25C578.607,542.867,578.352,542.831,578.109,542.753z"/>
											<path fill="#37366A" d="M585.786,539.559l-1.239,3.275h-0.418l-1.033-2.683l-1.034,2.684h-0.418l-1.231-3.275h0.421
												l1.03,2.783l1.052-2.783h0.379l1.049,2.782l1.036-2.783H585.786z"/>
											<path fill="#37366A" d="M586.846,542.651c-0.252-0.142-0.453-0.342-0.599-0.596c-0.146-0.252-0.217-0.539-0.218-0.858
												c0-0.319,0.071-0.606,0.217-0.86c0.146-0.252,0.347-0.449,0.599-0.59c0.252-0.143,0.537-0.214,0.854-0.215
												c0.314,0,0.599,0.071,0.852,0.214c0.255,0.141,0.453,0.338,0.596,0.59c0.143,0.254,0.214,0.541,0.214,0.86
												c0.001,0.319-0.07,0.606-0.213,0.858c-0.143,0.254-0.341,0.454-0.596,0.596c-0.253,0.143-0.537,0.214-0.852,0.214
												C587.383,542.865,587.098,542.793,586.846,542.651z M588.325,542.313c0.185-0.104,0.33-0.257,0.434-0.45
												c0.104-0.197,0.153-0.419,0.153-0.667c0-0.25-0.051-0.472-0.154-0.667s-0.249-0.346-0.434-0.449
												c-0.187-0.108-0.395-0.161-0.625-0.161c-0.235,0.001-0.442,0.054-0.626,0.162c-0.187,0.104-0.332,0.254-0.436,0.449
												c-0.107,0.195-0.161,0.417-0.161,0.667c0.001,0.248,0.055,0.47,0.162,0.667c0.104,0.193,0.249,0.346,0.436,0.45
												c0.184,0.107,0.391,0.158,0.626,0.157C587.931,542.471,588.139,542.42,588.325,542.313z"/>
											<path fill="#37366A" d="M591.152,539.701c0.204-0.111,0.459-0.17,0.763-0.17v0.432l-0.106-0.006
												c-0.346,0-0.615,0.106-0.811,0.317c-0.192,0.212-0.29,0.509-0.29,0.89l0.001,1.67h-0.442l-0.001-3.275h0.421v0.641
												C590.789,539.979,590.947,539.813,591.152,539.701z"/>
											<path fill="#37366A" d="M595.672,538.209l0.001,4.622l-0.425,0.001v-0.647c-0.134,0.22-0.309,0.389-0.528,0.503
												c-0.217,0.118-0.463,0.175-0.735,0.175c-0.308,0-0.587-0.071-0.836-0.212c-0.249-0.14-0.445-0.337-0.585-0.592
												c-0.142-0.252-0.213-0.541-0.214-0.864c0-0.323,0.071-0.614,0.213-0.864c0.14-0.255,0.336-0.45,0.585-0.59
												c0.249-0.139,0.528-0.21,0.836-0.21c0.265,0,0.505,0.055,0.719,0.165c0.213,0.111,0.388,0.272,0.527,0.484v-1.97
												L595.672,538.209z M594.641,542.312c0.185-0.104,0.328-0.257,0.436-0.45c0.106-0.197,0.16-0.419,0.159-0.667
												c0-0.25-0.054-0.472-0.16-0.667c-0.107-0.195-0.252-0.346-0.436-0.45c-0.184-0.107-0.392-0.16-0.62-0.16
												c-0.231,0-0.441,0.053-0.626,0.16c-0.184,0.104-0.329,0.255-0.437,0.45c-0.106,0.195-0.156,0.417-0.156,0.667
												c0.001,0.248,0.051,0.47,0.157,0.667c0.107,0.193,0.253,0.346,0.437,0.45c0.185,0.107,0.395,0.158,0.626,0.158
												C594.249,542.47,594.457,542.419,594.641,542.312z"/>
										</g>
									</g>
									<path fill="none" stroke="#37366A" stroke-width="0.7593" stroke-miterlimit="10" d="M687.222,552.314l-142.087,0.036
										c-2.313,0.001-4.19-1.876-4.191-4.188l-0.003-14.292c-0.001-2.314,1.874-4.191,4.189-4.192l142.087-0.036
										c2.313-0.001,4.188,1.874,4.189,4.189l0.003,14.292C691.41,550.435,689.536,552.312,687.222,552.314z"/>
								</g>
							</g>
						</g>
					</g>
					
						<line fill="none" stroke="#50C3E2" stroke-width="0.7593" stroke-miterlimit="10" x1="609.539" y1="378.286" x2="609.542" y2="386.287"/>
				</g>
			</g>
		</g>
		<g>
			<path opacity="0.25" fill="#6756AD" d="M720.864,684.754c-0.001-4.299-120.517-7.757-269.184-7.718
				c-148.666,0.039-269.182,3.561-269.182,7.859c0.002,4.309,120.522,7.761,269.188,7.721
				C600.353,692.578,720.864,689.062,720.864,684.754z"/>
		</g>
	</g>
	<g>
		<g>
			
				<path fill="#FFFFFF" stroke="#000000" stroke-width="5.0133" stroke-linecap="round" stroke-linejoin="round" stroke-miterlimit="10" d="
				M232.99,482.64c-1.362,3.7-3.541,7.786-6.625,11.353c-0.153,0.199-0.297,0.376-0.473,0.551
				c-5.464,5.962-13.635,10.191-25.268,8.133c-5.224-0.922-8.821-3.157-11.304-6.186c-3.277-4.038-4.543-9.502-4.815-15.118
				c-0.032-0.785-0.048-1.576-0.048-2.355c0-4.581,0.544-9.196,1.129-13.106c0.249-1.714,0.569-3.509,1.026-5.295
				c0.104-0.354,0.2-0.705,0.264-1.058h0.041c1.546-5.327,4.43-10.271,10.167-11.753c2.692-0.706,6.041-0.624,10.174,0.521
				c5.416,1.53,12.209,4.943,20.702,10.903c1.955,1.379,3.485,2.731,4.614,4.136c0.032,0.021,0.032,0.046,0.032,0.046
				c1.546,1.908,2.435,3.894,2.756,6.018C235.97,473.234,234.873,477.479,232.99,482.64z"/>
			
				<path fill="#FFFFFF" stroke="#000000" stroke-width="5.0133" stroke-linecap="round" stroke-linejoin="round" stroke-miterlimit="10" d="
				M232.59,463.386c-1.13-1.401-2.66-2.754-4.615-4.133c-8.492-5.969-15.286-9.382-20.702-10.903
				c-0.24-0.682-5.111-14.084-1.858-18.556c3.364-4.613,8.38-7.322,14.645,5.417C226.116,447.574,232.221,462.482,232.59,463.386z"
				/>
			
				<path fill="#FFFFFF" stroke="#000000" stroke-width="5.0133" stroke-linecap="round" stroke-linejoin="round" stroke-miterlimit="10" d="
				M197.098,447.822c-5.744,1.482-8.62,6.409-10.175,11.753h-0.032c-20.005-4.431-20.53-14.959-17.822-18.725
				c2.732-3.749,7.319-5.639,12.951-2.273C187.669,441.908,197.098,447.822,197.098,447.822z"/>
			
				<path fill="#FFFFFF" stroke="#000000" stroke-width="5.0133" stroke-linecap="round" stroke-linejoin="round" stroke-miterlimit="10" d="
				M186.619,460.632c-0.449,1.786-0.785,3.58-1.025,5.295c-0.577,3.91-1.138,8.525-1.138,13.106
				c-16.215-2.026-26.887-7.691-27.824-12.193c-0.925-4.727,2.512-8.645,10.355-8.645
				C174.838,458.196,186.619,460.632,186.619,460.632z"/>
			
				<path fill="#FFFFFF" stroke="#000000" stroke-width="5.0133" stroke-linecap="round" stroke-linejoin="round" stroke-miterlimit="10" d="
				M189.327,496.499c-1.955,0.193-28.273,2.9-26.723-8.845c1.554-11.761,21.907-6.273,21.907-6.273
				C184.793,486.997,186.042,492.46,189.327,496.499z"/>
			<g>
				<path fill="#0095DA" stroke="#000000" stroke-width="5.0133" stroke-miterlimit="10" d="M455.374,504.367
					c-6.208-1.05-12.378-1.475-18.169-1.554c-2.211-8.485-5.56-16.457-9.622-23.826c7.651-2.533,14.285-5.368,19.876-8.196
					C450.166,478.33,454.029,490.828,455.374,504.367z"/>
				
					<path fill="#FFFFFF" stroke="#000000" stroke-width="5.0133" stroke-linecap="round" stroke-linejoin="round" stroke-miterlimit="10" d="
					M455.856,516.576c-0.553,17.819-10.48,22.729-16.793,24.035c0.625-5.038,0.978-10.352,0.978-15.982
					c0-7.57-1.025-14.869-2.844-21.815c5.791,0.087,11.961,0.512,18.17,1.554C455.807,508.405,455.984,512.491,455.856,516.576z"/>
			</g>
			<g>
				<path fill="#0095DA" stroke="#000000" stroke-width="5.0133" stroke-miterlimit="10" d="M284.664,504.367
					c6.217-1.05,12.378-1.475,18.17-1.554c2.212-8.485,5.569-16.457,9.622-23.826c-7.651-2.533-14.284-5.368-19.876-8.196
					C289.872,478.33,286.01,490.828,284.664,504.367z"/>
				
					<path fill="#FFFFFF" stroke="#000000" stroke-width="5.0133" stroke-linecap="round" stroke-linejoin="round" stroke-miterlimit="10" d="
					M284.184,516.576c0.553,17.819,10.479,22.729,16.792,24.035c-0.625-5.038-0.978-10.352-0.978-15.982
					c0-7.57,1.025-14.869,2.844-21.815c-5.792,0.087-11.953,0.512-18.17,1.554C284.232,508.405,284.064,512.491,284.184,516.576z"/>
			</g>
			<g>
				<path fill="#FFFFFF" d="M394.006,668.915c-6.65-31.148-7.21-48.66-7.226-53.276l-0.016-2.228l1.835-0.224
					c8.436-4.405,19.813-12.675,28.56-28.073l2.635-6.009l2.124,6.106c3.141,9.549,10.927,35.387,15.783,68.915l0.553,3.91
					l-3.781-1.153c-2.436-0.441-5.087-0.674-7.893-0.674c-15.726,0-23.834,7.241-27.864,13.315l-3.293,4.966L394.006,668.915z"/>
				<path d="M419.546,585.989c2.677,8.171,10.761,34.44,15.671,68.506c-0.104-0.041-0.177-0.057-0.272-0.057
					c-2.54-0.48-5.311-0.736-8.356-0.736c-16.743,0-25.516,7.748-29.955,14.437c-0.071,0.104-0.112,0.177-0.169,0.248
					c-6.545-30.659-7.162-48.021-7.177-52.764c0.064-0.017,0.112-0.047,0.184-0.096c10.992-5.592,21.904-15.167,29.875-29.178
					C419.418,586.237,419.491,586.117,419.546,585.989 M420.219,571.943l-5.199,11.89c-8.501,14.878-19.364,22.817-27.215,26.92
					l-3.55,0.432l0.017,4.454c0.016,4.679,0.593,22.4,7.298,53.798l2.244,10.528l6.617-8.501l0.128-0.177l0.208-0.319
					c3.735-5.633,11.201-12.258,25.821-12.258c2.653,0,5.145,0.216,7.411,0.657h0.057l7.258,2.233l-1.146-7.827
					c-4.871-33.729-12.706-59.733-15.862-69.347L420.219,571.943L420.219,571.943z"/>
			</g>
			<path d="M390.649,634.049c0.169,1.555,0.376,3.236,0.616,4.984c17.955-2.781,30.364-9.319,38.36-15.304
				c-0.4-1.883-0.834-3.716-1.258-5.496C421.077,624.115,408.9,631.173,390.649,634.049z"/>
			<g>
				<path fill="#C0BFBF" d="M389.295,615.623c0.023,2.54,0.192,8.629,1.354,18.427c3.356-0.521,6.513-1.193,9.477-2.003
					l-0.881-4.406c14.685-12.466,21.07-23.834,23.747-30.38c-1.466-5.088-2.692-8.924-3.446-11.279
					c-0.048,0.128-0.128,0.239-0.191,0.376c-7.979,14.012-18.875,23.586-29.883,29.186
					C389.392,615.589,389.343,615.606,389.295,615.623z"/>
			</g>
			<g>
				<path fill="#C0BFBF" d="M391.265,639.042c1.066,7.85,2.708,17.615,5.192,29.353c0.056-0.079,0.104-0.152,0.176-0.256
					c2.003-3.005,4.839-6.209,8.893-8.804l-4.438-22.297C398.011,637.815,394.759,638.521,391.265,639.042z"/>
			</g>
			<g>
				<path fill="#FFFFFF" d="M426.58,684.826c-17.081,0-34.233-3.877-34.962-4.046l-2.965-0.682l0.602-2.979
					c0.047-0.272,5.663-26.542,37.325-26.542s37.27,26.27,37.318,26.542l0.6,2.979l-2.972,0.682
					C460.807,680.949,443.661,684.826,426.58,684.826z"/>
				<path d="M426.58,653.702c29.45,0,34.25,24.027,34.25,24.027s-17.329,3.964-34.25,3.964c-16.92,0-34.257-3.964-34.257-3.964
					S397.13,653.702,426.58,653.702 M426.58,647.428c-27.359,0-38.391,19.011-40.402,29.065l-1.193,5.984l5.945,1.355
					c0.728,0.175,18.226,4.125,35.65,4.125c17.425,0,34.914-3.95,35.645-4.125l5.952-1.355l-1.202-5.984
					C464.973,666.448,453.94,647.428,426.58,647.428L426.58,647.428z"/>
			</g>
			<g>
				<path fill="#C0BFBF" d="M392.331,677.72c0,0,7.844,1.803,18.146,2.98c4.214-10.376,12.498-19.925,19.676-26.847
					c-1.161-0.096-2.355-0.152-3.589-0.152C397.122,653.702,392.331,677.72,392.331,677.72z"/>
			</g>
			<g>
				<path fill="#FFFFFF" d="M341.482,669.773l2.083-1.396l-2.227,1.194c-4.054-6.121-12.162-13.362-27.888-13.362
					c-2.804,0-5.464,0.232-7.875,0.688l-3.861,1.292l0.641-4.063c4.983-34.587,13.332-61.496,15.767-68.915l2.219-6.77l2.508,6.672
					c8.957,15.736,20.638,24.02,28.858,28.193l2.244,0.248l-0.689,2.083c-0.016,4.654-0.609,22.28-7.243,53.276l-1.234,5.802
					L341.482,669.773z"/>
				<path d="M320.492,585.989c0.056,0.128,0.128,0.248,0.193,0.368c7.979,14.012,18.875,23.586,29.882,29.186
					c0.072,0.047,0.121,0.08,0.184,0.08c-0.024,4.743-0.632,22.104-7.186,52.771c-0.048-0.071-0.096-0.152-0.176-0.248
					c-4.438-6.683-13.203-14.437-29.947-14.437c-3.028,0-5.817,0.257-8.348,0.736c-0.096,0-0.176,0.017-0.272,0.049h-0.008
					C309.74,620.429,317.817,594.16,320.492,585.989 M320.188,570.871l-4.454,13.556c-2.452,7.457-10.848,34.546-15.879,69.34
					l-1.129,7.834l7.258-2.233h0.056c2.259-0.441,4.75-0.657,7.403-0.657c14.621,0,22.08,6.634,25.781,12.192l6.585,9.936
					l2.661-11.41c6.665-31.244,7.258-49.062,7.291-53.789l0.023-4.518l-3.598-0.4c-7.851-4.111-18.714-12.051-27.119-26.792
					L320.188,570.871L320.188,570.871z"/>
			</g>
			<path d="M349.389,634.049c-0.168,1.555-0.368,3.236-0.617,4.984c-17.954-2.781-30.347-9.319-38.351-15.304
				c0.409-1.883,0.825-3.716,1.25-5.496C318.962,624.115,331.147,631.173,349.389,634.049z"/>
			<g>
				<path fill="#C0BFBF" d="M350.743,615.623c-0.023,2.54-0.191,8.629-1.354,18.427c-3.356-0.521-6.513-1.193-9.461-2.003
					l0.865-4.406c-14.685-12.466-21.07-23.834-23.73-30.38c1.45-5.088,2.676-8.924,3.429-11.279
					c0.048,0.128,0.128,0.239,0.193,0.376c7.979,14.012,18.875,23.586,29.882,29.186
					C350.648,615.589,350.696,615.606,350.743,615.623z"/>
			</g>
			<g>
				<path fill="#C0BFBF" d="M348.772,639.042c-1.057,7.85-2.708,17.615-5.191,29.353c-0.056-0.079-0.104-0.152-0.176-0.256
					c-1.995-3.005-4.839-6.209-8.893-8.804l4.438-22.297C342.027,637.815,345.28,638.521,348.772,639.042z"/>
			</g>
			<g>
				<path fill="#FFFFFF" d="M313.466,684.826c-17.081,0-34.233-3.877-34.955-4.046l-2.972-0.682l0.601-2.979
					c0.048-0.272,5.672-26.542,37.326-26.542c31.654,0,37.269,26.27,37.318,26.542l0.6,2.979l-2.964,0.682
					C347.692,680.949,330.538,684.826,313.466,684.826z"/>
				<path d="M313.466,653.702c29.45,0,34.25,24.027,34.25,24.027s-17.337,3.964-34.25,3.964c-16.928,0-34.257-3.964-34.257-3.964
					S284.015,653.702,313.466,653.702 M313.466,647.428c-27.359,0-38.399,19.011-40.402,29.065l-1.202,5.984l5.945,1.355
					c0.737,0.175,18.226,4.125,35.651,4.125c17.425,0,34.907-3.95,35.652-4.125l5.928-1.355l-1.193-5.984
					C351.85,666.448,340.825,647.428,313.466,647.428L313.466,647.428z"/>
			</g>
			<g>
				<path fill="#C0BFBF" d="M347.707,677.72c0,0-7.843,1.803-18.146,2.98c-4.214-10.376-12.498-19.925-19.676-26.847
					c1.161-0.096,2.355-0.152,3.589-0.152C342.916,653.702,347.707,677.72,347.707,677.72z"/>
			</g>
			<g>
				<path fill="#FFFFFF" d="M370.019,614.853c-28.881,0-69.556-27.991-69.556-90.225c0-18.708,5.977-37.438,17.786-55.688
					l1.49-2.293l2.636,0.698c14.726,3.909,30.756,5.896,47.644,5.896c16.897,0,32.929-1.987,47.654-5.896l2.643-0.698l1.483,2.293
					c11.801,18.267,17.777,36.997,17.777,55.688C439.575,586.862,398.909,614.853,370.019,614.853z"/>
				<g>
					<path d="M418.633,470.974c9.807,15.175,17.185,33.321,17.185,53.654c0,60.774-40.098,86.476-65.799,86.476
						c-25.684,0-65.798-25.701-65.798-86.476c0-20.341,7.378-38.479,17.184-53.654c13.444,3.582,29.579,6.025,48.614,6.025
						C389.062,477,405.205,474.548,418.633,470.974 M421.982,462.298l-5.28,1.401c-14.412,3.83-30.116,5.777-46.684,5.777
						c-16.559,0-32.27-1.947-46.675-5.777l-5.288-1.394l-2.956,4.583c-12.209,18.875-18.394,38.295-18.394,57.739
						c0,64.828,42.87,93.99,73.313,93.99c30.445,0,73.323-29.162,73.323-93.99c0-19.428-6.186-38.848-18.387-57.739L421.982,462.298
						L421.982,462.298z"/>
				</g>
			</g>
			<path fill="#0095DA" d="M375.467,476.919V610.72c-1.866,0.248-3.685,0.384-5.448,0.384c-1.745,0-3.557-0.136-5.415-0.384V476.919
				c1.786,0.056,3.597,0.08,5.415,0.08C371.845,477,373.68,476.975,375.467,476.919z"/>
			<rect x="390.496" y="510.913" fill="#0095DA" width="30.091" height="5.423"/>
			<g>
				<polygon points="351.913,518.595 352.954,518.595 352.954,510.103 355.678,510.103 355.294,509.333 355.053,508.644 
					351.913,508.644 348.757,508.644 348.516,509.333 348.116,510.103 350.887,510.103 350.887,518.595 				"/>
				<path d="M315.557,511.962c0-0.963,0.128-1.748,0.633-2.34c0.537-0.562,1.322-0.962,2.235-0.962h3.381l0.449,1.603h-2.94
					c-0.505,0-1.715,0.153-1.715,1.273v4.19c0,1.121,1.21,1.298,1.715,1.298h2.411l0.769,1.57h-4.054
					c-0.921,0-1.714-0.393-2.243-0.97c-0.513-0.601-0.633-1.353-0.633-2.315v-3.348H315.557z"/>
				<path d="M331.372,515.503c0,1.713-1.634,3.092-3.646,3.092c-2.011,0-3.645-1.379-3.645-3.092v-3.768
					c0-1.698,1.634-3.092,3.645-3.092c2.011,0,3.646,1.394,3.646,3.092V515.503z M326.1,515.678c0,1.227,1.018,1.298,1.619,1.298
					c0.593,0,1.586-0.071,1.586-1.298v-4.101c0-1.234-0.994-1.298-1.586-1.298c-0.601,0-1.619,0.063-1.619,1.298V515.678z"/>
				<rect x="344.094" y="508.644" width="2.292" height="9.951"/>
				<path d="M337.789,515.406h1.017v-4.021c0-0.817,1.538-1.313,1.538-1.313v8.533h2.139v-9.96h-3.093
					c-0.256,0-0.601,0.21-0.601,0.21l-0.993,0.769l-1.025-0.769c0,0-0.345-0.21-0.545-0.21h-3.157v9.951h2.163v-8.533
					c0,0,1.539,0.505,1.539,1.306v4.022h1.018V515.406z"/>
			</g>
			
				<path fill="#FFFFFF" stroke="#000000" stroke-width="5.0133" stroke-linecap="round" stroke-linejoin="round" stroke-miterlimit="10" d="
				M252.57,511.777l-32.927-12.105c8.492-6.328,12.041-13.436,13.347-17.031c1.779-4.896,2.86-8.959,2.46-12.563l28.746,5.89
				C264.196,475.966,273.272,498.294,252.57,511.777z"/>
			
				<path fill="#FFFFFF" stroke="#000000" stroke-width="5.0133" stroke-linecap="round" stroke-linejoin="round" stroke-miterlimit="10" d="
				M284.184,516.576c0.064,2.508,0.337,4.76,0.769,6.786l-32.375-11.585c20.694-13.482,11.625-35.811,11.625-35.811l25.044,5.166
				C286.427,491.01,283.775,503.871,284.184,516.576z"/>
			
				<path fill="#FFFFFF" stroke="#000000" stroke-width="5.0133" stroke-linecap="round" stroke-linejoin="round" stroke-miterlimit="10" d="
				M507.048,482.64c1.361,3.7,3.55,7.786,6.626,11.353c0.152,0.199,0.297,0.376,0.479,0.551c5.464,5.962,13.637,10.191,25.269,8.133
				c5.216-0.922,8.822-3.157,11.298-6.186c3.276-4.038,4.542-9.502,4.814-15.118c0.032-0.785,0.047-1.576,0.047-2.355
				c0-4.581-0.535-9.196-1.121-13.106c-0.256-1.714-0.575-3.509-1.033-5.295c-0.096-0.354-0.199-0.705-0.265-1.058h-0.032
				c-1.554-5.327-4.438-10.271-10.175-11.753c-2.675-0.706-6.031-0.624-10.175,0.521c-5.407,1.53-12.201,4.943-20.701,10.903
				c-1.955,1.379-3.484,2.731-4.614,4.136c-0.032,0.021-0.032,0.046-0.032,0.046c-1.546,1.908-2.419,3.894-2.756,6.018
				C504.069,473.234,505.174,477.479,507.048,482.64z"/>
			
				<path fill="#FFFFFF" stroke="#000000" stroke-width="5.0133" stroke-linecap="round" stroke-linejoin="round" stroke-miterlimit="10" d="
				M507.449,463.386c1.129-1.401,2.658-2.754,4.613-4.133c8.501-5.969,15.295-9.382,20.703-10.903
				c0.257-0.682,5.11-14.084,1.857-18.556c-3.356-4.613-8.379-7.322-14.636,5.417C513.922,447.574,507.818,462.482,507.449,463.386z
				"/>
			
				<path fill="#FFFFFF" stroke="#000000" stroke-width="5.0133" stroke-linecap="round" stroke-linejoin="round" stroke-miterlimit="10" d="
				M542.955,447.822c5.729,1.482,8.621,6.409,10.167,11.753h0.024c20.006-4.431,20.526-14.959,17.816-18.725
				c-2.724-3.749-7.313-5.639-12.945-2.273C552.369,441.908,542.955,447.822,542.955,447.822z"/>
			
				<path fill="#FFFFFF" stroke="#000000" stroke-width="5.0133" stroke-linecap="round" stroke-linejoin="round" stroke-miterlimit="10" d="
				M553.419,460.632c0.466,1.786,0.785,3.58,1.033,5.295c0.569,3.91,1.129,8.525,1.129,13.106
				c16.225-2.026,26.888-7.691,27.825-12.193c0.921-4.727-2.508-8.637-10.36-8.637C565.213,458.204,553.419,460.632,553.419,460.632
				z"/>
			
				<path fill="#FFFFFF" stroke="#000000" stroke-width="5.0133" stroke-linecap="round" stroke-linejoin="round" stroke-miterlimit="10" d="
				M550.711,496.499c1.955,0.193,28.281,2.9,26.727-8.845c-1.554-11.761-21.911-6.273-21.911-6.273
				C555.262,486.997,553.996,492.46,550.711,496.499z"/>
			
				<path fill="#FFFFFF" stroke="#000000" stroke-width="5.0133" stroke-linecap="round" stroke-linejoin="round" stroke-miterlimit="10" d="
				M487.469,511.777l32.926-12.105c-8.475-6.328-12.04-13.436-13.347-17.031c-1.778-4.896-2.851-8.959-2.451-12.563l-28.754,5.89
				C475.843,475.966,466.767,498.294,487.469,511.777z"/>
			
				<path fill="#FFFFFF" stroke="#000000" stroke-width="5.0133" stroke-linecap="round" stroke-linejoin="round" stroke-miterlimit="10" d="
				M455.871,516.576c-0.08,2.508-0.353,4.76-0.785,6.786l32.375-11.585c-20.693-13.482-11.625-35.811-11.625-35.811l-25.035,5.166
				C453.612,491.01,456.272,503.871,455.871,516.576z"/>
		</g>
		<g>
			<path fill="#FFFFFF" d="M474.249,447.693l2.484-4.615c2.371-4.422,3.581-9.341,3.581-14.605v-30.154
				c0-3.597-0.553-7.042-1.674-10.223l-1.458-4.166h19.748c5.288,0,11.577,2.884,11.577,16.608v30.564
				c0,13.716-6.297,16.592-11.577,16.592H474.249L474.249,447.693z"/>
			<g>
				<path d="M496.922,387.062c4.358,0,8.444,2.507,8.444,13.491v30.556c0,10.952-4.086,13.46-8.444,13.46h-17.449
					c2.516-4.662,3.958-10.022,3.958-16.088v-30.163c0-4.086-0.641-7.819-1.851-11.256H496.922 M496.922,380.797h-15.334h-8.828
					l2.916,8.332c1.01,2.885,1.498,5.889,1.498,9.189v30.154c0,4.744-1.082,9.158-3.212,13.116l-4.967,9.229h10.479h17.449
					c4.422,0,14.718-1.914,14.718-19.717v-30.548C511.64,382.719,501.344,380.797,496.922,380.797L496.922,380.797z"/>
			</g>
		</g>
		<g>
			<path fill="#FFFFFF" d="M243.116,447.693c-5.279,0-11.568-2.876-11.568-16.584v-30.556c0-13.739,6.297-16.616,11.568-16.616
				h19.773l-1.466,4.174c-1.113,3.165-1.683,6.61-1.683,10.215v30.155c0,5.256,1.21,10.166,3.581,14.604l2.484,4.624h-22.689
				V447.693z"/>
			<path d="M258.459,387.062c-1.21,3.437-1.867,7.17-1.867,11.256v30.154c0,6.066,1.466,11.435,3.958,16.089h-17.441
				c-4.35,0-8.436-2.509-8.436-13.46v-30.548c0-10.984,4.086-13.491,8.436-13.491H258.459 M267.303,380.797h-8.853h-15.342
				c-4.415,0-14.709,1.915-14.709,19.74v30.564c0,17.803,10.294,19.717,14.709,19.717h17.441h10.471l-4.943-9.229
				c-2.139-3.975-3.221-8.389-3.221-13.124v-30.146c0-3.301,0.497-6.305,1.506-9.181L267.303,380.797L267.303,380.797z"/>
		</g>
		<g>
			<path fill="#FFFFFF" d="M370.019,491.412c-56.032,0-88.591-20.727-103.02-33.063c-9.269-7.915-14.172-18.25-14.172-29.876V398.31
				c0-11.625,4.903-21.951,14.172-29.867c14.429-12.354,46.988-33.072,103.02-33.072c55.986,0,88.576,20.718,103.021,33.072
				c9.261,7.916,14.155,18.242,14.155,29.859v30.163c0,11.625-4.894,21.952-14.155,29.867
				C458.594,470.685,426.02,491.412,370.019,491.412z"/>
			<path d="M370.019,339.136c61.714,0,93.046,25.733,100.577,32.167c7.515,6.417,12.834,15.431,12.834,27.007v30.163
				c0,11.579-5.319,20.599-12.834,27.016c-7.531,6.435-38.855,32.166-100.577,32.166c-61.728,0-93.061-25.731-100.576-32.166
				c-7.515-6.417-12.851-15.437-12.851-27.016V398.31c0-11.576,5.336-20.589,12.851-27.007
				C276.973,364.87,308.299,339.136,370.019,339.136 M370.019,331.622c-57.234,0-90.642,21.287-105.463,33.969
				c-10.126,8.653-15.478,19.965-15.478,32.719v30.163c0,12.763,5.352,24.076,15.486,32.736
				c14.813,12.683,48.221,33.968,105.455,33.968c57.202,0,90.627-21.277,105.456-33.968c10.119-8.66,15.486-19.974,15.486-32.736
				V398.31c0-12.754-5.352-24.066-15.486-32.727C460.646,352.9,427.221,331.622,370.019,331.622L370.019,331.622z"/>
		</g>
		<path fill="#5D5E5E" d="M350.343,465.494c3.517,4,8.797,6.233,19.676,6.233c10.881,0,16.159-2.226,19.669-6.233H350.343z"/>
		<g>
			<path fill="#263137" d="M370.019,374.98c-38.03,0-70.613,5.64-85.202,20.574c-5.232,5.352-8.132,11.921-8.132,19.845
				c0,29.988,34.778,41.235,51.034,41.235c25.004,0,21.92-16.454,42.3-16.454c20.39,0,17.306,16.454,42.302,16.454
				c14.236,0,42.676-8.621,49.527-30.916c0.976-3.164,1.505-6.609,1.505-10.327C463.354,385.395,421.694,374.98,370.019,374.98z"/>
			<path fill="#354A55" d="M463.354,415.398c0,3.725-0.521,7.163-1.505,10.326c-31.615,2.725-79.275,3.798-120.494-7.882
				c-24.035-6.817-42.582-14.79-56.537-22.288c14.581-14.934,47.172-20.574,85.202-20.574
				C421.694,374.98,463.354,385.395,463.354,415.398z"/>
			<path fill="#00AEEF" d="M325.988,440.427c-6.217,0-11.264-5.041-11.264-11.281V401.73c0-6.225,5.047-11.28,11.264-11.28
				c6.241,0,11.28,5.055,11.28,11.28v27.416C337.268,435.386,332.229,440.427,325.988,440.427z"/>
			<path fill="#00AEEF" d="M414.051,440.427c6.217,0,11.28-5.041,11.28-11.281V401.73c0-6.225-5.063-11.28-11.28-11.28
				c-6.242,0-11.28,5.055-11.28,11.28v27.416C402.771,435.386,407.809,440.427,414.051,440.427z"/>
			<path fill="none" stroke="#000000" stroke-width="4.9223" stroke-miterlimit="10" d="M370.019,440.193
				c-20.388,0-17.305,16.457-42.3,16.457c-16.248,0-51.034-11.249-51.034-41.243c0-29.996,41.66-40.41,93.334-40.41
				c51.675,0,93.335,10.415,93.335,40.41c0,29.994-34.778,41.243-51.033,41.243C387.332,456.65,390.417,440.193,370.019,440.193z"/>
		</g>
		<g>
			<g>
				<path fill="#00AEEF" d="M370.019,385.828c-27.607,0-34.697-17.464-38.503-26.847c-0.568-1.402-1.073-2.667-1.603-3.725
					c-1.906-3.894-4.246-5.88-6.145-7.482c-2.011-1.699-4.094-3.453-4.094-6.546c0-3.5,3.629-14.934,50.344-14.934
					c46.708,0,50.337,11.433,50.337,14.934c0,3.093-2.075,4.847-4.094,6.546c-1.875,1.585-4.246,3.589-6.145,7.475
					c-0.521,1.049-1.025,2.315-1.585,3.717C404.717,368.347,397.642,385.828,370.019,385.828z"/>
				<path d="M370.019,329.426c38.84,0,47.204,8.252,47.204,11.801c0,3.557-5.848,4.334-9.918,12.642
					c-4.069,8.3-7.836,28.818-37.286,28.818c-29.45,0-33.215-20.518-37.285-28.818c-4.069-8.308-9.918-9.085-9.918-12.642
					C322.815,337.678,331.172,329.426,370.019,329.426 M370.019,323.161c-46.53,0-53.476,11.321-53.476,18.066
					c0,4.55,3.004,7.09,5.199,8.941c1.843,1.546,3.741,3.157,5.36,6.458c0.489,1.009,0.978,2.203,1.514,3.525
					c4.086,10.07,11.681,28.801,41.403,28.801c29.723,0,37.318-18.748,41.404-28.818c0.537-1.322,1.01-2.516,1.506-3.509
					c1.618-3.301,3.525-4.912,5.352-6.465c2.203-1.859,5.208-4.39,5.208-8.941C423.489,334.482,416.533,323.161,370.019,323.161
					L370.019,323.161z"/>
			</g>
			<path fill="#0095DA" d="M417.223,341.219c0,3.565-5.848,4.343-9.935,12.659c-4.053,8.3-7.819,28.825-37.27,28.825
				c-10.606,0-17.85-2.66-23.017-6.441c54.967,1.826,61.969-28.425,36.171-36.917c-19.828-6.521-43.79-4.791-55.888-3.277
				c5.769-3.333,18.138-6.642,42.733-6.642C408.875,329.426,417.223,337.694,417.223,341.219z"/>
		</g>
	</g>
</g>
</svg>
