<?xml version="1.0" encoding="utf-8"?>
<!-- Generator: Adobe Illustrator 16.0.0, SVG Export Plug-In . SVG Version: 6.00 Build 0)  -->
<!DOCTYPE svg PUBLIC "-//W3C//DTD SVG 1.1//EN" "http://www.w3.org/Graphics/SVG/1.1/DTD/svg11.dtd">
<svg version="1.1" id="Layer_1" xmlns="http://www.w3.org/2000/svg" xmlns:xlink="http://www.w3.org/1999/xlink" x="0px" y="0px"
	 width="677.18px" height="591.153px" viewBox="0 0 677.18 591.153" enable-background="new 0 0 677.18 591.153"
	 xml:space="preserve">
<g>
	<g>
		<path fill="#1D93D1" stroke="#010101" stroke-width="6.4882" stroke-miterlimit="10" d="M493.493,234.656
			c-8.042-1.364-16.022-1.916-23.518-2.014c-2.854-10.995-7.201-21.311-12.457-30.85c9.896-3.278,18.491-6.945,25.728-10.608
			C486.748,200.948,491.745,217.138,493.493,234.656z"/>
		
			<path fill="#FFFFFF" stroke="#010101" stroke-width="6.4882" stroke-linecap="round" stroke-linejoin="round" stroke-miterlimit="10" d="
			M494.112,250.456c-0.714,23.063-13.56,29.42-21.734,31.108c0.809-6.521,1.264-13.397,1.264-20.696
			c0-9.797-1.329-19.24-3.666-28.226c7.495,0.098,15.476,0.649,23.518,2.014C494.051,239.878,494.274,245.169,494.112,250.456z"/>
	</g>
	<g>
		<path fill="#1D93D1" stroke="#010101" stroke-width="6.4882" stroke-miterlimit="10" d="M272.542,234.656
			c8.045-1.364,16.021-1.916,23.518-2.014c2.854-10.995,7.203-21.311,12.459-30.85c-9.898-3.278-18.494-6.945-25.729-10.608
			C279.286,200.948,274.292,217.138,272.542,234.656z"/>
		
			<path fill="#FFFFFF" stroke="#010101" stroke-width="6.4882" stroke-linecap="round" stroke-linejoin="round" stroke-miterlimit="10" d="
			M271.924,250.456c0.711,23.063,13.559,29.42,21.734,31.108c-0.809-6.521-1.27-13.397-1.27-20.696c0-9.797,1.332-19.24,3.67-28.226
			c-7.496,0.098-15.473,0.649-23.518,2.014C271.987,239.878,271.762,245.169,271.924,250.456z"/>
	</g>
	<g>
		<path fill="#FFFFFF" d="M414.075,447.615c-8.58-40.146-9.34-62.923-9.369-68.947l-0.014-2.943l2.33-0.238
			c10.612-5.448,25.54-16.149,37.02-36.321l0.116-0.202l3.37-7.979l2.667,8.302c3.154,9.611,13.946,44.447,20.412,89.194
			l0.686,4.748l-4.559-1.104l-0.297-0.056c-3.129-0.589-6.562-0.888-10.202-0.888c-20.36,0-30.85,9.372-36.064,17.234l-0.208,0.299
			l-4.269,6.296L414.075,447.615z"/>
		<path fill="#010101" d="M447.113,340.298c3.47,10.574,13.916,44.581,20.283,88.646c-0.133-0.032-0.229-0.063-0.359-0.063
			c-3.274-0.616-6.876-0.943-10.802-0.943c-21.671,0-33.024,10.025-38.768,18.686c-0.094,0.127-0.155,0.22-0.22,0.314
			c-8.479-39.676-9.269-62.147-9.298-68.285c0.086-0.009,0.147-0.062,0.24-0.12c14.242-7.235,28.35-19.625,38.671-37.763
			C446.953,340.612,447.047,340.455,447.113,340.298 M447.877,321.814l-6.64,15.721l-0.015,0.025
			c-10.893,19.141-24.966,29.433-35.146,34.762l-4.644,0.475l0.028,5.887c0.029,6.103,0.796,29.159,9.441,69.61l3.172,14.844
			l8.537-12.551l0.035-0.052l0.041-0.06l0.098-0.132l0.089-0.135c4.775-7.2,14.438-15.783,33.36-15.783
			c3.439,0,6.67,0.279,9.602,0.831l0.271,0.051l9.082,2.202l-1.371-9.493c-6.503-45.006-17.366-80.067-20.54-89.741L447.877,321.814
			L447.877,321.814z"/>
	</g>
	<path fill="#010101" d="M409.716,402.507c0.224,2.011,0.484,4.184,0.809,6.455c23.23-3.601,39.287-12.068,49.637-19.822
		c-0.52-2.436-1.07-4.804-1.623-7.105C449.098,389.625,433.334,398.772,409.716,402.507z"/>
	<g>
		<path fill="#C0BEBE" d="M407.965,378.661c0.029,3.276,0.26,11.159,1.751,23.846c4.345-0.684,8.433-1.558,12.264-2.598
			l-1.137-5.711c19.009-16.121,27.281-30.849,30.718-39.318c-1.881-6.583-3.468-11.548-4.438-14.597
			c-0.067,0.162-0.167,0.324-0.262,0.486c-10.321,18.138-24.429,30.527-38.671,37.763
			C408.093,378.597,408.026,378.628,407.965,378.661z"/>
	</g>
	<g>
		<path fill="#C0BEBE" d="M410.524,408.962c1.365,10.153,3.505,22.804,6.714,37.987c0.067-0.097,0.13-0.197,0.229-0.326
			c2.595-3.891,6.261-8.045,11.517-11.418l-5.743-28.84C419.25,407.371,415.036,408.278,410.524,408.962z"/>
	</g>
	<g>
		<path fill="#FFFFFF" d="M456.22,468.219c-22.103,0-44.307-5.024-45.241-5.238l-3.845-0.881l0.773-3.867
			c0.069-0.344,7.345-34.35,48.313-34.35c40.969,0,48.241,34.006,48.31,34.35l0.773,3.867l-3.845,0.881
			C500.523,463.194,478.322,468.219,456.22,468.219z"/>
		<path fill="#010101" d="M456.22,427.938c38.118,0,44.333,31.09,44.333,31.09s-22.435,5.137-44.333,5.137
			s-44.336-5.137-44.336-5.137S418.103,427.938,456.22,427.938 M456.22,419.827c-22.879,0-35.879,10.082-42.755,18.539
			c-7.372,9.068-9.334,18.073-9.534,19.07l-1.547,7.736l7.69,1.76c0.952,0.219,23.59,5.342,46.146,5.342s45.19-5.123,46.144-5.342
			l7.688-1.76l-1.546-7.735c-0.199-0.997-2.16-10.003-9.532-19.071C492.099,429.909,479.1,419.827,456.22,419.827L456.22,419.827z"
			/>
	</g>
	<g>
		<path fill="#C0BEBE" d="M411.896,459.018c0,0,10.156,2.334,23.49,3.859c5.447-13.431,16.186-25.791,25.465-34.742
			c-1.493-0.133-3.047-0.197-4.641-0.197C418.093,427.938,411.896,459.018,411.896,459.018z"/>
	</g>
	<g>
		<path fill="#FFFFFF" d="M345.986,448.588l-0.064-0.084l-0.058-0.088c-5.215-7.862-15.704-17.234-36.063-17.234
			c-3.64,0-7.073,0.299-10.205,0.888l-0.307,0.056l-0.145,0.036l-0.505,0.027h-3.747l0.532-3.708
			c6.461-44.718,17.258-79.575,20.414-89.193l2.701-8.232l3.371,7.981l0.043,0.056c11.516,20.243,26.446,30.945,37.062,36.396
			l2.331,0.241l-0.015,2.939c-0.03,6.03-0.793,28.824-9.369,68.947l-1.603,7.494L345.986,448.588z"/>
		<path fill="#010101" d="M318.92,340.298c0.066,0.157,0.161,0.314,0.255,0.472c10.317,18.138,24.427,30.527,38.668,37.763
			c0.091,0.059,0.157,0.111,0.242,0.12c-0.03,6.138-0.817,28.609-9.298,68.285c-0.063-0.095-0.124-0.188-0.221-0.314
			c-5.743-8.66-17.098-18.686-38.766-18.686c-3.924,0-7.527,0.327-10.805,0.943c-0.129,0-0.229,0.031-0.357,0.063h-0.004
			C305.002,384.879,315.452,350.872,318.92,340.298 M318.156,321.813l-5.4,16.463c-3.176,9.682-14.042,44.764-20.542,89.741
			l-1.072,7.416h7.493h0.798l0.527-0.131l0.235-0.045c2.935-0.552,6.167-0.831,9.606-0.831c18.92,0,28.584,8.583,33.359,15.783
			l0.117,0.177l0.093,0.122l0.028,0.042l8.531,12.729l3.203-14.984c8.642-40.427,9.411-63.501,9.441-69.609l0.029-5.881l-4.644-0.48
			c-10.182-5.329-24.258-15.622-35.145-34.762l-0.027-0.048L318.156,321.813L318.156,321.813z"/>
	</g>
	<path fill="#010101" d="M356.321,402.507c-0.227,2.011-0.486,4.184-0.813,6.455c-23.229-3.601-39.284-12.068-49.631-19.822
		c0.516-2.436,1.067-4.804,1.62-7.105C316.938,389.625,332.701,398.772,356.321,402.507z"/>
	<g>
		<path fill="#C0BEBE" d="M358.073,378.661c-0.031,3.276-0.261,11.159-1.752,23.846c-4.349-0.684-8.436-1.558-12.264-2.598
			l1.136-5.711c-19.009-16.121-27.284-30.849-30.722-39.318c1.885-6.583,3.47-11.548,4.442-14.597
			c0.068,0.162,0.163,0.324,0.262,0.486c10.317,18.138,24.427,30.527,38.668,37.763
			C357.942,378.597,358.007,378.628,358.073,378.661z"/>
	</g>
	<g>
		<path fill="#C0BEBE" d="M355.509,408.962c-1.361,10.153-3.502,22.804-6.712,37.987c-0.068-0.097-0.133-0.197-0.229-0.326
			c-2.594-3.891-6.258-8.045-11.516-11.418l5.742-28.84C346.784,407.371,351.002,408.278,355.509,408.962z"/>
	</g>
	<g>
		<path fill="#FFFFFF" d="M309.817,468.219c-22.104,0-44.305-5.024-45.239-5.238l-3.845-0.881l0.773-3.867
			c0.069-0.344,7.345-34.35,48.311-34.35c40.97,0,48.243,34.006,48.311,34.35l0.773,3.867l-3.845,0.881
			C354.122,463.194,331.917,468.219,309.817,468.219z"/>
		<path fill="#010101" d="M309.817,427.938c38.12,0,44.334,31.09,44.334,31.09s-22.438,5.137-44.334,5.137
			c-21.9,0-44.334-5.137-44.334-5.137S271.702,427.938,309.817,427.938 M309.817,419.827c-22.878,0-35.877,10.082-42.753,18.539
			c-7.373,9.068-9.334,18.073-9.534,19.07l-1.547,7.735l7.69,1.761c0.952,0.219,23.586,5.342,46.144,5.342
			c22.554,0,45.192-5.123,46.144-5.342l7.689-1.76l-1.546-7.735c-0.199-0.997-2.16-10.003-9.532-19.071
			C345.696,429.909,332.698,419.827,309.817,419.827L309.817,419.827z"/>
	</g>
	<g>
		<path fill="#C0BEBE" d="M354.138,459.018c0,0-10.155,2.334-23.488,3.859c-5.449-13.431-16.188-25.791-25.464-34.742
			c1.49-0.133,3.049-0.197,4.637-0.197C347.942,427.938,354.138,459.018,354.138,459.018z"/>
	</g>
	<g>
		<path fill="#FFFFFF" d="M383.024,377.655c-20.141,0-42.042-10.462-58.586-27.985c-14.341-15.19-31.437-42.927-31.437-88.802
			c0-24.198,7.744-48.448,23.016-72.078l1.919-2.97l3.417,0.909c19.058,5.066,39.807,7.634,61.67,7.634
			c21.861,0,42.61-2.568,61.671-7.634l3.418-0.909l1.919,2.97c15.272,23.635,23.016,47.886,23.016,72.078
			c0,45.875-17.096,73.611-31.438,88.802C425.066,367.193,403.165,377.655,383.024,377.655z"/>
		<g>
			<path fill="#010101" d="M445.945,191.432c12.685,19.631,22.236,43.118,22.236,69.437c0,78.668-51.905,111.921-85.157,111.921
				c-33.253,0-85.157-33.253-85.157-111.921c0-26.318,9.549-49.806,22.236-69.437c17.399,4.625,38.284,7.798,62.92,7.798
				S428.544,196.057,445.945,191.432 M450.281,180.209l-6.836,1.817c-18.652,4.958-38.981,7.471-60.421,7.471
				c-21.441,0-41.77-2.514-60.42-7.471l-6.835-1.817l-3.839,5.94c-15.789,24.43-23.795,49.569-23.795,74.719
				c0,47.474,17.817,76.311,32.764,92.143c17.446,18.479,40.671,29.511,62.125,29.511s44.679-11.032,62.125-29.511
				c14.947-15.832,32.765-44.669,32.765-92.143c0-25.145-8.006-50.283-23.795-74.718L450.281,180.209L450.281,180.209z"/>
		</g>
	</g>
	<g>
		
			<path fill="#FFFFFF" stroke="#010101" stroke-width="6.4882" stroke-linecap="round" stroke-linejoin="round" stroke-miterlimit="10" d="
			M569.004,330.065c-24.041,8.921-47.561,26.244-48.113,2.726c-0.551-23.523-2.982-28.681-2.982-28.681
			s-14.338-22.938-28.421-34.874c2.595-4.508,4.382-10.608,4.64-18.78c0.52-16.871-3.081-33.936-6.846-46.846
			c18.396,9.08,56.027,33.348,64.852,82.82C552.133,286.431,593.072,321.144,569.004,330.065z"/>
		
			<path fill="#FFFFFF" stroke="#010101" stroke-width="6.4882" stroke-linecap="round" stroke-linejoin="round" stroke-miterlimit="10" d="
			M522.224,339.958c-6.554,4.119-16.547,7.882-20.665,3.763c-6.135-6.131-0.748-15.343,6.551-22.026
			c7.299-6.686,10.674-14.371,10.674-14.371c0.748,3.697,1.781,11.191,2.107,25.468C520.957,335.838,521.41,338.173,522.224,339.958
			z"/>
		
			<path fill="#FFFFFF" stroke="#010101" stroke-width="6.4882" stroke-linecap="round" stroke-linejoin="round" stroke-miterlimit="10" d="
			M545.354,376.032c-2.563,14.208-22.027,11.354-22.289,0c-0.196-7.461,1.104-22.904,1.979-32.635
			c4.282,2.725,11.584,0.518,20.276-3.179C546.129,349.562,547.137,366.203,545.354,376.032z"/>
		
			<path fill="#FFFFFF" stroke="#010101" stroke-width="6.4882" stroke-linecap="round" stroke-linejoin="round" stroke-miterlimit="10" d="
			M574.002,359.49c-3.347-4.965-7.4-13.173-10.584-20.018c-0.03-0.066-0.03-0.13-0.061-0.195c-0.91-2.174-1.754-4.185-2.531-5.871
			c2.691-1.201,5.416-2.335,8.178-3.341c1.717-0.651,3.111-1.397,4.216-2.304c4.153,5.223,12.454,16.025,15.929,22.868
			C593.885,359.94,580.488,369.156,574.002,359.49z"/>
		
			<path fill="#FFFFFF" stroke="#010101" stroke-width="6.4882" stroke-linecap="round" stroke-linejoin="round" stroke-miterlimit="10" d="
			M556.316,376.974c-6.227-2.594-8.727-19.073-10.871-36.786c4.74-2.015,9.932-4.446,15.252-6.749
			c0.746,1.688,1.65,3.698,2.66,5.839c0.03,0.065,0.03,0.129,0.061,0.195c3.084,7.492,6.588,17.191,7.498,24.655
			C572.668,378.336,562.609,379.632,556.316,376.974z"/>
		<path fill="none" stroke="#010101" stroke-width="6.4882" stroke-miterlimit="10" d="M506.715,288.137
			c0,0,9.598-27.085,32.029-37.99"/>
		
			<line fill="none" stroke="#010101" stroke-width="6.4882" stroke-miterlimit="10" x1="552.116" y1="286.413" x2="517.918" y2="304.123"/>
	</g>
	<path fill="#1D93D1" d="M390.058,199.134v173.168c-2.402,0.325-4.771,0.487-7.039,0.487c-2.271,0-4.607-0.162-7.008-0.487V199.134
		c2.302,0.065,4.637,0.096,7.008,0.096C385.385,199.229,387.753,199.199,390.058,199.134z"/>
	<g>
		<path fill="#FFFFFF" d="M517.904,161.305l3.213-5.976c3.079-5.727,4.641-12.088,4.641-18.906V97.396
			c0-4.665-0.731-9.114-2.172-13.224l-1.894-5.397h25.575c6.837,0,14.986,3.731,14.986,21.508v39.546
			c0,17.75-8.149,21.475-14.986,21.475H517.904z"/>
		<g>
			<path fill="#010101" d="M547.268,82.831c5.645,0,10.932,3.245,10.932,17.453v39.546c0,14.176-5.287,17.42-10.932,17.42h-22.579
				c3.243-6.032,5.124-12.975,5.124-20.826V97.396c0-5.287-0.842-10.121-2.4-14.565H547.268 M547.268,74.721h-19.855h-11.438
				l3.785,10.794c1.29,3.677,1.943,7.674,1.943,11.881v39.027c0,6.14-1.398,11.855-4.157,16.986l-6.425,11.951h13.568h22.579
				c7.325,0,11.636-3.533,13.962-6.497c3.418-4.355,5.08-10.581,5.08-19.033v-39.546c0-8.465-1.66-14.698-5.075-19.057
				C558.908,78.259,554.597,74.721,547.268,74.721L547.268,74.721z"/>
		</g>
	</g>
	<g>
		<path fill="#FFFFFF" d="M218.77,161.305c-6.838,0-14.989-3.726-14.989-21.475v-39.546c0-17.777,8.151-21.508,14.989-21.508h25.574
			l-1.895,5.398c-1.441,4.106-2.171,8.555-2.171,13.223v39.027c0,6.818,1.561,13.179,4.641,18.906l3.212,5.976H218.77z"/>
		<path fill="#010101" d="M238.624,82.831c-1.56,4.444-2.4,9.278-2.4,14.565v39.027c0,7.852,1.881,14.794,5.124,20.826H218.77
			c-5.646,0-10.934-3.244-10.934-17.42v-39.546c0-14.208,5.287-17.453,10.934-17.453H238.624 M250.064,74.721h-11.441H218.77
			c-7.331,0-11.642,3.538-13.968,6.506c-3.416,4.358-5.076,10.592-5.076,19.057v39.546c0,8.453,1.662,14.679,5.08,19.034
			c2.327,2.964,6.638,6.497,13.964,6.497h22.577h13.568l-6.425-11.951c-2.758-5.131-4.157-10.846-4.157-16.986V97.396
			c0-4.209,0.654-8.206,1.943-11.88L250.064,74.721L250.064,74.721z"/>
	</g>
	<g>
		<path fill="#FFFFFF" d="M383.019,217.884c-72.481,0-114.649-26.812-133.334-42.793c-11.99-10.253-18.327-23.622-18.327-38.661
			V97.39c0-15.037,6.337-28.404,18.328-38.658c18.677-15.982,60.836-42.797,133.334-42.797c72.504,0,114.658,26.814,133.333,42.798
			c11.989,10.251,18.327,23.62,18.327,38.657v39.04c0,15.039-6.338,28.408-18.329,38.661
			C497.67,191.072,455.506,217.884,383.019,217.884z"/>
		<path fill="#010101" d="M383.019,20.801c79.884,0,120.437,33.299,130.169,41.629c9.732,8.322,16.625,19.977,16.625,34.96v39.04
			c0,14.982-6.893,26.641-16.625,34.963c-9.732,8.326-50.285,41.625-130.169,41.625c-79.888,0-120.437-33.299-130.171-41.625
			c-9.731-8.322-16.624-19.98-16.624-34.963V97.39c0-14.983,6.893-26.638,16.624-34.96C262.582,54.1,303.13,20.801,383.019,20.801
			 M383.019,11.068c-74.062,0-117.311,27.547-136.499,43.967c-13.102,11.205-20.029,25.852-20.029,42.354v39.04
			c0,16.505,6.927,31.152,20.031,42.359c19.194,16.417,62.452,43.961,136.497,43.961c74.052,0,117.304-27.544,136.496-43.962
			c13.104-11.205,20.03-25.853,20.03-42.358V97.39c0-16.503-6.927-31.15-20.032-42.357
			C500.331,38.615,457.087,11.068,383.019,11.068L383.019,11.068z"/>
	</g>
	<g>
		
			<path fill="#FFFFFF" stroke="#010101" stroke-width="6.4882" stroke-linecap="round" stroke-linejoin="round" stroke-miterlimit="10" d="
			M205.663,206.529c-1.752,4.803-4.572,10.09-8.565,14.695c-0.194,0.26-0.388,0.486-0.614,0.713
			c-7.072,7.723-17.648,13.204-32.703,10.544c-6.746-1.201-11.419-4.087-14.629-8.013c-4.252-5.223-5.871-12.294-6.229-19.562
			c-0.033-1.005-0.064-2.044-0.064-3.05c0-5.938,0.715-11.906,1.461-16.965c0.322-2.209,0.744-4.543,1.325-6.846
			c0.132-0.453,0.263-0.911,0.36-1.365h0.031c2.011-6.908,5.741-13.298,13.172-15.215c3.471-0.906,7.818-0.811,13.17,0.683
			c7.008,1.979,15.799,6.391,26.797,14.11c2.531,1.787,4.51,3.536,5.967,5.354c0.033,0.035,0.033,0.066,0.033,0.066
			c2.014,2.464,3.15,5.027,3.572,7.787C209.522,194.363,208.094,199.846,205.663,206.529z"/>
		
			<path fill="#FFFFFF" stroke="#010101" stroke-width="6.4882" stroke-linecap="round" stroke-linejoin="round" stroke-miterlimit="10" d="
			M205.141,181.613c-1.457-1.817-3.436-3.566-5.967-5.354c-10.998-7.72-19.789-12.131-26.797-14.11
			c-0.322-0.878-6.618-18.23-2.401-24.007c4.347-5.97,10.836-9.473,18.946,7.008C196.772,161.142,204.657,180.444,205.141,181.613z"
			/>
		
			<path fill="#FFFFFF" stroke="#010101" stroke-width="6.4882" stroke-linecap="round" stroke-linejoin="round" stroke-miterlimit="10" d="
			M159.208,161.467c-7.431,1.917-11.161,8.307-13.172,15.215h-0.031c-25.889-5.741-26.568-19.365-23.066-24.232
			c3.535-4.867,9.473-7.299,16.771-2.953C147.008,153.812,159.208,161.467,159.208,161.467z"/>
		
			<path fill="#FFFFFF" stroke="#010101" stroke-width="6.4882" stroke-linecap="round" stroke-linejoin="round" stroke-miterlimit="10" d="
			M145.644,178.047c-0.581,2.303-1.003,4.637-1.325,6.846c-0.746,5.059-1.461,11.027-1.461,16.965
			c-20.99-2.628-34.812-9.957-36.012-15.8c-1.199-6.097,3.248-11.16,13.398-11.16C130.399,174.897,145.644,178.047,145.644,178.047z
			"/>
		
			<path fill="#FFFFFF" stroke="#010101" stroke-width="6.4882" stroke-linecap="round" stroke-linejoin="round" stroke-miterlimit="10" d="
			M149.151,224.469c-2.531,0.259-36.594,3.762-34.582-11.451c2.013-15.215,28.354-8.11,28.354-8.11
			C143.28,212.175,144.899,219.246,149.151,224.469z"/>
		
			<path fill="#FFFFFF" stroke="#010101" stroke-width="6.4882" stroke-linecap="round" stroke-linejoin="round" stroke-miterlimit="10" d="
			M231.01,244.241l-42.611-15.67c10.979-8.187,15.577-17.372,17.264-22.042c2.303-6.326,3.698-11.582,3.178-16.254l37.213,7.623
			C246.053,197.898,257.803,226.788,231.01,244.241z"/>
		
			<path fill="#FFFFFF" stroke="#010101" stroke-width="6.4882" stroke-linecap="round" stroke-linejoin="round" stroke-miterlimit="10" d="
			M271.909,250.456c0.096,3.243,0.452,6.162,1.004,8.789l-41.902-15.004c26.793-17.453,15.043-46.343,15.043-46.343l32.406,6.684
			C274.825,217.365,271.387,234.007,271.909,250.456z"/>
	</g>
	<path fill="#5E5F5F" d="M357.554,184.345c4.553,5.172,11.38,8.066,25.465,8.066c14.088,0,20.916-2.895,25.462-8.066H357.554z"/>
	<g>
		<polygon fill="#010101" points="359.672,253.065 361.034,253.065 361.034,242.075 364.558,242.075 364.04,241.09 363.738,240.204 
			359.672,240.204 355.585,240.204 355.288,241.09 354.759,242.075 358.354,242.075 358.354,253.065 		"/>
		<path fill="#010101" d="M312.622,244.472c0-1.237,0.159-2.245,0.823-3.012c0.694-0.743,1.71-1.256,2.902-1.256h4.358l0.584,2.07
			h-3.81c-0.64,0-2.217,0.196-2.217,1.656v5.428c0,1.449,1.577,1.672,2.217,1.672h3.128l0.987,2.035h-5.248
			c-1.192,0-2.208-0.501-2.902-1.252c-0.664-0.783-0.823-1.748-0.823-2.992V244.472z"/>
		<path fill="#010101" d="M333.077,249.073c0,2.208-2.101,3.992-4.717,3.992c-2.601,0-4.718-1.784-4.718-3.992v-4.872
			c0-2.202,2.117-3.997,4.718-3.997c2.616,0,4.717,1.795,4.717,3.997V249.073z M326.263,249.293c0,1.588,1.321,1.683,2.097,1.683
			s2.07-0.095,2.07-1.683v-5.312c0-1.59-1.295-1.684-2.07-1.684s-2.097,0.094-2.097,1.684V249.293z"/>
		<rect x="349.561" y="240.204" fill="#010101" width="2.959" height="12.861"/>
		<path fill="#010101" d="M341.396,248.935h1.319v-5.206c0-1.05,1.993-1.701,1.993-1.701v11.038h2.752v-12.861h-3.998
			c-0.332,0-0.778,0.265-0.778,0.265l-1.288,0.991l-1.324-0.991c0,0-0.449-0.265-0.715-0.265h-4.064v12.861h2.786v-11.038
			c0,0,1.994,0.651,1.994,1.701v5.206H341.396z"/>
	</g>
	<rect x="405.917" y="243.124" fill="#1D93D1" width="38.958" height="7.022"/>
	<path fill="#F16824" d="M4.426,352.808c2.703,5.469,9.267,12.853,19.865,22.697c31.412,29.211,123.353,109.842,226.828,143.784
		c103.476,33.943,167.737,49.432,282.087,49.432c114.35,0,120.123-12.351,136.258-27.509c0.461-0.436,0.883-0.857,1.277-1.28
		c-142.229-102.803-299.669-140.37-428.085-164.65C152.336,358.212,50.233,353.887,4.426,352.808z"/>
	<path fill="#EC2227" d="M4.426,352.808c45.807,1.079,147.91,5.404,238.23,22.474c128.417,24.28,285.857,61.848,428.085,164.65
		c7.619-8.146,2.927-14.644-17.584-32.506c-21.578-18.783-146.869-93.918-290.983-125.989
		c-144.115-32.084-249.779-43.34-329.975-42.84C8.75,338.74-0.9,342.064,4.426,352.808z"/>
	<g>
		<path fill="#231F20" d="M37.309,338.581c79.563-0.001,183.786,11.447,324.866,42.855
			c144.114,32.071,269.405,107.206,290.983,125.989c20.511,17.862,25.203,24.36,17.584,32.506c-0.395,0.423-0.816,0.845-1.277,1.28
			c-16.135,15.158-21.908,27.509-136.258,27.509c-114.351,0-178.611-15.488-282.087-49.432
			C147.644,485.347,55.704,404.716,24.292,375.505c-10.599-9.845-17.162-17.229-19.865-22.697
			C-0.9,342.064,8.75,338.74,32.2,338.597C33.888,338.586,35.598,338.581,37.309,338.581 M37.318,335.581v3l-0.004-3
			c-1.723,0-3.438,0.005-5.133,0.016c-18.724,0.114-27.682,2.305-30.919,7.558c-1.828,2.966-1.667,6.662,0.476,10.985
			c2.812,5.688,9.33,13.177,20.512,23.563c18.843,17.522,49.183,43.957,86.705,70.373c48.952,34.462,96.469,59.381,141.23,74.063
			c50.371,16.523,93.004,29.23,137.348,37.543c44.418,8.325,89.346,12.038,145.675,12.038c108.946,0,120.718-11.363,135.622-25.75
			c0.878-0.847,1.767-1.705,2.689-2.572c0.523-0.494,0.985-0.957,1.417-1.421c3.06-3.27,4.404-6.373,4.231-9.761
			c-0.358-6.996-7.392-14.298-22.039-27.054c-10.018-8.72-46.08-32.3-100.205-58.45c-44.56-21.529-114.058-50.838-192.097-68.205
			c-67.289-14.98-129.791-26.168-185.769-33.253C126.336,338.836,79.321,335.581,37.318,335.581L37.318,335.581z"/>
	</g>
	<path fill="#EC2227" d="M565.937,525.115c-0.106,4.72,9.451,16.807,26.481,26.469c17.018,9.663,24.492,10.98,28.34,7.909
		c1.502-1.199,2.49-2.662,2.756-4.258c-6.697-2.807-16.187-7.5-26.377-14.855c-12.51-9.028-17.623-17.229-19.654-21.894
		c-0.936-0.159-1.885-0.329-2.859-0.515C568.031,516.759,566.055,520.384,565.937,525.115z"/>
	<path fill="#EF5125" d="M577.482,518.486c2.031,4.665,7.145,12.865,19.654,21.894c10.19,7.355,19.68,12.049,26.377,14.855
		c0.447-2.464-0.804-5.231-4.402-7.829c-5.933-4.284-9.451-8.45-10.335-15.159c-0.79-6.063-0.435-7.79-11.415-9.991
		C588.002,520.384,582.874,519.475,577.482,518.486z"/>
	<path fill="#EC2227" d="M533.645,546.961c-0.119,5.438,10.584,19.368,29.659,30.503c19.061,11.135,27.431,12.653,31.741,9.113
		c1.683-1.382,2.79-3.066,3.086-4.907c-7.5-3.233-18.129-8.643-29.541-17.117c-14.012-10.406-19.739-19.855-22.014-25.233
		c-1.048-0.183-2.109-0.381-3.203-0.592C535.992,537.329,533.777,541.505,533.645,546.961z"/>
	<path fill="#EF5125" d="M546.576,539.319c2.274,5.378,8.002,14.827,22.014,25.233c11.412,8.475,22.041,13.884,29.541,17.117
		c0.502-2.839-0.9-6.029-4.93-9.021c-6.646-4.938-10.588-9.739-11.576-17.471c-0.885-6.987-0.486-8.978-12.785-11.517
		C558.358,541.505,552.613,540.457,546.576,539.319z"/>
	<g>
		<path fill="#231F20" d="M572.246,517.735c0.717,0,1.506,0.076,2.377,0.236c0.975,0.186,1.924,0.355,2.859,0.515
			c5.392,0.988,10.52,1.897,19.879,3.77c10.98,2.201,10.625,3.929,11.415,9.991c0.884,6.709,4.402,10.875,10.335,15.159
			c3.599,2.598,4.85,5.365,4.402,7.829c-0.266,1.596-1.254,3.059-2.756,4.258c-1.183,0.943-2.708,1.474-4.747,1.474
			c-4.597,0-11.805-2.689-23.593-9.383c-17.03-9.662-26.588-21.749-26.481-26.469C566.039,521.009,567.542,517.736,572.246,517.735
			 M572.247,514.735L572.247,514.735c-2.723,0.001-9.077,1.005-9.31,10.305c-0.143,6.304,10.522,19.237,28,29.153
			c11.903,6.759,19.636,9.773,25.073,9.773c2.622,0,4.85-0.717,6.618-2.129c2.133-1.703,3.462-3.815,3.844-6.11
			c0.397-2.188,0.209-6.557-5.605-10.754c-5.952-4.298-8.423-7.854-9.116-13.118l-0.111-0.871c-0.369-2.953-0.689-5.505-2.921-7.591
			c-1.905-1.782-4.823-2.888-10.768-4.079c-8.077-1.615-12.955-2.506-17.673-3.367l-2.255-0.412
			c-0.954-0.162-1.885-0.329-2.839-0.511C574.136,514.832,573.154,514.735,572.247,514.735L572.247,514.735z"/>
	</g>
	<g>
		<path fill="#231F20" d="M540.71,538.455c0.803,0,1.688,0.088,2.663,0.272c1.094,0.211,2.155,0.409,3.203,0.592
			c6.037,1.138,11.782,2.186,22.264,4.343c12.299,2.539,11.9,4.529,12.785,11.517c0.988,7.731,4.931,12.532,11.576,17.471
			c4.029,2.991,5.432,6.182,4.93,9.021c-0.296,1.841-1.403,3.525-3.086,4.907c-1.325,1.088-3.033,1.698-5.317,1.698
			c-5.148,0-13.221-3.099-26.424-10.812c-19.075-11.135-29.778-25.065-29.659-30.503C533.76,542.227,535.443,538.456,540.71,538.455
			 M540.711,535.455L540.711,535.455c-2.943,0-9.814,1.114-10.065,11.433c-0.156,7.12,11.708,21.82,31.146,33.167
			c13.284,7.76,21.899,11.221,27.937,11.221c2.869,0,5.299-0.801,7.222-2.38c2.306-1.894,3.738-4.228,4.144-6.749
			c0.426-2.406,0.21-7.219-6.104-11.906c-6.777-5.036-9.594-9.222-10.389-15.442l-0.124-1.007
			c-0.94-7.724-2.313-10.441-15.03-13.067c-9.071-1.866-14.544-2.894-19.836-3.887l-2.479-0.466
			c-1.071-0.187-2.115-0.382-3.19-0.589C542.794,535.564,541.711,535.455,540.711,535.455L540.711,535.455z"/>
	</g>
	<g>
		<path fill="#231F20" d="M496.949,503.632c0.803,0,1.687,0.088,2.662,0.272c1.094,0.214,2.155,0.409,3.203,0.592
			c6.039,1.141,11.783,2.188,22.265,4.346c12.298,2.536,11.899,4.526,12.785,11.514c0.989,7.733,4.931,12.535,11.575,17.471
			c4.03,2.991,5.432,6.184,4.93,9.023c-0.296,1.838-1.402,3.524-3.085,4.907c-1.325,1.088-3.033,1.698-5.317,1.698
			c-5.147,0-13.221-3.1-26.424-10.813c-19.075-11.135-29.779-25.065-29.66-30.505C489.998,507.405,491.683,503.633,496.949,503.632
			 M496.95,500.632L496.95,500.632c-2.943,0-9.815,1.115-10.066,11.433c-0.156,7.121,11.708,21.822,31.146,33.169
			c13.284,7.761,21.9,11.222,27.937,11.222c2.869,0,5.298-0.801,7.221-2.38c2.306-1.894,3.737-4.228,4.144-6.749
			c0.426-2.407,0.211-7.223-6.104-11.909c-6.775-5.033-9.592-9.219-10.388-15.442l-0.124-1.008
			c-0.941-7.724-2.314-10.44-15.031-13.063c-8.979-1.848-14.419-2.87-19.679-3.859l-2.635-0.496
			c-1.114-0.194-2.143-0.384-3.184-0.588C499.033,500.741,497.95,500.632,496.95,500.632L496.95,500.632z"/>
	</g>
	<path fill="#EC2227" d="M489.883,512.138c-0.119,5.439,10.585,19.37,29.66,30.505c19.061,11.135,27.43,12.654,31.741,9.114
		c1.683-1.383,2.789-3.069,3.085-4.907c-7.499-3.236-18.128-8.643-29.541-17.12c-14.011-10.406-19.738-19.855-22.014-25.233
		c-1.048-0.183-2.109-0.378-3.203-0.592C492.23,502.506,490.016,506.685,489.883,512.138z"/>
	<path fill="#EF5125" d="M502.814,504.496c2.275,5.378,8.003,14.827,22.014,25.233c11.413,8.478,22.042,13.884,29.541,17.12
		c0.502-2.84-0.899-6.032-4.93-9.023c-6.645-4.936-10.586-9.737-11.575-17.471c-0.886-6.987-0.487-8.978-12.785-11.514
		C514.598,506.685,508.854,505.637,502.814,504.496z"/>
	<g>
		<path fill="#273137" d="M383.019,67.202c-49.213,0-91.399,7.294-110.268,26.617c-6.775,6.935-10.533,15.429-10.533,25.686
			c0,38.819,45.021,53.376,66.055,53.376c32.354,0,28.362-21.298,54.747-21.298c26.398,0,22.404,21.298,54.758,21.298
			c18.421,0,55.233-11.158,64.101-40.008c1.264-4.099,1.955-8.547,1.955-13.368C503.832,80.676,449.911,67.202,383.019,67.202z"/>
		<path fill="#364B55" d="M503.832,119.505c0,4.821-0.691,9.27-1.955,13.368c-40.912,3.525-102.601,4.916-155.956-10.204
			c-31.114-8.822-55.12-19.144-73.17-28.85c18.869-19.323,61.055-26.617,110.268-26.617
			C449.911,67.202,503.832,80.676,503.832,119.505z"/>
		<path fill="#29ABE2" d="M326.043,151.896c-8.064,0-14.599-6.535-14.599-14.6v-35.479c0-8.063,6.534-14.602,14.599-14.602
			c8.062,0,14.597,6.539,14.597,14.602v35.479C340.641,145.36,334.105,151.896,326.043,151.896z"/>
		<path fill="#29ABE2" d="M439.993,151.896c8.061,0,14.598-6.535,14.598-14.6v-35.479c0-8.063-6.537-14.602-14.598-14.602
			c-8.063,0-14.598,6.539-14.598,14.602v35.479C425.396,145.36,431.93,151.896,439.993,151.896z"/>
		<path fill="none" stroke="#010101" stroke-width="6.3708" stroke-miterlimit="10" d="M383.019,151.584
			c-26.395,0-22.402,21.301-54.755,21.301c-21.028,0-66.05-14.559-66.05-53.382S316.132,67.2,383.019,67.2
			c66.888,0,120.808,13.479,120.808,52.303s-45.023,53.382-66.052,53.382C405.423,172.885,409.414,151.584,383.019,151.584z"/>
	</g>
	<g>
		<g>
			<path fill="#29ABE2" d="M383.019,81.225c-35.738,0-44.908-22.614-49.834-34.763c-0.761-1.878-1.419-3.501-2.063-4.813
				c-2.468-5.03-5.514-7.602-7.961-9.669c-2.604-2.199-5.296-4.473-5.296-8.475c0-4.534,4.699-19.329,65.154-19.329
				c60.452,0,65.149,14.794,65.149,19.329c0,4.001-2.69,6.275-5.294,8.474c-2.445,2.067-5.49,4.639-7.957,9.669
				c-0.643,1.312-1.3,2.932-2.062,4.809C427.929,58.608,418.758,81.225,383.019,81.225z"/>
			<path fill="#010101" d="M383.019,8.232c50.282,0,61.095,10.681,61.095,15.273c0,4.598-7.567,5.612-12.837,16.357
				c-5.271,10.746-10.142,37.307-48.258,37.307c-38.119,0-42.984-26.561-48.256-37.307c-5.271-10.745-12.843-11.76-12.843-16.357
				C321.919,18.913,332.735,8.232,383.019,8.232 M383.019,0.122c-22.851,0-40.399,2.152-52.159,6.396
				c-14.835,5.354-17.05,12.941-17.05,16.988c0,5.885,3.893,9.172,6.735,11.573c2.381,2.011,4.843,4.09,6.937,8.357
				c0.581,1.183,1.213,2.744,1.946,4.55c2.707,6.674,6.413,15.815,14.424,23.529c9.485,9.134,22.663,13.765,39.168,13.765
				c16.506,0,29.685-4.632,39.17-13.768c8.012-7.715,11.719-16.856,14.425-23.531c0.732-1.806,1.364-3.365,1.944-4.547
				c2.093-4.267,4.554-6.346,6.934-8.357c2.842-2.4,6.732-5.688,6.732-11.572c0-4.046-2.215-11.634-17.049-16.987
				C423.417,2.274,405.868,0.122,383.019,0.122L383.019,0.122z"/>
		</g>
		<path fill="#1D93D1" d="M444.11,23.496c0,4.607-7.563,5.613-12.851,16.382c-5.254,10.739-10.12,37.308-48.238,37.308
			c-13.722,0-23.099-3.439-29.78-8.336c71.14,2.368,80.194-36.787,46.813-47.787c-25.664-8.434-56.675-6.194-72.344-4.249
			c7.463-4.313,23.488-8.596,55.312-8.596C433.305,8.218,444.11,18.92,444.11,23.496z"/>
	</g>
</g>
</svg>
